<svg width="30" height="30" viewBox="0 0 30 30" fill="none" xmlns="http://www.w3.org/2000/svg">
<path d="M15 0C6.72 0 0 6.72 0 15C0 23.28 6.72 30 15 30C23.28 30 30 23.28 30 15C30 6.72 23.28 0 15 0Z" fill="#0077B5"/>
<path d="M23.3281 22.078C22.3437 22.0546 21.3828 22.0546 20.3984 22.078C20.1875 22.078 20.1406 22.0311 20.1406 21.8202C20.1406 20.0858 20.1406 18.328 20.1406 16.5936C20.1406 16.1952 20.1172 15.7967 20 15.4217C19.6484 14.203 18.2422 13.7577 17.2344 14.578C16.6953 14.9999 16.4844 15.5858 16.4844 16.2889C16.4844 17.9296 16.4844 19.5702 16.4844 21.2108C16.4844 21.4217 16.4609 21.6327 16.4844 21.8671C16.5078 22.0546 16.4141 22.1014 16.25 22.078C15.2422 22.078 14.2578 22.078 13.25 22.078C13.0625 22.078 13.0156 22.0311 13.0156 21.8436C13.0391 20.3671 13.0391 18.8905 13.0391 17.3905C13.0391 15.5624 13.0391 13.7342 13.0156 11.9296C13.0156 11.7186 13.0625 11.6717 13.25 11.6717C14.2578 11.6717 15.2422 11.6717 16.25 11.6717C16.4375 11.6717 16.4844 11.7186 16.4844 11.9061C16.4844 12.2811 16.4844 12.6561 16.4844 13.1014C16.5547 13.0311 16.5781 13.0077 16.6016 12.9842C17.5156 11.6483 18.8047 11.2733 20.3281 11.5077C22.0859 11.7889 23.2109 13.0077 23.4922 14.8827C23.5625 15.328 23.5859 15.7733 23.5859 16.2186C23.5859 18.0936 23.5859 19.9452 23.5859 21.8202C23.5859 22.0077 23.5391 22.078 23.3281 22.078Z" fill="#FEFEFE"/>
<path d="M11.1406 16.875C11.1406 18.5156 11.1406 20.1562 11.1406 21.7969C11.1406 22.0078 11.0938 22.0781 10.8828 22.0781C9.89844 22.0547 8.91406 22.0781 7.92969 22.0781C7.74219 22.0781 7.69531 22.0312 7.69531 21.8437C7.69531 18.5391 7.69531 15.2109 7.69531 11.9062C7.69531 11.7422 7.74219 11.6719 7.92969 11.6719C8.9375 11.6719 9.94531 11.6719 10.9531 11.6719C11.1641 11.6719 11.1875 11.7422 11.1875 11.9297C11.1406 13.5703 11.1406 15.2109 11.1406 16.875Z" fill="#FEFEFE"/>
<path d="M11.3051 8.95308C11.0708 9.89058 10.1098 10.4296 9.00827 10.2421C7.83639 10.0546 7.18014 8.9062 7.60202 7.7812C7.88327 7.07808 8.56295 6.6562 9.43014 6.67964C10.7426 6.6562 11.6098 7.71089 11.3051 8.95308Z" fill="#FEFEFE"/>
</svg>
