<svg width="30" height="30" viewBox="0 0 30 30" fill="none" xmlns="http://www.w3.org/2000/svg">
<path d="M15 30C23.2843 30 30 23.2843 30 15C30 6.71573 23.2843 0 15 0C6.71573 0 0 6.71573 0 15C0 23.2843 6.71573 30 15 30Z" fill="#00AFF0"/>
<path d="M23.7113 16.5613C23.7054 16.5943 23.7013 16.6275 23.695 16.6605L23.6629 16.4717C23.6805 16.5011 23.695 16.5316 23.7113 16.5613C23.8081 16.0346 23.8589 15.4953 23.8589 14.9564C23.8589 13.7612 23.6249 12.6017 23.1626 11.5102C22.7166 10.4557 22.0785 9.50881 21.2649 8.6958C20.4525 7.88279 19.505 7.24468 18.4511 6.79868C17.3599 6.33695 16.2004 6.10296 15.0052 6.10296C14.4419 6.10296 13.8777 6.15581 13.3287 6.26123C13.3275 6.26152 13.326 6.26152 13.3245 6.26182C13.3554 6.27815 13.3866 6.2927 13.4169 6.30963L13.2307 6.28053C13.2619 6.27459 13.2934 6.26806 13.3245 6.26182C12.5712 5.86125 11.7241 5.64746 10.8665 5.64746C9.46646 5.64746 8.15014 6.19263 7.16016 7.18291C6.17047 8.1729 5.625 9.48921 5.625 10.8893C5.625 11.7804 5.85423 12.6563 6.28449 13.4304C6.29014 13.3984 6.294 13.366 6.30023 13.3339L6.3323 13.5195C6.31567 13.4904 6.30112 13.4601 6.28449 13.4304C6.19719 13.932 6.15117 14.4445 6.15117 14.9564C6.15117 16.1519 6.38516 17.3111 6.84748 18.4029C7.29289 19.4576 7.9313 20.404 8.74401 21.217C9.55762 22.03 10.5039 22.669 11.559 23.1138C12.6502 23.5764 13.81 23.8107 15.0052 23.8107C15.5254 23.8107 16.0468 23.7632 16.5558 23.6729C16.5261 23.6563 16.4958 23.6412 16.4655 23.6236L16.6547 23.6569C16.622 23.6631 16.5891 23.667 16.5558 23.6729C17.34 24.1166 18.2278 24.3523 19.1344 24.3523C20.5341 24.3523 21.8499 23.808 22.8398 22.8175C23.8301 21.8281 24.375 20.5115 24.375 19.1114C24.375 18.2173 24.1446 17.3384 23.7113 16.5613ZM15.0405 20.3787C11.8951 20.3787 10.4879 18.8323 10.4879 17.6734C10.4879 17.0789 10.9268 16.6623 11.5316 16.6623C12.8777 16.6623 12.5291 18.595 15.0405 18.595C16.3263 18.595 17.0362 17.8969 17.0362 17.1825C17.0362 16.7529 16.8242 16.2766 15.9777 16.0678L13.1799 15.3694C10.9268 14.8044 10.5179 13.5863 10.5179 12.4413C10.5179 10.0641 12.7562 9.17149 14.8582 9.17149C16.7945 9.17149 19.0771 10.2416 19.0771 11.6678C19.0771 12.2789 18.5479 12.6344 17.9434 12.6344C16.7945 12.6344 17.0059 11.0443 14.6919 11.0443C13.5437 11.0443 12.9076 11.5642 12.9076 12.3083C12.9076 13.051 13.8145 13.2882 14.602 13.4676L16.6728 13.9272C18.9411 14.4326 19.5162 15.7569 19.5162 17.0044C19.5162 18.9362 18.0333 20.3787 15.0405 20.3787ZM16.4655 23.6236C16.4958 23.6412 16.5261 23.6563 16.5558 23.6729C16.5891 23.667 16.622 23.6631 16.6547 23.6569L16.4655 23.6236ZM23.695 16.6605C23.7013 16.6275 23.7054 16.5943 23.7113 16.5613C23.695 16.5316 23.6805 16.5011 23.6629 16.4717L23.695 16.6605ZM6.30023 13.3339C6.294 13.366 6.29014 13.3984 6.28449 13.4304C6.30112 13.4601 6.31567 13.4904 6.3323 13.5195L6.30023 13.3339ZM13.4169 6.30963C13.3866 6.2927 13.3554 6.27815 13.3245 6.26182C13.2934 6.26806 13.2619 6.27459 13.2307 6.28053L13.4169 6.30963Z" fill="#FEFEFE"/>
</svg>
