<svg width="30" height="30" viewBox="0 0 30 30" fill="none" xmlns="http://www.w3.org/2000/svg">
<path d="M15 0C6.72656 0 0 6.72656 0 15C0 23.2734 6.72656 30 15 30C23.2734 30 30 23.2734 30 15C30 6.72656 23.2734 0 15 0Z" fill="#419FD9"/>
<path fill-rule="evenodd" clip-rule="evenodd" d="M18.3352 22.4277C19.3836 22.8864 19.7768 21.9253 19.7768 21.9253L22.5508 7.98972C22.5289 7.05049 21.2621 7.61839 21.2621 7.61839L5.732 13.7125C5.732 13.7125 4.98935 13.9746 5.05488 14.4333C5.1204 14.892 5.71015 15.1104 5.71015 15.1104L9.61998 16.421C9.61998 16.421 10.7995 20.2871 11.0397 21.0297C11.2582 21.7505 11.4548 21.7724 11.4548 21.7724C11.6732 21.8598 11.8698 21.7069 11.8698 21.7069L14.4035 19.4134L18.3352 22.4277ZM19.0122 10.4581C19.0122 10.4581 19.5583 10.1304 19.5364 10.4581C19.5364 10.4581 19.6238 10.5018 19.3398 10.8075C19.0777 11.0697 12.8963 16.6177 12.0663 17.3603C12.0007 17.404 11.957 17.4695 11.957 17.5569L11.7168 19.6101C11.6731 19.8285 11.3891 19.8504 11.3236 19.6538L10.297 16.29C10.2533 16.159 10.297 16.0061 10.4281 15.9187L19.0122 10.4581Z" fill="#FEFEFE"/>
</svg>
