<svg width="30" height="30" viewBox="0 0 30 30" fill="none" xmlns="http://www.w3.org/2000/svg">
<path d="M15 0C6.72656 0 0 6.72656 0 15C0 23.2734 6.72656 30 15 30C23.2734 30 30 23.2734 30 15C30 6.72656 23.2734 0 15 0Z" fill="#675DA9"/>
<path d="M22.3462 7.61534C21.8501 7.15917 19.8413 5.69864 15.3637 5.67863C15.3637 5.67863 10.0858 5.35851 7.51282 7.71938C6.08029 9.1519 5.57611 11.2447 5.52409 13.8456C5.47207 16.4426 5.40405 21.3123 10.0978 22.6328H10.1018L10.0978 24.6456C10.0978 24.6456 10.0698 25.4619 10.606 25.6259C11.2542 25.826 11.6383 25.2058 12.2586 24.5375C12.5987 24.1694 13.0668 23.6332 13.423 23.221C16.6322 23.4891 19.1011 22.8729 19.3812 22.7809C20.0294 22.5688 23.6987 22.1006 24.295 17.2309C24.9112 12.221 23.9948 9.04786 22.3462 7.61534ZM22.8904 16.8787C22.3863 20.9442 19.4132 21.2003 18.865 21.3764C18.6329 21.4524 16.4641 21.9926 13.7351 21.8125C13.7351 21.8125 11.7024 24.2654 11.0701 24.9017C10.9701 25.0017 10.854 25.0417 10.778 25.0217C10.67 24.9937 10.638 24.8657 10.642 24.6776C10.642 24.4055 10.658 21.3284 10.658 21.3284C10.654 21.3284 10.654 21.3284 10.658 21.3284C6.68451 20.228 6.9166 16.0824 6.96062 13.9136C7.00463 11.7449 7.41278 9.9642 8.62523 8.76776C10.798 6.79904 15.2837 7.09115 15.2837 7.09115C19.069 7.10715 20.8817 8.24757 21.3019 8.62771C22.6984 9.82815 23.4106 12.6892 22.8904 16.8787Z" fill="#FEFEFE"/>
<path d="M17.2084 13.9892C17.0764 13.9892 16.9643 13.8852 16.9563 13.7491C16.9123 12.8888 16.5082 12.4686 15.6839 12.4246C15.5438 12.4166 15.4358 12.2966 15.4438 12.1565C15.4518 12.0165 15.5718 11.9084 15.7119 11.9164C16.8003 11.9765 17.4085 12.6007 17.4645 13.7211C17.4725 13.8611 17.3645 13.9812 17.2244 13.9852C17.2164 13.9892 17.2124 13.9892 17.2084 13.9892Z" fill="#FEFEFE"/>
<path d="M18.5048 14.4219H18.5008C18.3607 14.4179 18.2487 14.3019 18.2527 14.1618C18.2727 13.2975 18.0246 12.5973 17.4964 12.021C16.9722 11.4448 16.248 11.1327 15.2916 11.0647C15.1516 11.0527 15.0475 10.9326 15.0595 10.7926C15.0715 10.6525 15.1916 10.5485 15.3316 10.5605C16.412 10.6405 17.2643 11.0167 17.8726 11.6809C18.4848 12.3492 18.7809 13.1855 18.7609 14.1738C18.7569 14.3139 18.6408 14.4219 18.5048 14.4219Z" fill="#FEFEFE"/>
<path d="M19.8332 14.9423C19.6932 14.9423 19.5811 14.8303 19.5811 14.6902C19.5691 13.1417 19.125 11.9612 18.2206 11.0769C17.3283 10.2046 16.1959 9.76042 14.8634 9.74842C14.7234 9.74842 14.6113 9.63238 14.6113 9.49233C14.6113 9.35228 14.7274 9.24023 14.8634 9.24023C16.332 9.25224 17.5804 9.74442 18.5688 10.7128C19.5611 11.6811 20.0693 13.0176 20.0853 14.6822C20.0893 14.8263 19.9773 14.9423 19.8332 14.9423C19.8372 14.9423 19.8372 14.9423 19.8332 14.9423Z" fill="#FEFEFE"/>
<path d="M15.7437 17.1224C15.7437 17.1224 16.0998 17.1545 16.2919 16.9184L16.664 16.4502C16.8441 16.2181 17.2802 16.0701 17.7044 16.3061C17.9405 16.4382 18.3686 16.7023 18.6327 16.8984C18.9168 17.1064 19.493 17.5866 19.497 17.5906C19.7731 17.8227 19.8372 18.1628 19.6491 18.527C19.6491 18.527 19.6491 18.531 19.6491 18.535C19.457 18.8751 19.1969 19.1952 18.8728 19.4913C18.8688 19.4913 18.8688 19.4953 18.8648 19.4953C18.5967 19.7194 18.3326 19.8474 18.0765 19.8755C18.0445 19.8835 18.0085 19.8835 17.9605 19.8835C17.8484 19.8835 17.7364 19.8674 17.6244 19.8314L17.6164 19.8194C17.2162 19.7074 16.552 19.4273 15.4476 18.8151C14.7273 18.4189 14.1311 18.0148 13.6229 17.6106C13.3548 17.3985 13.0827 17.1625 12.8026 16.8824C12.7946 16.8744 12.7826 16.8623 12.7746 16.8543C12.7666 16.8463 12.7546 16.8343 12.7466 16.8263C12.7386 16.8183 12.7266 16.8063 12.7186 16.7983C12.7106 16.7903 12.6986 16.7783 12.6906 16.7703C12.4145 16.4902 12.1744 16.2181 11.9623 15.95C11.5581 15.4458 11.154 14.8456 10.7578 14.1253C10.1456 13.0169 9.86552 12.3527 9.75348 11.9566L9.74147 11.9486C9.70546 11.8365 9.68945 11.7245 9.68945 11.6124C9.68945 11.5644 9.68945 11.5284 9.69746 11.4964C9.72947 11.2363 9.85751 10.9762 10.0776 10.7081C10.0776 10.7041 10.0816 10.7041 10.0816 10.7001C10.3777 10.372 10.6978 10.1159 11.0379 9.92381C11.0379 9.92381 11.0419 9.92381 11.0459 9.92381C11.4061 9.73574 11.7462 9.79976 11.9823 10.0759C11.9823 10.0759 12.4665 10.6561 12.6745 10.9402C12.8706 11.2083 13.1347 11.6324 13.2668 11.8685C13.5028 12.2927 13.3548 12.7288 13.1227 12.9089L12.6545 13.281C12.4185 13.4731 12.4505 13.8292 12.4505 13.8292C12.4505 13.8292 13.1427 16.4622 15.7437 17.1224Z" fill="#FEFEFE"/>
</svg>
