<svg width="30" height="30" viewBox="0 0 30 30" fill="none" xmlns="http://www.w3.org/2000/svg">
<path d="M15 0C6.72 0 0 6.72 0 15C0 23.28 6.72 30 15 30C23.28 30 30 23.28 30 15C30 6.72 23.28 0 15 0Z" fill="#5181B8"/>
<path fill-rule="evenodd" clip-rule="evenodd" d="M24.5411 10.3335C24.6802 9.87 24.5411 9.5293 23.8794 9.5293H21.6914C21.135 9.5293 20.8787 9.82358 20.7396 10.1482C20.7396 10.1482 19.6269 12.8602 18.0505 14.6219C17.5406 15.1319 17.3088 15.2939 17.0306 15.2939C16.8915 15.2939 16.6902 15.1319 16.6902 14.6683V10.3335C16.6902 9.77717 16.5288 9.5293 16.0651 9.5293H12.6268C12.2792 9.5293 12.0701 9.78748 12.0701 10.0322C12.0701 10.5597 12.8581 10.6813 12.9394 12.1648V15.3869C12.9394 16.0933 12.8118 16.2215 12.5336 16.2215C11.7919 16.2215 9.98773 13.4971 8.91748 10.38C8.70774 9.77404 8.49738 9.5293 7.93819 9.5293H5.75018C5.12503 9.5293 5 9.82358 5 10.1482C5 10.7277 5.74189 13.6021 8.45393 17.4036C10.2622 19.9996 12.8093 21.4071 15.1274 21.4071C16.5183 21.4071 16.6902 21.0945 16.6902 20.5561V18.5939C16.6902 17.9688 16.822 17.8441 17.2622 17.8441C17.587 17.8441 18.1432 18.0063 19.4415 19.258C20.925 20.7413 21.1694 21.4071 22.004 21.4071H24.192C24.8171 21.4071 25.1297 21.0945 24.9493 20.4776C24.7521 19.8628 24.0438 18.971 23.1039 17.9136C22.594 17.3108 21.8289 16.6617 21.5973 16.3373C21.2727 15.92 21.3654 15.7347 21.5973 15.3639C21.5973 15.3639 24.2629 11.6087 24.5411 10.3337V10.3335Z" fill="#FEFEFE"/>
</svg>
