<svg width="30" height="30" viewBox="0 0 30 30" fill="none" xmlns="http://www.w3.org/2000/svg">
<path d="M15 0C6.72 0 0 6.72 0 15C0 23.28 6.72 30 15 30C23.28 30 30 23.28 30 15C30 6.72 23.28 0 15 0Z" fill="#0DC143"/>
<path d="M21.7195 8.25718C20.1114 6.60177 17.8884 5.70312 15.6182 5.70312C10.7938 5.70312 6.91546 9.6288 6.96276 14.4058C6.96276 15.9193 7.38843 17.3856 8.09789 18.7099L6.86816 23.2031L11.456 22.0207C12.733 22.7302 14.1519 23.0612 15.5709 23.0612C20.3479 23.0612 24.2263 19.1356 24.2263 14.3585C24.2263 12.041 23.3276 9.86529 21.7195 8.25718ZM15.6182 21.595C14.3411 21.595 13.0641 21.2639 11.9763 20.6018L11.6925 20.4599L8.94924 21.1693L9.6587 18.4734L9.46952 18.1896C7.38843 14.8315 8.38168 10.3856 11.7871 8.30448C15.1925 6.2234 19.5911 7.21664 21.6722 10.622C23.7533 14.0274 22.7601 18.4261 19.3546 20.5072C18.2668 21.2166 16.9425 21.595 15.6182 21.595ZM19.7803 16.345L19.2601 16.1085C19.2601 16.1085 18.5033 15.7774 18.0303 15.541C17.983 15.541 17.9357 15.4937 17.8884 15.4937C17.7465 15.4937 17.6519 15.541 17.5574 15.5883C17.5574 15.5883 17.5101 15.6356 16.8479 16.3923C16.8006 16.4869 16.706 16.5342 16.6114 16.5342H16.5641C16.5168 16.5342 16.4222 16.4869 16.3749 16.4396L16.1384 16.345C15.6182 16.1085 15.1452 15.8247 14.7668 15.4464C14.6722 15.3518 14.5303 15.2572 14.4357 15.1626C14.1047 14.8315 13.7736 14.4531 13.5371 14.0274L13.4898 13.9329C13.4425 13.8856 13.4425 13.8383 13.3952 13.7437C13.3952 13.6491 13.3952 13.5545 13.4425 13.5072C13.4425 13.5072 13.6317 13.2707 13.7736 13.1288C13.8682 13.0342 13.9155 12.8923 14.0101 12.7977C14.1047 12.6558 14.1519 12.4666 14.1046 12.3247C14.0574 12.0883 13.4898 10.8112 13.3479 10.5274C13.2533 10.3856 13.1587 10.3383 13.0168 10.291H12.8749C12.7803 10.291 12.6384 10.291 12.4965 10.291C12.4019 10.291 12.3074 10.3383 12.2128 10.3383L12.1655 10.3856C12.0709 10.4329 11.9763 10.5274 11.8817 10.5747C11.7871 10.6693 11.7398 10.7639 11.6452 10.8585C11.3141 11.2842 11.1249 11.8045 11.1249 12.3247C11.1249 12.7031 11.2195 13.0815 11.3614 13.4126L11.4087 13.5545C11.8344 14.4531 12.4019 15.2572 13.1587 15.9666L13.3479 16.1558C13.4898 16.2977 13.6317 16.3923 13.7263 16.5342C14.7195 17.3856 15.8547 18.0004 17.1317 18.3315C17.2736 18.3788 17.4628 18.3788 17.6046 18.4261C17.7465 18.4261 17.9357 18.4261 18.0776 18.4261C18.3141 18.4261 18.5979 18.3315 18.7871 18.2369C18.929 18.1423 19.0236 18.1423 19.1182 18.0477L19.2128 17.9531C19.3074 17.8585 19.4019 17.8112 19.4965 17.7166C19.5911 17.622 19.6857 17.5274 19.733 17.4329C19.8276 17.2437 19.8749 17.0072 19.9222 16.7707C19.9222 16.6761 19.9222 16.5342 19.9222 16.4396C19.9222 16.4396 19.8749 16.3923 19.7803 16.345Z" fill="#FEFEFE"/>
</svg>
