<svg width="70" height="70" viewBox="0 0 70 70" fill="none" xmlns="http://www.w3.org/2000/svg">
<path d="M63.0963 67.2656H35.0117C17.2204 67.2656 2.74609 52.7913 2.74609 35C2.74609 17.2087 17.2204 2.73438 35.0117 2.73438C42.0143 2.73438 48.7469 4.98709 54.2963 9.13131H52.7958C52.0409 9.13131 51.4286 9.74354 51.4286 10.4985C51.4286 11.2535 52.0409 11.8657 52.7958 11.8657H57.9876C58.7425 11.8657 59.3548 11.2535 59.3548 10.4985V5.30674C59.3548 4.55178 58.7425 3.93955 57.9876 3.93955C57.2326 3.93955 56.6204 4.55178 56.6204 5.30674V7.46758C50.4731 2.63512 42.9001 0 35.0117 0C25.6629 0 16.8737 3.64068 10.2629 10.2512C3.6524 16.8619 0.0117188 25.6512 0.0117188 35C0.0117188 44.3488 3.6524 53.1381 10.2629 59.7488C16.8737 66.3595 25.6629 70 35.0117 70H63.0963C63.8513 70 64.4635 69.3878 64.4635 68.6328C64.4635 67.8779 63.8513 67.2656 63.0963 67.2656Z" fill="#495865"/>
<path d="M14.8046 20.6733C14.166 20.2706 13.3216 20.4622 12.919 21.1009C9.81522 26.0252 8.4453 31.9428 9.06204 37.7639C9.6878 43.6722 12.3505 49.2441 16.5594 53.4531C21.647 58.5405 28.3297 61.0842 35.0125 61.0842C41.6953 61.0842 48.378 58.5405 53.4655 53.4531C63.6404 43.2781 63.6404 26.722 53.4655 16.5471C49.25 12.3316 43.6691 9.66808 37.7511 9.0471C31.9195 8.43474 25.9949 9.81601 21.0687 12.9351C20.4307 13.3391 20.241 14.1838 20.6448 14.8217C21.0489 15.4596 21.8935 15.6493 22.5314 15.2455C31.6724 9.45753 43.8693 10.8182 51.5319 18.4808C60.6407 27.5897 60.6407 42.4109 51.5319 51.5197C46.977 56.0747 40.9958 58.352 35.0125 58.3514C29.0306 58.3508 23.0469 56.0737 18.493 51.5197C10.7229 43.7496 9.38209 31.8406 15.2323 22.5592C15.6349 21.9201 15.4435 21.0759 14.8046 20.6733Z" fill="#495865"/>
<path d="M20.423 28.7143C18.2407 28.7143 16.4654 30.4896 16.4654 32.6719C16.4654 33.4269 17.0777 34.0391 17.8326 34.0391C18.5876 34.0391 19.1998 33.4269 19.1998 32.6719C19.1998 31.9973 19.7486 31.4487 20.423 31.4487C21.5011 31.4487 21.6464 32.0669 21.6464 32.6719C21.6464 34.6491 18.8097 37.4791 17.0227 38.7977C16.5468 39.1479 16.3494 39.7639 16.5335 40.3254C16.7178 40.8868 17.2419 41.2665 17.8326 41.2665H23.0137C23.7687 41.2665 24.3809 40.6542 24.3809 39.8993C24.3809 39.1443 23.7687 38.5321 23.0137 38.5321H21.403C22.8779 36.9605 24.3809 34.8297 24.3809 32.672C24.3808 30.3047 22.7902 28.7143 20.423 28.7143Z" fill="#E67217"/>
<path d="M27.2603 28.7143C26.5053 28.7143 25.8931 29.3265 25.8931 30.0815V34.9946C25.8931 35.7496 26.5053 36.3618 27.2603 36.3618H30.6086V39.9187C30.6086 40.6736 31.2209 41.2858 31.9758 41.2858C32.7308 41.2858 33.343 40.6736 33.343 39.9187V30.0816C33.343 29.3267 32.7308 28.7144 31.9758 28.7144C31.2209 28.7144 30.6086 29.3267 30.6086 30.0816V33.6276H28.6274V30.0816C28.6274 29.3265 28.0152 28.7143 27.2603 28.7143Z" fill="#E67217"/>
<path d="M37.6187 41.2668C38.138 41.2668 38.6344 40.9694 38.8637 40.4661L43.3359 30.6484C43.6488 29.9612 43.3454 29.1505 42.6584 28.8374C41.971 28.5243 41.1607 28.8277 40.8474 29.5148L36.3752 39.3326C36.0623 40.0198 36.3657 40.8305 37.0527 41.1436C37.2366 41.2273 37.4292 41.2668 37.6187 41.2668Z" fill="#495865"/>
<path d="M48.8538 41.2088C48.9848 41.2481 49.1171 41.2669 49.2471 41.2669C49.8353 41.2669 50.3784 40.8843 50.5561 40.2921L53.5014 30.4743C53.6256 30.0604 53.5468 29.612 53.2887 29.2653C53.0307 28.9186 52.6241 28.7143 52.1919 28.7143H46.3013C45.5463 28.7143 44.9341 29.3265 44.9341 30.0815C44.9341 30.8364 45.5463 31.4487 46.3013 31.4487H50.3544L47.9371 39.5065C47.7201 40.2296 48.1306 40.9918 48.8538 41.2088Z" fill="#E67217"/>
<path d="M17.5253 16.1464C17.1644 16.1464 16.8116 16.2927 16.5573 16.5471C16.3032 16.8013 16.1567 17.154 16.1567 17.5136C16.1567 17.8732 16.303 18.2259 16.5573 18.4802C16.8116 18.7345 17.1644 18.8808 17.5253 18.8808C17.8849 18.8808 18.2376 18.7346 18.4919 18.4802C18.7462 18.2258 18.8911 17.8732 18.8911 17.5136C18.8911 17.154 18.7462 16.8013 18.4919 16.5471C18.2376 16.2927 17.8849 16.1464 17.5253 16.1464Z" fill="#495865"/>
<path d="M68.6215 67.2656H68.603C67.8481 67.2656 67.2358 67.8779 67.2358 68.6328C67.2358 69.3878 67.8481 70 68.603 70H68.6215C69.3764 70 69.9887 69.3878 69.9887 68.6328C69.9887 67.8779 69.3764 67.2656 68.6215 67.2656Z" fill="#495865"/>
</svg>
