<svg width="71" height="70" viewBox="0 0 71 70" fill="none" xmlns="http://www.w3.org/2000/svg">
<path d="M58.9167 43.75H15.1667C6.79035 43.75 0 36.9596 0 28.5833C0 20.207 6.79035 13.4166 15.1667 13.4166C15.2658 13.4166 15.3643 13.4172 15.4617 13.4194C18.2439 7.04051 24.5416 2.9166 31.5008 2.9166C38.46 2.9166 44.7578 7.04051 47.5399 13.4194C52.8214 13.5385 57.543 16.7413 59.6065 21.6044C65.5843 21.9739 70.1871 27.0255 70.0007 33.0117C69.8142 38.9979 64.9058 43.7532 58.9167 43.75ZM15.1667 15.75C8.07901 15.75 2.33333 21.4956 2.33333 28.5833C2.33333 35.6709 8.07901 41.4166 15.1667 41.4166H58.9167C63.7492 41.4166 67.6667 37.4991 67.6667 32.6666C67.6667 27.8341 63.7492 23.9166 58.9167 23.9166H58.8C58.3055 23.9166 57.8646 23.6048 57.7 23.1385C56.1293 18.684 51.9054 15.7168 47.1822 15.75C47.0682 15.75 46.955 15.7505 46.8416 15.7585C46.3297 15.791 45.8557 15.4885 45.6698 15.0105C43.4262 9.1272 37.7803 5.24245 31.4837 5.24955C25.1871 5.25665 19.55 9.15412 17.3198 15.0425C17.1336 15.5373 16.6375 15.8447 16.1116 15.791C15.7975 15.7615 15.4821 15.7478 15.1667 15.75Z" fill="#495865"/>
<path d="M7.89889 35.5833C7.54673 35.5839 7.21326 35.4249 6.99204 35.1509C4.97085 32.6489 4.21185 29.3567 4.93361 26.2224C5.65537 23.088 7.77777 20.4593 10.6897 19.0933C11.2723 18.818 11.9679 19.0672 12.2431 19.6498C12.5184 20.2325 12.2693 20.928 11.6866 21.2033C8.83423 22.5563 7.01163 25.4263 6.99997 28.5833C6.9928 30.4407 7.63069 32.243 8.80469 33.6823C9.08767 34.0317 9.14471 34.5126 8.95131 34.9185C8.75791 35.3243 8.34849 35.583 7.89889 35.5833Z" fill="#495865"/>
<path d="M19.8334 36.7506C19.4584 36.7501 19.1065 36.5695 18.8873 36.2653C18.6681 35.961 18.6084 35.57 18.7266 35.2142L23.3933 21.2142C23.5971 20.6029 24.2579 20.2726 24.8692 20.4765C25.4805 20.6804 25.8107 21.3412 25.6069 21.9525L20.9402 35.9525C20.7816 36.429 20.3357 36.7505 19.8334 36.7506Z" fill="#E67217"/>
<path d="M29.1667 36.7506C28.6645 36.7505 28.2186 36.429 28.0599 35.9525L23.3933 21.9525C23.1894 21.3412 23.5197 20.6804 24.1309 20.4765C24.7422 20.2726 25.403 20.6029 25.6069 21.2142L30.2735 35.2142C30.3918 35.57 30.332 35.961 30.1128 36.2653C29.8936 36.5695 29.5417 36.7501 29.1667 36.7506Z" fill="#E67217"/>
<path d="M27.2181 30.9167H21.7814C21.1371 30.9167 20.6147 30.3943 20.6147 29.75C20.6147 29.1057 21.1371 28.5833 21.7814 28.5833H27.2181C27.8624 28.5833 28.3847 29.1057 28.3847 29.75C28.3847 30.3943 27.8624 30.9167 27.2181 30.9167Z" fill="#E67217"/>
<path d="M32.6667 36.75C32.0223 36.75 31.5 36.2276 31.5 35.5833V21.5833C31.5 20.939 32.0223 20.4166 32.6667 20.4166C33.311 20.4166 33.8333 20.939 33.8333 21.5833V35.5833C33.8333 36.2276 33.311 36.75 32.6667 36.75Z" fill="#E67217"/>
<path d="M37.3333 29.75H32.6667C32.0223 29.75 31.5 29.2276 31.5 28.5833V21.5833C31.5 20.939 32.0223 20.4166 32.6667 20.4166H37.3333C39.9107 20.4166 42 22.506 42 25.0833C42 27.6606 39.9107 29.75 37.3333 29.75ZM33.8333 27.4166H37.3333C38.622 27.4166 39.6667 26.372 39.6667 25.0833C39.6667 23.7946 38.622 22.75 37.3333 22.75H33.8333V27.4166Z" fill="#E67217"/>
<path d="M46.6667 36.75C46.0223 36.75 45.5 36.2276 45.5 35.5833V21.5833C45.5 20.939 46.0223 20.4166 46.6667 20.4166C47.311 20.4166 47.8333 20.939 47.8333 21.5833V35.5833C47.8333 36.2276 47.311 36.75 46.6667 36.75Z" fill="#E67217"/>
<path d="M50.1667 22.75H43.1667C42.5223 22.75 42 22.2276 42 21.5833C42 20.939 42.5223 20.4166 43.1667 20.4166H50.1667C50.811 20.4166 51.3333 20.939 51.3333 21.5833C51.3333 22.2276 50.811 22.75 50.1667 22.75Z" fill="#E67217"/>
<path d="M50.1667 36.75H43.1667C42.5223 36.75 42 36.2276 42 35.5833C42 34.939 42.5223 34.4166 43.1667 34.4166H50.1667C50.811 34.4166 51.3333 34.939 51.3333 35.5833C51.3333 36.2276 50.811 36.75 50.1667 36.75Z" fill="#E67217"/>
<path d="M28.0542 67.0839C27.76 67.0836 27.469 67.0229 27.1992 66.9056L19.9001 63.8795C19.3621 63.6574 18.9357 63.2287 18.7164 62.6895C18.4997 62.1575 18.5091 61.5601 18.7425 61.0352L20.4808 56.8329C18.7702 55.5318 17.2438 54.0049 15.9434 52.2937L11.7034 54.0449C11.1753 54.2656 10.5806 54.2646 10.0532 54.0421C9.52608 53.8246 9.1066 53.4071 8.8865 52.8811L5.86366 45.5478C5.40573 44.4602 5.91108 43.2069 6.99533 42.7412L11.1294 41.0372C11.515 40.8785 11.9559 40.9375 12.2862 41.192C12.6164 41.4466 12.7858 41.8579 12.7305 42.2712C12.6752 42.6845 12.4036 43.0368 12.0181 43.1956L8.08511 44.8153L10.9744 51.8216L15.8991 49.7878C16.4038 49.5799 16.9853 49.7495 17.2991 50.1962C18.7373 52.2504 20.5241 54.037 22.5786 55.475C23.0271 55.7884 23.1972 56.3715 22.9876 56.877L20.9551 61.7908L27.9562 64.6933L29.9906 59.7765C30.1999 59.2704 30.733 58.978 31.2723 59.0735C33.7373 59.5127 36.2608 59.5093 38.7246 59.0633C39.2641 58.9671 39.798 59.2583 40.0092 59.764L42.0542 64.6892L49.0457 61.7902L47.012 56.8643C46.8028 56.3574 46.975 55.7733 47.4256 55.4607C49.4807 54.03 51.2668 52.2473 52.7013 50.1948C53.0149 49.7478 53.5969 49.5787 54.1012 49.7881L59.0246 51.8252L61.9296 44.82L59.1212 43.651C58.5943 43.4539 58.2833 42.9085 58.382 42.3546C58.4807 41.8008 58.9609 41.3964 59.5235 41.3933C59.681 41.3932 59.8372 41.4235 59.9832 41.4827L62.9816 42.731C63.5151 42.9489 63.9378 43.3734 64.1534 43.9079C64.3694 44.4367 64.368 45.0293 64.1494 45.557L61.1142 52.8767C60.8952 53.4119 60.4701 53.8365 59.9347 54.0549C59.3992 54.2733 58.7984 54.2671 58.2675 54.0376L54.0559 52.2944C52.7578 54.0045 51.2317 55.5288 49.5202 56.8249L51.2691 61.0616C51.4939 61.5799 51.4993 62.1673 51.2839 62.6896C51.0641 63.2303 50.6361 63.6598 50.0962 63.8814L42.7858 66.9125C42.2563 67.1343 41.6601 67.135 41.1301 66.9146C40.6 66.6942 40.1802 66.2709 39.9642 65.7391L38.2079 61.5087C36.081 61.8054 33.9235 61.8085 31.7957 61.5178L30.0469 65.7442C29.7154 66.553 28.9289 67.082 28.0548 67.084L28.0542 67.0839ZM27.8896 64.855V64.8561V64.855ZM28.1072 64.7565H28.1084H28.1072ZM49.1189 61.9691L49.1223 61.9776L49.1189 61.9691ZM20.8893 61.9491L20.8875 61.9526L20.8893 61.9491ZM49.2065 61.7241L49.2054 61.7247L49.2065 61.7241ZM20.7884 61.7225H20.7895H20.7884ZM58.9578 51.9866L58.9573 51.9877L58.9578 51.9866ZM10.8088 51.8898H10.8072H10.8088ZM59.1749 51.8881L59.176 51.8886L59.1749 51.8881ZM62.0898 44.8869H62.0915H62.0898ZM8.01815 44.6517V44.6534V44.6517Z" fill="#495865"/>
<path d="M35 54.25C27.7572 54.2212 21.2725 49.7558 18.6622 42.9997C18.509 42.6094 18.5771 42.1669 18.8405 41.8407C19.1039 41.5145 19.5221 41.3547 19.9359 41.4221C20.3498 41.4896 20.6956 41.774 20.8417 42.167C23.0831 48.0381 28.7156 51.9168 35 51.9168C41.2845 51.9168 46.9169 48.0381 49.1583 42.167C49.3045 41.774 49.6503 41.4896 50.0641 41.4221C50.4779 41.3547 50.8961 41.5145 51.1595 41.8407C51.423 42.1669 51.491 42.6094 51.3379 42.9997C48.7276 49.7558 42.2428 54.2212 35 54.25Z" fill="#495865"/>
<path d="M22.1664 16.9172C21.7914 16.9167 21.4395 16.7361 21.2203 16.4319C21.0011 16.1276 20.9414 15.7367 21.0596 15.3808C23.6293 7.67219 30.0608 7.58329 30.3331 7.58329C30.9774 7.58171 31.501 8.10276 31.5026 8.74709C31.5042 9.39143 30.9831 9.91504 30.3388 9.91662C30.1126 9.92 25.291 10.0653 23.2732 16.1191C23.1146 16.5956 22.6687 16.9172 22.1664 16.9172Z" fill="#495865"/>
</svg>
