<svg width="70" height="70" viewBox="0 0 70 70" fill="none" xmlns="http://www.w3.org/2000/svg">
<g clip-path="url(#clip0)">
<path d="M20.562 42.6562C21.5874 42.1367 22.8042 42.5195 23.3511 43.5312L27.2066 50.6816C27.5074 51.2285 28.1363 51.5156 28.7378 51.3516C29.3394 51.2012 29.7632 50.6543 29.7632 50.0254V39.5801C29.7632 38.8281 29.148 38.2129 28.396 38.2129C27.6441 38.2129 27.0288 38.8281 27.0288 39.5801V44.6113L25.7437 42.2187C24.4859 39.8945 21.6695 39.0059 19.3179 40.1953C17.3081 41.207 16.2691 43.4492 16.8023 45.6504L19.3042 56.0273C19.8921 58.4473 20.9312 60.7031 22.4077 62.7129L27.316 69.4258C27.5894 69.7949 27.9995 69.9863 28.4234 69.9863C28.6968 69.9863 28.9839 69.9043 29.23 69.7266C29.8452 69.2754 29.9683 68.4277 29.5308 67.8125L24.6226 61.1133C23.3648 59.3906 22.4761 57.4629 21.9702 55.3984L19.4683 45.0215C19.2495 44.0645 19.7007 43.0938 20.562 42.6562Z" fill="#495865"/>
<path d="M51.4341 36.8318C50.6274 36.8318 49.8618 37.0369 49.2056 37.4061C48.5356 35.6561 46.8403 34.4119 44.8579 34.4119C44.0103 34.4119 43.2036 34.6443 42.52 35.0545C41.7817 33.4549 40.1685 32.3338 38.2954 32.3338C37.6118 32.3338 36.9556 32.4842 36.3813 32.744V26.2088C36.3813 23.6385 34.2896 21.5604 31.7329 21.5604C29.1763 21.5604 27.0845 23.6522 27.0845 26.2088V28.574C27.0845 29.326 27.6997 29.9412 28.4517 29.9412C29.2036 29.9412 29.8188 29.326 29.8188 28.574V26.2088C29.8188 25.1561 30.6802 24.2947 31.7329 24.2947C32.7856 24.2947 33.647 25.1561 33.647 26.2088V45.4998C33.647 46.2518 34.2622 46.867 35.0142 46.867C35.7661 46.867 36.3813 46.2518 36.3813 45.4998V36.9822C36.3813 35.9295 37.2427 35.0682 38.2954 35.0682C39.3481 35.0682 40.2095 35.9295 40.2095 36.9822V45.4998C40.2095 46.2518 40.8247 46.867 41.5767 46.867C42.3286 46.867 42.9438 46.2518 42.9438 45.4998V39.0604C42.9438 38.0076 43.8052 37.1463 44.8579 37.1463C45.9106 37.1463 46.772 38.0076 46.772 39.0604V45.4998C46.772 46.2518 47.3872 46.867 48.1392 46.867C48.8911 46.867 49.5063 46.2518 49.5063 45.4998V41.494C49.5063 40.4412 50.3677 39.5799 51.4204 39.5799C52.4731 39.5799 53.3345 40.4412 53.3345 41.494V53.033C53.3345 56.1092 52.8696 59.158 51.9536 62.0838L50.0396 68.2225C49.8071 68.9471 50.2173 69.7127 50.9282 69.9315C51.0649 69.9725 51.2017 69.9998 51.3384 69.9998C51.9263 69.9998 52.4595 69.6307 52.6372 69.0428L54.5649 62.8904C55.563 59.6912 56.0825 56.369 56.0825 53.0193V41.4803C56.0962 38.9236 54.0044 36.8318 51.4341 36.8318Z" fill="#495865"/>
<path d="M69.8903 7.24609C69.6169 6.41211 68.906 5.81055 68.031 5.67383L63.8474 5.07227L61.9606 1.28516C61.5642 0.492187 60.7849 0 59.8962 0C59.0075 0 58.2282 0.492187 57.8317 1.28516L55.9587 5.08594L51.7751 5.70117C50.9001 5.82422 50.1892 6.42578 49.9157 7.27344C49.6423 8.10742 49.861 9.02344 50.5036 9.63867L53.5388 12.5918L52.8278 16.7617C52.6775 17.6367 53.0329 18.498 53.7439 19.0176C54.154 19.3047 54.6189 19.4551 55.0974 19.4551C55.4665 19.4551 55.8357 19.373 56.1774 19.1816L59.9235 17.2129L63.6696 19.1816C64.4489 19.5918 65.3786 19.5234 66.0896 19.0039C66.8005 18.4844 67.156 17.623 67.0056 16.748L66.2946 12.5781L69.3298 9.625C69.9313 8.99609 70.1638 8.09375 69.8903 7.24609ZM64.2028 10.7598C63.656 11.293 63.4099 12.0449 63.5466 12.7969L64.1481 16.3242L60.9763 14.6699C60.3064 14.3145 59.4997 14.3145 58.8298 14.6699L55.6579 16.3379L56.2595 12.8105C56.3825 12.0586 56.1364 11.3066 55.6032 10.7734L53.0329 8.27148L56.5739 7.75195C57.3259 7.64258 57.9685 7.17773 58.3103 6.49414L59.8962 3.28125L61.4821 6.49414C61.8239 7.17773 62.4665 7.64258 63.2185 7.75195L66.7595 8.27148L64.2028 10.7598Z" fill="#E57217"/>
<path d="M44.9807 7.24609C44.7073 6.41211 43.9963 5.81055 43.1213 5.67383L38.9377 5.07227L37.0647 1.28516C36.6682 0.492187 35.8752 0 35.0002 0C34.1115 0 33.3322 0.492187 32.9358 1.28516L31.0627 5.08594L26.8791 5.70117C26.0041 5.82422 25.2932 6.42578 25.0197 7.27344C24.7463 8.10742 24.9651 9.02344 25.6076 9.63867L28.6428 12.5918L27.9319 16.7617C27.7815 17.6367 28.1369 18.498 28.8479 19.0176C29.2444 19.3047 29.7229 19.4551 30.2014 19.4551C30.5705 19.4551 30.9397 19.373 31.2815 19.1816L35.0276 17.2129L38.7737 19.1816C39.553 19.5918 40.4826 19.5234 41.1936 19.0039C41.9045 18.4844 42.26 17.623 42.1096 16.748L41.3987 12.5781L44.4338 9.625C45.0354 8.99609 45.2541 8.09375 44.9807 7.24609ZM39.2932 10.7598C38.7463 11.293 38.5002 12.0449 38.6369 12.7969L39.2385 16.3242L36.0666 14.6562C35.3967 14.3008 34.5901 14.3008 33.9201 14.6562L30.7619 16.3379L31.3635 12.8105C31.4865 12.0586 31.2404 11.3066 30.7072 10.7734L28.1369 8.27148L31.6779 7.75195C32.4299 7.64258 33.0725 7.17773 33.4143 6.49414L35.0002 3.28125L36.5862 6.49414C36.928 7.17773 37.5705 7.64258 38.3225 7.75195L41.8635 8.27148L39.2932 10.7598Z" fill="#E57217"/>
<path d="M20.0838 7.24609C19.8104 6.41211 19.0994 5.81055 18.2244 5.67383L14.0408 5.07227L12.1541 1.28516C11.7713 0.492187 10.9783 0 10.0897 0C9.201 0 8.42171 0.492187 8.02522 1.28516L6.15218 5.07227L1.96858 5.6875C1.09358 5.81055 0.382644 6.41211 0.109207 7.25977C-0.164231 8.10742 0.068191 8.99609 0.697097 9.61133L3.73225 12.5645L3.00764 16.7344C2.85725 17.6094 3.21272 18.4707 3.92366 18.9902C4.33382 19.2773 4.79866 19.4277 5.27717 19.4277C5.64632 19.4277 6.01546 19.3457 6.35725 19.1543L10.1033 17.1855L13.8494 19.1543C14.6287 19.5645 15.5584 19.4961 16.2694 18.9766C16.9803 18.457 17.3358 17.5957 17.1854 16.7207L16.4744 12.5508L19.5096 9.59766C20.1248 8.99609 20.3573 8.09375 20.0838 7.24609ZM14.3963 10.7598C13.8494 11.293 13.6033 12.0449 13.7401 12.7969L14.3416 16.3242L11.1698 14.6562C10.4998 14.3008 9.69319 14.3008 9.02327 14.6562L5.85139 16.3242L6.45296 12.7969C6.576 12.0449 6.32991 11.293 5.79671 10.7598L3.22639 8.27148L6.76741 7.75195C7.51936 7.64258 8.16194 7.17773 8.50374 6.49414L10.0897 3.28125L11.6756 6.49414C12.0174 7.17773 12.66 7.64258 13.4119 7.75195L16.953 8.27148L14.3963 10.7598Z" fill="#E57217"/>
<path d="M29.394 33.2361C29.1343 32.9764 28.7925 32.8397 28.4233 32.8397C28.0679 32.8397 27.7124 32.9901 27.4526 33.2361C27.1929 33.4822 27.0562 33.8377 27.0562 34.2069C27.0562 34.5623 27.2065 34.9178 27.4526 35.1776C27.7124 35.4373 28.0542 35.5741 28.4233 35.5741C28.7925 35.5741 29.1343 35.4237 29.394 35.1776C29.6538 34.9178 29.7905 34.576 29.7905 34.2069C29.7905 33.8514 29.6401 33.4959 29.394 33.2361Z" fill="#495865"/>
</g>
<defs>
<clipPath id="clip0">
<rect width="70" height="70" fill="white"/>
</clipPath>
</defs>
</svg>
