<svg width="70" height="70" viewBox="0 0 70 70" fill="none" xmlns="http://www.w3.org/2000/svg">
<path d="M65.4839 42.9032H63.2258V20.3226C63.2258 16.0181 60.8125 12.2782 57.2702 10.373C56.6492 10.0343 56 9.76613 55.3085 9.55443C54.9415 9.44153 54.5746 9.34274 54.1936 9.27218V3.3871C54.1936 1.52419 52.6694 0 50.8064 0H41.7742C39.9113 0 38.3871 1.52419 38.3871 3.3871V9.03226H31.6129V3.3871C31.6129 1.52419 30.0887 0 28.2258 0H19.1935C17.3306 0 15.8065 1.52419 15.8065 3.3871V9.25806C15.4254 9.32863 15.0585 9.42742 14.6915 9.54032C13.873 9.79435 13.1109 10.1331 12.3911 10.5565C9.03226 12.5181 6.77419 16.1593 6.77419 20.3226V42.9032H4.51613C2.01815 42.9032 0 44.9355 0 47.4194V60.9677C0 63.4516 2.01815 65.4839 4.51613 65.4839H9.06048C11.121 68.2218 14.3952 70 18.0645 70H51.9355C55.6189 70 58.879 68.2218 60.9395 65.4839H65.4839C67.9819 65.4839 70 63.4516 70 60.9677V47.4194C70 44.9355 67.9819 42.9032 65.4839 42.9032ZM40.6452 3.3871C40.6452 2.76613 41.1532 2.25806 41.7742 2.25806H50.8064C51.4274 2.25806 51.9355 2.76613 51.9355 3.3871V9.03226H40.6452V3.3871ZM18.0645 3.3871C18.0645 2.76613 18.5726 2.25806 19.1935 2.25806H28.2258C28.8468 2.25806 29.3548 2.76613 29.3548 3.3871V9.03226H18.0645V3.3871ZM13.5484 12.5181C14.875 11.7419 16.4133 11.2903 18.0645 11.2903H51.9355C53.5867 11.2903 55.125 11.7419 56.4516 12.5181V35.2823C56.4516 37.1452 54.9274 38.6694 53.0645 38.6694H16.9355C15.0726 38.6694 13.5484 37.1452 13.5484 35.2823V12.5181ZM4.51613 63.2258C3.27419 63.2258 2.25806 62.2097 2.25806 60.9677V47.4194C2.25806 46.1774 3.27419 45.1613 4.51613 45.1613H6.77419V58.7097C6.77419 60.3185 7.1129 61.8427 7.71976 63.2258H4.51613ZM60.9677 58.7097C60.9677 63.6915 56.9173 67.7419 51.9355 67.7419H18.0645C13.0827 67.7419 9.03226 63.6915 9.03226 58.7097V20.3226C9.03226 18.0363 9.89315 15.9617 11.2903 14.3669V35.2823C11.2903 36.5383 11.6996 37.6956 12.3911 38.627C12.504 38.7681 12.6169 38.9093 12.7298 39.0504C13.7601 40.2077 15.2702 40.9274 16.9355 40.9274H53.0645C54.7298 40.9274 56.2258 40.2077 57.2702 39.0504C58.1734 38.0484 58.7097 36.7359 58.7097 35.2823V14.3669C60.1069 15.9617 60.9677 18.0363 60.9677 20.3226V58.7097ZM67.7419 60.9677C67.7419 62.2097 66.7258 63.2258 65.4839 63.2258H62.2802C62.8871 61.8427 63.2258 60.3185 63.2258 58.7097V45.1613H65.4839C66.7258 45.1613 67.7419 46.1774 67.7419 47.4194V60.9677Z" fill="#495865"/>
<path d="M56.4516 12.5181V35.2823C56.4516 37.1452 54.9274 38.6693 53.0645 38.6693H16.9354C15.0725 38.6693 13.5483 37.1452 13.5483 35.2823V12.5181C14.875 11.7419 16.4133 11.2903 18.0645 11.2903H51.9354C53.5867 11.2903 55.125 11.7419 56.4516 12.5181Z" fill="#E67217"/>
</svg>
