<svg width="70" height="70" viewBox="0 0 70 70" fill="none" xmlns="http://www.w3.org/2000/svg">
<g clip-path="url(#clip0)">
<path d="M55.5387 40.0785C53.3312 40.0259 51.2288 40.4596 49.3299 41.2784L46.6133 36.008L47.5752 36.4041C48.1296 36.6324 48.7058 36.7404 49.2748 36.7404C51.0236 36.7403 52.7001 35.7188 53.4336 34.0291C53.5464 33.7694 53.6322 33.5022 53.6929 33.231H55.1551C55.724 33.231 56.22 32.7926 56.2371 32.224C56.2548 31.6357 55.783 31.1531 55.1987 31.1531H53.6546C53.6037 30.9564 53.5404 30.7613 53.4625 30.5692C52.9974 29.4223 52.0779 28.4957 50.9403 28.0272L43.2333 24.8541L43.3914 17.9392C43.3917 17.9293 43.3912 17.9193 43.3914 17.9093C44.6104 18.5423 45.9929 18.9023 47.4588 18.9023C52.1326 18.9023 55.9698 15.2628 56.2918 10.6692C56.7552 10.419 57.1624 10.0638 57.4734 9.62141C58.1156 8.70786 58.2736 7.53577 57.896 6.48618C57.2503 4.69065 56.1988 3.23063 54.7708 2.14673C52.9026 0.728952 50.4425 0.00994873 47.4588 0.00994873C45.4639 0.00994873 43.4947 0.621355 41.5919 1.82954C41.0806 2.15425 40.9511 2.84454 41.3133 3.33016C41.6406 3.7693 42.2492 3.87294 42.7119 3.57995C44.276 2.58901 45.869 2.08753 47.4588 2.08753C51.8477 2.08753 54.695 3.78694 55.9227 7.13874C56.0815 7.57213 56.034 8.06487 55.7643 8.43934C55.5049 8.79946 55.1026 9.00577 54.658 9.00577H38.4398C38.1544 9.00577 38.0226 8.80794 37.9791 8.7229C37.9364 8.6395 37.855 8.42116 38.0185 8.1953C38.4999 7.53003 39.0037 6.90591 39.5235 6.33128C39.8953 5.92003 39.8832 5.29139 39.4918 4.89874L39.4916 4.8986C39.0728 4.4786 38.3861 4.49145 37.9883 4.93114C37.416 5.5636 36.8622 6.2487 36.3352 6.97727C35.7638 7.76723 35.6847 8.79823 36.1289 9.6679C36.203 9.81295 36.2901 9.9479 36.3869 10.0735C34.8776 10.694 33.4996 11.6089 32.314 12.7936L25.7651 19.3425C25.6718 19.4358 25.5804 19.5317 25.4924 19.629C25.4885 19.6332 25.4844 19.6377 25.4805 19.6421C22.7749 22.6543 22.8992 27.2554 25.7651 30.1212L26.2127 30.5688H19.9336C19.3647 30.5688 18.8687 31.0071 18.8516 31.5757C18.8338 32.164 19.3056 32.6466 19.89 32.6466H22.4545L25.0286 37.1648L21.9639 41.9126C19.69 40.6564 17.0533 39.9795 14.2539 40.0845C6.41416 40.379 0.112524 46.8369 0.00150823 54.6817C-0.115386 62.9513 6.57768 69.716 14.821 69.716C22.6442 69.716 29.0702 63.623 29.6049 55.9334H36.3245C36.6982 55.9334 37.043 55.7327 37.2277 55.4078L46.1677 39.6783L47.4842 42.2324C43.0859 44.9149 40.1871 49.8237 40.3658 55.3809C40.6156 63.1478 46.9167 69.4531 54.6834 69.7077C63.1239 69.9844 70.0708 63.1622 69.9993 54.7665C69.9316 46.8071 63.4961 40.2683 55.5387 40.0785ZM46.5415 11.0838H49.8658V11.9687C49.8658 12.5424 50.331 13.0077 50.9048 13.0077C51.4786 13.0077 51.9437 12.5425 51.9437 11.9687V11.0838H54.1588C53.6573 14.3307 50.8441 16.8246 47.4589 16.8246C47.1476 16.8246 46.8419 16.8016 46.5417 16.7609V11.0838H46.5415ZM44.4638 11.0838V16.1251C42.5209 15.1641 41.1009 13.2998 40.7587 11.0838H44.4638ZM33.7831 14.2632C35.1635 12.8838 36.8553 11.9418 38.7228 11.4995C38.8283 12.1344 39.0018 12.7465 39.2351 13.3288C39.1549 13.3225 39.0742 13.318 38.9927 13.3161C36.509 13.2529 34.4297 15.2267 34.3671 17.7165L34.1556 26.7586L27.7218 20.3248L33.7831 14.2632ZM26.3756 21.9169L35.0906 30.6319C35.3056 30.9052 35.5552 31.1539 35.8337 31.375L37.1606 32.7019L33.4041 34.8221L27.2344 28.6525C25.4145 26.8325 25.1141 24.0508 26.3756 21.9169ZM24.8462 32.6469H27.8109C27.9526 32.6469 28.0875 32.6183 28.2107 32.5669L32.0741 36.4303H27.0017L24.8462 32.6469ZM31.5969 38.5083L30.5996 42.7459L28.1854 38.5083H31.5969ZM13.9487 54.3312C13.7424 54.6507 13.7274 55.0574 13.9092 55.3916C14.0911 55.7257 14.4411 55.9334 14.8215 55.9334H24.147C23.6286 60.6212 19.6447 64.2798 14.821 64.2798C9.64619 64.2798 5.43635 60.0698 5.43635 54.8951C5.43635 49.7205 9.64633 45.5105 14.821 45.5105C16.3239 45.5105 17.744 45.8676 19.0047 46.4983L13.9487 54.3312ZM16.7286 53.8557L20.7494 47.6264C22.6043 49.142 23.8696 51.3518 24.1469 53.8557H16.7286ZM14.821 67.6383C7.79434 67.6383 2.07772 61.9218 2.07772 54.895C2.07772 47.8683 7.79434 42.1517 14.821 42.1517C16.9946 42.1517 19.0423 42.6993 20.8347 43.6627L20.1366 44.7445C18.5466 43.9084 16.7388 43.4326 14.821 43.4326C8.50049 43.4326 3.35864 48.5748 3.35864 54.895C3.35864 61.2154 8.50076 66.3574 14.821 66.3574C20.7912 66.3574 25.7075 61.7687 26.2343 55.9332H27.5216C26.9914 62.4763 21.4979 67.6383 14.821 67.6383ZM26.2341 53.8555V53.8557C25.942 50.622 24.3015 47.7732 21.8803 45.8743L22.5786 44.7924C25.3501 46.9257 27.2229 50.1714 27.5216 53.8555H26.2341ZM29.6047 53.8555C29.2973 49.441 27.0488 45.5529 23.7083 43.0419L26.1882 39.2001L29.9004 45.7161L29.4789 47.5069C29.1471 48.9203 29.5615 50.3755 30.5879 51.3999C31.1653 51.9755 31.8924 52.3661 32.6897 52.5295C32.9592 52.5847 33.2288 52.6115 33.4955 52.6115C33.6044 52.6115 33.7127 52.6059 33.8203 52.5973L34.5369 53.8555H29.6047ZM33.1077 50.4943C32.7082 50.4124 32.3442 50.2169 32.0554 49.9288C31.5425 49.4171 31.3357 48.6891 31.5015 47.9822L33.9255 37.6824C33.9258 37.6807 33.9263 37.6794 33.9266 37.6777L34.1343 36.7956L38.5597 34.2979C38.7403 34.7048 38.787 35.164 38.6806 35.6149L38.297 37.2458C38.2956 37.2519 38.294 37.2576 38.2927 37.2638L35.5641 48.8597C35.2993 49.9849 34.1977 50.7181 33.1077 50.4943ZM36.3236 52.7938L35.8114 51.8947C36.6732 51.3149 37.3315 50.4188 37.5864 49.3355L40.1342 38.5082H44.4429L36.3236 52.7938ZM40.6232 36.4306L40.7031 36.0914C40.9138 35.1978 40.8245 34.2872 40.4709 33.4787L43.6464 34.7861L44.4939 36.4306H40.6232ZM44.8072 33.0171C44.8044 33.0159 44.8015 33.0148 44.7986 33.0137L37.7171 30.0979C37.57 30.0373 37.4287 29.9623 37.297 29.8749C36.5948 29.4089 36.1885 28.6275 36.2097 27.7827L36.4439 17.7668C36.4771 16.445 37.5631 15.3923 38.8782 15.3923C38.8988 15.3923 38.9194 15.3924 38.9402 15.393C40.2828 15.4268 41.3477 16.5465 41.3141 17.8892C41.3141 17.89 41.3141 17.8907 41.3141 17.8915L41.1396 25.5193C41.1298 25.9489 41.3853 26.3402 41.7827 26.5036L50.149 29.9483C50.7077 30.1784 51.1697 30.6117 51.4453 31.1531H49.3809C48.8072 31.1531 48.342 31.6182 48.342 32.192C48.342 32.7658 48.8071 33.231 49.3809 33.231H51.5133C50.9784 34.4186 49.5748 34.9801 48.3664 34.4829L44.8072 33.0171ZM55.179 67.6383C48.1523 67.6383 42.4357 61.9217 42.4357 54.895C42.4357 50.3414 44.8369 46.3389 48.439 44.0851L49.029 45.2298C45.8382 47.2671 43.7164 50.8369 43.7164 54.8953C43.7164 61.2158 48.8585 66.3576 55.1787 66.3576C56.6245 66.3576 58.0345 66.0917 59.3696 65.567C59.9036 65.3571 60.1664 64.7542 59.9566 64.2202C59.7468 63.6862 59.1436 63.4232 58.6098 63.6331C57.5177 64.0623 56.3635 64.2796 55.1789 64.2796C50.0041 64.2796 45.7942 60.0697 45.7942 54.895C45.7942 51.6399 47.4607 48.7675 49.9846 47.0837L54.2557 55.3704C54.44 55.7282 54.8034 55.9334 55.1801 55.9334C55.3402 55.9334 55.503 55.8961 55.6552 55.8177C56.1651 55.5549 56.3654 54.9284 56.1025 54.4183L51.8305 46.1298C52.8712 45.7309 53.9995 45.5101 55.1789 45.5101C60.3537 45.5101 64.5635 49.7201 64.5635 54.8947C64.5635 57.5415 63.4371 60.0788 61.473 61.8559C61.0475 62.2408 61.0147 62.8978 61.3996 63.3233C61.7847 63.7488 62.4415 63.7816 62.867 63.3966C65.2656 61.2263 66.6412 58.1274 66.6412 54.8947C66.6412 48.5744 61.4991 43.4324 55.1789 43.4324C53.6568 43.4324 52.2043 43.7331 50.8741 44.2743L50.2842 43.1297C51.7921 42.4999 53.4454 42.1514 55.1789 42.1514C62.2057 42.1514 67.9221 47.8681 67.9221 54.8947C67.9223 61.9218 62.2057 67.6383 55.179 67.6383Z" fill="#495865"/>
<path fill-rule="evenodd" clip-rule="evenodd" d="M14.834 67.5391C21.8184 67.5391 27.4805 61.877 27.4805 54.8926C27.4805 47.9081 21.8184 42.2461 14.834 42.2461C7.84952 42.2461 2.1875 47.9081 2.1875 54.8926C2.1875 61.877 7.84952 67.5391 14.834 67.5391ZM14.834 69.7266C23.0266 69.7266 29.668 63.0852 29.668 54.8926C29.668 46.7 23.0266 40.0586 14.834 40.0586C6.6414 40.0586 0 46.7 0 54.8926C0 63.0852 6.6414 69.7266 14.834 69.7266Z" fill="#E67217"/>
<path fill-rule="evenodd" clip-rule="evenodd" d="M55.166 67.5391C62.1505 67.5391 67.8125 61.877 67.8125 54.8926C67.8125 47.9081 62.1505 42.2461 55.166 42.2461C48.1816 42.2461 42.5195 47.9081 42.5195 54.8926C42.5195 61.877 48.1816 67.5391 55.166 67.5391ZM55.166 69.7266C63.3586 69.7266 70 63.0852 70 54.8926C70 46.7 63.3586 40.0586 55.166 40.0586C46.9734 40.0586 40.332 46.7 40.332 54.8926C40.332 63.0852 46.9734 69.7266 55.166 69.7266Z" fill="#E67217"/>
<path fill-rule="evenodd" clip-rule="evenodd" d="M51.7019 50.3748L45.9688 39.2563L47.7915 38.3165L53.5246 49.435L51.7019 50.3748Z" fill="#495865"/>
<path fill-rule="evenodd" clip-rule="evenodd" d="M15.3018 52.2376L24.8922 37.4413L26.6131 38.5568L17.0227 53.3531L15.3018 52.2376Z" fill="#495865"/>
<path fill-rule="evenodd" clip-rule="evenodd" d="M33.5669 55.9087H16.5454V53.8579H33.5669V55.9087Z" fill="#495865"/>
</g>
<defs>
<clipPath id="clip0">
<rect width="70" height="69.7266" fill="white"/>
</clipPath>
</defs>
</svg>
