<svg width="70" height="70" viewBox="0 0 70 70" fill="none" xmlns="http://www.w3.org/2000/svg">
<path d="M68.2447 23.3424L46.6562 1.75381C44.3196 -0.582853 40.5174 -0.582853 38.1808 1.75381L4.48971 35.445C3.32145 36.6134 2.73725 38.1481 2.73725 39.6827C2.73725 41.2174 3.32145 42.7521 4.48971 43.9205L9.90637 49.3371L3.95869 55.2848C3.69168 55.5518 3.55824 55.9017 3.55824 56.2515C3.55824 56.6014 3.69168 56.9513 3.95869 57.2183C4.49258 57.7522 5.35828 57.7523 5.89217 57.2183L11.8398 51.2706L14.3171 53.7479L0.400449 67.6647C0.133437 67.9316 0 68.2816 0 68.6314C0 68.9813 0.133437 69.3313 0.400449 69.5982C0.934336 70.132 1.80004 70.132 2.33406 69.5982L16.2508 55.6814L26.0781 65.5089C28.4149 67.8454 32.217 67.8454 34.5536 65.5089L68.2447 31.8177C69.3766 30.686 70 29.1808 70 27.5801C70 25.9793 69.3766 24.4743 68.2447 23.3424ZM29.3225 64.3717C28.8429 64.219 28.3913 63.9552 28.0115 63.5754L6.42318 41.987C5.57129 41.135 5.29348 39.9254 5.584 38.8375H29.3225V64.3717ZM24.3805 36.1032L28.4346 32.049C28.9685 31.5152 28.9687 30.6495 28.4346 30.1156C27.9006 29.5817 27.035 29.5815 26.5012 30.1156L20.5134 36.1032H16.5301L28.8903 23.743C29.4241 23.2091 29.4242 22.3434 28.8903 21.8094C28.3564 21.2755 27.4907 21.2755 26.9567 21.8094L12.6632 36.1032H7.69863L38.8389 4.96273V32.8445C38.8389 34.6414 37.3771 36.1032 35.5802 36.1032H24.3805ZM66.3113 29.8844L32.6201 63.5754C32.4464 63.7492 32.2566 63.897 32.057 64.0233V38.8375H35.5804C38.8849 38.8375 41.5734 36.1491 41.5734 32.8445V29.3211H57.2447L49.3332 37.2327C49.0663 37.4996 48.9327 37.8496 48.9327 38.1995C48.9327 38.5495 49.0662 38.8992 49.3332 39.1662C49.8671 39.7001 50.7328 39.7001 51.2668 39.1662L61.1108 29.3222C61.1111 29.3219 61.1114 29.3215 61.1116 29.3212H66.762C66.6341 29.5226 66.4841 29.7117 66.3113 29.8844ZM41.5733 26.5867V2.84824C42.6613 2.55771 43.8709 2.83553 44.7228 3.68742L66.3112 25.2759C66.6847 25.6492 66.9556 26.0975 67.1114 26.5867H41.5733Z" fill="#495865"/>
<path d="M3.95869 55.2848L9.90637 49.3371L11.8398 51.2706L5.89217 57.2183C5.35828 57.7523 4.49258 57.7522 3.95869 57.2183C3.69168 56.9513 3.55824 56.6014 3.55824 56.2515C3.55824 55.9017 3.69168 55.5518 3.95869 55.2848Z" fill="#E67217"/>
<path d="M0.400449 67.6647L14.3171 53.7479L16.2508 55.6814L2.33406 69.5982C1.80004 70.1321 0.934336 70.1321 0.400449 69.5982C0.133438 69.3313 0 68.9813 0 68.6314C0 68.2816 0.133438 67.9316 0.400449 67.6647Z" fill="#E67217"/>
<path d="M32.2366 18.4638C31.9823 18.2081 31.6296 18.0632 31.27 18.0632C30.9091 18.0632 30.5577 18.2081 30.3034 18.4638C30.0491 18.7181 29.9028 19.0694 29.9028 19.4304C29.9028 19.7899 30.0491 20.1427 30.3034 20.397C30.5577 20.6513 30.9091 20.7975 31.27 20.7975C31.6296 20.7975 31.9823 20.6513 32.2366 20.397C32.4909 20.1427 32.6372 19.7899 32.6372 19.4304C32.6372 19.0694 32.4909 18.7181 32.2366 18.4638Z" fill="#E67217"/>
<path d="M2.33916 58.837C2.08486 58.5827 1.73213 58.4364 1.37256 58.4364C1.01299 58.4364 0.660254 58.5827 0.405957 58.837C0.15166 59.0913 0.00537109 59.444 0.00537109 59.8036C0.00537109 60.1632 0.15166 60.5159 0.405957 60.7702C0.660254 61.0245 1.01299 61.1708 1.37256 61.1708C1.7335 61.1708 2.08486 61.0245 2.33916 60.7702C2.59482 60.5159 2.73975 60.1632 2.73975 59.8036C2.73975 59.444 2.59482 59.0913 2.33916 58.837Z" fill="#495865"/>
<path d="M17.366 61.4546C16.832 60.9207 15.9663 60.9207 15.4324 61.4546L9.2232 67.6638C8.95633 67.9307 8.82275 68.2807 8.82275 68.6305C8.82275 68.9804 8.95619 69.3304 9.2232 69.5974C9.75723 70.1313 10.6229 70.1313 11.1568 69.5974L17.366 63.3882C17.8998 62.8542 17.8998 61.9885 17.366 61.4546Z" fill="#E67217"/>
</svg>
