<svg width="70" height="37" viewBox="0 0 70 37" fill="none" xmlns="http://www.w3.org/2000/svg">
<g clip-path="url(#clip0)">
<path d="M15.2877 31.8551C17.2517 31.8551 18.8498 30.2573 18.8498 28.2933C18.8498 26.3294 17.2518 24.7313 15.2877 24.7313C13.3239 24.7313 11.7261 26.3292 11.7261 28.2933C11.7259 30.2572 13.3238 31.8551 15.2877 31.8551ZM15.2877 26.9345C16.0369 26.9345 16.6464 27.544 16.6464 28.2932C16.6464 29.0423 16.0369 29.6518 15.2877 29.6518C14.5386 29.6518 13.9293 29.0423 13.9293 28.2932C13.9293 27.544 14.5386 26.9345 15.2877 26.9345Z" fill="#E67217"/>
<path d="M54.337 24.7302C52.373 24.7302 50.7749 26.3282 50.7749 28.2923C50.7749 30.2563 52.3729 31.8541 54.337 31.8541C56.3009 31.8541 57.899 30.2563 57.899 28.2923C57.899 26.3283 56.3011 24.7302 54.337 24.7302ZM54.337 29.6509C53.5878 29.6509 52.9783 29.0414 52.9783 28.2923C52.9783 27.5431 53.5878 26.9336 54.337 26.9336C55.0862 26.9336 55.6957 27.5431 55.6957 28.2923C55.6957 29.0414 55.0862 29.6509 54.337 29.6509Z" fill="#E67217"/>
<path d="M29.7814 15.6014C29.1728 15.6014 28.6797 16.0946 28.6797 16.7031C28.6797 17.3117 29.1728 17.8048 29.7814 17.8048H32.6213C33.2298 17.8048 33.723 17.3117 33.723 16.7031C33.723 16.0946 33.2298 15.6014 32.6213 15.6014H29.7814Z" fill="#495865"/>
<path d="M36.8587 12.7406C36.8587 13.3491 37.3519 13.8422 37.9604 13.8422H41.045C41.4332 13.8422 41.7923 13.6381 41.9911 13.3049C42.1899 12.9716 42.1987 12.5584 42.0142 12.2172L38.6763 6.03655C38.6709 6.02671 38.6656 6.01686 38.6598 6.00716C38.3018 5.39014 37.2854 4.34589 35.7476 4.34589H28.5373C28.516 4.34589 28.4949 4.34643 28.4732 4.34753C28.4716 4.34753 28.4701 4.34753 28.4688 4.34753C28.4199 4.34753 28.3715 4.34835 28.3227 4.34931L28.2814 4.34999C28.1687 4.34767 28.0559 4.34602 27.9427 4.34602C22.1482 4.34602 16.8189 7.26196 13.6865 12.1461C13.4692 12.4853 13.454 12.9158 13.6472 13.2692C13.8403 13.6227 14.2111 13.8424 14.6138 13.8424H34.1187C34.7273 13.8424 35.2204 13.3492 35.2204 12.7407C35.2204 12.1322 34.7273 11.639 34.1187 11.639H29.0443V6.5502L35.7475 6.54897C36.3464 6.54897 36.6967 7.02899 36.7549 7.11554L39.1978 11.6387H37.9601C37.3517 11.6389 36.8587 12.1322 36.8587 12.7406ZM26.8409 11.6389H16.8065C19.3471 8.69464 22.9354 6.87942 26.8409 6.59067V11.6389Z" fill="#E67217"/>
<path d="M69.7766 19.8408C69.7759 19.8374 69.7759 19.8339 69.7751 19.8305C69.7672 19.7932 69.7568 19.7567 69.7486 19.7195C69.7201 19.5925 69.6909 19.4656 69.6578 19.3404C69.6419 19.2804 69.6237 19.2212 69.6068 19.1613C69.5763 19.0537 69.5455 18.9459 69.5116 18.8397C69.4902 18.7723 69.4664 18.7057 69.4436 18.6387C69.4102 18.5417 69.3768 18.4446 69.3409 18.3488C69.3139 18.2773 69.2852 18.2066 69.2567 18.1356C69.2208 18.0466 69.1849 17.9577 69.1466 17.8701C69.1142 17.7953 69.08 17.7215 69.0458 17.6475C69.0081 17.566 68.97 17.4848 68.93 17.4044C68.8918 17.3268 68.8518 17.25 68.8115 17.1734C68.7727 17.0998 68.7333 17.0268 68.6928 16.9542C68.6476 16.8732 68.6014 16.7928 68.5541 16.7131C68.5156 16.6484 68.4764 16.5843 68.4366 16.5204C68.3837 16.4355 68.33 16.3512 68.2746 16.2679C68.2382 16.2131 68.2009 16.1591 68.1635 16.1051C68.1017 16.0157 68.039 15.9268 67.9742 15.8393C67.942 15.7957 67.9086 15.7527 67.8757 15.7097C67.8032 15.6148 67.7301 15.5205 67.6543 15.428C67.6294 15.3978 67.6037 15.3684 67.5787 15.3385C67.4927 15.2359 67.4058 15.1344 67.3158 15.0351C67.3058 15.0242 67.2956 15.0136 67.2856 15.0028C66.7537 14.4215 66.1541 13.8991 65.4962 13.4483C65.4723 13.4319 65.4489 13.4147 65.4248 13.3984C65.3264 13.3321 65.2258 13.269 65.1249 13.2061C65.0761 13.1756 65.0278 13.1444 64.9785 13.1148C64.9496 13.0974 64.922 13.0785 64.8931 13.0614C64.874 13.0501 64.8539 13.0416 64.8342 13.0316C63.3112 12.1473 61.5446 11.6382 59.6604 11.6382H46.8717L41.896 2.42499C41.8906 2.41501 41.8853 2.40517 41.8796 2.39546C41.8247 2.30099 40.5072 0.0842285 37.823 0.0842285H30.2091C30.1772 0.0842285 30.1455 0.0854593 30.1176 0.0873734L30.1007 0.0871001C30.0307 0.0871001 29.961 0.0883304 29.8914 0.0894241L29.8032 0.0909282C29.6249 0.0873735 29.4459 0.0845018 29.2668 0.0845018C22.9231 0.0845018 16.8041 2.38315 12.0366 6.55704C7.579 10.4597 4.5835 15.7419 3.52584 21.5225H2.95709C1.32645 21.5223 0 22.8487 0 24.4792V29.2807C0 30.9112 1.32645 32.2375 2.95695 32.2375H3.88732C4.26973 32.2375 4.63422 32.1621 4.96986 32.0294C5.02865 32.0526 5.08771 32.0752 5.14801 32.0947C5.25738 32.1301 5.37182 32.1482 5.48707 32.1482H7.98082C9.36865 34.7677 12.1224 36.5572 15.2876 36.5572C18.4532 36.5572 21.2071 34.7677 22.5952 32.1482H26.1382C26.7467 32.1482 27.2398 31.6551 27.2398 31.0465C27.2398 30.438 26.7467 29.9448 26.1382 29.9448H23.3868C23.4142 29.8106 23.4382 29.6751 23.459 29.5386C23.4631 29.512 23.4654 29.4849 23.4693 29.4581C23.4847 29.3491 23.4996 29.2399 23.5108 29.1296C23.5185 29.0549 23.5225 28.9797 23.5281 28.9048C23.5327 28.8411 23.5393 28.7779 23.5424 28.7137C23.5495 28.5737 23.5531 28.4333 23.5531 28.2924C23.5531 23.7352 19.8454 20.0274 15.2878 20.0274C10.7309 20.0274 7.02338 23.7349 7.02338 28.2924C7.02338 28.4334 7.02707 28.5741 7.03404 28.714C7.03664 28.7674 7.04238 28.8202 7.04607 28.8734C7.05209 28.9591 7.05715 29.045 7.06563 29.1303C7.0752 29.2243 7.08846 29.317 7.10104 29.4101C7.10691 29.4533 7.11102 29.4967 7.11758 29.5397C7.13822 29.6759 7.16242 29.8108 7.18949 29.9448H6.76826C6.77059 29.9346 6.77223 29.9242 6.77455 29.9138C6.78043 29.8873 6.78576 29.8605 6.79082 29.8335C6.80586 29.756 6.81816 29.6778 6.82678 29.5988C6.82842 29.5832 6.82938 29.5674 6.83088 29.5516C6.83922 29.4618 6.84469 29.3714 6.84469 29.2804V24.479C6.84469 24.3856 6.83908 24.2933 6.83061 24.2018C6.82937 24.1887 6.82856 24.1756 6.82705 24.1624C6.81748 24.0721 6.80367 23.9829 6.78604 23.895C6.78439 23.887 6.78262 23.879 6.78111 23.871C6.63346 23.1609 6.23273 22.5358 5.65811 22.1083C7.64053 10.7554 17.6563 2.28718 29.267 2.28718C29.4376 2.28718 29.6081 2.29005 29.778 2.29347C29.7895 2.29374 29.8014 2.29388 29.8129 2.29374L29.9294 2.29183C29.9864 2.29073 30.0434 2.28978 30.0921 2.28978L30.1416 2.29046C30.1556 2.29046 30.1697 2.29019 30.1838 2.28964C30.1993 2.28909 30.2148 2.28813 30.2329 2.28704H37.8227C39.1761 2.28704 39.9023 3.38763 39.9693 3.49399L45.2452 13.2628C45.4374 13.619 45.8097 13.8411 46.2145 13.8411H59.6604C60.5803 13.8411 61.4641 13.9969 62.2895 14.2796C61.5922 15.1329 61.1946 16.2125 61.1946 17.3591C61.1946 20.0453 63.3799 22.2309 66.0663 22.2309C66.666 22.2309 67.2495 22.1214 67.7951 21.9141C67.7953 21.9356 67.7968 21.9566 67.7968 21.9778V29.2838C67.7968 29.6242 67.5422 29.9071 67.2042 29.9416C67.182 29.9439 67.1588 29.9448 67.1357 29.9448H62.4363C62.5153 29.5561 62.565 29.1614 62.5872 28.7621C62.5881 28.7465 62.5898 28.7312 62.5908 28.7157C62.5979 28.5752 62.6015 28.434 62.6015 28.2924C62.6015 23.7352 58.8941 20.0274 54.3367 20.0274C49.7793 20.0274 46.0719 23.7349 46.0719 28.2924C46.0719 28.4341 46.0756 28.5752 46.0826 28.7157C46.0832 28.731 46.085 28.7459 46.086 28.7611C46.1083 29.1606 46.1582 29.5557 46.2373 29.9447H29.7121C29.1036 29.9447 28.6104 30.4378 28.6104 31.0464C28.6104 31.6549 29.1036 32.1481 29.7121 32.1481H47.0295C48.4173 34.7676 51.1712 36.5571 54.3365 36.5571C57.5019 36.5571 60.2558 34.7676 61.6436 32.1481H67.1356C67.2335 32.1481 67.3317 32.1431 67.4272 32.1334C68.8939 31.9841 70 30.7593 70 29.2838V21.9778C70 21.2454 69.9222 20.5307 69.7766 19.8408ZM4.64092 29.2808C4.64092 29.3284 4.63531 29.3744 4.62684 29.4196C4.62547 29.4264 4.62465 29.4334 4.62314 29.4401C4.61385 29.4831 4.60072 29.5247 4.58432 29.5648C4.58145 29.5719 4.57816 29.5786 4.57502 29.5854C4.55738 29.625 4.53729 29.6632 4.51336 29.699C4.51021 29.7035 4.50652 29.7078 4.50324 29.7123C4.48342 29.7404 4.461 29.7667 4.43762 29.7917C4.42654 29.8035 4.41561 29.8155 4.40371 29.8267C4.26863 29.9545 4.08748 30.0342 3.88719 30.0342H2.95682C2.54147 30.0341 2.20322 29.6963 2.20322 29.2808V24.4794C2.20322 24.0639 2.54133 23.7256 2.95695 23.7256H3.88732C3.98221 23.7256 4.07217 23.7452 4.1557 23.7773C4.16979 23.7828 4.18387 23.7881 4.19754 23.7944C4.23076 23.8096 4.26262 23.8267 4.29297 23.8462C4.29939 23.8503 4.30637 23.8539 4.31266 23.8583C4.38936 23.911 4.45594 23.9775 4.50857 24.0542C4.51199 24.059 4.51473 24.0643 4.51801 24.0693C4.53906 24.1016 4.55738 24.1359 4.57338 24.1713C4.57803 24.1819 4.58268 24.1928 4.58691 24.2035C4.59949 24.2355 4.60947 24.2687 4.61781 24.3027C4.62082 24.3149 4.62437 24.3269 4.62684 24.3395C4.63531 24.3849 4.64092 24.4315 4.64092 24.4794V29.2808ZM15.2873 22.231C18.6298 22.231 21.3493 24.9504 21.3493 28.2927C21.3493 28.3954 21.3467 28.4974 21.3415 28.5987C21.3396 28.6364 21.3358 28.6739 21.3332 28.7115C21.3288 28.7747 21.325 28.8378 21.3188 28.9006C21.3135 28.9538 21.3058 29.0065 21.2991 29.0594C21.2933 29.1052 21.2885 29.1515 21.2816 29.197C21.2712 29.2663 21.2583 29.3352 21.2455 29.4041C21.2404 29.432 21.2361 29.46 21.2305 29.4878C21.2126 29.5765 21.1925 29.6648 21.1706 29.7526C21.169 29.7593 21.1675 29.7663 21.166 29.7728C21.093 30.061 20.9985 30.3445 20.8827 30.6223C20.8808 30.6268 20.8798 30.6316 20.878 30.6359C19.9598 32.818 17.7998 34.3542 15.2876 34.3542C12.7762 34.3542 10.6172 32.8188 9.69869 30.6375C9.69664 30.6325 9.69555 30.6273 9.69336 30.6223C9.57729 30.3443 9.48281 30.0608 9.4098 29.7723C9.40857 29.7675 9.40762 29.7625 9.40639 29.7577C9.38397 29.6681 9.36346 29.5779 9.34514 29.4874C9.3398 29.461 9.3357 29.4339 9.33078 29.4073C9.31766 29.3373 9.30467 29.2671 9.29387 29.1966C9.2873 29.1524 9.28252 29.1076 9.27678 29.0629C9.26994 29.0087 9.26215 28.9544 9.25668 28.8999C9.25066 28.8392 9.24697 28.7777 9.24273 28.7164C9.24 28.677 9.23604 28.6378 9.23385 28.5982C9.22893 28.4968 9.22606 28.3949 9.22606 28.2923C9.22647 24.9504 11.9453 22.231 15.2873 22.231ZM66.0661 20.0277C64.5947 20.0277 63.3977 18.8307 63.3977 17.3592C63.3977 16.5638 63.7473 15.827 64.3377 15.3265C64.393 15.3656 64.4488 15.4038 64.5032 15.4443C64.5142 15.4524 64.5252 15.4603 64.5362 15.4685C64.9484 15.778 65.3304 16.1256 65.6768 16.5061C65.6806 16.5103 65.6843 16.5145 65.6883 16.5189C65.768 16.607 65.8459 16.6969 65.9218 16.7884C65.9328 16.8015 65.9434 16.8146 65.9542 16.828C66.0233 16.9123 66.0905 16.9978 66.1562 17.0849C66.1686 17.1015 66.1812 17.118 66.1936 17.1346C66.2588 17.2222 66.3221 17.3115 66.3838 17.4018C66.3936 17.4161 66.4036 17.4303 66.4133 17.4448C66.5562 17.657 66.6898 17.8761 66.8127 18.102C66.8139 18.1042 66.815 18.1065 66.8162 18.1085C66.8734 18.214 66.9281 18.321 66.9806 18.4291C66.9949 18.4587 67.0085 18.4886 67.0224 18.5184C67.0611 18.6002 67.0987 18.6828 67.1345 18.766C67.1508 18.8039 67.1665 18.8419 67.1822 18.88C67.2141 18.9573 67.2448 19.0352 67.2745 19.1134C67.29 19.1544 67.3054 19.1953 67.3202 19.2366C67.3483 19.3154 67.3751 19.3949 67.401 19.4748C67.414 19.515 67.4275 19.555 67.4399 19.5954C67.4445 19.6099 67.448 19.6248 67.4524 19.6392C67.0385 19.8925 66.5618 20.0277 66.0661 20.0277ZM60.3904 28.6008C60.3894 28.6204 60.3873 28.64 60.3862 28.6597C60.3812 28.7428 60.3757 28.8258 60.3672 28.9081C60.3657 28.9226 60.3634 28.9371 60.3619 28.9516C60.3524 29.0388 60.3419 29.1258 60.3287 29.2119C60.3271 29.2215 60.3252 29.2308 60.3236 29.2402C60.3092 29.3311 60.2934 29.4217 60.2752 29.5112C60.2741 29.5162 60.2729 29.521 60.2718 29.5261C60.2524 29.6197 60.2309 29.713 60.2072 29.805C60.2066 29.8076 60.2057 29.8102 60.2051 29.8128C59.5287 32.4218 57.154 34.3542 54.3365 34.3542C51.7275 34.3542 49.4983 32.6973 48.6459 30.3804C48.6452 30.3782 48.6441 30.3762 48.6434 30.374C48.611 30.2853 48.5807 30.1956 48.5522 30.1051C48.5507 30.1006 48.5491 30.096 48.5479 30.0917C48.5198 30.0013 48.494 29.9101 48.4701 29.8182C48.4688 29.8136 48.4675 29.8089 48.4663 29.8043C48.4427 29.7131 48.4217 29.6211 48.4024 29.5283C48.4012 29.5224 48.3997 29.5166 48.3984 29.5109C48.3801 29.4212 48.3643 29.3307 48.3498 29.2396C48.3483 29.2303 48.3463 29.2213 48.345 29.2119C48.3317 29.1256 48.3212 29.0385 48.3118 28.9512C48.3103 28.9368 48.3079 28.9225 48.3064 28.908C48.2981 28.8255 48.2925 28.7424 48.2874 28.659C48.2862 28.6396 48.2841 28.6203 48.2832 28.6009C48.278 28.4988 48.2754 28.3961 48.2754 28.2929C48.2754 24.9505 50.9946 22.2312 54.3368 22.2312C57.679 22.2312 60.3982 24.9505 60.3982 28.2929C60.3982 28.3959 60.3956 28.4986 60.3904 28.6008Z" fill="#495865"/>
</g>
<defs>
<clipPath id="clip0">
<rect width="70" height="36.6406" fill="white"/>
</clipPath>
</defs>
</svg>
