<svg width="70" height="70" viewBox="0 0 70 70" fill="none" xmlns="http://www.w3.org/2000/svg">
<path d="M59.7047 10.1582C53.1559 3.60938 44.4469 0 35.1911 0C27.9039 0 20.9313 2.22852 15.025 6.4668C14.4098 6.9043 14.2731 7.76562 14.7106 8.38086C15.1481 8.99609 16.0094 9.13281 16.6247 8.69531C22.0524 4.79883 28.4782 2.73438 35.1911 2.73438C52.8004 2.73438 67.1286 17.0625 67.1286 34.6719C67.1286 52.2812 52.8004 66.6094 35.1911 66.6094C29.8317 66.6094 24.5133 65.2559 19.8512 62.6855C19.5368 62.5215 19.1813 62.4668 18.8395 62.5625L3.60903 66.6914L7.76528 51.8848C7.86098 51.5293 7.81997 51.1465 7.62856 50.8184C4.77114 45.9375 3.25356 40.3594 3.25356 34.6719C3.25356 27.959 5.31802 21.5332 9.20083 16.1055C9.63833 15.4902 9.50161 14.6426 8.88637 14.2051C8.27114 13.7676 7.42348 13.9043 6.97231 14.5195C2.7477 20.4121 0.505516 27.3848 0.505516 34.6719C0.505516 40.6465 2.05044 46.5117 4.96255 51.6934L0.31411 68.2637C0.177391 68.7422 0.31411 69.248 0.655907 69.5898C0.915672 69.8496 1.27114 70 1.62661 70C1.74966 70 1.85903 69.9863 1.98208 69.959L19.0172 65.3516C23.9665 67.9629 29.5446 69.3438 35.1911 69.3438C44.4469 69.3438 53.1559 65.7344 59.7047 59.1855C66.2536 52.6367 69.8629 43.9277 69.8629 34.6719C69.8629 25.416 66.2536 16.707 59.7047 10.1582Z" fill="#495865"/>
<path d="M57.5996 51.2422C58.2285 51.666 59.0762 51.4883 59.5 50.8594C62.6992 46.0742 64.3945 40.4688 64.3945 34.6719C64.3945 26.8652 61.3594 19.5371 55.8359 14.0137C50.3125 8.49023 42.9844 5.46875 35.1914 5.46875C27.3984 5.46875 20.0566 8.50391 14.5332 14.0273C9.00977 19.5508 5.97461 26.8789 5.97461 34.6855C5.97461 39.8809 7.35547 44.9805 9.9668 49.4375L10.8555 50.9414L8.17578 60.4844C8.03906 60.9629 8.17578 61.4688 8.51758 61.8105C8.85937 62.1523 9.36523 62.3027 9.84375 62.166L19.6875 59.5L21.1367 60.293C25.4023 62.6445 30.2559 63.875 35.1641 63.875C40.9609 63.875 46.5527 62.1797 51.3652 58.9805C51.9941 58.5566 52.1582 57.709 51.748 57.0801C51.3379 56.4512 50.4766 56.2871 49.8477 56.6973C45.5 59.5957 40.4277 61.1406 35.1641 61.1406C30.7207 61.1406 26.3184 60.0195 22.4492 57.9004L20.5215 56.834C20.207 56.6699 19.8516 56.6152 19.5098 56.7109L11.457 58.8848L13.6445 51.1055C13.7402 50.75 13.6992 50.3672 13.5078 50.0391L12.332 48.0293C9.9668 43.9961 8.70898 39.3613 8.70898 34.6582C8.70898 20.084 20.5898 8.20312 35.1914 8.20312C49.793 8.20312 61.6602 20.084 61.6602 34.6719C61.6602 39.9219 60.1289 44.9941 57.2168 49.3555C56.793 49.9844 56.9707 50.832 57.5996 51.2422Z" fill="#495865"/>
<path d="M30.1874 30.4744L30.2831 30.3651C31.5135 28.9842 31.1991 27.3709 30.7206 26.2635C30.0233 24.6229 28.1776 20.4256 28.0135 20.0291C27.7401 19.3455 26.8378 18.2518 25.0194 18.2244C23.5975 18.1971 23.1327 18.2381 23.0233 18.2518C23.0096 18.2518 22.996 18.2518 22.996 18.2518C22.7909 18.2791 17.869 19.0858 17.0077 26.4549C16.6112 29.8455 18.1835 33.8924 21.6835 38.4725C25.5526 43.5447 29.0936 46.5662 34.3436 49.2459C36.9549 50.5858 40.7831 52.1444 44.3378 52.1444C44.4471 52.1444 44.5702 52.1444 44.6796 52.1444C48.6717 52.0213 50.8046 50.367 51.8983 48.9998C53.0467 47.5369 53.2928 46.1151 53.3202 45.8553C53.3475 45.6912 53.4022 45.199 53.4296 43.9002C53.4842 42.0819 52.4315 41.1248 51.7616 40.824C51.3788 40.6326 47.4686 38.6912 45.869 37.9119C44.7889 37.3924 43.1893 37.0916 41.7538 38.6365C41.7401 38.6502 41.7401 38.6502 41.7264 38.6639C41.535 38.8279 41.3436 39.0877 40.7557 39.867C40.4003 40.3455 39.6757 41.3026 39.3749 41.6307C38.7323 41.6717 36.5858 40.7283 33.537 38.3631C31.6092 36.8729 29.5585 34.5623 28.4237 32.5936C28.41 32.5662 28.41 32.5115 28.41 32.4842C28.8885 31.992 29.6542 31.1033 30.1874 30.4744ZM31.869 40.5096C32.785 41.2205 34.5624 42.533 36.2987 43.408C37.119 43.8182 39.5936 45.076 41.1385 43.7225C41.5624 43.3533 42.1639 42.5604 42.9706 41.4803C43.203 41.1658 43.4901 40.7967 43.5995 40.66C43.6678 40.5916 43.7362 40.5369 43.7909 40.4686C44.037 40.1951 44.1464 40.0858 44.6932 40.3455C46.3339 41.1385 50.4491 43.1893 50.5995 43.2576C50.6542 43.3123 50.7225 43.4764 50.7225 43.8045C50.6952 44.9393 50.6542 45.3494 50.6405 45.4178C50.6405 45.4451 50.6405 45.4315 50.6405 45.4588C50.6268 45.5545 50.4491 46.4705 49.6971 47.3729C48.6307 48.6444 46.9354 49.3143 44.6249 49.3826C41.5487 49.4783 38.0214 48.0291 35.6151 46.785C30.6932 44.283 27.5214 41.576 23.8846 36.7908C20.8768 32.8533 19.4549 29.3807 19.7557 26.742C20.3299 21.7928 23.037 21.0135 23.4061 20.9315C23.5292 20.9178 23.9667 20.9041 24.9921 20.9315C25.3202 20.9451 25.4842 21.0272 25.5253 21.0819C25.5936 21.2322 27.5214 25.6346 28.246 27.3162C28.6014 28.1639 28.3827 28.41 28.2733 28.5194C28.2596 28.5467 28.2323 28.5604 28.2186 28.574L28.1366 28.6697C27.3436 29.5994 26.7967 30.2283 26.4823 30.5428C25.4706 31.5819 25.5663 33.0174 26.0858 33.9061C27.371 36.2166 29.6542 38.8006 31.869 40.5096Z" fill="#E57217"/>
<path d="M11.6349 12.496C11.9631 12.496 12.2912 12.3729 12.551 12.1405C13.1115 11.6347 13.1525 10.7733 12.6467 10.2128C12.1408 9.65225 11.2795 9.61123 10.7189 10.1171C10.1584 10.6229 10.1174 11.4843 10.6232 12.0448C10.8967 12.3456 11.2658 12.496 11.6349 12.496Z" fill="#495865"/>
<path d="M53.8537 53.4435C53.3478 54.0041 53.3889 54.8654 53.9494 55.3713C54.2092 55.6037 54.5373 55.7267 54.8654 55.7267C55.2346 55.7267 55.6037 55.5763 55.8771 55.2755C56.383 54.715 56.342 53.8537 55.7814 53.3478C55.2209 52.8419 54.3596 52.883 53.8537 53.4435Z" fill="#495865"/>
</svg>
