<svg width="64" height="72" viewBox="0 0 64 72" fill="none" xmlns="http://www.w3.org/2000/svg">
<path d="M48.4242 69.6929L48.4232 69.6922C47.796 69.2664 47.3666 68.6108 47.2345 67.857L44.0502 50.1919C43.9942 49.8861 43.7408 49.6337 43.4318 49.5773L39.3575 48.9771C33.2645 48.086 28.4856 43.4073 27.4911 37.3597C27.4911 37.3596 27.4911 37.3595 27.4911 37.3594L26.6636 32.5581C26.6635 32.5578 26.6635 32.5576 26.6634 32.5573C26.558 31.9966 26.9451 31.4398 27.5078 31.3351C28.0711 31.2303 28.633 31.6131 28.7389 32.1733L28.739 32.1743L28.739 32.1743L29.5988 36.9779L29.5991 36.9791L29.599 36.9791C30.4517 42.119 34.4936 46.0991 39.7047 46.8514L39.705 46.8514L43.781 47.4519L43.7823 47.4521C45.0014 47.6483 45.9584 48.5646 46.1893 49.7759L46.1895 49.7769L49.3738 67.4428L49.3745 67.4463L49.3744 67.4463C49.4019 67.6369 49.5115 67.8023 49.6809 67.9144C49.8559 68.0301 50.0487 68.0809 50.2353 68.028L50.2436 68.0256L50.2437 68.026L55.8145 66.9519C55.8147 66.9518 55.815 66.9518 55.8153 66.9517C56.2108 66.8671 56.4862 66.4769 56.4074 66.0964L56.3774 66.007L56.3733 65.9951L56.3741 65.995C56.29 65.5775 55.8989 65.3252 55.4729 65.4096C55.4728 65.4096 55.4727 65.4096 55.4726 65.4096L54.3924 65.6303C54.1055 65.7008 53.8221 65.6278 53.5802 65.4563C53.334 65.2818 53.1953 65.038 53.1271 64.7671L53.1253 64.7599L53.1256 64.7599L49.8456 45.9563L49.8448 45.9516L49.8449 45.9516C49.8176 45.7345 49.681 45.5409 49.4539 45.4282L49.4513 45.4269L49.4513 45.4269L39.4842 40.1176L39.4829 40.117C38.5942 39.6269 37.9995 38.7111 37.9664 37.694L37.9664 37.6934L37.7754 30.3299L37.7753 30.3273C37.7753 29.7352 38.2325 29.2826 38.7926 29.2478L38.7988 29.2475V29.2477C39.3937 29.2477 39.8507 29.7003 39.8858 30.2578L39.886 30.2615L39.8859 30.2615L40.077 37.625L40.0771 37.6276C40.077 37.8981 40.2395 38.1221 40.4729 38.2678L50.4053 43.5755L50.4055 43.5756C51.1957 44.0004 51.7254 44.7215 51.858 45.607C51.858 45.6075 51.8581 45.6079 51.8582 45.6083L54.96 63.3557L54.9833 63.3499L54.9886 63.3486L54.9887 63.3487C56.5356 63.0548 58.0517 64.0646 58.3522 65.5702L58.382 65.6589L58.3863 65.6717L58.3854 65.6718C58.6822 67.2099 57.6931 68.7173 56.1408 69.0124L48.4242 69.6929ZM48.4242 69.6929C48.9182 70.0198 49.4787 70.1835 50.0397 70.1835C50.2071 70.1835 50.4068 70.1512 50.5772 70.0852L56.1405 69.0125L48.4242 69.6929Z" fill="#495865" stroke="#495865" stroke-width="0.2"/>
<path d="M26.2491 30.1535L26.249 30.1536L26.2498 30.1574C26.355 30.6792 26.8108 31.0277 27.3031 31.0277C27.3049 31.0277 27.3069 31.0278 27.309 31.0278C27.3349 31.028 27.3853 31.0284 27.4299 31.0018C27.4623 30.9825 27.4844 30.9547 27.5008 30.9237C28.067 30.8253 28.4269 30.2836 28.3251 29.741L26.8605 20.8622C26.8605 20.8621 26.8605 20.862 26.8605 20.862C26.7375 20.0985 26.9221 19.3374 27.4128 18.7286C27.9048 18.1184 28.6115 17.7523 29.3804 17.6911C29.3806 17.6911 29.3807 17.6911 29.3809 17.6911L31.2257 17.5648C31.8695 17.5347 32.5102 17.7479 32.9658 18.1692L36.4306 21.6078C36.5285 21.7363 36.6262 21.8335 36.7193 21.9259C37.106 22.3759 37.7727 22.4114 38.1959 22.0279C38.6504 21.6448 38.6878 20.9823 38.3024 20.5611C38.203 20.4303 38.0724 20.3007 37.9181 20.1476L37.9139 20.1434L34.4429 16.6987L34.4429 16.6987L34.4416 16.6974C33.5616 15.8565 32.3239 15.4038 31.0853 15.5007C31.0851 15.5007 31.0849 15.5007 31.0848 15.5007L29.2388 15.6271L29.2384 15.6271C27.9043 15.724 26.6368 16.4017 25.7919 17.466C24.9465 18.5308 24.5886 19.9182 24.8162 21.2421C24.8162 21.2423 24.8163 21.2425 24.8163 21.2427L26.2491 30.1535Z" fill="#495865" stroke="#495865" stroke-width="0.2"/>
<path d="M55.7894 67.0139L55.7893 67.0137L55.7845 67.0147L50.5311 68.0258C49.9335 68.1309 49.5822 68.6898 49.6862 69.2467C49.759 69.7435 50.2202 70.0887 50.7084 70.0887H50.7086H50.7088H50.7089H50.7091H50.7093H50.7095H50.7097H50.7099H50.7101H50.7103H50.7105H50.7107H50.7109H50.7111H50.7113H50.7115H50.7117H50.7119H50.7121H50.7123H50.7125H50.7127H50.7129H50.7131H50.7133H50.7135H50.7137H50.7139H50.7141H50.7143H50.7145H50.7147H50.715H50.7152H50.7154H50.7156H50.7158H50.716H50.7162H50.7165H50.7167H50.7169H50.7171H50.7173H50.7176H50.7178H50.718H50.7182H50.7185H50.7187H50.7189H50.7191H50.7194H50.7196H50.7198H50.7201H50.7203H50.7205H50.7208H50.721H50.7212H50.7215H50.7217H50.7219H50.7222H50.7224H50.7227H50.7229H50.7231H50.7234H50.7236H50.7239H50.7241H50.7244H50.7246H50.7249H50.7251H50.7254H50.7256H50.7259H50.7261H50.7264H50.7266H50.7269H50.7272H50.7274H50.7277H50.7279H50.7282H50.7285H50.7287H50.729H50.7293H50.7295H50.7298H50.7301H50.7303H50.7306H50.7309H50.7312H50.7314H50.7317H50.732H50.7323H50.7325H50.7328H50.7331H50.7334H50.7337H50.7339H50.7342H50.7345H50.7348H50.7351H50.7354H50.7357H50.736H50.7363H50.7365H50.7368H50.7371H50.7374H50.7377H50.738H50.7383H50.7386H50.7389H50.7392H50.7395H50.7398H50.7401H50.7405H50.7408H50.7411H50.7414H50.7417H50.742H50.7423H50.7426H50.7429H50.7433H50.7436H50.7439H50.7442H50.7445H50.7449H50.7452H50.7455H50.7458H50.7462H50.7465H50.7468H50.7472H50.7475H50.7478H50.7482H50.7485H50.7488H50.7492H50.7495H50.7498H50.7502H50.7505H50.7509H50.7512H50.7516H50.7519H50.7523H50.7526H50.753H50.7533H50.7537H50.754H50.7544H50.7547H50.7551H50.7555H50.7558H50.7562H50.7565H50.7569H50.7573H50.7576H50.758H50.7584H50.7587H50.7591H50.7595H50.7599H50.7602H50.7606H50.761H50.7614H50.7618H50.7621H50.7625H50.7629H50.7633H50.7637H50.7641H50.7645H50.7649H50.7652H50.7656H50.766H50.7664H50.7668H50.7672H50.7676H50.768H50.7684H50.7688H50.7692H50.7696H50.7701H50.7705H50.7709H50.7713H50.7717H50.7721H50.7725H50.773H50.7734H50.7738H50.7742H50.7746H50.7751H50.7755H50.7759H50.7763H50.7768H50.7772H50.7776H50.7781H50.7785H50.7789H50.7794H50.7798H50.7803H50.7807H50.7812H50.7816H50.782H50.7825H50.7829H50.7834H50.7839H50.7843H50.7848H50.7852H50.7857H50.7861H50.7866H50.7871H50.7875H50.788H50.7885H50.7889H50.7894H50.7899H50.7903H50.7908H50.7913H50.7918H50.7922H50.7927H50.7932H50.7937H50.7942H50.7947H50.7952H50.7956H50.7961H50.7966H50.7971H50.7976H50.7981H50.7986H50.7991H50.7996H50.8001H50.8006H50.8011H50.8016H50.8021H50.8027H50.8032H50.8037H50.8042H50.8047H50.8052H50.8057H50.8063H50.8068H50.8073H50.8078H50.8084H50.8089H50.8094H50.81H50.8105H50.811H50.8116H50.8121H50.8127H50.8132H50.8137H50.8143H50.8148H50.8154H50.8159H50.8165H50.817H50.8176H50.8181H50.8187H50.8193H50.8198H50.8204H50.821H50.8215H50.8221H50.8227H50.8232H50.8238H50.8244H50.825H50.8255H50.8261H50.8267H50.8273H50.8279H50.8284H50.829H50.8296H50.8302H50.8308H50.8314H50.832H50.8326H50.8332H50.8338H50.8344H50.835H50.8356H50.8362H50.8368H50.8374H50.8381H50.8387H50.8393H50.8399H50.8405H50.8411H50.8418H50.8424H50.843H50.8437H50.8443H50.8449H50.8456H50.8462H50.8468H50.8475H50.8481H50.8487H50.8494H50.85H50.8507H50.8513H50.852H50.8526H50.8533H50.854H50.8546H50.8553H50.8559H50.8566H50.8573H50.8579H50.8586H50.8593H50.86H50.8606H50.8613H50.862H50.8627H50.8634H50.864H50.8647H50.8654H50.8661H50.8668H50.8675H50.8682H50.8689H50.8696H50.8703H50.871H50.8717H50.8724H50.8731H50.8738H50.8745H50.8752H50.876H50.8767H50.8774H50.8781H50.8788H50.8796H50.8803H50.881H50.8818H50.8825H50.8832H50.884H50.8847H50.8854H50.8862H50.8869H50.8877H50.8884H50.8892H50.8899H50.8907H50.8914H50.8922H50.893H50.8937H50.8945H50.8952H50.896H50.8968H50.8976H50.8983H50.8991H50.8999H50.9007H50.9014H50.9022H50.903H50.9038H50.9046H50.9054H50.9062H50.907H50.9078H50.9086H50.9094H50.9102H50.911H50.9118H50.9126H50.9134H50.9142H50.915H50.9159H50.9167H50.9175H50.9183H50.9192H50.92H50.9208H50.9216H50.9225H50.9233H50.9242H50.925H50.9258H50.9267H50.9275H50.9284H50.9292H50.9301H50.9309H50.9318H50.9327H50.9335H50.9344H50.9352H50.9361H50.937H50.9379H50.9387H50.9396H50.9405H50.9414H50.9422H50.9431H50.944H50.9449H50.9458H50.9467H50.9476H50.9485H50.9494H50.9503H50.9512H50.9521H50.953H50.9539H50.9548H50.9557H50.9567H50.9576H50.9585H50.9594H50.9603H50.9613H50.9622H50.9631H50.9727L50.982 70.0869L56.2363 69.0756L56.2363 69.0757L56.2394 69.075C56.963 68.9118 57.6221 68.4872 58.0511 67.8649C58.4818 67.2402 58.6126 66.4861 58.4813 65.7367L58.4815 65.7367L58.4797 65.7295L58.4482 65.6042C58.2834 64.8859 57.8555 64.2321 57.2289 63.8067C56.5997 63.3795 55.8403 63.2498 55.0858 63.38L55.0858 63.38L55.0835 63.3804L51.2314 64.1387C50.6344 64.2438 50.2822 64.7711 50.387 65.3606C50.493 65.9564 51.0581 66.3041 51.6183 66.1999L51.6183 66.1999L51.6193 66.1997L55.4697 65.4418C55.6735 65.4134 55.8694 65.4435 56.0348 65.5529C56.2042 65.665 56.3139 65.8304 56.3413 66.021L56.3408 66.0211L56.3433 66.0312L56.3739 66.1525C56.4018 66.3533 56.3714 66.5463 56.2617 66.7095C56.149 66.8773 55.9821 66.9865 55.7894 67.0139Z" fill="#495865" stroke="#495865" stroke-width="0.2"/>
<path d="M11.9286 64.1238L11.9287 64.1238C12.423 63.7734 13.0555 63.917 13.403 64.3653L13.4054 64.3685L13.4054 64.3685L16.4942 68.6981L16.4959 68.7004L16.4958 68.7004C16.6086 68.8683 16.7754 68.9775 16.9682 69.0048C17.1722 69.0337 17.364 69.0038 17.5273 68.8687L17.5355 68.8619L17.5359 68.8624L17.6314 68.7992C17.8007 68.6871 17.9104 68.5217 17.9379 68.3311C17.9669 68.1292 17.9369 67.9394 17.801 67.7776L17.7961 67.7717L17.7963 67.7715L15.5992 64.7062L11.9286 64.1238ZM11.9286 64.1238L11.9258 64.1259M11.9286 64.1238L11.9258 64.1259M11.9258 64.1259C11.4742 64.4707 11.3287 65.0994 11.6823 65.5909C11.6824 65.591 11.6824 65.5911 11.6824 65.5911L14.7706 69.9197C15.2011 70.5437 15.8621 70.936 16.6175 71.0667C16.786 71.1 16.9531 71.1 17.1091 71.1H17.1134C17.7051 71.1 18.2668 70.9367 18.7626 70.5765L18.8563 70.5145L18.8563 70.5145L18.8573 70.5138C19.4866 70.0865 19.8825 69.4297 20.0141 68.6786C20.1465 67.923 19.9474 67.1699 19.5203 66.5504L19.5203 66.5504L19.5193 66.5489L17.322 63.4835L17.3221 63.4834L17.3198 63.4805C16.9723 63.0321 16.3398 62.8885 15.8455 63.2389L15.8454 63.2389M11.9258 64.1259L15.8454 63.2389M15.8454 63.2389L15.8426 63.241M15.8454 63.2389L15.8426 63.241M15.8426 63.241C15.391 63.5858 15.2455 64.2145 15.5991 64.7061L15.8426 63.241Z" fill="#495865" stroke="#495865" stroke-width="0.2"/>
<path d="M17.2438 65.2L17.2433 65.2004C16.788 65.5479 16.6794 66.2107 17.0335 66.668C17.2446 66.9471 17.5614 67.0865 17.8771 67.0865C18.0863 67.0865 18.3317 67.0182 18.5115 66.876L31.9763 56.7354C32.1598 56.6241 32.2649 56.4442 32.3315 56.2789L32.3316 56.2785L35.1974 49.0735C35.1975 49.0734 35.1975 49.0734 35.1975 49.0733C35.4099 48.5459 35.1274 47.9199 34.6002 47.7107L34.6002 47.7107L34.5982 47.7099C34.0377 47.5013 33.4399 47.7794 33.2287 48.3035L33.2285 48.3038L30.4685 55.2304L17.2438 65.2Z" fill="#495865" stroke="#495865" stroke-width="0.2"/>
<path d="M10.5987 64.0414L10.5995 64.0425L14.0673 68.8733C14.25 69.1945 14.6062 69.3302 14.916 69.3302C15.1337 69.3302 15.3465 69.2566 15.5838 69.0553C16.0338 68.7101 16.1784 68.0825 15.8251 67.5917L15.825 67.5916L12.9189 63.56L26.5056 52.5591C26.5058 52.559 26.5059 52.5589 26.5061 52.5588C26.6811 52.4197 26.8238 52.2096 26.8605 51.9605L29.6622 37.8683L29.6624 37.8673C29.7684 37.3064 29.3812 36.7491 28.8182 36.6443C28.2551 36.5396 27.6933 36.9221 27.5872 37.482C27.5872 37.4822 27.5871 37.4824 27.5871 37.4826L24.8558 51.225L10.8099 62.6099C10.3517 62.9607 10.2838 63.5899 10.5987 64.0414L10.5987 64.0414Z" fill="#495865" stroke="#495865" stroke-width="0.2"/>
<path d="M40.2906 25.0497C40.2906 25.6429 40.7501 26.0977 41.3459 26.0977C41.944 26.0977 42.4029 25.6083 42.3694 25.0152V17.465C42.3694 17.0469 42.7061 16.7117 43.1292 16.7117H60.2293C60.6525 16.7117 60.9891 17.0469 60.9891 17.465V24.7968C60.9891 25.39 61.4486 25.8449 62.0444 25.8449C62.6403 25.8449 63.0998 25.39 63.0998 24.7968V17.465C63.0998 15.8921 61.8124 14.6156 60.2293 14.6156H43.161C41.578 14.6156 40.2906 15.8921 40.2906 17.465V25.0497Z" fill="#E57214" stroke="#E67217" stroke-width="0.2"/>
<path d="M60.9582 34.5495L60.9581 34.5495L60.9577 34.5543C60.9304 34.9068 60.5977 35.1889 60.2295 35.1889H43.1293C42.7062 35.1889 42.3695 34.8537 42.3695 34.4356V32.3815C42.3695 31.7883 41.9101 31.3334 41.3142 31.3334C40.7183 31.3334 40.2589 31.7883 40.2589 32.3815V34.4356C40.2589 36.0085 41.5463 37.2851 43.1293 37.2851H60.2295C61.648 37.2851 62.869 36.2377 63.0671 34.8288L63.0673 34.8266C63.1375 34.235 62.7168 33.7111 62.1524 33.6411L62.1517 33.6411C61.5575 33.5717 61.0289 33.9879 60.9582 34.5495Z" fill="#E57214" stroke="#E67217" stroke-width="0.2"/>
<path d="M50.8036 22.0842H52.5869C54.1683 22.0842 55.4579 20.809 55.4255 19.2653V15.6953C55.4255 15.1021 54.966 14.6472 54.3701 14.6472H48.9885C48.3927 14.6472 47.9332 15.1021 47.9332 15.6953V19.2348C47.9332 20.8077 49.2206 22.0842 50.8036 22.0842ZM50.0438 19.2664V16.7434H53.3467V19.2664C53.3467 19.6845 53.01 20.0197 52.5869 20.0197H50.8036C50.3805 20.0197 50.0438 19.6845 50.0438 19.2664Z" fill="#E57214" stroke="#E67217" stroke-width="0.2"/>
<path d="M39.8426 24.994L39.8428 24.9942C40.0515 25.2013 40.2993 25.3077 40.582 25.3077C40.8305 25.3077 41.1099 25.2031 41.3196 24.9958C41.7455 24.6067 41.7404 23.9411 41.3213 23.5251C41.3212 23.525 41.3212 23.525 41.3212 23.525L36.1004 18.3121C35.7092 17.8903 35.0409 17.8949 34.622 18.309C34.1961 18.6981 34.2012 19.3636 34.6203 19.7797C34.6204 19.7797 34.6204 19.7798 34.6205 19.7798L39.8426 24.994Z" fill="#495865" stroke="#495865" stroke-width="0.2"/>
<path d="M35.8665 29.0116L35.8665 29.0116L35.8692 29.0139C36.0737 29.183 36.3184 29.2896 36.5698 29.2896C36.8497 29.2896 37.1329 29.185 37.345 28.9402C37.7325 28.5193 37.6959 27.8562 37.274 27.4723L37.274 27.4723L37.2731 27.4715L34.2488 24.7861C34.2487 24.7859 34.2485 24.7858 34.2484 24.7857C33.8248 24.4008 33.1574 24.4367 32.7706 24.8554C32.3819 25.2763 32.4181 25.9403 32.8405 26.3245L32.8405 26.3245L32.8414 26.3253L35.8665 29.0116Z" fill="#495865" stroke="#495865" stroke-width="0.2"/>
<path d="M56.112 33.3573L56.1133 33.3579C56.4146 33.4908 56.779 33.556 57.109 33.556H61.3761C62.3182 33.556 63.1001 32.7889 63.1001 31.9391V27.7675C63.1001 26.8287 62.3886 26.0893 61.4433 26.0558L61.4425 26.0558L57.9729 25.961C57.3738 25.9284 56.8084 26.127 56.3445 26.5213C56.3442 26.5215 56.3439 26.5218 56.3436 26.522L55.999 26.8018C55.9215 26.8523 55.8465 26.877 55.7426 26.8774L44.132 26.1829C44.0128 26.1522 43.8795 26.0955 43.805 26.0216L41.3212 23.5566L41.3212 23.5565L41.318 23.5536C40.8995 23.1728 40.2019 23.1686 39.811 23.5566L35.7987 27.5385C35.5875 27.748 35.4825 28.0269 35.4825 28.3047C35.4825 28.5886 35.624 28.8684 35.8358 29.0443L40.1652 32.8986L40.1652 32.8986L40.1665 32.8997C40.6606 33.3247 41.3216 33.5886 41.9871 33.5559C41.9874 33.5559 41.9878 33.5559 41.9881 33.5559L55.5501 33.1452C55.6155 33.1452 55.6558 33.1467 55.6952 33.1663L55.6952 33.1664L55.698 33.1677L56.112 33.3573ZM56.5774 31.2477L56.5775 31.2476L56.5727 31.2457C56.2465 31.1162 55.9187 31.0502 55.5899 31.049L55.5872 31.0464L55.5567 31.0161L55.5138 31.0174L41.9499 31.4282C41.8227 31.4279 41.7173 31.3789 41.6006 31.2926L38.1166 28.1746L40.5814 25.7284L42.2932 27.4576C42.7268 27.9204 43.3566 28.1821 43.9837 28.215C43.9839 28.215 43.984 28.215 43.9841 28.215L55.6382 28.9102L55.6389 28.9103C56.2691 28.9432 56.8661 28.7453 57.3622 28.3515L57.3631 28.3508L57.7134 28.0663L57.7137 28.0667L57.7208 28.0597C57.7365 28.0441 57.7671 28.0266 57.8109 28.0133C57.8527 28.0005 57.898 27.9941 57.9355 27.9939L61.0213 28.0858V31.4598H57.1408C57.0746 31.4598 57.034 31.4584 56.9942 31.4386L56.9942 31.4386L56.9914 31.4373L56.5774 31.2477Z" fill="#495865" stroke="#495865" stroke-width="0.2"/>
<path d="M9.15209 25.3077H21.6667C22.2286 25.3077 22.722 24.8549 22.722 24.2596C22.722 23.6664 22.2626 23.2115 21.6667 23.2115H9.15209C8.55624 23.2115 8.09678 23.6664 8.09678 24.2596C8.09678 24.8528 8.55624 25.3077 9.15209 25.3077Z" fill="#495865" stroke="#495865" stroke-width="0.2"/>
<path d="M21.1575 31.0278H30.5514C31.1473 31.0278 31.6067 30.5729 31.6067 29.9797C31.6067 29.3865 31.1473 28.9316 30.5514 28.9316H21.1575C20.5616 28.9316 20.1021 29.3865 20.1021 29.9797C20.1021 30.5729 20.5616 31.0278 21.1575 31.0278Z" fill="#495865" stroke="#495865" stroke-width="0.2"/>
<path d="M1.95532 36.9375H17.2722C17.834 36.9375 18.3275 36.4847 18.3275 35.8894C18.3275 35.2962 17.8681 34.8413 17.2722 34.8413H1.95532C1.35946 34.8413 0.9 35.2962 0.9 35.8894C0.9 36.4826 1.35946 36.9375 1.95532 36.9375Z" fill="#495865" stroke="#495865" stroke-width="0.2"/>
<path d="M13.0691 43.0052H19.406C19.97 43.0052 20.4613 42.5187 20.4613 41.9571C20.4613 41.3639 20.0019 40.909 19.406 40.909H13.0691C12.4732 40.909 12.0138 41.3639 12.0138 41.9571C12.0138 42.5503 12.4732 43.0052 13.0691 43.0052Z" fill="#495865" stroke="#495865" stroke-width="0.2"/>
<path d="M26.0594 15.3598L26.0596 15.36L26.3143 15.5812C27.607 16.7037 29.1908 17.249 30.7743 17.249C32.5525 17.249 34.2978 16.5431 35.6222 15.1966L35.6231 15.1957C36.9167 13.8476 37.5637 12.0179 37.402 10.1562L37.4019 10.156L37.0198 5.85799L37.0198 5.85793C36.8901 4.40969 36.2088 3.08915 35.0731 2.1553C33.9389 1.22266 32.5114 0.771268 31.0506 0.932162C31.0504 0.932187 31.0502 0.932211 31.05 0.932236L27.453 1.27973L27.453 1.27972L27.4519 1.27984C25.9599 1.44078 24.6301 2.1814 23.6902 3.37146C22.7487 4.56367 22.3921 6.04566 22.619 7.52534L22.619 7.52535L22.6192 7.52631L23.0013 9.86492L23.0013 9.86511C23.3554 12.0054 24.4497 13.954 26.0594 15.3598ZM27.6635 3.37494L27.6642 3.37487L27.7632 3.36505L27.7631 3.36435L31.2304 2.99567C31.2304 2.99567 31.2305 2.99566 31.2305 2.99566C32.1283 2.90352 32.9932 3.14903 33.7043 3.73199C34.4149 4.31456 34.8169 5.11126 34.91 6.00288C34.9101 6.00313 34.9101 6.00338 34.9101 6.00363L35.292 10.2988C35.292 10.299 35.292 10.2992 35.292 10.2995C35.3853 11.536 34.9488 12.8029 34.0781 13.6978L34.0775 13.6984C32.3631 15.4926 29.5581 15.6164 27.6877 13.9768L27.6874 13.9764L27.4326 13.7552C26.1771 12.665 25.3603 11.1693 25.0774 9.51614C25.0774 9.51606 25.0773 9.51598 25.0773 9.5159L24.6953 7.20942L24.6953 7.2092C24.541 6.29076 24.787 5.40214 25.3443 4.66407C25.9234 3.93874 26.7093 3.48294 27.6152 3.38007L27.6635 3.37494Z" fill="#495865" stroke="#495865" stroke-width="0.2"/>
<path d="M22.9374 9.51969L22.9374 9.51969L22.9377 9.52088C23.0428 10.0427 23.4987 10.3912 23.991 10.3912H23.9912H23.9914H23.9916H23.9918H23.992H23.9921H23.9923H23.9925H23.9927H23.9929H23.9931H23.9933H23.9935H23.9937H23.9939H23.9941H23.9943H23.9945H23.9947H23.9949H23.9951H23.9953H23.9955H23.9957H23.9959H23.9961H23.9963H23.9965H23.9967H23.9969H23.9971H23.9974H23.9976H23.9978H23.998H23.9982H23.9984H23.9986H23.9988H23.999H23.9993H23.9995H23.9997H23.9999H24.0001H24.0003H24.0006H24.0008H24.001H24.0012H24.0014H24.0017H24.0019H24.0021H24.0023H24.0026H24.0028H24.003H24.0032H24.0035H24.0037H24.0039H24.0042H24.0044H24.0046H24.0049H24.0051H24.0053H24.0055H24.0058H24.006H24.0063H24.0065H24.0067H24.007H24.0072H24.0074H24.0077H24.0079H24.0082H24.0084H24.0086H24.0089H24.0091H24.0094H24.0096H24.0099H24.0101H24.0103H24.0106H24.0108H24.0111H24.0113H24.0116H24.0118H24.0121H24.0123H24.0126H24.0128H24.0131H24.0133H24.0136H24.0138H24.0141H24.0144H24.0146H24.0149H24.0151H24.0154H24.0156H24.0159H24.0162H24.0164H24.0167H24.0169H24.0172H24.0175H24.0177H24.018H24.0182H24.0185H24.0188H24.019H24.0193H24.0196H24.0198H24.0201H24.0204H24.0206H24.0209H24.0212H24.0215H24.0217H24.022H24.0223H24.0225H24.0228H24.0231H24.0234H24.0236H24.0239H24.0242H24.0245H24.0247H24.025H24.0253H24.0256H24.0258H24.0261H24.0264H24.0267H24.027H24.0272H24.0275H24.0278H24.0281H24.0284H24.0287H24.0289H24.0292H24.0295H24.0298H24.0301H24.0304H24.0307H24.0309H24.0312H24.0315H24.0318H24.0321H24.0324H24.0327H24.033H24.0333H24.0336H24.0339H24.0341H24.0344H24.0347H24.035H24.0353H24.0356H24.0359H24.0362H24.0365H24.0368H24.0371H24.0374H24.0377H24.038H24.0383H24.0386H24.0389H24.0392H24.0395H24.0398H24.0401H24.0404H24.0407H24.041H24.0413H24.0416H24.0419H24.0422H24.0425H24.0428H24.0432H24.0435H24.0438H24.0441H24.0444H24.0447H24.045H24.0453H24.0456H24.0459H24.0462H24.0466H24.0469H24.0472H24.0475H24.0478H24.0481H24.0484H24.0487H24.0491H24.0494H24.0497H24.05H24.0503H24.0506H24.051H24.0513H24.0516H24.0519H24.0522H24.0525H24.0529H24.0532H24.0535H24.0538H24.0542H24.0545H24.0548H24.0551H24.0554H24.0558H24.0561H24.0564H24.0567H24.0571H24.0574H24.0577H24.058H24.0584H24.0587H24.059H24.0593H24.0597H24.06H24.0603H24.0607H24.061H24.0613H24.0616H24.062H24.0623H24.0626H24.063H24.0633H24.0636H24.064H24.0643H24.0646H24.065H24.0653H24.0656H24.066H24.0663H24.0666H24.067H24.0673H24.0676H24.068H24.0683H24.0686H24.069H24.0693H24.0697H24.07H24.0703H24.0707H24.071H24.0713H24.0717H24.072H24.0724H24.0727H24.073H24.0734H24.0737H24.0741H24.0744H24.0748H24.0751H24.0754H24.0758H24.0761H24.0765H24.0768H24.0772H24.0775H24.0778H24.0782H24.0785H24.0789H24.0792H24.0796H24.0799H24.0803H24.0806H24.081H24.0813H24.0817H24.082H24.0824H24.0827H24.0831H24.0834H24.0837H24.0841H24.0844H24.0848H24.0852H24.0855H24.0859H24.0862H24.0866H24.0869H24.0873H24.0876H24.088H24.0883H24.0887H24.089H24.0894H24.0897H24.0901H24.0904H24.0908H24.0911H24.0915H24.0919H24.0922H24.0926H24.0929H24.0933H24.0936H24.094H24.0943H24.0947H24.0951H24.0954H24.0958H24.0961H24.0965H24.0969H24.0972H24.0976H24.0979H24.0983H24.0986H24.099H24.0994H24.0997H24.1001H24.1004H24.1008H24.1012H24.1015H24.1019H24.1022H24.1026H24.103H24.1033H24.1037H24.1041H24.1044H24.1048H24.1051H24.1055H24.1059H24.1062H24.1066H24.107H24.1073H24.1077H24.108H24.1084H24.1088H24.1091H24.1095H24.1099H24.1102H24.1106H24.111H24.1113H24.1117H24.1121H24.1124H24.1128H24.1132H24.1135H24.1139H24.1143H24.1146H24.115H24.1154H24.1157H24.1161H24.1165H24.1168H24.1172H24.1176H24.1179H24.1183H24.1187H24.119H24.1194H24.1198H24.1201H24.1205H24.1209H24.1212H24.1216H24.122H24.1223H24.1227H24.1231H24.1235H24.1238H24.1242H24.1246H24.1249H24.1253H24.1257H24.126H24.1264H24.1268H24.1272H24.1275H24.1279H24.1283H24.1286H24.129H24.1294H24.1298H24.1301H24.1305H24.1309H24.1312H24.1316H24.132H24.1324H24.1327H24.1331H24.1335H24.1338H24.1342H24.1346H24.135H24.1353H24.1357H24.1361H24.1364H24.1368H24.1372H24.1376H24.1379H24.1383H24.1387H24.139H24.1394H24.1398H24.1402H24.1405H24.1409H24.1413H24.1417H24.142H24.1424H24.1428H24.1431H24.1435H24.1439H24.1443H24.1446H24.145H24.1454H24.1458H24.1461H24.1465H24.1469H24.1473H24.1476H24.148H24.1484H24.1487H24.1491H24.1495H24.1499H24.1502H24.1586L24.1669 10.3898L41.7765 7.41915L41.7771 7.41904C42.3698 7.31524 42.7602 6.79178 42.6544 6.19694C42.5494 5.60636 41.9889 5.22129 41.424 5.32591C41.4237 5.32596 41.4234 5.32601 41.4232 5.32606L23.8152 8.29642L23.8152 8.29642L23.8145 8.29653C23.2207 8.40053 22.8311 8.95687 22.9374 9.51969Z" fill="#495865" stroke="#495865" stroke-width="0.2"/>
<path d="M31.5269 35.7584L31.5269 35.7584L31.5257 35.7585C30.9636 35.8283 30.54 36.3504 30.6109 36.9132C30.6809 37.4693 31.1378 37.8539 31.6654 37.8539C31.6663 37.8539 31.6672 37.8539 31.6681 37.8539C31.6968 37.854 31.7489 37.8541 31.801 37.8185L39.0962 37L39.0973 36.9999C39.6594 36.9302 40.083 36.4081 40.0122 35.8453C39.9417 35.286 39.4153 34.867 38.8504 34.9368C38.8502 34.9368 38.85 34.9368 38.8498 34.9369L31.5269 35.7584Z" fill="#495865" stroke="#495865" stroke-width="0.2"/>
</svg>
