<svg width="70" height="70" viewBox="0 0 70 70" fill="none" xmlns="http://www.w3.org/2000/svg">
<path d="M66.0231 23.625C65.7344 23.618 65.4544 23.724 65.2426 23.9203C65.0308 24.1165 64.9039 24.3877 64.8888 24.6761C64.8742 25.0257 64.7765 25.3668 64.6038 25.6711C64.4311 25.9754 64.1884 26.2342 63.8957 26.4261C63.7438 26.5256 63.6191 26.6613 63.5328 26.821C63.4465 26.9807 63.4013 27.1594 63.4013 27.341C63.4013 27.5226 63.4465 27.7013 63.5328 27.861C63.6191 28.0207 63.7438 28.1564 63.8957 28.2559C64.364 28.5586 64.6981 29.0296 64.8288 29.5717C64.9595 30.1137 64.8769 30.6853 64.598 31.1681C64.3192 31.6509 63.8654 32.0081 63.3306 32.1658C62.7958 32.3234 62.2208 32.2695 61.7246 32.0151C61.5626 31.9333 61.3827 31.8932 61.2012 31.8982C61.0198 31.9033 60.8424 31.9535 60.6852 32.0442C60.5279 32.1349 60.3958 32.2633 60.3005 32.4179C60.2053 32.5725 60.1501 32.7483 60.1398 32.9295C60.1147 33.4885 59.875 34.0162 59.4706 34.4029C59.0662 34.7895 58.5282 35.0053 57.9687 35.0053C57.4092 35.0053 56.8712 34.7895 56.4668 34.4029C56.0624 34.0162 55.8227 33.4885 55.7976 32.9295C55.7873 32.7483 55.7321 32.5725 55.6368 32.4179C55.5416 32.2633 55.4094 32.1349 55.2522 32.0442C55.095 31.9535 54.9176 31.9033 54.7361 31.8982C54.5547 31.8932 54.3748 31.9333 54.2128 32.0151C53.7629 32.2434 53.2476 32.3082 52.7552 32.1985C52.2627 32.0888 51.8238 31.8113 51.5134 31.4136C51.5046 31.4016 51.4981 31.3895 51.4882 31.3775C51.434 31.311 51.3839 31.2413 51.3384 31.1686C51.0613 30.6851 50.9799 30.114 51.1106 29.5724C51.2414 29.0307 51.5746 28.5597 52.0417 28.2559C52.1938 28.1565 52.3187 28.0207 52.4052 27.8609C52.4916 27.701 52.5369 27.5222 52.5369 27.3405C52.5369 27.1587 52.4916 26.9799 52.4052 26.82C52.3187 26.6602 52.1938 26.5244 52.0417 26.425C51.6384 26.1612 51.3338 25.7714 51.1755 25.3163C51.0172 24.8612 51.0141 24.3664 51.1667 23.9094C51.3967 23.8694 51.6231 23.8109 51.8437 23.7344C52.1346 24.3483 52.5644 24.8861 53.0992 25.3051C53.634 25.7241 54.2591 26.0128 54.9248 26.1483C54.771 26.5282 54.6904 26.9338 54.6874 27.3437C54.6856 27.9327 54.8422 28.5113 55.141 29.0189C55.4398 29.5264 55.8697 29.9442 56.3856 30.2283C56.9015 30.5125 57.4844 30.6525 58.073 30.6338C58.6617 30.6151 59.2345 30.4382 59.7313 30.1219C60.228 29.8055 60.6305 29.3612 60.8964 28.8357C61.1623 28.3102 61.2819 27.7228 61.2426 27.1351C61.2033 26.5475 61.0065 25.9812 60.6729 25.4958C60.3394 25.0104 59.8813 24.6238 59.3468 24.3764C59.4904 24.1749 59.6166 23.9616 59.7242 23.7387C60.5026 24.0221 61.3458 24.0774 62.1546 23.8981C62.9635 23.7188 63.7043 23.3124 64.2901 22.7266C64.8759 22.1408 65.2823 21.3999 65.4616 20.5911C65.6409 19.7823 65.5857 18.9391 65.3023 18.1606C66.1797 17.7506 66.8954 17.0599 67.3364 16.1977C67.7774 15.3356 67.9186 14.351 67.7376 13.3996C67.5565 12.4482 67.0637 11.5843 66.3368 10.9443C65.61 10.3043 64.6906 9.92476 63.724 9.86562C63.4353 9.85047 63.1521 9.94866 62.9347 10.1393C62.7173 10.3299 62.583 10.5979 62.5603 10.8861C62.5508 11.0295 62.5696 11.1734 62.6158 11.3096C62.6619 11.4457 62.7345 11.5714 62.8292 11.6795C62.924 11.7876 63.0392 11.8759 63.1681 11.9395C63.2971 12.003 63.4373 12.0405 63.5807 12.0498C64.135 12.0803 64.6566 12.322 65.0382 12.7252C65.4198 13.1284 65.6325 13.6625 65.6325 14.2176C65.6325 14.7728 65.4198 15.3069 65.0382 15.7101C64.6566 16.1133 64.135 16.3549 63.5807 16.3855C63.3768 16.3986 63.1806 16.4686 63.0144 16.5875C62.8483 16.7064 62.7187 16.8695 62.6405 17.0583C62.5623 17.2471 62.5385 17.454 62.5719 17.6556C62.6053 17.8572 62.6944 18.0454 62.8293 18.1989C63.1886 18.6138 63.3774 19.1495 63.3578 19.698C63.3381 20.2465 63.1114 20.7672 62.7233 21.1554C62.3351 21.5435 61.8144 21.7702 61.2659 21.7899C60.7174 21.8095 60.1817 21.6207 59.7668 21.2614C59.6133 21.1265 59.4251 21.0373 59.2235 21.004C59.0219 20.9706 58.815 20.9944 58.6262 21.0726C58.4374 21.1508 58.2743 21.2804 58.1554 21.4465C58.0365 21.6127 57.9665 21.8089 57.9534 22.0128C57.9229 22.5671 57.6812 23.0887 57.278 23.4703C56.8748 23.8519 56.3407 24.0646 55.7856 24.0646C55.2304 24.0646 54.6963 23.8519 54.2931 23.4703C53.89 23.0887 53.6483 22.5671 53.6177 22.0128C53.6046 21.8089 53.5346 21.6127 53.4157 21.4465C53.2968 21.2804 53.1337 21.1508 52.9449 21.0726C52.7562 20.9944 52.5492 20.9706 52.3476 21.004C52.146 21.0373 51.9578 21.1265 51.8043 21.2614C51.3894 21.6207 50.8538 21.8095 50.3052 21.7899C49.7567 21.7702 49.236 21.5435 48.8479 21.1554C48.4597 20.7672 48.233 20.2465 48.2134 19.698C48.1937 19.1495 48.3825 18.6138 48.7418 18.1989C48.8767 18.0454 48.9659 17.8572 48.9992 17.6556C49.0326 17.454 49.0088 17.2471 48.9306 17.0583C48.8524 16.8695 48.7229 16.7064 48.5567 16.5875C48.3905 16.4686 48.1943 16.3986 47.9904 16.3855C47.4361 16.3549 46.9145 16.1133 46.5329 15.7101C46.1513 15.3069 45.9386 14.7728 45.9386 14.2176C45.9386 13.6625 46.1513 13.1284 46.5329 12.7252C46.9145 12.322 47.4361 12.0803 47.9904 12.0498C48.1943 12.0367 48.3905 11.9667 48.5567 11.8478C48.7229 11.7289 48.8524 11.5658 48.9306 11.377C49.0088 11.1882 49.0326 10.9813 48.9992 10.7797C48.9659 10.5781 48.8767 10.3899 48.7418 10.2364C48.3825 9.82147 48.1937 9.28584 48.2134 8.73731C48.233 8.18878 48.4597 7.66806 48.8479 7.27994C49.236 6.89182 49.7567 6.66511 50.3052 6.64544C50.8538 6.62576 51.3894 6.81458 51.8043 7.1739C51.9578 7.30878 52.146 7.39796 52.3476 7.43133C52.5492 7.4647 52.7562 7.44093 52.9449 7.3627C53.1337 7.28448 53.2968 7.15494 53.4157 6.98876C53.5346 6.82258 53.6046 6.62641 53.6177 6.42249C53.6483 5.86818 53.89 5.34661 54.2931 4.96499C54.6963 4.58338 55.2304 4.37072 55.7856 4.37072C56.3407 4.37072 56.8748 4.58338 57.278 4.96499C57.6812 5.34661 57.9229 5.86818 57.9534 6.42249C57.9665 6.62641 58.0365 6.82258 58.1554 6.98876C58.2743 7.15494 58.4374 7.28448 58.6262 7.3627C58.815 7.44093 59.0219 7.4647 59.2235 7.43133C59.4251 7.39796 59.6133 7.30878 59.7668 7.1739C60.1824 6.80903 60.7207 6.6151 61.2735 6.63113C61.8263 6.64717 62.3525 6.87197 62.7462 7.2603C62.9525 7.45954 63.2288 7.56978 63.5155 7.56729C63.8023 7.5648 64.0766 7.44977 64.2794 7.24698C64.4822 7.04419 64.5972 6.76986 64.5997 6.48309C64.6022 6.19631 64.492 5.92002 64.2928 5.71374C63.705 5.13009 62.9637 4.72527 62.1549 4.54636C61.3462 4.36746 60.5032 4.42182 59.7242 4.70312C59.3741 3.95267 58.8171 3.31772 58.1186 2.87284C57.4202 2.42797 56.6093 2.19165 55.7812 2.19165C54.9531 2.19165 54.1422 2.42797 53.4438 2.87284C52.7453 3.31772 52.1883 3.95267 51.8382 4.70312C51.0964 4.4383 50.2967 4.37869 49.5238 4.53059C48.7509 4.68248 48.0333 5.04023 47.4468 5.56609C46.5722 5.04622 45.545 4.84381 44.5385 4.99296C44.2231 4.16943 43.6653 3.46097 42.9388 2.9612C42.2122 2.46143 41.3511 2.19387 40.4692 2.19387C39.5874 2.19387 38.7263 2.46143 37.9997 2.9612C37.2732 3.46097 36.7153 4.16943 36.3999 4.99296C35.5125 4.85195 34.6031 4.98883 33.7965 5.38482C32.9899 5.78082 32.3255 6.41656 31.8943 7.20493C31.4631 7.9933 31.2862 8.89572 31.3879 9.78853C31.4896 10.6813 31.865 11.5208 32.4624 12.192C32.5577 12.2997 32.6733 12.3876 32.8026 12.4507C32.9319 12.5138 33.0723 12.5507 33.2159 12.5595C33.3594 12.5683 33.5033 12.5487 33.6393 12.5019C33.7753 12.4551 33.9007 12.3819 34.0085 12.2866C34.1162 12.1913 34.2041 12.0757 34.2671 11.9465C34.3302 11.8172 34.3672 11.6768 34.3759 11.5332C34.3847 11.3897 34.3652 11.2458 34.3183 11.1098C34.2715 10.9738 34.1984 10.8483 34.1031 10.7406C33.7649 10.3623 33.5699 9.87746 33.552 9.37032C33.534 8.86319 33.6943 8.3658 34.005 7.96455C34.3156 7.5633 34.757 7.28354 35.2525 7.17387C35.7479 7.0642 36.2662 7.13155 36.7171 7.36421C36.8792 7.44601 37.0591 7.48619 37.2405 7.48112C37.422 7.47605 37.5993 7.4259 37.7566 7.33518C37.9138 7.24446 38.046 7.11603 38.1412 6.96147C38.2364 6.80691 38.2917 6.63108 38.302 6.44983C38.3271 5.89089 38.5668 5.36315 38.9712 4.97649C39.3756 4.58983 39.9136 4.37404 40.4731 4.37404C41.0326 4.37404 41.5705 4.58983 41.9749 4.97649C42.3794 5.36315 42.6191 5.89089 42.6442 6.44983C42.6544 6.63123 42.7096 6.80722 42.8049 6.96191C42.9002 7.11661 43.0325 7.24513 43.1899 7.33588C43.3473 7.42662 43.5248 7.47673 43.7064 7.48168C43.888 7.48663 44.068 7.44625 44.2301 7.36421C44.5436 7.2066 44.8904 7.12671 45.2412 7.13128C45.592 7.13585 45.9366 7.22474 46.2459 7.39046C45.9263 8.3287 45.9332 9.34744 46.2656 10.2812C45.517 10.6327 44.8833 11.1891 44.4381 11.886C43.9928 12.5829 43.7542 13.3918 43.7499 14.2187C43.7512 14.4549 43.772 14.6905 43.8123 14.9231C42.3003 14.4558 40.7267 14.2183 39.1442 14.2187H31.7187C31.5207 14.2187 31.3264 14.2724 31.1565 14.3742C30.9866 14.4759 30.8476 14.6219 30.7541 14.7965C30.6607 14.9711 30.6165 15.1678 30.6261 15.3656C30.6357 15.5633 30.6988 15.7548 30.8087 15.9195C31.0493 16.2805 31.3085 16.625 31.5743 16.9619C29.1438 16.2933 26.9456 14.9653 25.2229 13.125H28.841C29.1311 13.125 29.4093 13.0098 29.6144 12.8046C29.8195 12.5995 29.9348 12.3213 29.9348 12.0312C29.9348 11.7412 29.8195 11.463 29.6144 11.2578C29.4093 11.0527 29.1311 10.9375 28.841 10.9375H22.9687C22.7707 10.9375 22.5764 10.9912 22.4065 11.0929C22.2366 11.1947 22.0976 11.3407 22.0041 11.5152C21.9107 11.6898 21.8665 11.8865 21.8761 12.0843C21.8857 12.2821 21.9488 12.4736 22.0587 12.6383C23.6805 15.0504 25.9382 16.9666 28.5818 18.1748L23.8338 23.6851C20.9136 27.0834 19.2399 31.3761 19.0892 35.8542C18.7711 35.7936 18.4442 35.7966 18.1274 35.8629C17.8105 35.9292 17.5098 36.0576 17.2428 36.2406C16.9757 36.4236 16.7475 36.6576 16.5712 36.9292C16.395 37.2007 16.2742 37.5045 16.2159 37.823C16.2032 37.8881 16.1713 37.948 16.1243 37.995C16.0774 38.042 16.0175 38.0738 15.9523 38.0865C15.4853 38.1801 15.0544 38.4039 14.7092 38.7321C14.364 39.0602 14.1187 39.4793 14.0016 39.9409C13.8844 40.4025 13.9003 40.8879 14.0473 41.3409C14.1943 41.7938 14.4664 42.196 14.8323 42.5009L19.3713 46.2831C20.9459 47.5972 22.3988 49.0504 23.7124 50.6253L26.5463 54.0312L18.3257 65.4369L16.5987 64.89L18.8857 61.4578C19.0466 61.216 19.1048 60.9202 19.0476 60.6355C18.9903 60.3508 18.8223 60.1005 18.5806 59.9397C18.3388 59.7788 18.043 59.7206 17.7583 59.7778C17.4736 59.8351 17.2233 60.003 17.0624 60.2448L14.2931 64.4011H13.3087L14.3106 61.3911L21.1454 53.0381C21.3256 52.8131 21.4096 52.5261 21.3793 52.2394C21.349 51.9528 21.2067 51.6897 20.9834 51.5074C20.7602 51.325 20.474 51.2382 20.187 51.2658C19.9001 51.2933 19.6357 51.433 19.4512 51.6545L12.8821 59.6837L9.16338 59.1522L9.71681 55.2847L17.069 50.0347C17.3022 49.8649 17.4589 49.6099 17.505 49.3252C17.551 49.0405 17.4828 48.749 17.3151 48.5144C17.1473 48.2797 16.8937 48.1208 16.6094 48.0723C16.3251 48.0237 16.0331 48.0895 15.797 48.2551L8.56072 53.4176L5.54744 52.1248L14.1465 46.2798C14.3865 46.1167 14.5519 45.8648 14.6063 45.5797C14.6606 45.2946 14.5995 44.9996 14.4363 44.7595C14.2732 44.5195 14.0213 44.3541 13.7362 44.2997C13.4511 44.2454 13.1561 44.3065 12.916 44.4697L2.66541 51.439C2.50322 51.5494 2.37371 51.7014 2.29044 51.879C2.20717 52.0566 2.1732 52.2534 2.1921 52.4487C2.211 52.6439 2.28207 52.8305 2.39786 52.9889C2.51366 53.1472 2.66991 53.2715 2.85025 53.3487L7.49431 55.3437L6.83806 59.9265C6.79778 60.2132 6.87278 60.5042 7.04663 60.7356C7.22049 60.9671 7.47902 61.1202 7.76556 61.1614L11.8824 61.7487L10.7515 65.147C10.6968 65.3114 10.6818 65.4863 10.708 65.6576C10.7341 65.8288 10.8005 65.9914 10.9017 66.1319C11.003 66.2725 11.1362 66.387 11.2903 66.466C11.4445 66.545 11.6152 66.5863 11.7884 66.5864H14.7131L18.4198 67.7611C18.5259 67.7946 18.6366 67.812 18.7479 67.8125C18.9211 67.8125 19.0919 67.7713 19.2461 67.6924C19.4003 67.6135 19.5336 67.4991 19.6349 67.3586L28.0688 55.6609C28.4702 55.9291 28.9413 56.074 29.424 56.0776C29.6368 56.0773 29.8487 56.0508 30.0551 55.9989C30.519 55.8851 30.9406 55.6409 31.2701 55.2951C31.5996 54.9493 31.8232 54.5165 31.9145 54.0476C31.9272 53.9825 31.9591 53.9226 32.006 53.8756C32.053 53.8286 32.1129 53.7968 32.1781 53.784C32.4967 53.7258 32.8006 53.6052 33.0725 53.4291C33.3443 53.2531 33.5788 53.0251 33.7623 52.7582C33.9458 52.4914 34.0749 52.1909 34.142 51.8741C34.2091 51.5572 34.213 51.2302 34.1534 50.9119C38.6306 50.7591 42.9221 49.0852 46.3202 46.1661L52.1313 41.16C52.3336 40.9666 52.454 40.703 52.4678 40.4236C52.4817 40.1441 52.3879 39.8699 52.2057 39.6575C52.0235 39.4451 51.7669 39.3106 51.4886 39.2816C51.2103 39.2527 50.9314 39.3315 50.7095 39.5019L44.8874 44.508C41.7066 47.2483 37.6475 48.7554 33.449 48.755C33.1209 48.755 32.8092 48.7309 32.4985 48.708L31.617 47.973C33.6141 46.7815 35.4593 45.3521 37.112 43.7161C37.2164 43.6152 37.2998 43.4945 37.3571 43.3611C37.4144 43.2276 37.4446 43.0841 37.4458 42.9389C37.4471 42.7936 37.4194 42.6496 37.3644 42.5152C37.3094 42.3808 37.2282 42.2587 37.1255 42.156C37.0228 42.0533 36.9007 41.972 36.7663 41.9171C36.6319 41.8621 36.4879 41.8344 36.3426 41.8356C36.1974 41.8369 36.0539 41.8671 35.9204 41.9244C35.787 41.9817 35.6663 42.0651 35.5654 42.1695C33.8558 43.8591 31.9262 45.3104 29.8287 46.4844L28.7535 45.5886C28.2482 45.1664 27.7692 44.7059 27.2934 44.2542L28.6803 42.8673C28.8795 42.661 28.9897 42.3848 28.9872 42.098C28.9847 41.8112 28.8697 41.5369 28.6669 41.3341C28.4641 41.1313 28.1898 41.0163 27.903 41.0138C27.6163 41.0113 27.34 41.1215 27.1337 41.3208L25.7468 42.7066C25.2951 42.2253 24.8346 41.7517 24.4124 41.2453L24.2363 41.0331C25.4192 38.901 26.8887 36.941 28.6037 35.2078L33.321 30.4926C33.5203 30.2864 33.6305 30.0101 33.628 29.7233C33.6255 29.4365 33.5105 29.1622 33.3077 28.9594C33.1049 28.7566 32.8306 28.6416 32.5438 28.6391C32.257 28.6366 31.9808 28.7468 31.7745 28.9461L27.0571 33.6612C25.3957 35.3362 23.9472 37.2097 22.7445 39.2394L21.2909 37.4894C21.269 37.1984 21.246 36.9064 21.2449 36.6144C21.2289 32.394 22.7371 28.3097 25.492 25.1125L30.7518 19.0061C31.8868 19.3373 33.0553 19.5405 34.2354 19.612C35.8194 20.8501 37.6255 21.7738 39.5565 22.3333C40.3066 24.7962 41.6466 27.0387 43.4601 28.8662L44.8437 30.2487V37.1875C44.8437 37.3855 44.8974 37.5798 44.9991 37.7497C45.1009 37.9196 45.2468 38.0586 45.4214 38.152C45.596 38.2455 45.7927 38.2897 45.9905 38.2801C46.1883 38.2705 46.3797 38.2074 46.5445 38.0975C48.2545 36.9433 49.7225 35.466 50.8659 33.7487C51.0708 33.8777 51.2858 33.9896 51.509 34.0834C52.2384 36.6552 53.6086 38.9998 55.4913 40.8975L60.7413 46.1475C60.9464 46.3526 61.2246 46.4679 61.5146 46.468C61.6221 46.4686 61.7291 46.4527 61.8318 46.4209C62.0212 46.3637 62.1915 46.2561 62.3246 46.1098C62.4577 45.9634 62.5486 45.7836 62.5876 45.5897C63.2487 42.2173 62.7946 38.7214 61.2937 35.63C61.6086 35.2606 61.8599 34.8414 62.0374 34.3897C62.9079 34.5277 63.7997 34.3985 64.5952 34.0191C65.3907 33.6397 66.0524 33.028 66.4929 32.2647C66.9335 31.5014 67.1321 30.6224 67.0627 29.7438C66.9933 28.8652 66.659 28.0284 66.104 27.3437C66.6972 26.6104 67.0375 25.705 67.0742 24.7625C67.08 24.6187 67.0575 24.4752 67.0078 24.3402C66.9581 24.2052 66.8823 24.0813 66.7846 23.9757C66.687 23.87 66.5695 23.7846 66.4388 23.7245C66.3081 23.6643 66.1668 23.6305 66.0231 23.625ZM57.9687 28.4375C57.7524 28.4375 57.5409 28.3733 57.361 28.2532C57.1812 28.133 57.041 27.9622 56.9582 27.7623C56.8754 27.5624 56.8538 27.3425 56.896 27.1304C56.9382 26.9182 57.0423 26.7233 57.1953 26.5703C57.3483 26.4174 57.5431 26.3132 57.7553 26.271C57.9675 26.2288 58.1874 26.2505 58.3872 26.3332C58.5871 26.416 58.7579 26.5562 58.8781 26.7361C58.9983 26.916 59.0624 27.1274 59.0624 27.3437C59.0624 27.6338 58.9472 27.912 58.7421 28.1171C58.537 28.3223 58.2588 28.4375 57.9687 28.4375ZM27.3535 47.2686L31.8915 51.0508C31.9405 51.0912 31.9771 51.1448 31.9969 51.2052C32.0167 51.2656 32.0189 51.3304 32.0033 51.3921C31.9878 51.4537 31.955 51.5096 31.9089 51.5534C31.8627 51.5971 31.8051 51.6269 31.7428 51.6392C31.2541 51.736 30.8052 51.9758 30.453 52.328C30.1007 52.6803 29.861 53.1292 29.7642 53.6178C29.7519 53.6802 29.7221 53.7378 29.6784 53.7839C29.6346 53.83 29.5787 53.8628 29.517 53.8784C29.4554 53.894 29.3906 53.8917 29.3302 53.8719C29.2697 53.8521 29.2162 53.8156 29.1757 53.7665L25.3935 49.2297C23.9957 47.552 22.4487 46.0046 20.7713 44.6064L16.2334 40.8242C16.1843 40.7837 16.1478 40.7302 16.128 40.6698C16.1082 40.6093 16.106 40.5446 16.1215 40.4829C16.1371 40.4213 16.1699 40.3653 16.216 40.3216C16.2621 40.2778 16.3197 40.2481 16.3821 40.2358C16.8708 40.1389 17.3197 39.8992 17.6719 39.5469C18.0241 39.1947 18.2639 38.7458 18.3607 38.2572C18.3709 38.194 18.4 38.1353 18.4441 38.0888C18.4882 38.0424 18.5453 38.0103 18.6079 37.9969C18.6692 37.9781 18.7347 37.9785 18.7957 37.9981C18.8567 38.0176 18.9102 38.0554 18.9492 38.1062L22.7313 42.6431C24.1291 44.3215 25.6761 45.8697 27.3535 47.2686ZM39.1442 16.4062C41.6327 16.4053 44.0736 17.0887 46.1999 18.3816C45.9653 19.1625 45.9524 19.9934 46.1628 20.7812H43.9753C42.0945 20.7833 40.2337 20.3957 38.5103 19.6427C36.7869 18.8897 35.2382 17.7877 33.962 16.4062H39.1442ZM42.0546 22.8506C42.6937 22.9291 43.3369 22.9685 43.9807 22.9687H46.4121C45.7442 24.3552 45.2818 25.8316 45.0395 27.3514L45.0067 27.3197C43.7352 26.0412 42.7316 24.5218 42.0546 22.8506ZM47.0312 29.762C47.038 27.615 47.555 25.5003 48.5395 23.5922C48.6726 23.6548 48.8087 23.7106 48.9474 23.7595C48.8248 24.3853 48.8404 25.0304 48.9933 25.6495C49.1461 26.2687 49.4325 26.8469 49.8323 27.3437C49.3023 28.0018 48.9751 28.7997 48.8904 29.6403C48.8058 30.481 48.9673 31.3281 49.3554 32.0786C48.7112 33.1291 47.9296 34.0888 47.0312 34.9322V29.762ZM60.6932 43.0062L57.0379 39.3509C55.6772 37.9767 54.627 36.3267 53.9579 34.5122C54.3851 35.553 55.2021 36.3857 56.2346 36.8326C57.2671 37.2795 58.4334 37.3052 59.4846 36.9042C60.3504 38.8185 60.7639 40.9064 60.6932 43.0062Z" fill="#495865"/>
<path d="M39.375 12.0312C39.375 11.7412 39.4902 11.463 39.6954 11.2579C39.9005 11.0527 40.1787 10.9375 40.4688 10.9375C40.7588 10.9375 41.037 10.8223 41.2421 10.6171C41.4473 10.412 41.5625 10.1338 41.5625 9.84375C41.5625 9.55367 41.4473 9.27547 41.2421 9.07035C41.037 8.86523 40.7588 8.75 40.4688 8.75C39.5985 8.75 38.7639 9.0957 38.1486 9.71106C37.5332 10.3264 37.1875 11.161 37.1875 12.0312C37.1875 12.3213 37.3027 12.5995 37.5079 12.8046C37.713 13.0098 37.9912 13.125 38.2812 13.125C38.5713 13.125 38.8495 13.0098 39.0546 12.8046C39.2598 12.5995 39.375 12.3213 39.375 12.0312Z" fill="#E67217"/>
<path d="M55.7813 9.84375C54.916 9.84375 54.0701 10.1003 53.3506 10.5811C52.6312 11.0618 52.0704 11.7451 51.7393 12.5445C51.4081 13.3439 51.3215 14.2236 51.4903 15.0723C51.6591 15.9209 52.0758 16.7005 52.6877 17.3123C53.2995 17.9242 54.0791 18.3409 54.9277 18.5097C55.7764 18.6785 56.6561 18.5919 57.4555 18.2607C58.2549 17.9296 58.9382 17.3688 59.4189 16.6494C59.8997 15.9299 60.1563 15.084 60.1563 14.2188C60.1563 13.0584 59.6953 11.9456 58.8749 11.1252C58.0544 10.3047 56.9416 9.84375 55.7813 9.84375ZM55.7813 16.4062C55.3486 16.4062 54.9257 16.278 54.5659 16.0376C54.2062 15.7972 53.9258 15.4556 53.7603 15.0559C53.5947 14.6562 53.5514 14.2163 53.6358 13.792C53.7202 13.3677 53.9285 12.9779 54.2345 12.672C54.5404 12.366 54.9302 12.1577 55.3545 12.0733C55.7788 11.9889 56.2187 12.0322 56.6184 12.1978C57.0181 12.3633 57.3597 12.6437 57.6001 13.0034C57.8405 13.3632 57.9688 13.7861 57.9688 14.2188C57.9688 14.7989 57.7383 15.3553 57.3281 15.7655C56.9178 16.1758 56.3614 16.4062 55.7813 16.4062Z" fill="#E67217"/>
</svg>
