<svg width="72" height="70" viewBox="0 0 72 70" fill="none" xmlns="http://www.w3.org/2000/svg">
<mask id="path-1-outside-1" maskUnits="userSpaceOnUse" x="0" y="34.7253" width="72" height="33" fill="black">
<rect fill="white" y="34.7253" width="72" height="33"/>
<path fill-rule="evenodd" clip-rule="evenodd" d="M3.92943 35.7253C2.30885 35.7565 1 37.0844 1 38.7122V39.9619C1 41.6095 2.33995 42.9494 3.98698 42.9494H15.0179C14.4673 43.3265 13.9397 43.7494 13.4457 44.2189L13.4254 44.2381C13.3939 44.2675 13.364 44.299 13.3367 44.3326L8.4752 50.2361C7.86531 49.8489 7.14326 49.7079 6.43083 49.8446C5.68796 49.9867 5.04549 50.4097 4.62144 51.0356L2.70952 53.8549C1.83527 55.1446 2.17279 56.9065 3.46147 57.7818L16.5443 66.6696C17.0185 66.9916 17.5665 67.1593 18.1278 67.1593C18.3061 67.1593 18.4861 67.1422 18.6656 67.108C19.4079 66.966 20.0504 66.543 20.4744 65.9171L22.3863 63.0978C23.2606 61.8081 22.9236 60.0462 21.6349 59.1709L21.5602 59.1201C22.4707 58.0867 23.6846 57.346 25.0054 57.0405C27.7883 56.3959 31.0632 56.8109 33.2843 57.1788C36.032 57.6339 38.9181 57.4785 41.6306 56.7292L45.401 55.6872C47.9127 54.993 50.2241 53.8239 52.2717 52.2121C52.2872 52.1998 52.3021 52.1875 52.3171 52.1742L58.7904 46.4411C59.8937 45.5967 60.1341 44.1345 59.7533 42.9494H68.013C69.66 42.9494 71 41.6095 71 39.9624V38.7122C71 37.0697 69.6674 35.7326 68.0266 35.7253H16.6185C16.0566 35.7295 15.6027 36.1861 15.6027 36.749C15.6027 37.3146 16.061 37.7728 16.6265 37.7728H68.013C68.5311 37.7728 68.9519 38.1942 68.9519 38.7122V39.9619C68.9519 40.4799 68.5311 40.9013 68.013 40.9013H3.98698C3.46895 40.9013 3.04811 40.4799 3.04811 39.9619V38.7122C3.04811 38.1942 3.46895 37.7728 3.98698 37.7728H11.8537C12.4192 37.7728 12.878 37.3146 12.878 36.749C12.878 36.1861 12.4235 35.7295 11.8616 35.7253H3.92943ZM43.0725 42.9494C43.1756 43.1059 43.2669 43.2704 43.3433 43.4434C43.9788 44.8859 43.5537 46.5447 42.3884 47.5161L42.594 47.5113L48.6476 45.7602L52.8944 42.9494H43.0725ZM30.7614 43.2576L32.2392 42.9494H29.6191L30.7614 43.2576ZM18.7798 64.7678L20.6912 61.9485C20.9326 61.5928 20.8397 61.1063 20.484 60.8649L8.10831 52.4578C8.10831 52.4578 8.10814 52.4578 8.10799 52.4577C8.10788 52.4576 8.10777 52.4575 8.10777 52.4572L7.40121 51.9777C7.27037 51.8885 7.11923 51.842 6.96436 51.842C6.91522 51.842 6.86555 51.8468 6.81589 51.8564C6.61081 51.8954 6.43404 52.0124 6.31708 52.1849L4.40515 55.0047C4.16376 55.3604 4.25668 55.8464 4.61237 56.0878L17.6952 64.9756C17.8677 65.093 18.076 65.1358 18.2805 65.0968C18.4856 65.0573 18.6629 64.9408 18.7798 64.7678ZM57.4627 44.8811C57.4857 44.8608 57.5092 44.8416 57.5337 44.824C57.9685 44.503 57.9615 43.7185 57.6656 43.2827C57.2859 42.7224 56.5724 42.9948 56.0362 43.3259L49.6478 47.5546C49.5613 47.6117 49.4668 47.6555 49.3669 47.6844L43.0346 49.5162C42.9497 49.5408 42.8616 49.5541 42.7724 49.5562L38.2783 49.6534C37.803 49.6599 37.3848 49.3469 37.2652 48.8871C37.1461 48.4278 37.3576 47.9471 37.7768 47.725L40.8065 46.1207C41.4869 45.7703 41.7737 44.9596 41.4693 44.2691C41.3662 44.0346 41.1974 43.8327 40.9812 43.6859C40.6463 43.4589 40.2233 43.3772 39.8206 43.4605L30.9403 45.3121C30.7828 45.3452 30.6199 45.3404 30.4645 45.2987L23.6841 43.4696C23.5757 43.4404 23.4677 43.4104 23.3594 43.3803C23.3173 43.3686 23.2751 43.3568 23.2328 43.3452C22.4835 43.1353 21.7754 42.9382 21.1062 42.9494H21.0645C18.907 43.0103 16.6538 44.0063 14.877 45.6838L10.1794 51.3886L19.8581 57.9634C21.0656 56.5107 22.7255 55.4661 24.5434 55.0453C27.6821 54.3184 31.2261 54.7622 33.6197 55.1585C36.0758 55.5655 38.6575 55.4261 41.0853 54.7548L44.8557 53.7128C47.094 53.0944 49.1554 52.054 50.9825 50.6212L57.4627 44.8811Z"/>
</mask>
<path fill-rule="evenodd" clip-rule="evenodd" d="M3.92943 35.7253C2.30885 35.7565 1 37.0844 1 38.7122V39.9619C1 41.6095 2.33995 42.9494 3.98698 42.9494H15.0179C14.4673 43.3265 13.9397 43.7494 13.4457 44.2189L13.4254 44.2381C13.3939 44.2675 13.364 44.299 13.3367 44.3326L8.4752 50.2361C7.86531 49.8489 7.14326 49.7079 6.43083 49.8446C5.68796 49.9867 5.04549 50.4097 4.62144 51.0356L2.70952 53.8549C1.83527 55.1446 2.17279 56.9065 3.46147 57.7818L16.5443 66.6696C17.0185 66.9916 17.5665 67.1593 18.1278 67.1593C18.3061 67.1593 18.4861 67.1422 18.6656 67.108C19.4079 66.966 20.0504 66.543 20.4744 65.9171L22.3863 63.0978C23.2606 61.8081 22.9236 60.0462 21.6349 59.1709L21.5602 59.1201C22.4707 58.0867 23.6846 57.346 25.0054 57.0405C27.7883 56.3959 31.0632 56.8109 33.2843 57.1788C36.032 57.6339 38.9181 57.4785 41.6306 56.7292L45.401 55.6872C47.9127 54.993 50.2241 53.8239 52.2717 52.2121C52.2872 52.1998 52.3021 52.1875 52.3171 52.1742L58.7904 46.4411C59.8937 45.5967 60.1341 44.1345 59.7533 42.9494H68.013C69.66 42.9494 71 41.6095 71 39.9624V38.7122C71 37.0697 69.6674 35.7326 68.0266 35.7253H16.6185C16.0566 35.7295 15.6027 36.1861 15.6027 36.749C15.6027 37.3146 16.061 37.7728 16.6265 37.7728H68.013C68.5311 37.7728 68.9519 38.1942 68.9519 38.7122V39.9619C68.9519 40.4799 68.5311 40.9013 68.013 40.9013H3.98698C3.46895 40.9013 3.04811 40.4799 3.04811 39.9619V38.7122C3.04811 38.1942 3.46895 37.7728 3.98698 37.7728H11.8537C12.4192 37.7728 12.878 37.3146 12.878 36.749C12.878 36.1861 12.4235 35.7295 11.8616 35.7253H3.92943ZM43.0725 42.9494C43.1756 43.1059 43.2669 43.2704 43.3433 43.4434C43.9788 44.8859 43.5537 46.5447 42.3884 47.5161L42.594 47.5113L48.6476 45.7602L52.8944 42.9494H43.0725ZM30.7614 43.2576L32.2392 42.9494H29.6191L30.7614 43.2576ZM18.7798 64.7678L20.6912 61.9485C20.9326 61.5928 20.8397 61.1063 20.484 60.8649L8.10831 52.4578C8.10831 52.4578 8.10814 52.4578 8.10799 52.4577C8.10788 52.4576 8.10777 52.4575 8.10777 52.4572L7.40121 51.9777C7.27037 51.8885 7.11923 51.842 6.96436 51.842C6.91522 51.842 6.86555 51.8468 6.81589 51.8564C6.61081 51.8954 6.43404 52.0124 6.31708 52.1849L4.40515 55.0047C4.16376 55.3604 4.25668 55.8464 4.61237 56.0878L17.6952 64.9756C17.8677 65.093 18.076 65.1358 18.2805 65.0968C18.4856 65.0573 18.6629 64.9408 18.7798 64.7678ZM57.4627 44.8811C57.4857 44.8608 57.5092 44.8416 57.5337 44.824C57.9685 44.503 57.9615 43.7185 57.6656 43.2827C57.2859 42.7224 56.5724 42.9948 56.0362 43.3259L49.6478 47.5546C49.5613 47.6117 49.4668 47.6555 49.3669 47.6844L43.0346 49.5162C42.9497 49.5408 42.8616 49.5541 42.7724 49.5562L38.2783 49.6534C37.803 49.6599 37.3848 49.3469 37.2652 48.8871C37.1461 48.4278 37.3576 47.9471 37.7768 47.725L40.8065 46.1207C41.4869 45.7703 41.7737 44.9596 41.4693 44.2691C41.3662 44.0346 41.1974 43.8327 40.9812 43.6859C40.6463 43.4589 40.2233 43.3772 39.8206 43.4605L30.9403 45.3121C30.7828 45.3452 30.6199 45.3404 30.4645 45.2987L23.6841 43.4696C23.5757 43.4404 23.4677 43.4104 23.3594 43.3803C23.3173 43.3686 23.2751 43.3568 23.2328 43.3452C22.4835 43.1353 21.7754 42.9382 21.1062 42.9494H21.0645C18.907 43.0103 16.6538 44.0063 14.877 45.6838L10.1794 51.3886L19.8581 57.9634C21.0656 56.5107 22.7255 55.4661 24.5434 55.0453C27.6821 54.3184 31.2261 54.7622 33.6197 55.1585C36.0758 55.5655 38.6575 55.4261 41.0853 54.7548L44.8557 53.7128C47.094 53.0944 49.1554 52.054 50.9825 50.6212L57.4627 44.8811Z" fill="#495865"/>
<path d="M3.92943 35.7253V35.5252L3.92557 35.5253L3.92943 35.7253ZM15.0179 42.9494L15.1309 43.1144L15.664 42.7494H15.0179V42.9494ZM13.4457 44.2189L13.5832 44.3641L13.5834 44.3639L13.4457 44.2189ZM13.4254 44.2381L13.5618 44.3844L13.5629 44.3833L13.4254 44.2381ZM13.3367 44.3326L13.4911 44.4598L13.4922 44.4585L13.3367 44.3326ZM8.4752 50.2361L8.36801 50.4049L8.51723 50.4997L8.62959 50.3632L8.4752 50.2361ZM6.43083 49.8446L6.4684 50.0411L6.46852 50.0411L6.43083 49.8446ZM4.62144 51.0356L4.78697 51.1478L4.78702 51.1478L4.62144 51.0356ZM2.70952 53.8549L2.54399 53.7426L2.54397 53.7427L2.70952 53.8549ZM3.46147 57.7818L3.57386 57.6164L3.57385 57.6164L3.46147 57.7818ZM16.5443 66.6696L16.4319 66.835L16.4319 66.835L16.5443 66.6696ZM18.6656 67.108L18.703 67.3045L18.7031 67.3045L18.6656 67.108ZM20.4744 65.9171L20.3089 65.8048L20.3088 65.8049L20.4744 65.9171ZM22.3863 63.0978L22.5519 63.2101L22.5519 63.21L22.3863 63.0978ZM21.6349 59.1709L21.7473 59.0054L21.7472 59.0054L21.6349 59.1709ZM21.5602 59.1201L21.4101 58.9879L21.26 59.1582L21.4478 59.2856L21.5602 59.1201ZM25.0054 57.0405L25.0504 57.2354L25.0505 57.2354L25.0054 57.0405ZM33.2843 57.1788L33.2516 57.3762L33.2516 57.3762L33.2843 57.1788ZM41.6306 56.7292L41.6838 56.922L41.6838 56.9219L41.6306 56.7292ZM45.401 55.6872L45.4543 55.88L45.4543 55.88L45.401 55.6872ZM52.2717 52.2121L52.3954 52.3693L52.3959 52.3688L52.2717 52.2121ZM52.3171 52.1742L52.1845 52.0245L52.1839 52.025L52.3171 52.1742ZM58.7904 46.4411L58.6688 46.2823L58.6631 46.2866L58.6578 46.2914L58.7904 46.4411ZM59.7533 42.9494V42.7494H59.4789L59.5629 43.0106L59.7533 42.9494ZM68.0266 35.7253L68.0275 35.5253H68.0266V35.7253ZM16.6185 35.7253V35.5252L16.617 35.5253L16.6185 35.7253ZM11.8616 35.7253L11.8632 35.5253H11.8616V35.7253ZM43.3433 43.4434L43.5263 43.3628L43.5263 43.3627L43.3433 43.4434ZM43.0725 42.9494V42.7494H42.7013L42.9055 43.0594L43.0725 42.9494ZM42.3884 47.5161L42.2603 47.3625L41.8201 47.7295L42.3931 47.7161L42.3884 47.5161ZM42.594 47.5113L42.5987 47.7113L42.6246 47.7107L42.6496 47.7035L42.594 47.5113ZM48.6476 45.7602L48.7031 45.9523L48.7325 45.9438L48.7579 45.9269L48.6476 45.7602ZM52.8944 42.9494L53.0048 43.1162L53.5589 42.7494H52.8944V42.9494ZM32.2392 42.9494L32.28 43.1452L32.2392 42.7494V42.9494ZM30.7614 43.2576L30.7093 43.4507L30.7555 43.4631L30.8023 43.4534L30.7614 43.2576ZM29.6191 42.9494V42.7494L29.567 43.1425L29.6191 42.9494ZM20.6912 61.9485L20.5258 61.8362L20.5257 61.8363L20.6912 61.9485ZM18.7798 64.7678L18.6143 64.6556L18.6141 64.6558L18.7798 64.7678ZM20.484 60.8649L20.3716 61.0304L20.3717 61.0304L20.484 60.8649ZM8.10831 52.4578L8.22069 52.2923L8.16981 52.2578H8.10831V52.4578ZM8.10799 52.4577L8.21537 52.2889L8.21374 52.2879L8.10799 52.4577ZM8.10777 52.4572H8.30777V52.3513L8.22009 52.2918L8.10777 52.4572ZM7.40121 51.9777L7.28857 52.1429L7.28889 52.1431L7.40121 51.9777ZM6.81589 51.8564L6.85324 52.0529L6.85389 52.0528L6.81589 51.8564ZM6.31708 52.1849L6.48261 52.2971L6.48262 52.2971L6.31708 52.1849ZM4.40515 55.0047L4.57064 55.117L4.57069 55.1169L4.40515 55.0047ZM4.61237 56.0878L4.72475 55.9223L4.72468 55.9223L4.61237 56.0878ZM17.6952 64.9756L17.8078 64.8103L17.8076 64.8101L17.6952 64.9756ZM18.2805 65.0968L18.3179 65.2933L18.3183 65.2932L18.2805 65.0968ZM57.5337 44.824L57.6503 44.9865L57.6525 44.9849L57.5337 44.824ZM57.4627 44.8811L57.3303 44.7312L57.3301 44.7314L57.4627 44.8811ZM57.6656 43.2827L57.5001 43.3949L57.5002 43.395L57.6656 43.2827ZM56.0362 43.3259L55.9311 43.1557L55.9258 43.1592L56.0362 43.3259ZM49.6478 47.5546L49.7581 47.7215L49.7582 47.7214L49.6478 47.5546ZM49.3669 47.6844L49.3114 47.4922L49.3114 47.4922L49.3669 47.6844ZM43.0346 49.5162L42.979 49.3241L42.979 49.3241L43.0346 49.5162ZM42.7724 49.5562L42.7767 49.7562L42.7772 49.7562L42.7724 49.5562ZM38.2783 49.6534L38.281 49.8534L38.2826 49.8534L38.2783 49.6534ZM37.2652 48.8871L37.0716 48.9373L37.0716 48.9374L37.2652 48.8871ZM37.7768 47.725L37.6832 47.5482L37.6832 47.5482L37.7768 47.725ZM40.8065 46.1207L40.715 45.9428L40.7129 45.9439L40.8065 46.1207ZM41.4693 44.2691L41.2862 44.3496L41.2863 44.3497L41.4693 44.2691ZM40.9812 43.6859L41.0935 43.5204L41.0934 43.5203L40.9812 43.6859ZM39.8206 43.4605L39.7801 43.2647L39.7798 43.2647L39.8206 43.4605ZM30.9403 45.3121L30.8995 45.1163L30.8992 45.1164L30.9403 45.3121ZM30.4645 45.2987L30.4124 45.4918L30.4127 45.4919L30.4645 45.2987ZM23.6841 43.4696L23.7362 43.2765L23.7361 43.2765L23.6841 43.4696ZM23.3594 43.3803L23.3059 43.573L23.3059 43.573L23.3594 43.3803ZM23.2328 43.3452L23.1789 43.5377L23.1795 43.5379L23.2328 43.3452ZM21.1062 42.9494V43.1494L21.1096 43.1494L21.1062 42.9494ZM21.0645 42.9494V42.7493L21.0589 42.7495L21.0645 42.9494ZM14.877 45.6838L14.7397 45.5384L14.7305 45.547L14.7226 45.5567L14.877 45.6838ZM10.1794 51.3886L10.025 51.2615L9.88556 51.4308L10.067 51.554L10.1794 51.3886ZM19.8581 57.9634L19.7457 58.1288L19.8959 58.2308L20.0119 58.0912L19.8581 57.9634ZM24.5434 55.0453L24.5885 55.2401L24.5885 55.2401L24.5434 55.0453ZM33.6197 55.1585L33.6524 54.9612L33.6524 54.9612L33.6197 55.1585ZM41.0853 54.7548L41.032 54.562L41.032 54.562L41.0853 54.7548ZM44.8557 53.7128L44.8025 53.52L44.8025 53.52L44.8557 53.7128ZM50.9825 50.6212L51.1061 50.7788L51.1151 50.7709L50.9825 50.6212ZM3.92557 35.5253C2.19632 35.5587 0.8 36.9752 0.8 38.7122H1.2C1.2 37.1936 2.42138 35.9544 3.9333 35.9252L3.92557 35.5253ZM0.8 38.7122V39.9619H1.2V38.7122H0.8ZM0.8 39.9619C0.8 41.7199 2.22947 43.1494 3.98698 43.1494V42.7494C2.45043 42.7494 1.2 41.499 1.2 39.9619H0.8ZM3.98698 43.1494H15.0179V42.7494H3.98698V43.1494ZM14.9049 42.7844C14.346 43.1672 13.81 43.5968 13.3079 44.0739L13.5834 44.3639C14.0694 43.9021 14.5887 43.4857 15.1309 43.1144L14.9049 42.7844ZM13.3081 44.0737L13.2878 44.0929L13.5629 44.3833L13.5832 44.3641L13.3081 44.0737ZM13.289 44.0918C13.2515 44.1267 13.2151 44.165 13.1813 44.2068L13.4922 44.4585C13.5128 44.433 13.5362 44.4082 13.5618 44.3844L13.289 44.0918ZM13.1823 44.2055L8.32082 50.109L8.62959 50.3632L13.4911 44.4598L13.1823 44.2055ZM8.5824 50.0673C7.93 49.6531 7.15621 49.5018 6.39314 49.6482L6.46852 50.0411C7.13032 49.9141 7.80062 50.0447 8.36801 50.4049L8.5824 50.0673ZM6.39327 49.6482C5.59823 49.8002 4.9097 50.2535 4.45587 50.9234L4.78702 51.1478C5.18128 50.5658 5.77769 50.1732 6.4684 50.0411L6.39327 49.6482ZM4.45592 50.9233L2.54399 53.7426L2.87505 53.9671L4.78697 51.1478L4.45592 50.9233ZM2.54397 53.7427C1.60778 55.1238 1.96911 57.0099 3.3491 57.9472L3.57385 57.6164C2.37648 56.8031 2.06275 55.1655 2.87507 53.9671L2.54397 53.7427ZM3.34908 57.9472L16.4319 66.835L16.6567 66.5042L3.57386 57.6164L3.34908 57.9472ZM16.4319 66.835C16.9391 67.1794 17.5261 67.3593 18.1278 67.3593V66.9593C17.6068 66.9593 17.0979 66.8038 16.6566 66.5041L16.4319 66.835ZM18.1278 67.3593C18.3189 67.3593 18.5114 67.341 18.703 67.3045L18.6281 66.9116C18.4608 66.9435 18.2934 66.9593 18.1278 66.9593V67.3593ZM18.7031 67.3045C19.4977 67.1524 20.1862 66.6991 20.64 66.0293L20.3088 65.8049C19.9146 66.3869 19.3181 66.7795 18.628 66.9116L18.7031 67.3045ZM20.6399 66.0294L22.5519 63.2101L22.2208 62.9856L20.3089 65.8048L20.6399 66.0294ZM22.5519 63.21C23.488 61.829 23.1273 59.9428 21.7473 59.0054L21.5225 59.3363C22.7199 60.1496 23.0331 61.7872 22.2208 62.9856L22.5519 63.21ZM21.7472 59.0054L21.6725 58.9547L21.4478 59.2856L21.5226 59.3364L21.7472 59.0054ZM21.7102 59.2524C22.5944 58.2489 23.7721 57.5311 25.0504 57.2354L24.9603 56.8457C23.5971 57.161 22.3471 57.9246 21.4101 58.9879L21.7102 59.2524ZM25.0505 57.2354C27.7911 56.6006 31.0307 57.0082 33.2516 57.3762L33.317 56.9815C31.0956 56.6135 27.7856 56.1913 24.9602 56.8457L25.0505 57.2354ZM33.2516 57.3762C36.0283 57.836 38.9437 57.6789 41.6838 56.922L41.5773 56.5364C38.8925 57.278 36.0358 57.4318 33.317 56.9815L33.2516 57.3762ZM41.6838 56.9219L45.4543 55.88L45.3477 55.4945L41.5773 56.5364L41.6838 56.9219ZM45.4543 55.88C47.9916 55.1786 50.3269 53.9975 52.3954 52.3693L52.148 52.055C50.1213 53.6503 47.8338 54.8073 45.3477 55.4945L45.4543 55.88ZM52.3959 52.3688C52.4131 52.3552 52.4314 52.3403 52.4503 52.3234L52.1839 52.025C52.1728 52.0348 52.1612 52.0445 52.1474 52.0554L52.3959 52.3688ZM52.4497 52.3239L58.923 46.5908L58.6578 46.2914L52.1845 52.0245L52.4497 52.3239ZM58.9119 46.5999C60.0985 45.6919 60.3436 44.1327 59.9437 42.8882L59.5629 43.0106C59.9246 44.1363 59.6889 45.5016 58.6688 46.2823L58.9119 46.5999ZM59.7533 43.1494H68.013V42.7494H59.7533V43.1494ZM68.013 43.1494C69.7705 43.1494 71.2 41.7199 71.2 39.9624H70.8C70.8 41.499 69.5496 42.7494 68.013 42.7494V43.1494ZM71.2 39.9624V38.7122H70.8V39.9624H71.2ZM71.2 38.7122C71.2 36.9595 69.7784 35.5331 68.0275 35.5253L68.0257 35.9252C69.5565 35.9321 70.8 37.1799 70.8 38.7122H71.2ZM68.0266 35.5253H16.6185V35.9253H68.0266V35.5253ZM16.617 35.5253C15.9453 35.5304 15.4027 36.0762 15.4027 36.749H15.8027C15.8027 36.2961 16.168 35.9287 16.6201 35.9252L16.617 35.5253ZM15.4027 36.749C15.4027 37.425 15.9505 37.9728 16.6265 37.9728V37.5728C16.1714 37.5728 15.8027 37.2041 15.8027 36.749H15.4027ZM16.6265 37.9728H68.013V37.5728H16.6265V37.9728ZM68.013 37.9728C68.4204 37.9728 68.7519 38.3045 68.7519 38.7122H69.1519C69.1519 38.0839 68.6417 37.5728 68.013 37.5728V37.9728ZM68.7519 38.7122V39.9619H69.1519V38.7122H68.7519ZM68.7519 39.9619C68.7519 40.3696 68.4204 40.7013 68.013 40.7013V41.1013C68.6417 41.1013 69.1519 40.5902 69.1519 39.9619H68.7519ZM68.013 40.7013H3.98698V41.1013H68.013V40.7013ZM3.98698 40.7013C3.57955 40.7013 3.24811 40.3696 3.24811 39.9619H2.84811C2.84811 40.5902 3.35834 41.1013 3.98698 41.1013V40.7013ZM3.24811 39.9619V38.7122H2.84811V39.9619H3.24811ZM3.24811 38.7122C3.24811 38.3045 3.57955 37.9728 3.98698 37.9728V37.5728C3.35834 37.5728 2.84811 38.0839 2.84811 38.7122H3.24811ZM3.98698 37.9728H11.8537V37.5728H3.98698V37.9728ZM11.8537 37.9728C12.5295 37.9728 13.078 37.4252 13.078 36.749H12.678C12.678 37.204 12.3089 37.5728 11.8537 37.5728V37.9728ZM13.078 36.749C13.078 36.076 12.5347 35.5304 11.8632 35.5253L11.8601 35.9252C12.3124 35.9287 12.678 36.2962 12.678 36.749H13.078ZM11.8616 35.5253H3.92943V35.9253H11.8616V35.5253ZM43.5263 43.3627C43.445 43.1786 43.3482 43.0043 43.2395 42.8394L42.9055 43.0594C43.003 43.2075 43.0888 43.3622 43.1603 43.5242L43.5263 43.3627ZM42.5165 47.6698C43.7488 46.6425 44.1986 44.8887 43.5263 43.3628L43.1603 43.5241C43.7591 44.8832 43.3587 46.4469 42.2603 47.3625L42.5165 47.6698ZM42.5893 47.3114L42.3837 47.3162L42.3931 47.7161L42.5987 47.7113L42.5893 47.3114ZM48.592 45.568L42.5384 47.3192L42.6496 47.7035L48.7031 45.9523L48.592 45.568ZM52.784 42.7826L48.5372 45.5934L48.7579 45.9269L53.0048 43.1162L52.784 42.7826ZM43.0725 43.1494H52.8944V42.7494H43.0725V43.1494ZM32.1983 42.7536L30.7206 43.0618L30.8023 43.4534L32.28 43.1452L32.1983 42.7536ZM29.6191 43.1494H32.2392V42.7494H29.6191V43.1494ZM30.8135 43.0645L29.6712 42.7563L29.567 43.1425L30.7093 43.4507L30.8135 43.0645ZM20.5257 61.8363L18.6143 64.6556L18.9454 64.88L20.8568 62.0607L20.5257 61.8363ZM20.3717 61.0304C20.6359 61.2097 20.7052 61.5718 20.5258 61.8362L20.8567 62.0608C21.1601 61.6138 21.0435 61.0029 20.5963 60.6994L20.3717 61.0304ZM7.99592 52.6232L20.3716 61.0304L20.5964 60.6995L8.22069 52.2923L7.99592 52.6232ZM8.00062 52.6264C8.02847 52.6441 8.05451 52.6511 8.06996 52.6541C8.07838 52.6557 8.08586 52.6566 8.09201 52.6571C8.09514 52.6574 8.09807 52.6575 8.10076 52.6576C8.10211 52.6577 8.10341 52.6577 8.10467 52.6577C8.1053 52.6578 8.10591 52.6578 8.10652 52.6578C8.10682 52.6578 8.10712 52.6578 8.10742 52.6578C8.10757 52.6578 8.10772 52.6578 8.10787 52.6578C8.10794 52.6578 8.10801 52.6578 8.10809 52.6578C8.10812 52.6578 8.10818 52.6578 8.1082 52.6578C8.10825 52.6578 8.10831 52.6578 8.10831 52.4578C8.10831 52.2578 8.10836 52.2578 8.10842 52.2578C8.10844 52.2578 8.10849 52.2578 8.10853 52.2578C8.1086 52.2578 8.10867 52.2578 8.10875 52.2578C8.10889 52.2578 8.10904 52.2578 8.10919 52.2578C8.10949 52.2578 8.10979 52.2578 8.11009 52.2578C8.1107 52.2578 8.11131 52.2578 8.11194 52.2578C8.11319 52.2578 8.1145 52.2579 8.11584 52.2579C8.11852 52.258 8.12143 52.2582 8.12454 52.2584C8.13066 52.2589 8.13809 52.2598 8.14645 52.2615C8.16178 52.2644 8.18766 52.2713 8.21537 52.289L8.00062 52.6264ZM7.90777 52.4572C7.90777 52.5296 7.94611 52.5925 8.00224 52.6274L8.21374 52.2879C8.23741 52.3027 8.26286 52.3255 8.28172 52.3587C8.30078 52.3922 8.30777 52.427 8.30777 52.4572H7.90777ZM7.28889 52.1431L7.99545 52.6227L8.22009 52.2918L7.51354 51.8122L7.28889 52.1431ZM6.96436 52.042C7.07871 52.042 7.19065 52.0762 7.28857 52.1429L7.51386 51.8124C7.35009 51.7008 7.15975 51.642 6.96436 51.642V52.042ZM6.85389 52.0528C6.89134 52.0455 6.92828 52.042 6.96436 52.042V51.642C6.90216 51.642 6.83977 51.6481 6.77788 51.6601L6.85389 52.0528ZM6.48262 52.2971C6.56998 52.1683 6.7008 52.0819 6.85324 52.0529L6.77854 51.6599C6.52082 51.7089 6.2981 51.8565 6.15154 52.0726L6.48262 52.2971ZM4.57069 55.1169L6.48261 52.2971L6.15154 52.0726L4.23961 54.8925L4.57069 55.1169ZM4.72468 55.9223C4.46043 55.7429 4.39125 55.3813 4.57064 55.117L4.23966 54.8924C3.93627 55.3394 4.05294 55.9498 4.50005 56.2533L4.72468 55.9223ZM17.8076 64.8101L4.72475 55.9223L4.49998 56.2532L17.5828 65.141L17.8076 64.8101ZM18.2431 64.9003C18.0904 64.9294 17.9361 64.8977 17.8078 64.8103L17.5826 65.1409C17.7992 65.2884 18.0615 65.3421 18.3179 65.2932L18.2431 64.9003ZM18.6141 64.6558C18.5271 64.7846 18.396 64.8709 18.2427 64.9004L18.3183 65.2932C18.5752 65.2437 18.7987 65.0971 18.9455 64.8798L18.6141 64.6558ZM57.4172 44.6615C57.3858 44.684 57.3569 44.7077 57.3303 44.7312L57.5951 45.031C57.6144 45.0139 57.6326 44.9992 57.6503 44.9865L57.4172 44.6615ZM57.5002 43.395C57.62 43.5716 57.6876 43.8319 57.674 44.0856C57.6602 44.3407 57.5678 44.5502 57.4149 44.6631L57.6525 44.9849C57.9344 44.7768 58.0558 44.4335 58.0734 44.1071C58.091 43.7794 58.0071 43.4296 57.8311 43.1703L57.5002 43.395ZM56.1413 43.4961C56.4015 43.3354 56.6852 43.2021 56.9363 43.1683C57.0594 43.1517 57.1662 43.1602 57.2563 43.1939C57.3439 43.2266 57.4271 43.2872 57.5001 43.3949L57.8312 43.1705C57.7143 42.998 57.566 42.8826 57.3963 42.8192C57.229 42.7567 57.0527 42.749 56.8829 42.7718C56.5483 42.8169 56.2072 42.9853 55.9312 43.1558L56.1413 43.4961ZM49.7582 47.7214L56.1466 43.4927L55.9258 43.1592L49.5374 47.3878L49.7582 47.7214ZM49.4224 47.8765C49.5419 47.842 49.6548 47.7897 49.7581 47.7215L49.5376 47.3877C49.4678 47.4338 49.3917 47.469 49.3114 47.4922L49.4224 47.8765ZM43.0902 49.7083L49.4225 47.8765L49.3114 47.4922L42.979 49.3241L43.0902 49.7083ZM42.7772 49.7562C42.8832 49.7536 42.9884 49.7378 43.0902 49.7083L42.979 49.3241C42.911 49.3437 42.84 49.3546 42.7676 49.3563L42.7772 49.7562ZM38.2826 49.8534L42.7767 49.7562L42.7681 49.3563L38.274 49.4535L38.2826 49.8534ZM37.0716 48.9374C37.2149 49.4881 37.7154 49.861 38.281 49.8534L38.2756 49.4535C37.8905 49.4587 37.5547 49.2057 37.4587 48.8367L37.0716 48.9374ZM37.6832 47.5482C37.182 47.8138 36.9293 48.3884 37.0716 48.9373L37.4588 48.8369C37.3629 48.4672 37.5331 48.0804 37.8705 47.9017L37.6832 47.5482ZM40.7129 45.9439L37.6832 47.5482L37.8704 47.9017L40.9001 46.2974L40.7129 45.9439ZM41.2863 44.3497C41.5476 44.9426 41.3021 45.6405 40.715 45.9428L40.8981 46.2985C41.6717 45.9001 41.9997 44.9766 41.6523 44.1884L41.2863 44.3497ZM40.8688 43.8513C41.0546 43.9775 41.1985 44.1502 41.2862 44.3496L41.6524 44.1886C41.5339 43.9191 41.3403 43.688 41.0935 43.5204L40.8688 43.8513ZM39.8612 43.6564C40.2122 43.5837 40.5798 43.6555 40.8689 43.8514L41.0934 43.5203C40.7128 43.2623 40.2345 43.1707 39.7801 43.2647L39.8612 43.6564ZM30.9812 45.5079L39.8615 43.6563L39.7798 43.2647L30.8995 45.1163L30.9812 45.5079ZM30.4127 45.4919C30.5982 45.5416 30.7929 45.5474 30.9815 45.5078L30.8992 45.1164C30.7727 45.143 30.6416 45.1392 30.5163 45.1056L30.4127 45.4919ZM23.632 43.6627L30.4124 45.4918L30.5166 45.1056L23.7362 43.2765L23.632 43.6627ZM23.3059 43.573C23.414 43.603 23.5228 43.6333 23.6321 43.6627L23.7361 43.2765C23.6287 43.2475 23.5213 43.2177 23.413 43.1876L23.3059 43.573ZM23.1795 43.5379C23.2216 43.5496 23.2637 43.5613 23.3059 43.573L23.413 43.1876C23.3708 43.1759 23.3285 43.1641 23.2861 43.1524L23.1795 43.5379ZM21.1096 43.1494C21.744 43.1388 22.4226 43.3259 23.1789 43.5377L23.2868 43.1526C22.5445 42.9446 21.8068 42.7376 21.1028 42.7494L21.1096 43.1494ZM21.0645 43.1494H21.1062V42.7494H21.0645V43.1494ZM15.0143 45.8292C16.7604 44.1807 18.9682 43.2087 21.0702 43.1493L21.0589 42.7495C18.8457 42.8119 16.5471 43.832 14.7397 45.5384L15.0143 45.8292ZM10.3338 51.5157L15.0313 45.8109L14.7226 45.5567L10.025 51.2615L10.3338 51.5157ZM19.9705 57.7979L10.2918 51.2232L10.067 51.554L19.7457 58.1288L19.9705 57.7979ZM24.4983 54.8504C22.6362 55.2815 20.9387 56.3506 19.7043 57.8355L20.0119 58.0912C21.1925 56.6709 22.8147 55.6507 24.5885 55.2401L24.4983 54.8504ZM33.6524 54.9612C31.2571 54.5647 27.6787 54.1139 24.4983 54.8504L24.5885 55.2401C27.6854 54.5229 31.195 54.9598 33.587 55.3558L33.6524 54.9612ZM41.032 54.562C38.6318 55.2257 36.0795 55.3633 33.6524 54.9612L33.587 55.3558C36.0721 55.7676 38.6831 55.6265 41.1386 54.9475L41.032 54.562ZM44.8025 53.52L41.032 54.562L41.1386 54.9475L44.909 53.9056L44.8025 53.52ZM50.859 50.4638C49.0528 51.8803 47.0152 52.9086 44.8025 53.52L44.909 53.9056C47.1727 53.2801 49.2581 52.2277 51.1059 50.7785L50.859 50.4638ZM57.3301 44.7314L50.8498 50.4714L51.1151 50.7709L57.5953 45.0308L57.3301 44.7314Z" fill="#495865" mask="url(#path-1-outside-1)"/>
<mask id="path-3-outside-2" maskUnits="userSpaceOnUse" x="5.41699" y="1.87109" width="61" height="35" fill="black">
<rect fill="white" x="5.41699" y="1.87109" width="61" height="35"/>
<path fill-rule="evenodd" clip-rule="evenodd" d="M8.46938 35.7253C8.92065 28.923 11.8377 22.5949 16.7542 17.8087C21.4924 13.1966 27.6148 10.4814 34.1581 10.051L34.1618 10.0511C34.1643 10.0512 34.1668 10.0513 34.1693 10.051C34.4481 10.0328 34.7236 10.0189 34.996 10.0088C35.0233 10.008 35.0504 10.0069 35.0775 10.0058C35.1046 10.0048 35.1317 10.0037 35.1589 10.0029C35.2539 9.99977 35.3484 9.99766 35.4419 9.99557L35.442 9.99557L35.442 9.99557L35.442 9.99556L35.4484 9.99542C35.6321 9.99222 35.8158 9.98901 36 9.98901C36.2446 9.98901 36.4892 9.99382 36.7333 10.0002L36.9496 10.0066C37.1376 10.013 37.325 10.0227 37.5125 10.0328C37.6118 10.0381 37.7112 10.0435 37.811 10.0499C46.2176 10.6021 53.9519 14.9739 58.7648 21.9839C59.0847 22.4496 59.7224 22.5687 60.1886 22.2483C60.6548 21.9284 60.7734 21.2907 60.4529 20.8245C55.7169 13.9261 48.3453 9.40796 40.1977 8.24265C40.7083 7.4501 40.9951 6.51711 40.9951 5.53978C40.9951 4.98329 40.7467 3.95737 39.0837 3.34534C38.2532 3.03986 37.1579 2.87109 36 2.87109C34.8417 2.87109 33.7463 3.03986 32.9159 3.34534C31.2528 3.95737 31.005 4.98329 31.005 5.53978C31.005 6.51443 31.2907 7.44583 31.7981 8.23677C25.6121 9.11209 19.8747 11.9127 15.3256 16.3411C10.0112 21.5145 6.87148 28.3654 6.41699 35.7247L8.46938 35.7253ZM65.5831 35.7253C65.3556 32.0306 64.4557 28.4647 62.8984 25.1125C62.6607 24.5992 62.0519 24.3771 61.5387 24.6147C61.0255 24.8529 60.8027 25.4617 61.0409 25.975C62.4717 29.0559 63.3064 32.3313 63.5307 35.7253H65.5831ZM38.9471 5.58302C38.758 5.3459 37.7246 4.91919 36.0002 4.91919C34.2757 4.91919 33.2423 5.3459 33.0532 5.58302C33.0671 6.55394 33.5579 7.45009 34.3574 7.98735C34.4909 7.97987 34.625 7.974 34.759 7.96812C34.8728 7.96347 34.9867 7.95981 35.0995 7.95619L35.1104 7.95584C35.2081 7.95264 35.3059 7.94997 35.4031 7.94836C35.6044 7.94409 35.8042 7.94142 36.0002 7.94142C36.2763 7.94142 36.5582 7.94569 36.844 7.95424C36.884 7.9552 36.9241 7.95674 36.9641 7.95828C36.9908 7.9593 37.0175 7.96033 37.0442 7.96118C37.2424 7.96866 37.441 7.9772 37.6424 7.98788C38.4419 7.45062 38.9332 6.55447 38.9471 5.58302Z"/>
</mask>
<path fill-rule="evenodd" clip-rule="evenodd" d="M8.46938 35.7253C8.92065 28.923 11.8377 22.5949 16.7542 17.8087C21.4924 13.1966 27.6148 10.4814 34.1581 10.051L34.1618 10.0511C34.1643 10.0512 34.1668 10.0513 34.1693 10.051C34.4481 10.0328 34.7236 10.0189 34.996 10.0088C35.0233 10.008 35.0504 10.0069 35.0775 10.0058C35.1046 10.0048 35.1317 10.0037 35.1589 10.0029C35.2539 9.99977 35.3484 9.99766 35.4419 9.99557L35.442 9.99557L35.442 9.99557L35.442 9.99556L35.4484 9.99542C35.6321 9.99222 35.8158 9.98901 36 9.98901C36.2446 9.98901 36.4892 9.99382 36.7333 10.0002L36.9496 10.0066C37.1376 10.013 37.325 10.0227 37.5125 10.0328C37.6118 10.0381 37.7112 10.0435 37.811 10.0499C46.2176 10.6021 53.9519 14.9739 58.7648 21.9839C59.0847 22.4496 59.7224 22.5687 60.1886 22.2483C60.6548 21.9284 60.7734 21.2907 60.4529 20.8245C55.7169 13.9261 48.3453 9.40796 40.1977 8.24265C40.7083 7.4501 40.9951 6.51711 40.9951 5.53978C40.9951 4.98329 40.7467 3.95737 39.0837 3.34534C38.2532 3.03986 37.1579 2.87109 36 2.87109C34.8417 2.87109 33.7463 3.03986 32.9159 3.34534C31.2528 3.95737 31.005 4.98329 31.005 5.53978C31.005 6.51443 31.2907 7.44583 31.7981 8.23677C25.6121 9.11209 19.8747 11.9127 15.3256 16.3411C10.0112 21.5145 6.87148 28.3654 6.41699 35.7247L8.46938 35.7253ZM65.5831 35.7253C65.3556 32.0306 64.4557 28.4647 62.8984 25.1125C62.6607 24.5992 62.0519 24.3771 61.5387 24.6147C61.0255 24.8529 60.8027 25.4617 61.0409 25.975C62.4717 29.0559 63.3064 32.3313 63.5307 35.7253H65.5831ZM38.9471 5.58302C38.758 5.3459 37.7246 4.91919 36.0002 4.91919C34.2757 4.91919 33.2423 5.3459 33.0532 5.58302C33.0671 6.55394 33.5579 7.45009 34.3574 7.98735C34.4909 7.97987 34.625 7.974 34.759 7.96812C34.8728 7.96347 34.9867 7.95981 35.0995 7.95619L35.1104 7.95584C35.2081 7.95264 35.3059 7.94997 35.4031 7.94836C35.6044 7.94409 35.8042 7.94142 36.0002 7.94142C36.2763 7.94142 36.5582 7.94569 36.844 7.95424C36.884 7.9552 36.9241 7.95674 36.9641 7.95828C36.9908 7.9593 37.0175 7.96033 37.0442 7.96118C37.2424 7.96866 37.441 7.9772 37.6424 7.98788C38.4419 7.45062 38.9332 6.55447 38.9471 5.58302Z" fill="#E67217"/>
<path d="M16.7542 17.8087L16.6147 17.6654L16.6147 17.6654L16.7542 17.8087ZM8.46938 35.7253L8.46932 35.9253L8.65654 35.9253L8.66894 35.7385L8.46938 35.7253ZM34.1581 10.051L34.1644 9.85107L34.1547 9.85076L34.145 9.8514L34.1581 10.051ZM34.1618 10.0511L34.1713 9.85128L34.1682 9.85118L34.1618 10.0511ZM34.1693 10.051L34.1563 9.85139L34.1486 9.85189L34.141 9.85298L34.1693 10.051ZM34.996 10.0088L34.9901 9.80885L34.9886 9.80891L34.996 10.0088ZM35.1589 10.0029L35.1648 10.2028L35.1655 10.2028L35.1589 10.0029ZM35.4419 9.99557L35.4464 10.1956L35.4502 10.1954L35.4419 9.99557ZM35.442 9.99556L35.4376 9.79558L35.4337 9.79574L35.442 9.99556ZM35.4484 9.99542L35.4449 9.79545L35.4439 9.79547L35.4484 9.99542ZM36.7333 10.0002L36.7392 9.80032L36.7386 9.8003L36.7333 10.0002ZM36.9496 10.0066L36.9564 9.80675L36.9555 9.80673L36.9496 10.0066ZM37.5125 10.0328L37.5017 10.2325L37.5018 10.2325L37.5125 10.0328ZM37.811 10.0499L37.8241 9.85033L37.8238 9.85031L37.811 10.0499ZM58.7648 21.9839L58.5999 22.0972L58.5999 22.0972L58.7648 21.9839ZM60.1886 22.2483L60.0754 22.0834L60.0753 22.0835L60.1886 22.2483ZM60.4529 20.8245L60.2881 20.9377L60.2881 20.9378L60.4529 20.8245ZM40.1977 8.24265L40.0296 8.13433L39.8607 8.39648L40.1694 8.44063L40.1977 8.24265ZM39.0837 3.34534L39.1528 3.15764L39.1527 3.15763L39.0837 3.34534ZM32.9159 3.34534L32.8468 3.15763L32.8468 3.15764L32.9159 3.34534ZM31.7981 8.23677L31.8261 8.4348L32.1347 8.39113L31.9664 8.12879L31.7981 8.23677ZM15.3256 16.3411L15.1861 16.1978L15.3256 16.3411ZM6.41699 35.7247L6.21737 35.7124L6.20426 35.9247L6.41694 35.9247L6.41699 35.7247ZM62.8984 25.1125L62.7169 25.1965L62.717 25.1967L62.8984 25.1125ZM65.5831 35.7253V35.9253H65.7958L65.7827 35.713L65.5831 35.7253ZM61.5387 24.6147L61.4546 24.4332L61.4545 24.4333L61.5387 24.6147ZM61.0409 25.975L60.8595 26.0592L60.8595 26.0592L61.0409 25.975ZM63.5307 35.7253L63.3312 35.7384L63.3435 35.9253H63.5307V35.7253ZM38.9471 5.58302L39.1471 5.58588L39.1481 5.51431L39.1035 5.45834L38.9471 5.58302ZM33.0532 5.58302L32.8968 5.45834L32.8522 5.51431L32.8532 5.58588L33.0532 5.58302ZM34.3574 7.98735L34.2458 8.15335L34.3016 8.19079L34.3686 8.18704L34.3574 7.98735ZM34.759 7.96812L34.7508 7.76829L34.7502 7.76832L34.759 7.96812ZM35.0995 7.95619L35.106 8.15609H35.106L35.0995 7.95619ZM35.1104 7.95584L35.1168 8.15574L35.117 8.15573L35.1104 7.95584ZM35.4031 7.94836L35.4064 8.14834L35.4073 8.14832L35.4031 7.94836ZM36.844 7.95424L36.838 8.15415L36.8392 8.15418L36.844 7.95424ZM36.9641 7.95828L36.9565 8.15813L36.9565 8.15813L36.9641 7.95828ZM37.0442 7.96118L37.0518 7.76132L37.0506 7.76128L37.0442 7.96118ZM37.6424 7.98788L37.6318 8.1876L37.6985 8.19114L37.7539 8.15388L37.6424 7.98788ZM16.6147 17.6654C11.6628 22.486 8.72437 28.8604 8.26981 35.712L8.66894 35.7385C9.11694 28.9856 12.0125 22.7038 16.8937 17.952L16.6147 17.6654ZM34.145 9.8514C27.5542 10.285 21.387 13.0201 16.6147 17.6654L16.8937 17.952C21.5978 13.3731 27.6754 10.6779 34.1712 10.2505L34.145 9.8514ZM34.1682 9.85118L34.1644 9.85107L34.1517 10.2509L34.1555 10.251L34.1682 9.85118ZM34.141 9.85298C34.1519 9.85141 34.1607 9.8512 34.1656 9.8512C34.1699 9.8512 34.1734 9.85141 34.1713 9.85131L34.1523 10.2509C34.1528 10.2509 34.1588 10.2512 34.1656 10.2512C34.1729 10.2512 34.1842 10.2509 34.1976 10.249L34.141 9.85298ZM34.9886 9.80891C34.7144 9.81913 34.437 9.8331 34.1563 9.85139L34.1823 10.2505C34.4591 10.2325 34.7329 10.2187 35.0035 10.2086L34.9886 9.80891ZM35.0696 9.80599C35.0423 9.80707 35.0162 9.80809 34.9901 9.80886L35.0019 10.2087C35.0303 10.2079 35.0584 10.2067 35.0853 10.2057L35.0696 9.80599ZM35.153 9.80299C35.1246 9.80382 35.0965 9.80493 35.0696 9.80599L35.0853 10.2057C35.1126 10.2046 35.1387 10.2036 35.1648 10.2028L35.153 9.80299ZM35.4375 9.79562C35.3441 9.7977 35.2486 9.79983 35.1523 9.80301L35.1655 10.2028C35.2593 10.1997 35.3527 10.1976 35.4464 10.1955L35.4375 9.79562ZM35.4336 9.79574L35.4336 9.79574L35.4502 10.1954L35.4503 10.1954L35.4336 9.79574ZM35.4337 9.79574L35.4336 9.79574L35.4503 10.1954L35.4503 10.1954L35.4337 9.79574ZM35.4337 9.79574L35.4337 9.79574L35.4503 10.1954L35.4504 10.1954L35.4337 9.79574ZM35.4439 9.79547L35.4376 9.79561L35.4465 10.1955L35.4528 10.1954L35.4439 9.79547ZM36 9.78901C35.8138 9.78901 35.6283 9.79225 35.4449 9.79545L35.4519 10.1954C35.6359 10.1922 35.8178 10.189 36 10.189V9.78901ZM36.7386 9.8003C36.4937 9.79387 36.2472 9.78901 36 9.78901V10.189C36.2421 10.189 36.4848 10.1938 36.7281 10.2002L36.7386 9.8003ZM36.9555 9.80673L36.7392 9.80032L36.7274 10.2001L36.9437 10.2065L36.9555 9.80673ZM37.5233 9.8331C37.3356 9.82294 37.1465 9.81323 36.9564 9.80675L36.9428 10.2065C37.1287 10.2129 37.3144 10.2224 37.5017 10.2325L37.5233 9.8331ZM37.8238 9.85031C37.7228 9.84382 37.6224 9.83843 37.5232 9.83309L37.5018 10.2325C37.6013 10.2379 37.6996 10.2432 37.7982 10.2495L37.8238 9.85031ZM58.9297 21.8707C54.082 14.8101 46.2917 10.4065 37.8241 9.85033L37.7979 10.2495C46.1435 10.7977 53.8218 15.1378 58.5999 22.0972L58.9297 21.8707ZM60.0753 22.0835C59.7003 22.3412 59.1871 22.2455 58.9296 21.8707L58.5999 22.0972C58.9823 22.6538 59.7444 22.7963 60.3019 22.4131L60.0753 22.0835ZM60.2881 20.9378C60.546 21.3129 60.4505 21.826 60.0754 22.0834L60.3017 22.4132C60.8591 22.0308 61.0008 21.2685 60.6178 20.7112L60.2881 20.9378ZM40.1694 8.44063C48.262 9.59808 55.5839 14.0857 60.2881 20.9377L60.6178 20.7113C55.8499 13.7664 48.4286 9.21784 40.2261 8.04466L40.1694 8.44063ZM40.7951 5.53978C40.7951 6.47768 40.5199 7.37323 40.0296 8.13433L40.3659 8.35096C40.8967 7.52698 41.1951 6.55653 41.1951 5.53978H40.7951ZM39.0146 3.53303C39.8141 3.82727 40.2546 4.21342 40.4969 4.57478C40.7399 4.937 40.7951 5.29128 40.7951 5.53978H41.1951C41.1951 5.23179 41.1262 4.79486 40.8291 4.35199C40.5316 3.90826 40.0163 3.47544 39.1528 3.15764L39.0146 3.53303ZM36 3.07109C37.1411 3.07109 38.2119 3.23775 39.0146 3.53304L39.1527 3.15763C38.2946 2.84196 37.1746 2.67109 36 2.67109V3.07109ZM32.9849 3.53304C33.7877 3.23775 34.8584 3.07109 36 3.07109V2.67109C34.8249 2.67109 33.705 2.84196 32.8468 3.15763L32.9849 3.53304ZM31.205 5.53978C31.205 5.29122 31.2601 4.93694 31.5029 4.57475C31.7451 4.21341 32.1854 3.82727 32.9849 3.53303L32.8468 3.15764C31.9833 3.47544 31.4681 3.90827 31.1707 4.35203C30.8738 4.79492 30.805 5.23185 30.805 5.53978H31.205ZM31.9664 8.12879C31.4792 7.36917 31.205 6.4751 31.205 5.53978H30.805C30.805 6.55377 31.1023 7.52249 31.6297 8.34476L31.9664 8.12879ZM15.4651 16.4844C19.9838 12.0856 25.6822 9.30417 31.8261 8.4348L31.7701 8.03874C25.542 8.92002 19.7656 11.7398 15.1861 16.1978L15.4651 16.4844ZM6.61661 35.737C7.06803 28.4274 10.1863 21.6232 15.4651 16.4844L15.1861 16.1978C9.83613 21.4058 6.67492 28.3034 6.21737 35.7124L6.61661 35.737ZM8.46943 35.5252L6.41704 35.5247L6.41694 35.9247L8.46932 35.9253L8.46943 35.5252ZM62.717 25.1967C64.2637 28.5262 65.1575 32.0677 65.3835 35.7375L65.7827 35.713C65.5537 31.9936 64.6477 28.4033 63.0798 25.0282L62.717 25.1967ZM61.6227 24.7962C62.0361 24.6048 62.5258 24.7839 62.7169 25.1965L63.0799 25.0284C62.7956 24.4146 62.0677 24.1493 61.4546 24.4332L61.6227 24.7962ZM61.2224 25.8908C61.0306 25.4777 61.2099 24.9878 61.6229 24.7961L61.4545 24.4333C60.841 24.718 60.5749 25.4458 60.8595 26.0592L61.2224 25.8908ZM63.7303 35.7121C63.5044 32.2937 62.6635 28.9942 61.2223 25.8907L60.8595 26.0592C62.2798 29.1177 63.1085 32.369 63.3312 35.7384L63.7303 35.7121ZM65.5831 35.5252H63.5307V35.9253H65.5831V35.5252ZM36.0002 5.11919C36.8464 5.11919 37.5179 5.22394 37.9965 5.35508C38.2361 5.42071 38.4248 5.49226 38.5617 5.55903C38.7056 5.62918 38.7722 5.68444 38.7907 5.7077L39.1035 5.45834C39.0275 5.36305 38.894 5.27604 38.737 5.1995C38.5731 5.11957 38.3602 5.03998 38.1022 4.96929C37.5858 4.82779 36.8784 4.71919 36.0002 4.71919V5.11919ZM33.2096 5.7077C33.2282 5.68444 33.2947 5.62918 33.4386 5.55903C33.5755 5.49226 33.7642 5.42071 34.0038 5.35508C34.4824 5.22394 35.1539 5.11919 36.0002 5.11919V4.71919C35.1219 4.71919 34.4145 4.82779 33.8981 4.96929C33.6401 5.03998 33.4272 5.11957 33.2633 5.1995C33.1063 5.27604 32.9728 5.36305 32.8968 5.45834L33.2096 5.7077ZM34.4689 7.82135C33.7236 7.32044 33.2661 6.48507 33.2532 5.58016L32.8532 5.58588C32.8681 6.62281 33.3923 7.57974 34.2458 8.15335L34.4689 7.82135ZM34.7502 7.76832C34.6164 7.77418 34.4811 7.78011 34.3462 7.78766L34.3686 8.18704C34.5007 8.17964 34.6335 8.17382 34.7678 8.16793L34.7502 7.76832ZM35.0931 7.75629C34.9804 7.75991 34.8657 7.76359 34.7508 7.76829L34.7672 8.16796C34.88 8.16334 34.993 8.15971 35.106 8.15609L35.0931 7.75629ZM35.104 7.75594L35.0931 7.75629L35.106 8.15609L35.1168 8.15574L35.104 7.75594ZM35.3998 7.74839C35.3012 7.75002 35.2023 7.75272 35.1039 7.75595L35.117 8.15573C35.214 8.15255 35.3106 8.14992 35.4064 8.14834L35.3998 7.74839ZM36.0002 7.74142C35.8024 7.74142 35.6012 7.74412 35.3988 7.74841L35.4073 8.14832C35.6077 8.14407 35.8059 8.14142 36.0002 8.14142V7.74142ZM36.8499 7.75433C36.5623 7.74573 36.2783 7.74142 36.0002 7.74142V8.14142C36.2742 8.14142 36.5542 8.14566 36.838 8.15415L36.8499 7.75433ZM36.9718 7.75842C36.932 7.7569 36.8905 7.7553 36.8488 7.7543L36.8392 8.15418C36.8775 8.1551 36.9162 8.15658 36.9565 8.15813L36.9718 7.75842ZM37.0506 7.76128C37.0247 7.76045 36.9986 7.75945 36.9718 7.75842L36.9565 8.15813C36.983 8.15915 37.0104 8.1602 37.0378 8.16108L37.0506 7.76128ZM37.653 7.78817C37.4503 7.77742 37.2506 7.76883 37.0518 7.76132L37.0367 8.16104C37.2341 8.16849 37.4317 8.17699 37.6318 8.1876L37.653 7.78817ZM38.7471 5.58016C38.7342 6.48555 38.2763 7.32094 37.5308 7.82189L37.7539 8.15388C38.6075 7.5803 39.1322 6.6234 39.1471 5.58588L38.7471 5.58016Z" fill="#E67217" mask="url(#path-3-outside-2)"/>
</svg>
