<svg width="70" height="44" viewBox="0 0 70 44" fill="none" xmlns="http://www.w3.org/2000/svg">
<g clip-path="url(#clip0)">
<path d="M32.2656 10.9383C33.0207 10.9383 33.6328 10.3262 33.6328 9.57111C33.6328 8.81603 33.0207 8.20392 32.2656 8.20392C31.5105 8.20392 30.8984 8.81603 30.8984 9.57111C30.8984 10.3262 31.5105 10.9383 32.2656 10.9383Z" fill="#E67217"/>
<path d="M4.36075 17.6896C4.36116 17.691 4.3617 17.6922 4.36198 17.6936C5.24805 20.9613 8.23261 23.2434 11.621 23.2434C14.8276 23.2434 17.5977 21.2547 18.6693 18.3533L34.494 21.9514C34.9104 27.5104 38.4559 32.353 43.5689 34.449L39.1901 41.0168H35.8202C35.0653 41.0168 34.453 41.6289 34.453 42.384C34.453 43.1391 35.0653 43.7498 35.8202 43.7498H64.5282C64.5296 43.7498 64.5308 43.7501 64.5321 43.7501C64.8908 43.7501 65.2533 43.5953 65.4977 43.3507L69.5993 39.2492C70.1331 38.7153 70.1331 37.8496 69.5993 37.3156C69.0652 36.7817 68.1998 36.7817 67.6656 37.3156L64.9054 40.0758L62.5246 35.3142C66.7968 34.3558 69.9997 30.535 69.9997 25.9778C69.9997 16.1775 62.0267 8.20439 52.2263 8.20439H49.4919V2.73565H68.6325C69.3875 2.73565 69.9997 2.12356 69.9997 1.36847C69.9997 0.61337 69.3875 0.00128174 68.6325 0.00128174H27.6171C26.8621 0.00128174 26.2499 0.61337 26.2499 1.36847C26.2499 2.12356 26.8621 2.73565 27.6171 2.73565H46.7577V8.20439H38.418C37.663 8.20439 37.0508 8.81648 37.0508 9.57157C37.0508 10.3267 37.663 10.9388 38.418 10.9388H46.7577V17.7747C46.7577 23.0517 51.0508 27.345 56.328 27.3436H67.1279C66.4927 30.4615 63.7309 32.8137 60.4295 32.8137H49.1503C42.4761 32.8137 37.1874 27.3868 37.1874 20.8508C37.1874 20.2126 36.7458 19.6592 36.1233 19.5177L19.1392 15.656C19.1232 13.8999 18.4895 12.2429 17.4146 10.9388H26.1132C26.8682 10.9388 27.4804 10.3267 27.4804 9.57157C27.4804 8.81648 26.8682 8.20439 26.1132 8.20439H14.5169L10.7932 0.757061C10.5616 0.293859 10.0883 0.00128174 9.5704 0.00128174H1.36716C0.94169 0.00128174 0.540284 0.199388 0.28175 0.537355C0.0229417 0.875187 -0.0636011 1.31433 0.0472775 1.72516L4.36075 17.6896ZM49.4921 17.7745V10.9386H52.2264C60.0581 10.9386 66.5096 16.9563 67.2027 24.6105H56.328C52.5587 24.6105 49.4921 21.544 49.4921 17.7745ZM59.5846 35.5479L62.319 41.0167H42.4765L46.3067 35.2718C47.2387 35.4548 48.1913 35.5479 49.1503 35.5479H59.5846ZM11.621 20.5089C9.02517 20.5089 6.8359 18.4118 6.8359 15.7238C6.8359 13.0852 8.98251 10.9386 11.621 10.9386C14.2782 10.9386 16.4062 13.1005 16.4062 15.7238C16.4062 18.3731 14.2823 20.5089 11.621 20.5089ZM8.72535 2.73551L11.4618 8.20835C8.99837 8.26003 6.82359 9.50116 5.48867 11.3805L3.15284 2.73551H8.72535Z" fill="#495865"/>
<path fill-rule="evenodd" clip-rule="evenodd" d="M11.6211 20.5078C14.2639 20.5078 16.4062 18.3654 16.4062 15.7227C16.4062 13.0799 14.2639 10.9375 11.6211 10.9375C8.97832 10.9375 6.83594 13.0799 6.83594 15.7227C6.83594 18.3654 8.97832 20.5078 11.6211 20.5078ZM11.6211 23.2422C15.774 23.2422 19.1406 19.8756 19.1406 15.7227C19.1406 11.5697 15.774 8.20312 11.6211 8.20312C7.46817 8.20312 4.10156 11.5697 4.10156 15.7227C4.10156 19.8756 7.46817 23.2422 11.6211 23.2422Z" fill="#E67217"/>
</g>
<defs>
<clipPath id="clip0">
<rect width="70" height="43.75" fill="white"/>
</clipPath>
</defs>
</svg>
