<svg width="70" height="70" viewBox="0 0 70 70" fill="none" xmlns="http://www.w3.org/2000/svg">
<path d="M59.3008 24.4386C59.1057 24.2077 58.8191 24.0747 58.517 24.0747C57.0288 24.0747 47.7014 24.0747 45.6555 24.0747V16.2906C45.6555 14.2427 43.9895 12.5766 41.9416 12.5766H37.016C36.4492 12.5766 35.9899 13.0359 35.9899 13.6027C35.9899 14.1695 36.4492 14.6288 37.016 14.6288H41.9416C42.8579 14.6288 43.6033 15.3743 43.6033 16.2905V48.8196H23.1155C22.3311 43.0059 15.3485 40.1397 10.7143 44.0662C9.25848 45.3003 8.34642 47.0007 8.09842 48.8196H3.71397C2.79768 48.8196 2.05229 48.0742 2.05229 47.1579V16.2905C2.05229 15.3742 2.79782 14.6288 3.71397 14.6288H33.4587C34.0255 14.6288 34.4848 14.1695 34.4848 13.6027C34.4848 13.0359 34.0255 12.5766 33.4587 12.5766H3.71397C1.66606 12.5766 0 14.2426 0 16.2905V47.1577C0 49.2054 1.66606 50.8716 3.71397 50.8716H8.1006C8.60291 54.5663 11.7767 57.4235 15.6072 57.4235C19.4376 57.4235 22.611 54.5663 23.1134 50.8716C24.3987 50.8716 46.6971 50.8716 47.9426 50.8716C48.445 54.5663 51.6185 57.4235 55.4489 57.4235C59.2792 57.4235 62.4527 54.5663 62.9553 50.8716H68.9701C69.5368 50.8716 69.9962 50.4124 69.9962 49.8456V37.4807C69.9962 36.9353 70.529 37.7283 59.3008 24.4386ZM15.607 55.3713C12.4603 55.3713 9.92813 52.731 10.0885 49.562C10.2221 47.0051 12.0976 44.884 14.5834 44.4169C18.0092 43.7722 21.1324 46.4186 21.1324 49.8461C21.1325 52.8926 18.6539 55.3713 15.607 55.3713ZM53.5609 26.127H58.0406L66.7598 36.4472H53.5611V26.127H53.5609ZM55.4489 55.3713C52.4021 55.3713 49.9234 52.8929 49.9234 49.8461C49.9234 46.5458 52.824 43.94 56.1546 44.3668C58.869 44.7148 60.9742 47.0383 60.9742 49.8461C60.9744 52.8926 58.4956 55.3713 55.4489 55.3713ZM67.944 48.8196H62.9573V48.8195C62.2718 43.7342 56.7646 40.7789 52.1435 43.0283C49.8856 44.128 48.2833 46.2999 47.9405 48.8195H45.6558V26.127H51.5088V37.4733C51.5088 38.0401 51.968 38.4994 52.5348 38.4994H67.9439V48.8196H67.944Z" fill="#495865"/>
<path d="M33.8892 27.6049L29.1897 22.9053C26.8101 20.5253 22.7669 22.2443 22.7669 25.5653C22.7669 26.4503 23.0704 27.2888 23.6279 27.9614H13.1217C11.0473 27.9614 9.35938 29.6492 9.35938 31.7238C9.35938 33.7983 11.0472 35.4862 13.1217 35.4862H23.6274C22.4181 36.9458 22.4676 39.1412 23.8684 40.5423C25.3385 42.0125 27.7187 42.013 29.1894 40.5423L33.8895 35.8423C36.1601 33.5716 36.16 29.8765 33.8892 27.6049ZM32.4384 34.3915L27.7382 39.0913C26.6705 40.1591 24.8187 39.4117 24.8187 37.8822C24.8187 36.9906 25.2828 36.71 26.8066 35.186C27.4499 34.5423 26.9945 33.4342 26.0809 33.4342H13.1217C12.1787 33.4342 11.4115 32.667 11.4115 31.724C11.4115 30.7809 12.1787 30.0137 13.1217 30.0137H26.0815C26.4964 30.0137 26.8706 29.7638 27.0295 29.3803C27.1884 28.9968 27.1006 28.5556 26.8072 28.2621L25.32 26.7747C24.653 26.1081 24.65 25.0262 25.3204 24.356C25.9882 23.6882 27.0702 23.6877 27.7385 24.3563L32.4381 29.056C33.9089 30.5273 33.9089 32.9208 32.4384 34.3915Z" fill="#E67217"/>
<path d="M15.6067 46.8596C13.9602 46.8596 12.6206 48.1991 12.6206 49.8455C12.6206 51.492 13.9602 52.8315 15.6067 52.8315C17.2531 52.8315 18.5925 51.492 18.5925 49.8455C18.5925 48.1991 17.2532 46.8596 15.6067 46.8596ZM15.6067 50.7794C15.0917 50.7794 14.6728 50.3603 14.6728 49.8455C14.6728 49.3306 15.0918 48.9118 15.6067 48.9118C16.1216 48.9118 16.5403 49.3306 16.5403 49.8455C16.5403 50.3605 16.1216 50.7794 15.6067 50.7794Z" fill="#495865"/>
<path d="M55.4495 46.8596C53.803 46.8596 52.4634 48.1991 52.4634 49.8455C52.4634 51.492 53.803 52.8315 55.4495 52.8315C57.0958 52.8315 58.4354 51.492 58.4354 49.8455C58.4354 48.1991 57.0958 46.8596 55.4495 46.8596ZM55.4495 50.7794C54.9344 50.7794 54.5155 50.3603 54.5155 49.8455C54.5155 49.3306 54.9346 48.9118 55.4495 48.9118C55.9643 48.9118 56.3833 49.3306 56.3833 49.8455C56.3833 50.3605 55.9643 50.7794 55.4495 50.7794Z" fill="#495865"/>
</svg>
