<svg width="71" height="70" viewBox="0 0 71 70" fill="none" xmlns="http://www.w3.org/2000/svg">
<g clip-path="url(#clip0)">
<path d="M62.7559 15.3125C58.2305 15.3125 54.5527 18.9766 54.5527 23.5156V26.25H44.668C47.9629 20.6172 49.6309 16.3926 49.6309 13.6719C49.6309 6.13867 43.4922 0 35.959 0C28.4258 0 22.2871 6.13867 22.2871 13.6719C22.2871 16.3926 23.9551 20.6172 27.25 26.25C26.1426 26.25 18.3223 26.25 17.3652 26.25V23.5156C17.3652 18.9902 13.6875 15.3125 9.16211 15.3125C4.63672 15.3125 0.958984 18.9766 0.958984 23.5156V31.1719C0.958984 31.9238 1.57422 32.5391 2.32617 32.5391C3.07812 32.5391 3.69336 31.9238 3.69336 31.1719V23.5156C3.69336 20.4941 6.14062 18.0469 9.16211 18.0469C12.1836 18.0469 14.6309 20.4941 14.6309 23.5156V55.6855C13.1816 54.3867 11.2676 53.5938 9.16211 53.5938C7.05664 53.5938 5.14258 54.3867 3.69336 55.6855V42.1094C3.69336 41.3574 3.07812 40.7422 2.32617 40.7422C1.57422 40.7422 0.958984 41.3574 0.958984 42.1094V61.7969C0.958984 66.4863 5.00586 70 9.55859 70H62.7559C67.2812 70 70.959 66.3223 70.959 61.7969V23.5156C70.959 18.9902 67.2812 15.3125 62.7559 15.3125ZM57.2871 23.5156C57.2871 20.4941 59.7344 18.0469 62.7559 18.0469C65.7773 18.0469 68.2246 20.4941 68.2246 23.5156V55.6445C67.2812 54.8105 66.1465 54.1816 64.916 53.8672C62.1816 53.1562 59.3516 53.8262 57.2871 55.6719C57.2871 54.5098 57.2871 25.1562 57.2871 23.5156ZM54.5527 42.6562H37.0527C32.4727 38.2949 23.7227 29.9551 22.6973 28.9844H28.9043C31.8848 33.7559 34.8242 37.6934 34.8652 37.7344C35.125 38.0762 35.5352 38.2812 35.959 38.2812C36.3828 38.2812 36.793 38.0762 37.0527 37.7344C37.0801 37.6934 40.0195 33.7559 43.0137 28.9844H54.5527V42.6562ZM35.959 2.73438C41.9883 2.73438 46.8965 7.64258 46.8965 13.6719C46.8965 18.7441 38.8848 30.4883 35.959 34.5898C32.9785 30.4199 25.0215 18.7031 25.0215 13.6719C25.0215 7.64258 29.9297 2.73438 35.959 2.73438ZM3.69336 61.7969C3.69336 58.7754 6.14062 56.3281 9.16211 56.3281C12.1836 56.3281 14.6309 58.7754 14.6309 61.7969C14.6309 62.5488 15.2461 63.1641 15.998 63.1641C16.75 63.1641 17.3652 62.5488 17.3652 61.7969V39.0059L31.2422 52.2266L15.4512 67.2656H9.55859C6.48242 67.2656 3.69336 64.9688 3.69336 61.7969ZM34.168 53.2109C34.4414 52.9512 34.5918 52.5957 34.5918 52.2266C34.5918 51.8574 34.4414 51.4883 34.168 51.2422L17.3652 35.2324V28.9844H18.7324C18.8281 29.0801 34.9062 44.3926 35.5625 45.0078C35.8223 45.2539 36.1504 45.3906 36.5059 45.3906H54.5527V50.8594H44.1621C43.793 50.8594 43.4512 51.0098 43.1914 51.2559L27.1953 67.2656H19.416L34.168 53.2109ZM62.7559 67.2656H31.0508L44.7227 53.5938H54.5527V61.7969C54.5527 62.5488 55.168 63.1641 55.9199 63.1641C56.6719 63.1641 57.2871 62.5488 57.2871 61.7969C57.2871 58.2559 60.5957 55.5762 64.2324 56.5195C66.4473 57.0938 68.2246 59.1445 68.2246 61.7969C68.2246 64.8184 65.7773 67.2656 62.7559 67.2656Z" fill="#495865"/>
<path d="M28.9043 28.9844C31.8848 33.7559 34.8242 37.6934 34.8652 37.7344C35.125 38.0762 35.5352 38.2812 35.959 38.2812C36.3828 38.2812 36.793 38.0762 37.0527 37.7344C37.0801 37.6934 40.0195 33.7559 43.0137 28.9844L44.668 26.25C47.9629 20.6172 49.6309 16.3926 49.6309 13.6719C49.6309 6.13867 43.4922 0 35.959 0C28.4258 0 22.2871 6.13867 22.2871 13.6719C22.2871 16.3926 23.9551 20.6172 27.25 26.25L28.9043 28.9844ZM35.959 2.73438C41.9883 2.73438 46.8965 7.64258 46.8965 13.6719C46.8965 18.7441 38.8848 30.4883 35.959 34.5898C32.9785 30.4199 25.0215 18.7031 25.0215 13.6719C25.0215 7.64258 29.9297 2.73438 35.959 2.73438Z" fill="#E57217"/>
<path d="M35.959 20.5078C39.7324 20.5078 42.7949 17.4453 42.7949 13.6719C42.7949 9.89844 39.7324 6.83594 35.959 6.83594C32.1855 6.83594 29.123 9.89844 29.123 13.6719C29.123 17.4453 32.1855 20.5078 35.959 20.5078ZM35.959 9.57031C38.2148 9.57031 40.0605 11.416 40.0605 13.6719C40.0605 15.9277 38.2148 17.7734 35.959 17.7734C33.7031 17.7734 31.8574 15.9277 31.8574 13.6719C31.8574 11.416 33.7031 9.57031 35.959 9.57031Z" fill="#E57217"/>
<path d="M2.32617 38.0078C3.07812 38.0078 3.69336 37.3926 3.69336 36.6406C3.69336 35.8887 3.07812 35.2734 2.32617 35.2734C1.57422 35.2734 0.958984 35.8887 0.958984 36.6406C0.958984 37.3926 1.57422 38.0078 2.32617 38.0078Z" fill="#495865"/>
</g>
<defs>
<clipPath id="clip0">
<rect width="70" height="70" fill="white" transform="translate(0.958984)"/>
</clipPath>
</defs>
</svg>
