<svg width="71" height="70" viewBox="0 0 71 70" fill="none" xmlns="http://www.w3.org/2000/svg">
<g clip-path="url(#clip0)">
<path d="M57.7178 39.5326C61.5438 37.5027 63.051 32.8649 61.1492 28.9738C60.433 27.5083 60.433 25.8276 61.1492 24.3622C63.051 20.471 61.5444 15.8332 57.7178 13.8033C56.2775 13.0385 55.2895 11.6788 55.0075 10.0723C54.2593 5.80682 50.3126 2.93999 46.0257 3.54668C44.4102 3.77472 42.8123 3.25562 41.64 2.12181C38.527 -0.889746 33.6505 -0.889746 30.5375 2.12181C29.3652 3.25562 27.7662 3.77526 26.1518 3.54668C21.8643 2.93946 17.9182 5.80682 17.1694 10.0729C16.888 11.6788 15.9 13.0385 14.4591 13.8033C10.6331 15.8332 9.12649 20.471 11.0283 24.3622C11.7445 25.8276 11.7445 27.5083 11.0283 28.9738C9.12649 32.8649 10.6331 37.5027 14.4591 39.5326C15.9 40.2974 16.888 41.6571 17.1694 43.2636C17.8429 47.1029 21.1076 49.8079 24.8796 49.8677V68.4963C24.8796 69.0159 25.1744 69.4907 25.6401 69.7214C26.1058 69.9521 26.6618 69.8982 27.0757 69.5831L36.0885 62.7087L45.1018 69.5831C45.3442 69.7684 45.6364 69.8634 45.9306 69.8634C46.1373 69.8634 46.3445 69.8164 46.5368 69.7214C47.003 69.4907 47.2973 69.0159 47.2973 68.4963V49.8672C51.0699 49.8069 54.334 47.1029 55.0075 43.2636C55.2895 41.6571 56.2775 40.2974 57.7178 39.5326ZM27.6135 49.786C28.7024 49.9356 29.723 50.4264 30.5375 51.2141C31.7375 52.3752 33.1997 53.0865 34.7218 53.3525V60.3123L27.6135 65.7346V49.786ZM37.4557 60.3123V53.3525C38.9777 53.0865 40.44 52.3752 41.64 51.2141C42.4544 50.4264 43.475 49.9356 44.564 49.786V65.7346L37.4557 60.3123ZM52.3148 42.7909C51.8229 45.5963 49.229 47.4805 46.4086 47.0826C43.9519 46.735 41.522 47.5248 39.7393 49.2493C37.6922 51.2296 34.4852 51.2296 32.4382 49.2493C30.9316 47.7919 28.962 47.002 26.9058 47.002C26.5288 47.002 26.1491 47.0287 25.7688 47.0826C22.9495 47.481 20.3545 45.5963 19.8627 42.7915C19.4338 40.3481 17.9315 38.2803 15.7408 37.1176C13.2249 35.783 12.2336 32.733 13.4844 30.1743C14.5739 27.9462 14.5739 25.3902 13.4844 23.1616C12.2336 20.6029 13.2249 17.5534 15.7408 16.2183C17.9315 15.0557 19.4344 12.9878 19.8627 10.545C20.3545 7.73958 22.9474 5.85488 25.7688 6.25383C28.2255 6.60096 30.6555 5.81109 32.4382 4.08662L31.4881 3.10395L32.4382 4.08662C34.4852 2.10686 37.6922 2.10632 39.7393 4.08662C41.522 5.81109 43.9519 6.60096 46.4086 6.25383C49.2279 5.85488 51.8224 7.73958 52.3148 10.545C52.7436 12.9878 54.2459 15.0557 56.4366 16.2183C58.9526 17.5534 59.9438 20.6029 58.693 23.1616C57.6036 25.3902 57.6036 27.9462 58.693 30.1743C59.9438 32.733 58.9526 35.783 56.4366 37.1182C54.2459 38.2803 52.7436 40.3481 52.3148 42.7909Z" fill="#495865"/>
<path d="M27.9994 10.2242C27.3222 10.5574 27.0434 11.3767 27.3766 12.0544C27.7099 12.7316 28.5286 13.0109 29.2063 12.6771C35.1942 9.73123 42.389 10.9243 47.1107 15.6465C53.1882 21.7235 53.1882 31.6127 47.1107 37.6903C44.0719 40.7291 40.0808 42.2485 36.0887 42.2479C32.0977 42.2479 28.1056 40.7285 25.0668 37.6903C20.3452 32.9687 19.1521 25.7738 22.0975 19.7865C22.4307 19.1093 22.1519 18.2901 21.4742 17.9568C20.7965 17.623 19.9778 17.9023 19.6445 18.5795C16.1822 25.6173 17.5847 34.0736 23.1335 39.623C26.7053 43.1948 31.397 44.9807 36.0887 44.9807C40.7805 44.9807 45.4722 43.1948 49.0434 39.623C56.187 32.4795 56.187 20.8562 49.0434 13.7132C43.4945 8.16323 35.0372 6.76133 27.9994 10.2242Z" fill="#495865"/>
<path d="M23.7279 22.8071C23.3973 23.8277 23.7594 24.9364 24.6294 25.5655L29.3943 29.0118L27.5689 34.5884C27.2351 35.6095 27.594 36.7198 28.4634 37.3516C29.3323 37.9829 30.4998 37.9818 31.3676 37.3484L36.1074 33.8888L40.8472 37.3484C41.2824 37.6657 41.7919 37.8243 42.3014 37.8243C42.8098 37.8243 43.3177 37.6667 43.7514 37.3516C44.6203 36.7204 44.9797 35.6101 44.6459 34.5889L42.8205 29.0118L47.5854 25.5655C48.4548 24.9364 48.8175 23.8282 48.4869 22.8071C48.1563 21.786 47.2132 21.1002 46.1402 21.1002H40.2565L38.4546 15.5262C38.124 14.5046 37.1809 13.8183 36.1074 13.8183C35.0339 13.8183 34.0908 14.5046 33.7602 15.5262L31.9583 21.0997H26.0746C25.0016 21.1002 24.0585 21.786 23.7279 22.8071ZM32.9532 23.8341C33.546 23.8341 34.0716 23.4517 34.2542 22.8872L36.1074 17.1535L37.9606 22.8872C38.1432 23.4517 38.6687 23.8341 39.2615 23.8341H45.3146L40.4098 27.3813C39.9281 27.7295 39.7267 28.349 39.9115 28.914L41.7898 34.6514L36.9133 31.0925C36.4332 30.7421 35.7816 30.7421 35.3015 31.0925L30.425 34.6514L32.3033 28.914C32.4881 28.349 32.2867 27.7295 31.805 27.3813L26.8997 23.8341H32.9532Z" fill="#E67217"/>
<path d="M24.1005 16.0469C24.4605 16.0469 24.813 15.9005 25.0672 15.6463C25.3214 15.3921 25.4677 15.0391 25.4677 14.6797C25.4677 14.3187 25.3214 13.9678 25.0672 13.7136C24.813 13.4594 24.4605 13.313 24.1005 13.313C23.7401 13.313 23.3886 13.4594 23.1344 13.7136C22.8786 13.9678 22.7339 14.3187 22.7339 14.6797C22.7339 15.0391 22.8786 15.3921 23.1344 15.6463C23.3886 15.9005 23.7411 16.0469 24.1005 16.0469Z" fill="#495865"/>
<path d="M9.84371 4.57992C10.5989 4.57992 11.2109 3.96789 11.2109 3.21326V1.24259C11.2109 0.487962 10.5989 -0.124069 9.84371 -0.124069C9.08908 -0.124069 8.47705 0.487962 8.47705 1.24259V3.21326C8.47705 3.96789 9.08908 4.57992 9.84371 4.57992Z" fill="#495865"/>
<path d="M11.2109 12.1785V10.2079C11.2109 9.4527 10.5989 8.84067 9.84371 8.84067C9.08908 8.84067 8.47705 9.4527 8.47705 10.2079V12.1785C8.47705 12.9332 9.08908 13.5452 9.84371 13.5452C10.5989 13.5452 11.2109 12.9332 11.2109 12.1785Z" fill="#495865"/>
<path d="M13.3418 8.07758H15.3124C16.0671 8.07758 16.6791 7.46555 16.6791 6.71039C16.6791 5.95577 16.0671 5.34373 15.3124 5.34373H13.3418C12.5871 5.34373 11.9751 5.95577 11.9751 6.71039C11.9751 7.46555 12.5871 8.07758 13.3418 8.07758Z" fill="#495865"/>
<path d="M6.34661 5.34373H4.37593C3.62131 5.34373 3.00928 5.95577 3.00928 6.71039C3.00928 7.46555 3.62131 8.07758 4.37593 8.07758H6.34661C7.10124 8.07758 7.71327 7.46555 7.71327 6.71039C7.71327 5.95577 7.10124 5.34373 6.34661 5.34373Z" fill="#495865"/>
<path d="M62.3349 56.1937C61.5803 56.1937 60.9683 56.8057 60.9683 57.5609V59.531C60.9683 60.2861 61.5803 60.8982 62.3349 60.8982C63.0901 60.8982 63.7021 60.2861 63.7021 59.531V57.5609C63.7021 56.8057 63.0901 56.1937 62.3349 56.1937Z" fill="#495865"/>
<path d="M62.3349 65.1589C61.5803 65.1589 60.9683 65.771 60.9683 66.5261V68.4963C60.9683 69.2514 61.5803 69.8634 62.3349 69.8634C63.0901 69.8634 63.7021 69.2514 63.7021 68.4963V66.5261C63.7021 65.771 63.0901 65.1589 62.3349 65.1589Z" fill="#495865"/>
<path d="M67.8022 61.6615H65.8315C65.0769 61.6615 64.4648 62.2735 64.4648 63.0287C64.4648 63.7839 65.0769 64.3959 65.8315 64.3959H67.8022C68.5568 64.3959 69.1688 63.7839 69.1688 63.0287C69.1688 62.2735 68.5568 61.6615 67.8022 61.6615Z" fill="#495865"/>
<path d="M58.8378 61.6615H56.8671C56.1125 61.6615 55.5005 62.2735 55.5005 63.0287C55.5005 63.7839 56.1125 64.3959 56.8671 64.3959H58.8378C59.5924 64.3959 60.2045 63.7839 60.2045 63.0287C60.2045 62.2735 59.5924 61.6615 58.8378 61.6615Z" fill="#495865"/>
</g>
<defs>
<clipPath id="clip0">
<rect width="70" height="70" fill="white" transform="translate(0.958984)"/>
</clipPath>
</defs>
</svg>
