<svg width="70" height="70" viewBox="0 0 70 70" fill="none" xmlns="http://www.w3.org/2000/svg">
<path d="M44.8539 6.15158C34.3828 6.15158 25.8594 14.675 25.8594 25.1461C25.8594 35.6172 34.3828 44.1406 44.8539 44.1406C55.3249 44.1406 63.8484 35.6172 63.8484 25.1461C63.8484 14.675 55.3249 6.15158 44.8539 6.15158ZM44.8539 41.248C35.9833 41.248 28.7519 34.0166 28.7519 25.1461C28.7519 16.2755 35.9833 9.04414 44.8539 9.04414C53.7244 9.04414 60.9558 16.2755 60.9558 25.1461C60.9558 34.0166 53.7437 41.248 44.8539 41.248Z" fill="#495865"/>
<path d="M44.854 0C35.5592 0 27.0744 5.09091 22.6777 13.2865C20.8843 16.6226 19.9008 20.2286 19.7273 24.0275C19.7273 24.124 19.7273 24.2204 19.708 24.3168C19.708 24.5868 19.6887 24.8567 19.6887 25.146C19.6887 25.3774 19.6887 25.6088 19.708 25.8402H6.49862C4.5124 25.8402 2.89256 24.2204 2.89256 22.2342C2.89256 20.2479 4.5124 18.6281 6.49862 18.6281H12.978C13.7686 18.6281 14.4242 17.9725 14.4242 17.1818C14.4242 16.3912 13.7686 15.7355 12.978 15.7355H6.49862C2.91185 15.7163 0 18.6281 0 22.2149C0 24.3361 1.02204 26.2259 2.60331 27.4022C1.02204 28.5978 0 30.4876 0 32.6088C0 34.73 1.02204 36.6198 2.60331 37.7961C1.02204 38.9917 0 40.8815 0 43.0028C0 45.124 1.02204 47.0138 2.58402 48.1901C1.02204 49.3664 0 51.2562 0 53.3774C0 55.4215 0.944904 57.2342 2.42975 58.4298C0.944904 59.6253 0 61.4573 0 63.5014C0 67.0882 2.91185 70 6.49862 70H35.6749C39.2617 70 42.1736 67.0882 42.1736 63.5014C42.1736 61.4573 41.2286 59.6446 39.7438 58.449C41.2094 57.2534 42.1736 55.4408 42.1736 53.3967C42.1736 52.1625 41.8264 51.0248 41.2479 50.0413C42.4435 50.2149 43.6391 50.292 44.854 50.292C48.8843 50.292 52.876 49.3278 56.4242 47.4766C57.1377 47.1102 57.4077 46.2424 57.0413 45.5289C56.6749 44.8154 55.8072 44.5455 55.0937 44.9118C51.9118 46.5702 48.4601 47.3994 44.854 47.3994C40.2066 47.3994 35.7521 45.9725 31.9725 43.292C28.6942 40.9587 26.1102 37.7961 24.4904 34.1322C24.4518 34.0551 24.4325 33.978 24.3939 33.9201C24.3939 33.9201 24.3939 33.9008 24.3747 33.9008C23.1791 31.124 22.5813 28.1928 22.5813 25.146C22.5813 24.876 22.5813 24.6446 22.6005 24.4132V24.3939C22.6005 24.3168 22.6005 24.2397 22.6005 24.1625C22.7548 20.8072 23.6226 17.6061 25.2039 14.6749C29.1185 7.40496 36.6391 2.89256 44.854 2.89256C57.1377 2.89256 67.1074 12.8815 67.1074 25.146C67.1074 28.6942 66.2975 32.0689 64.7163 35.1928C64.3499 35.9063 64.6391 36.7741 65.3526 37.1405C66.0661 37.5069 66.9339 37.2176 67.3003 36.5041C69.0937 32.9752 70 29.1377 70 25.146C70 11.281 58.719 0 44.854 0ZM6.49862 36.2149C4.5124 36.2149 2.89256 34.595 2.89256 32.6088C2.89256 30.6226 4.5124 29.0028 6.49862 29.0028H19.9972C20.3058 31.0661 20.8843 33.0909 21.7135 35.0193C21.7521 35.1157 21.7906 35.2121 21.8485 35.3278C21.9835 35.6364 22.1185 35.9256 22.2727 36.2149H6.49862ZM39.281 63.5014C39.281 65.4876 37.6612 67.1074 35.6749 67.1074H6.49862C4.5124 67.1074 2.89256 65.4876 2.89256 63.5014C2.89256 61.5151 4.5124 59.8953 6.49862 59.8953H35.6749C37.6612 59.876 39.281 61.4959 39.281 63.5014ZM6.49862 56.9835C4.5124 56.9835 2.89256 55.3636 2.89256 53.3774C2.89256 51.3912 4.5124 49.7714 6.49862 49.7714H35.6749C37.6612 49.7714 39.281 51.3912 39.281 53.3774C39.281 55.3636 37.6612 56.9835 35.6749 56.9835H6.49862ZM30.314 45.6446C30.7961 45.9725 31.2782 46.3003 31.7603 46.5895H6.49862C4.5124 46.5895 2.89256 44.9697 2.89256 42.9835C2.89256 40.9972 4.5124 39.3774 6.49862 39.3774H24.124C25.8017 41.8072 27.8843 43.9284 30.314 45.6446Z" fill="#495865"/>
<path d="M50.0989 14.2507C48.9226 13.5951 47.5921 13.248 46.0879 13.248H39.9557C39.6086 13.248 39.3193 13.3637 39.0879 13.5951C38.8565 13.8265 38.7408 14.1157 38.7408 14.4628V31.3361H37.738C36.986 31.3361 36.3882 31.9339 36.3882 32.686C36.3882 33.438 36.986 34.0358 37.738 34.0358H38.7408V36.0606C38.7408 36.4077 38.8565 36.697 39.0879 36.9284C39.3193 37.1598 39.6086 37.2755 39.9557 37.2755C40.3028 37.2755 40.592 37.1598 40.8234 36.9284C41.0549 36.697 41.1706 36.4077 41.1706 36.0606V34.0358H46.84C47.5921 34.0358 48.1898 33.438 48.1898 32.686C48.1898 31.9339 47.5921 31.3361 46.84 31.3361H41.1706V28.7714H46.0879C47.5728 28.7714 48.9226 28.4435 50.0989 27.7879C51.2752 27.1323 52.1816 26.2259 52.8372 25.0496C53.4929 23.8926 53.8207 22.562 53.8207 21.0579C53.8207 19.5345 53.4929 18.2039 52.8372 17.0276C52.1816 15.832 51.2752 14.9064 50.0989 14.2507ZM50.7932 23.8347C50.3303 24.6446 49.694 25.3003 48.8841 25.7438C48.0741 26.2066 47.1292 26.438 46.0879 26.438H41.1513V15.5427H46.0879C47.1292 15.5427 48.0549 15.7741 48.8841 16.2562C49.694 16.719 50.3496 17.3747 50.7932 18.2039C51.256 19.0331 51.4874 19.978 51.4874 21.0386C51.4874 22.0799 51.256 23.0248 50.7932 23.8347Z" fill="#E67217"/>
<path d="M17.938 18.5686C18.7153 18.385 19.1967 17.606 19.0131 16.8287C18.8296 16.0513 18.0506 15.57 17.2732 15.7535C16.4959 15.9371 16.0145 16.716 16.1981 17.4934C16.3816 18.2708 17.1606 18.7521 17.938 18.5686Z" fill="#495865"/>
<path d="M61.4961 43.4656C62.2948 43.4656 62.9424 42.8181 62.9424 42.0193C62.9424 41.2206 62.2948 40.5731 61.4961 40.5731C60.6973 40.5731 60.0498 41.2206 60.0498 42.0193C60.0498 42.8181 60.6973 43.4656 61.4961 43.4656Z" fill="#495865"/>
</svg>
