<svg width="70" height="70" viewBox="0 0 70 70" fill="none" xmlns="http://www.w3.org/2000/svg">
<path d="M65.6867 5.4798H4.31334C1.93484 5.4798 0 7.41464 0 9.793V51.4393C0 53.8177 1.93484 55.7525 4.31334 55.7525H25.0708L24.2312 62.4694H20.7525C20.1861 62.4694 19.7271 62.9285 19.7271 63.4948C19.7271 64.0611 20.1861 64.5201 20.7525 64.5201H49.2475C49.8139 64.5201 50.2729 64.0611 50.2729 63.4948C50.2729 62.9285 49.8139 62.4694 49.2475 62.4694H45.7689L44.9292 55.7525H65.6867C68.065 55.7525 70 53.8177 70 51.4393V9.793C70 7.41464 68.0652 5.4798 65.6867 5.4798ZM26.298 62.4694L27.1377 55.7525H30.9116L31.2818 57.2332C31.7092 58.9426 33.2382 60.1363 35.0001 60.1363C36.762 60.1363 38.2911 58.9426 38.7185 57.2332L39.0887 55.7525H42.8626L43.702 62.4694H26.298ZM33.0254 55.7525H36.9745L36.7287 56.7358C36.53 57.5305 35.8192 58.0855 34.9999 58.0855C34.1805 58.0855 33.4698 57.5304 33.2711 56.7358L33.0254 55.7525ZM67.9492 51.4393C67.9492 52.6869 66.9342 53.7017 65.6867 53.7017H4.31334C3.06578 53.7017 2.05078 52.6869 2.05078 51.4393V9.793C2.05078 8.54544 3.06578 7.53058 4.31334 7.53058H65.6867C66.9342 7.53058 67.9492 8.54544 67.9492 9.793V51.4393Z" fill="#495865"/>
<path d="M58.015 9.86371H5.40918C4.84275 9.86371 4.38379 10.3227 4.38379 10.8891V50.3434C4.38379 50.9098 4.84275 51.3688 5.40918 51.3688H7.60119C8.16762 51.3688 8.62658 50.9098 8.62658 50.3434C8.62672 49.7771 8.16762 49.318 7.60133 49.318H6.43471V11.9145H58.015C58.5814 11.9145 59.0404 11.4554 59.0404 10.8891C59.0404 10.3227 58.5814 9.86371 58.015 9.86371Z" fill="#495865"/>
<path d="M64.5907 9.86371H62.3987C61.8322 9.86371 61.3733 10.3227 61.3733 10.8891C61.3733 11.4554 61.8322 11.9145 62.3987 11.9145H63.5653V49.318H11.9849C11.4184 49.318 10.9595 49.7771 10.9595 50.3434C10.9595 50.9098 11.4184 51.3688 11.9849 51.3688H64.5905C65.157 51.3688 65.6159 50.9098 65.6159 50.3434V10.8891C65.6161 10.3227 65.157 9.86371 64.5907 9.86371Z" fill="#495865"/>
<path d="M48.9589 21.2166C48.7746 20.981 48.4966 20.8377 48.198 20.8242L24.0871 19.7281C24.0683 19.7273 24.0498 19.7269 24.0308 19.7272C23.8881 19.2586 23.5865 18.8523 23.1782 18.58L20.2255 16.6115C19.7544 16.2974 19.1177 16.4247 18.8036 16.896C18.4896 17.3673 18.6169 18.0038 19.088 18.3179L22.0406 20.2861C22.0545 20.2954 22.0648 20.3094 22.0694 20.3256L25.8304 33.489C25.9477 33.8994 26.1408 34.2683 26.3886 34.5868L25.0126 37.339C24.6813 38.0014 24.716 38.7729 25.1054 39.4029C25.2466 39.6314 25.4257 39.8259 25.6315 39.9818C25.3622 40.4519 25.2073 40.9958 25.2073 41.5755C25.2073 43.3496 26.6506 44.7928 28.4245 44.7928C30.1985 44.7928 31.6418 43.3494 31.6418 41.5755C31.6418 41.1641 31.5633 40.7709 31.4219 40.409H40.7704C40.629 40.7709 40.5505 41.1641 40.5505 41.5755C40.5505 43.3496 41.9939 44.7928 43.7678 44.7928C45.5417 44.7928 46.9851 43.3494 46.9851 41.5755C46.9851 41.0609 46.863 40.5746 46.6472 40.1428C46.8542 39.9552 46.9851 39.6851 46.9851 39.3836C46.9851 38.8173 46.5261 38.3582 45.9597 38.3582H26.9095C26.8949 38.3582 26.8702 38.3582 26.8495 38.3247C26.8289 38.2914 26.84 38.2694 26.8465 38.2561L28.1142 35.7209C28.3722 35.7872 28.641 35.8231 28.916 35.8231C29.0428 35.8231 29.1707 35.8155 29.2995 35.8005L43.7078 34.1055C45.5687 33.8864 47.0659 32.505 47.4334 30.6675L49.1568 22.0496C49.2155 21.7563 49.1432 21.4521 48.9589 21.2166ZM43.7675 40.4093C44.4108 40.4093 44.934 40.9326 44.934 41.5758C44.934 42.219 44.4108 42.7423 43.7675 42.7423C43.1243 42.7423 42.601 42.219 42.601 41.5758C42.601 40.9325 43.1243 40.4093 43.7675 40.4093ZM28.4243 40.4093C29.0675 40.4093 29.5907 40.9325 29.5907 41.5758C29.5907 42.219 29.0675 42.7423 28.4243 42.7423C27.781 42.7423 27.2578 42.219 27.2578 41.5758C27.2578 40.9325 27.781 40.4093 28.4243 40.4093ZM25.9097 26.3029L24.6247 21.8056L28.7242 21.9919L29.435 26.3029H25.9097ZM29.06 33.7638C28.4882 33.8311 27.9598 33.4785 27.802 32.9257L26.4957 28.3537H29.7731L30.6346 33.5785L29.06 33.7638ZM35.0706 33.0567L32.6736 33.3387L31.8518 28.3538H35.0706V33.0567ZM35.0706 26.3029H31.5135L30.8185 22.0872L35.0706 22.2805V26.3029ZM40.2634 32.4457L37.1213 32.8154V28.3537H40.6338L40.2634 32.4457ZM40.8195 26.3029H37.1213V22.3736L41.1585 22.5571L40.8195 26.3029ZM45.4222 30.2656C45.2295 31.2292 44.4441 31.9539 43.4681 32.0688L42.3447 32.201L42.6929 28.3538H45.8045L45.4222 30.2656ZM46.2148 26.3029H42.8787L43.2093 22.6503L46.9116 22.8186L46.2148 26.3029Z" fill="#E67217"/>
</svg>
