<svg width="71" height="70" viewBox="0 0 71 70" fill="none" xmlns="http://www.w3.org/2000/svg">
<path d="M30.3672 62.6035C30.1074 62.3437 29.7656 62.207 29.3965 62.207C29.0273 62.207 28.6855 62.3574 28.4258 62.6035C28.166 62.8496 28.0293 63.2051 28.0293 63.5742C28.0293 63.9434 28.1797 64.2852 28.4258 64.5449C28.6855 64.8047 29.0273 64.9414 29.3965 64.9414C29.7656 64.9414 30.1074 64.791 30.3672 64.5449C30.627 64.2852 30.7637 63.9434 30.7637 63.5742C30.7637 63.2051 30.6133 62.8633 30.3672 62.6035Z" fill="#495865"/>
<path d="M48.7285 3.81454H40.1426C39.3906 3.81454 38.7754 4.42978 38.7754 5.18173C38.7754 5.93369 39.3906 6.54892 40.1426 6.54892H48.7285C49.4805 6.54892 50.0957 5.93369 50.0957 5.18173C50.0957 4.42978 49.4805 3.81454 48.7285 3.81454Z" fill="#495865"/>
<path d="M63.0293 30.8984C63.7812 30.8984 64.3965 30.2832 64.3965 29.5312V4.94922C64.3965 2.21484 62.1816 0 59.4473 0H29.4238C26.6895 0 24.4746 2.21484 24.4746 4.94922V14.3965C20.5234 17.5957 17.2695 21.6836 15.041 26.2363C12.7168 31.0078 11.4863 36.3262 11.4863 41.6309V55.918H10.2559C8.75195 55.918 7.52148 57.1484 7.52148 58.6523V68.6328C7.52148 69.3848 8.13672 70 8.88867 70C9.64062 70 10.2559 69.3848 10.2559 68.6328V58.6523H34.5098V68.6328C34.5098 69.3848 35.125 70 35.877 70C36.6289 70 37.2441 69.3848 37.2441 68.6328V62.6172H59.4473C62.168 62.6172 64.3965 60.4023 64.3965 57.668V40.8926C64.3965 40.1406 63.7812 39.5254 63.0293 39.5254C62.2773 39.5254 61.6621 40.1406 61.6621 40.8926V50.9961H41.168L45.5156 44.8711C46.5547 43.4082 46.6914 41.5078 45.8574 39.9219C45.0234 38.3359 43.4102 37.3379 41.6191 37.3379C40.5938 37.3379 39.582 37.6797 38.7754 38.2812L30.1348 44.7207C29.8203 44.9531 29.4375 45.0898 29.041 45.0898C28.0293 45.0898 27.209 44.2695 27.209 43.2578V41.5625V10.3906H61.6621V29.5312C61.6621 30.2832 62.2773 30.8984 63.0293 30.8984ZM61.6621 53.7305V57.668C61.6621 58.8848 60.6777 59.8828 59.4473 59.8828H37.2441V58.6523C37.2441 57.75 36.8066 56.957 36.1367 56.4648C37.2715 55.7266 38.3105 54.7969 39.1855 53.7305C39.1992 53.7305 39.2266 53.7305 39.2402 53.7305H61.6621ZM29.041 47.8105C30.0117 47.8105 30.9824 47.4824 31.7754 46.9082L40.416 40.4688C40.7715 40.209 41.1953 40.0586 41.6328 40.0586C42.4121 40.0586 43.082 40.4688 43.4375 41.166C43.793 41.8496 43.7383 42.6426 43.2871 43.2852L37.5176 51.4199C35.5215 54.2363 32.2539 55.918 28.8086 55.918H14.2207V41.6172C14.2207 32.5527 17.9258 24.0898 24.4746 17.9922V41.5625V43.2441C24.4746 45.7598 26.5254 47.8105 29.041 47.8105ZM27.209 7.65625V4.94922C27.209 3.73242 28.1934 2.73438 29.4238 2.73438H59.4609C60.6777 2.73438 61.6758 3.71875 61.6758 4.94922V7.65625H27.209Z" fill="#495865"/>
<path d="M45.4063 55.7264C45.1465 55.4666 44.8047 55.3299 44.4355 55.3299C44.0664 55.3299 43.7246 55.4803 43.4648 55.7264C43.2051 55.9862 43.0684 56.328 43.0684 56.6971C43.0684 57.0526 43.2187 57.408 43.4648 57.6678C43.7246 57.9276 44.0664 58.0643 44.4355 58.0643C44.8047 58.0643 45.1465 57.9139 45.4063 57.6678C45.666 57.408 45.8027 57.0663 45.8027 56.6971C45.8027 56.328 45.6523 55.9725 45.4063 55.7264Z" fill="#495865"/>
<path d="M64 34.0293C63.7402 33.7695 63.3984 33.6328 63.0293 33.6328C62.6602 33.6328 62.3184 33.7832 62.0586 34.0293C61.7988 34.2891 61.6621 34.6309 61.6621 35C61.6621 35.3555 61.8125 35.7109 62.0586 35.9707C62.3184 36.2305 62.6602 36.3672 63.0293 36.3672C63.3984 36.3672 63.7402 36.2168 64 35.9707C64.2598 35.7109 64.3965 35.3691 64.3965 35C64.3965 34.6445 64.2461 34.2891 64 34.0293Z" fill="#495865"/>
<path fill-rule="evenodd" clip-rule="evenodd" d="M55.2363 16.9533C54.7305 16.4474 53.9101 16.4474 53.3906 16.9533L51.832 18.5119C49.959 16.6388 47.3887 15.4904 44.5449 15.4904C41.7012 15.4904 39.1309 16.6525 37.2578 18.5256C33.2246 22.5588 33.2246 29.0666 37.2578 33.0998C41.291 37.133 47.7988 37.133 51.832 33.0998C55.1543 29.7775 55.8379 24.6506 53.4316 20.59L55.2226 18.799C55.7422 18.2931 55.7422 17.4592 55.2363 16.9533ZM50.0137 31.2541C46.9922 34.2756 42.1387 34.2756 39.1172 31.2541C36.0957 28.2326 36.0957 23.3791 39.1172 20.3576C42.1387 17.3361 46.9922 17.3361 50.0137 20.3576L44.3672 25.9767L42.5352 24.1447C42.0293 23.6388 41.209 23.6388 40.6895 24.1447C40.1836 24.6506 40.1836 25.4709 40.6895 25.9904L43.4375 28.7385C43.9434 29.2443 44.7637 29.2443 45.2832 28.7385L51.5176 22.5041C52.9394 25.4709 52.3105 28.9572 50.0137 31.2541Z" fill="#E57217"/>
</svg>
