<svg width="71" height="70" viewBox="0 0 71 70" fill="none" xmlns="http://www.w3.org/2000/svg">
<g clip-path="url(#clip0)">
<path d="M10.4505 39.1505C9.79536 39.1505 9.26416 39.6817 9.26416 40.3368V45.0823C9.26416 45.7375 9.79536 46.2687 10.4505 46.2687C11.1057 46.2687 11.6369 45.7375 11.6369 45.0823V40.3368C11.6369 39.6817 11.1057 39.1505 10.4505 39.1505Z" fill="#E67217"/>
<path d="M15.1961 41.5232C14.541 41.5232 14.0098 42.0544 14.0098 42.7096V47.4551C14.0098 48.1102 14.541 48.6414 15.1961 48.6414C15.8513 48.6414 16.3825 48.1102 16.3825 47.4551V42.7096C16.3825 42.0544 15.8513 41.5232 15.1961 41.5232Z" fill="#E67217"/>
<path d="M58.4679 47.8905C57.9149 47.539 57.1817 47.7026 56.8302 48.2556C56.493 48.7863 56.6284 49.488 57.1391 49.8551C60.4002 52.0508 61.2637 56.4743 59.0682 59.7352C56.8725 62.9962 52.449 63.8599 49.1881 61.6642C45.9271 59.4685 45.0634 55.045 47.2591 51.7841C48.5811 49.8205 50.793 48.6426 53.1601 48.6414C53.8152 48.6414 54.3464 48.1102 54.3464 47.4551C54.3464 46.7999 53.8152 46.2687 53.1601 46.2687C47.9184 46.2697 43.6699 50.5197 43.6709 55.7614C43.6719 61.0031 47.922 65.2516 53.1636 65.2506C58.4053 65.2495 62.6538 60.9995 62.6528 55.7579C62.6522 52.6029 61.0838 49.6543 58.4679 47.8905Z" fill="#E67217"/>
<path d="M66.8371 51.8189C65.6877 47.837 62.8594 44.554 59.0915 42.828V16.6092C59.0916 16.1897 58.8701 15.8013 58.509 15.5878L32.4089 0.164997C32.0364 -0.0552227 31.5735 -0.0552227 31.2012 0.164997L5.10106 15.5878C5.07615 15.602 5.05835 15.6234 5.03462 15.64C5.0109 15.6566 4.98836 15.6756 4.96463 15.6946C4.86156 15.7757 4.77303 15.8735 4.70244 15.984C4.70244 15.9923 4.68821 15.9971 4.68346 16.0054V16.0137C4.61658 16.1342 4.5712 16.2655 4.5494 16.4016C4.5494 16.4372 4.53872 16.4704 4.53516 16.506C4.5316 16.5416 4.51855 16.5737 4.51855 16.6092V47.4548C4.51841 47.8743 4.73996 48.2627 5.10106 48.4763L31.2012 63.8991C31.2324 63.9142 31.2645 63.9277 31.2973 63.9394C31.3296 63.9556 31.3629 63.9698 31.3969 63.9821C31.6581 64.0912 31.952 64.0912 32.2131 63.9821C32.2475 63.9698 32.2812 63.9556 32.314 63.9394C32.3448 63.9252 32.378 63.9169 32.4089 63.8991L39.4927 59.7124C41.6725 67.2633 49.5606 71.6176 57.1117 69.4378C64.6627 67.2581 69.0169 59.3698 66.8371 51.8189ZM31.805 2.56383L37.9741 6.20954L28.8272 11.6146C28.2628 11.9482 28.0755 12.6761 28.409 13.2406C28.7426 13.805 29.4705 13.9923 30.035 13.6587L40.3077 7.59285L46.4768 11.2386L22.7091 25.2792L16.54 21.6335L26.4782 15.761C27.0426 15.4275 27.2299 14.6995 26.8964 14.1351C26.5629 13.5707 25.8349 13.3834 25.2705 13.7169L14.2076 20.255L8.03732 16.6092L31.805 2.56383ZM21.5228 27.3352V35.2566L15.394 31.6346V23.7132L21.5228 27.3352ZM39.392 52.092C39.0764 53.2888 38.9188 54.5217 38.9232 55.7594C38.9235 56.2559 38.9496 56.7521 39.0015 57.2459L32.9914 60.7991V56.9458C32.9914 56.2906 32.4602 55.7594 31.805 55.7594C31.1498 55.7594 30.6186 56.2906 30.6186 56.9458V60.7991L6.89129 46.7786V18.6889L13.0213 22.3109V32.3108C13.0208 32.7308 13.2422 33.1198 13.6038 33.3335L22.1053 38.3577C22.2883 38.4654 22.4968 38.5223 22.7091 38.5226C23.3643 38.5226 23.8955 37.9914 23.8955 37.3363V28.7363L30.6186 32.7094V52.2003C30.6186 52.8555 31.1498 53.3867 31.805 53.3867C32.4602 53.3867 32.9914 52.8555 32.9914 52.2003V32.7094L54.4931 20.0034C55.0572 19.6699 55.2442 18.9422 54.9107 18.3781C54.5772 17.814 53.8495 17.627 53.2854 17.9605L31.805 30.6547L25.0427 26.6578L48.8104 12.6124L56.7187 17.2855V41.9975C49.1466 40.0004 41.3891 44.5197 39.392 52.092ZM53.1596 67.6231C46.6075 67.6231 41.296 62.3115 41.296 55.7594C41.296 49.2072 46.6075 43.8957 53.1596 43.8957C59.7118 43.8957 65.0233 49.2072 65.0233 55.7594C65.0162 62.3086 59.7088 67.6158 53.1596 67.6231Z" fill="#495865"/>
<path d="M57.5285 52.5482C57.0688 52.1041 56.3397 52.1041 55.88 52.5482L51.3801 57.0481L50.4393 56.1073C49.9681 55.652 49.2171 55.6651 48.7618 56.1364C48.3177 56.5961 48.3177 57.3251 48.7618 57.7848L50.5414 59.5644C51.0046 60.0275 51.7556 60.0275 52.2189 59.5644L57.5575 54.2257C58.0128 53.7545 57.9998 53.0033 57.5285 52.5482Z" fill="#E67217"/>
</g>
<defs>
<clipPath id="clip0">
<rect width="70" height="70" fill="white" transform="translate(0.958984)"/>
</clipPath>
</defs>
</svg>
