<svg width="70" height="70" viewBox="0 0 70 70" fill="none" xmlns="http://www.w3.org/2000/svg">
<path d="M68.6328 32.4023C69.3879 32.4023 70 31.7902 70 31.0352C70 30.2801 69.3879 29.668 68.6328 29.668C67.8777 29.668 67.2656 30.2801 67.2656 31.0352C67.2656 31.7902 67.8777 32.4023 68.6328 32.4023Z" fill="#495865"/>
<path d="M68.7982 3.93613C68.0244 3.16094 66.9949 2.73438 65.8984 2.73438C64.802 2.73438 63.7725 3.16094 62.9986 3.93613C62.2234 4.70996 61.7969 5.73945 61.7969 6.83594V12.3047H49.3555C48.6004 12.3047 47.9883 12.9168 47.9883 13.6719C47.9883 14.427 48.6004 15.0391 49.3555 15.0391H61.7969V23.2422H58.6523C57.8972 23.2422 57.2852 23.8543 57.2852 24.6094C57.2852 25.3645 57.8972 25.9766 58.6523 25.9766H61.7969V34.1797H49.3555C48.6004 34.1797 47.9883 34.7918 47.9883 35.5469C47.9883 36.302 48.6004 36.9141 49.3555 36.9141H61.7969V45.1172H58.6523C57.8972 45.1172 57.2852 45.7293 57.2852 46.4844C57.2852 47.2395 57.8972 47.8516 58.6523 47.8516H61.7969V56.0547H49.3555C48.6004 56.0547 47.9883 56.6668 47.9883 57.4219C47.9883 58.177 48.6004 58.7891 49.3555 58.7891H61.7969V65.8984C61.7969 66.258 61.9432 66.6107 62.1975 66.865C62.4518 67.1193 62.8045 67.2656 63.1641 67.2656H68.6328C68.9924 67.2656 69.3451 67.1193 69.5994 66.865C69.8537 66.6107 70 66.258 70 65.8984V37.1875C70 36.4342 69.3861 35.8203 68.6328 35.8203C67.8795 35.8203 67.2656 36.4342 67.2656 37.1875V64.5312H64.5312V6.83594C64.5326 6.08398 65.1465 5.47012 65.8984 5.46875C66.6504 5.47012 67.2643 6.08398 67.2656 6.83594V24.8828C67.2656 25.6361 67.8795 26.25 68.6328 26.25C69.3861 26.25 70 25.6361 70 24.8828V6.83594C70 5.73945 69.5734 4.70996 68.7982 3.93613Z" fill="#495865"/>
<path d="M49.0724 49.5019C49.3394 49.7688 49.6893 49.9023 50.0392 49.9023C50.389 49.9023 50.739 49.7688 51.0059 49.5019L52.09 48.4178L53.174 49.5019C53.441 49.7688 53.7909 49.9023 54.1407 49.9023C54.4906 49.9023 54.8406 49.7688 55.1075 49.5019C55.6414 48.968 55.6414 48.1023 55.1075 47.5683L54.0236 46.4844L55.1076 45.4003C55.6415 44.8664 55.6415 44.0007 55.1076 43.4667C54.5737 42.933 53.708 42.933 53.174 43.4667L52.09 44.5508L51.0059 43.4667C50.472 42.933 49.6063 42.933 49.0723 43.4667C48.5384 44.0006 48.5384 44.8663 49.0723 45.4003L50.1563 46.4844L49.0723 47.5684C48.5385 48.1023 48.5385 48.968 49.0724 49.5019Z" fill="#E67217"/>
<path d="M20.9278 43.4669C20.3939 42.9331 19.5282 42.9331 18.9942 43.4669L17.9103 44.5508L16.8262 43.4667C16.2923 42.933 15.4266 42.933 14.8926 43.4667C14.3587 44.0006 14.3587 44.8663 14.8926 45.4003L15.9766 46.4844L14.8926 47.5684C14.3587 48.1023 14.3587 48.968 14.8926 49.502C15.1596 49.7689 15.5095 49.9025 15.8593 49.9025C16.2092 49.9025 16.5592 49.7689 16.8261 49.502L17.9101 48.418L18.9942 49.502C19.2612 49.7689 19.611 49.9025 19.9609 49.9025C20.3108 49.9025 20.6608 49.7689 20.9276 49.502C21.4615 48.9681 21.4615 48.1024 20.9276 47.5684L19.8439 46.4844L20.9279 45.4003C21.4617 44.8664 21.4617 44.0007 20.9278 43.4669Z" fill="#E67217"/>
<path d="M31.9826 49.5019C32.2496 49.7688 32.5995 49.9023 32.9493 49.9023C33.2992 49.9023 33.6492 49.7688 33.9161 49.5019L35.0001 48.4178L36.0841 49.5019C36.3512 49.7688 36.701 49.9023 37.0509 49.9023C37.4007 49.9023 37.7508 49.7688 38.0176 49.5019C38.5515 48.968 38.5515 48.1023 38.0176 47.5683L36.9337 46.4844L38.0178 45.4003C38.5516 44.8664 38.5516 44.0007 38.0178 43.4667C37.4839 42.933 36.6182 42.933 36.0841 43.4667L35.0001 44.5508L33.9161 43.4667C33.3822 42.933 32.5165 42.933 31.9824 43.4667C31.4486 44.0006 31.4486 44.8663 31.9824 45.4003L33.0665 46.4844L31.9824 47.5684C31.4487 48.1023 31.4487 48.968 31.9826 49.5019Z" fill="#E67217"/>
<path d="M46.2109 45.1172H40.8789C40.1238 45.1172 39.5117 45.7293 39.5117 46.4844C39.5117 47.2395 40.1238 47.8516 40.8789 47.8516H46.2109C46.966 47.8516 47.5781 47.2395 47.5781 46.4844C47.5781 45.7293 46.966 45.1172 46.2109 45.1172Z" fill="#495865"/>
<path d="M29.1211 45.1172H23.7891C23.034 45.1172 22.4219 45.7293 22.4219 46.4844C22.4219 47.2395 23.034 47.8516 23.7891 47.8516H29.1211C29.8762 47.8516 30.4883 47.2395 30.4883 46.4844C30.4883 45.7293 29.8762 45.1172 29.1211 45.1172Z" fill="#495865"/>
<path d="M40.4591 38.5644C40.7262 38.8313 41.076 38.9649 41.4259 38.9649C41.7757 38.9649 42.1258 38.8313 42.3926 38.5644L43.4767 37.4804L44.5607 38.5644C44.8277 38.8313 45.1776 38.9649 45.5275 38.9649C45.8773 38.9649 46.2273 38.8313 46.4942 38.5644C47.0281 38.0305 47.0281 37.1648 46.4942 36.6308L45.4103 35.5469L46.4943 34.4628C47.0282 33.9289 47.0282 33.0632 46.4943 32.5292C45.9604 31.9955 45.0947 31.9955 44.5607 32.5292L43.4767 33.6133L42.3926 32.5292C41.8587 31.9955 40.993 31.9955 40.459 32.5292C39.9251 33.0631 39.9251 33.9288 40.459 34.4628L41.5431 35.5469L40.459 36.6309C39.9253 37.1648 39.9253 38.0305 40.4591 38.5644Z" fill="#E67217"/>
<path d="M23.6427 38.5644C23.9098 38.8313 24.2596 38.9649 24.6095 38.9649C24.9593 38.9649 25.3093 38.8313 25.5762 38.5644L26.6603 37.4804L27.7443 38.5644C28.0113 38.8313 28.3612 38.9649 28.711 38.9649C29.0609 38.9649 29.4109 38.8313 29.6778 38.5644C30.2117 38.0305 30.2117 37.1648 29.6778 36.6308L28.5939 35.5469L29.6779 34.4628C30.2118 33.9289 30.2118 33.0632 29.6779 32.5292C29.144 31.9955 28.2783 31.9955 27.7443 32.5292L26.6603 33.6133L25.5762 32.5292C25.0423 31.9955 24.1766 31.9955 23.6426 32.5292C23.1087 33.0631 23.1087 33.9288 23.6426 34.4628L24.7266 35.5469L23.6426 36.6309C23.1089 37.1648 23.1089 38.0305 23.6427 38.5644Z" fill="#E67217"/>
<path d="M22.1484 35.5469C22.1484 34.7918 21.5363 34.1797 20.7812 34.1797H8.20312V25.9766H11.3477C12.1028 25.9766 12.7148 25.3645 12.7148 24.6094C12.7148 23.8543 12.1028 23.2422 11.3477 23.2422H8.20312V15.0391H20.6445C21.3996 15.0391 22.0117 14.427 22.0117 13.6719C22.0117 12.9168 21.3996 12.3047 20.6445 12.3047H8.20312V6.83594C8.20312 4.57434 6.36316 2.73438 4.10156 2.73438C1.83996 2.73438 0 4.57434 0 6.83594V65.8984C0 66.6535 0.61209 67.2656 1.36719 67.2656H6.83594C7.59103 67.2656 8.20312 66.6535 8.20312 65.8984V58.7891H20.6445C21.3996 58.7891 22.0117 58.177 22.0117 57.4219C22.0117 56.6668 21.3996 56.0547 20.6445 56.0547H8.20312V47.8516H11.3477C12.1028 47.8516 12.7148 47.2395 12.7148 46.4844C12.7148 45.7293 12.1028 45.1172 11.3477 45.1172H8.20312V36.9141H20.7812C21.5363 36.9141 22.1484 36.302 22.1484 35.5469ZM5.46875 64.5312H2.73438V6.83594C2.73438 6.08207 3.3477 5.46875 4.10156 5.46875C4.85543 5.46875 5.46875 6.08207 5.46875 6.83594V64.5312Z" fill="#495865"/>
<path d="M37.5977 34.1797H32.5391C31.784 34.1797 31.1719 34.7918 31.1719 35.5469C31.1719 36.302 31.784 36.9141 32.5391 36.9141H37.5977C38.3528 36.9141 38.9648 36.302 38.9648 35.5469C38.9648 34.7918 38.3528 34.1797 37.5977 34.1797Z" fill="#495865"/>
<path d="M46.4942 54.4044C45.9603 53.8706 45.0946 53.8706 44.5606 54.4044L43.4767 55.4883L42.3926 54.4042C41.8587 53.8705 40.993 53.8705 40.459 54.4042C39.9251 54.9381 39.9251 55.8038 40.459 56.3378L41.5431 57.4219L40.459 58.5059C39.9251 59.0398 39.9251 59.9055 40.459 60.4395C40.726 60.7064 41.0759 60.84 41.4257 60.84C41.7756 60.84 42.1256 60.7064 42.3925 60.4395L43.4765 59.3555L44.5606 60.4395C44.8276 60.7064 45.1774 60.84 45.5273 60.84C45.8772 60.84 46.2272 60.7064 46.4941 60.4395C47.0279 59.9056 47.0279 59.0399 46.4941 58.5059L45.4103 57.4219L46.4943 56.3378C47.0281 55.8039 47.0281 54.9382 46.4942 54.4044Z" fill="#E67217"/>
<path d="M29.5411 54.4044C29.0072 53.8706 28.1415 53.8706 27.6074 54.4044L26.5235 55.4883L25.4395 54.4042C24.9056 53.8705 24.0399 53.8705 23.5059 54.4042C22.972 54.9381 22.972 55.8038 23.5059 56.3378L24.5899 57.4219L23.5059 58.5059C22.972 59.0398 22.972 59.9055 23.5059 60.4395C23.7729 60.7064 24.1228 60.84 24.4726 60.84C24.8225 60.84 25.1725 60.7064 25.4394 60.4395L26.5234 59.3555L27.6074 60.4395C27.8745 60.7064 28.2243 60.84 28.5742 60.84C28.924 60.84 29.274 60.7064 29.5409 60.4395C30.0748 59.9056 30.0748 59.0399 29.5409 58.5059L28.4571 57.4219L29.5412 56.3378C30.0749 55.8039 30.0749 54.9382 29.5411 54.4044Z" fill="#E67217"/>
<path d="M37.5977 56.0547H32.4023C31.6472 56.0547 31.0352 56.6668 31.0352 57.4219C31.0352 58.177 31.6472 58.7891 32.4023 58.7891H37.5977C38.3528 58.7891 38.9648 58.177 38.9648 57.4219C38.9648 56.6668 38.3528 56.0547 37.5977 56.0547Z" fill="#495865"/>
<path d="M40.4591 16.6894C40.7262 16.9563 41.076 17.0898 41.4259 17.0898C41.7757 17.0898 42.1258 16.9563 42.3926 16.6894L43.4767 15.6054L44.5607 16.6894C44.8277 16.9563 45.1776 17.0898 45.5275 17.0898C45.8773 17.0898 46.2273 16.9563 46.4942 16.6894C47.0281 16.1555 47.0281 15.2898 46.4942 14.7558L45.4103 13.6719L46.4943 12.5878C47.0282 12.0539 47.0282 11.1882 46.4943 10.6542C45.9604 10.1205 45.0947 10.1205 44.5607 10.6542L43.4767 11.7383L42.3926 10.6542C41.8587 10.1205 40.993 10.1205 40.459 10.6542C39.9251 11.1881 39.9251 12.0538 40.459 12.5878L41.5431 13.6719L40.459 14.7559C39.9253 15.2898 39.9253 16.1555 40.4591 16.6894Z" fill="#E67217"/>
<path d="M23.506 16.6894C23.773 16.9563 24.1229 17.0898 24.4728 17.0898C24.8226 17.0898 25.1726 16.9563 25.4395 16.6894L26.5235 15.6054L27.6076 16.6894C27.8746 16.9563 28.2245 17.0898 28.5743 17.0898C28.9242 17.0898 29.2742 16.9563 29.5411 16.6894C30.0749 16.1555 30.0749 15.2898 29.5411 14.7558L28.4572 13.6719L29.5412 12.5878C30.0751 12.0539 30.0751 11.1882 29.5412 10.6542C29.0073 10.1205 28.1416 10.1205 27.6076 10.6542L26.5235 11.7383L25.4395 10.6542C24.9056 10.1205 24.0399 10.1205 23.5059 10.6542C22.972 11.1881 22.972 12.0538 23.5059 12.5878L24.5899 13.6719L23.5059 14.7559C22.9721 15.2898 22.9721 16.1555 23.506 16.6894Z" fill="#E67217"/>
<path d="M37.5977 12.3047H32.4023C31.6472 12.3047 31.0352 12.9168 31.0352 13.6719C31.0352 14.427 31.6472 15.0391 32.4023 15.0391H37.5977C38.3528 15.0391 38.9648 14.427 38.9648 13.6719C38.9648 12.9168 38.3528 12.3047 37.5977 12.3047Z" fill="#495865"/>
<path d="M49.0724 27.6269C49.3394 27.8938 49.6893 28.0274 50.0392 28.0274C50.389 28.0274 50.739 27.8938 51.0059 27.6269L52.09 26.5429L53.174 27.6269C53.441 27.8938 53.7909 28.0274 54.1407 28.0274C54.4906 28.0274 54.8406 27.8938 55.1075 27.6269C55.6414 27.093 55.6414 26.2273 55.1075 25.6933L54.0236 24.6094L55.1076 23.5253C55.6415 22.9914 55.6415 22.1257 55.1076 21.5917C54.5737 21.058 53.708 21.058 53.174 21.5917L52.09 22.6758L51.0059 21.5917C50.472 21.058 49.6063 21.058 49.0723 21.5917C48.5384 22.1256 48.5384 22.9913 49.0723 23.5253L50.1563 24.6094L49.0723 25.6934C48.5385 26.2273 48.5385 27.093 49.0724 27.6269Z" fill="#E67217"/>
<path d="M20.9278 21.5919C20.3939 21.0581 19.5282 21.0581 18.9942 21.5919L17.9103 22.6758L16.8262 21.5917C16.2923 21.058 15.4266 21.058 14.8926 21.5917C14.3587 22.1256 14.3587 22.9913 14.8926 23.5253L15.9766 24.6094L14.8926 25.6934C14.3587 26.2273 14.3587 27.093 14.8926 27.627C15.1596 27.8939 15.5095 28.0275 15.8593 28.0275C16.2092 28.0275 16.5592 27.8939 16.8261 27.627L17.9101 26.543L18.9942 27.627C19.2612 27.8939 19.611 28.0275 19.9609 28.0275C20.3108 28.0275 20.6608 27.8939 20.9276 27.627C21.4615 27.0932 21.4615 26.2274 20.9276 25.6934L19.8439 24.6094L20.9279 23.5253C21.4617 22.9914 21.4617 22.1257 20.9278 21.5919Z" fill="#E67217"/>
<path d="M31.9826 27.6269C32.2496 27.8938 32.5995 28.0274 32.9493 28.0274C33.2992 28.0274 33.6492 27.8938 33.9161 27.6269L35.0001 26.5429L36.0841 27.6269C36.3512 27.8938 36.701 28.0274 37.0509 28.0274C37.4007 28.0274 37.7508 27.8938 38.0176 27.6269C38.5515 27.093 38.5515 26.2273 38.0176 25.6933L36.9337 24.6094L38.0178 23.5253C38.5516 22.9914 38.5516 22.1257 38.0178 21.5917C37.4839 21.058 36.6182 21.058 36.0841 21.5917L35.0001 22.6758L33.9161 21.5917C33.3822 21.058 32.5165 21.058 31.9824 21.5917C31.4486 22.1256 31.4486 22.9913 31.9824 23.5253L33.0665 24.6094L31.9824 25.6934C31.4487 26.2273 31.4487 27.093 31.9826 27.6269Z" fill="#E67217"/>
<path d="M46.2109 23.2422H40.8789C40.1238 23.2422 39.5117 23.8543 39.5117 24.6094C39.5117 25.3645 40.1238 25.9766 40.8789 25.9766H46.2109C46.966 25.9766 47.5781 25.3645 47.5781 24.6094C47.5781 23.8543 46.966 23.2422 46.2109 23.2422Z" fill="#495865"/>
<path d="M29.1211 23.2422H23.7891C23.034 23.2422 22.4219 23.8543 22.4219 24.6094C22.4219 25.3645 23.034 25.9766 23.7891 25.9766H29.1211C29.8762 25.9766 30.4883 25.3645 30.4883 24.6094C30.4883 23.8543 29.8762 23.2422 29.1211 23.2422Z" fill="#495865"/>
</svg>
