<svg width="70" height="70" viewBox="0 0 70 70" fill="none" xmlns="http://www.w3.org/2000/svg">
<path d="M68.6867 59.8385L61.548 47.9418L62.1872 42.4757H63.0962C64.7075 42.4757 66.018 41.1652 66.018 39.5539V36.207C66.018 34.5963 64.7075 33.2857 63.0962 33.2857H59.0876V29.4527C59.0876 29.4426 59.0881 29.4319 59.0881 29.4212C59.0881 29.1804 59.0048 28.9587 58.8654 28.7836C58.8654 28.783 58.8649 28.7825 58.8643 28.782L55.3241 24.3327V20.5954C55.3241 19.3628 54.3216 18.3598 53.089 18.3598H48.9666C48.9405 18.307 48.9138 18.2557 48.8871 18.2055C48.3792 17.2501 46.9794 16.0271 44.7257 14.5696C44.2589 14.2684 43.9802 13.7541 43.9802 13.1934V10.4761C44.4191 10.2582 44.722 9.8053 44.722 9.28246V3.57712C44.722 1.60484 43.1176 0 41.1448 0H37.2494C35.2766 0 33.6723 1.60484 33.6723 3.57712V9.28246C33.6723 9.8053 33.9746 10.2582 34.4141 10.4761V13.1934C34.4141 13.7541 34.1348 14.2684 33.6675 14.5702C33.2953 14.8105 32.8782 15.0898 32.4536 15.3915C32.4568 15.312 32.4589 15.2324 32.4589 15.1523C32.4589 12.137 30.0055 9.68353 26.9902 9.68353C23.9744 9.68353 21.5214 12.137 21.5214 15.1523C21.5214 15.5379 21.5631 15.9267 21.6448 16.3042C21.7676 16.8864 21.8825 17.4279 21.9893 17.9326C20.7417 17.4909 19.2997 17.6901 18.2012 18.5857C17.3916 19.2469 16.8874 20.1836 16.7822 21.224C16.6765 22.2643 16.9825 23.2833 17.6399 24.0881C17.8124 24.3018 18.0121 24.4999 18.2311 24.6751L21.2838 27.1349C19.5652 28.6517 18.4533 30.8402 18.3635 33.2857H13.4694L13.2558 32.8841C13.2879 32.8675 13.3199 32.8504 13.3514 32.8339C16.63 31.0896 19.3649 28.2255 18.2477 26.125C17.1304 24.0246 13.227 24.6911 9.9484 26.4353C9.91636 26.4519 9.88431 26.469 9.85281 26.4866L8.4744 23.8953C8.50645 23.8788 8.53849 23.8617 8.57053 23.8451C10.2042 22.9762 11.6141 21.89 12.5413 20.7861C14.0687 18.9687 13.7765 17.7195 13.4662 17.1363C13.156 16.5531 12.2833 15.6121 9.92223 15.8626C8.48936 16.0148 6.80013 16.5771 5.16698 17.4461C5.13494 17.4632 5.1029 17.4802 5.07139 17.4973L4.03799 15.5555C3.46174 14.4724 3.16961 13.3044 3.16961 12.0847C3.16961 9.33479 4.67565 6.82579 7.10081 5.53604C8.84771 4.60678 10.8526 4.41345 12.7447 4.9913C14.6369 5.56969 16.191 6.85036 17.1203 8.59726L18.8864 11.9196C19.1523 12.4195 19.7729 12.6096 20.2733 12.3431C20.7732 12.0777 20.9633 11.4566 20.6974 10.9567L18.9307 7.63435C16.4815 3.02917 10.7425 1.2764 6.13737 3.72559C3.04197 5.37209 1.11883 8.57483 1.11883 12.0847C1.11883 13.6222 1.50228 15.1555 2.22753 16.5184L11.1463 33.2857H6.9705C5.35924 33.2857 4.04867 34.5963 4.04867 36.207V39.5539C4.04867 41.1652 5.35924 42.4757 6.9705 42.4757H7.87893L8.51873 47.9418L1.37998 59.8385C0.973563 60.5157 0.855002 61.3109 1.04619 62.0773C1.23792 62.8431 1.71644 63.4893 2.39362 63.8957C2.73595 64.1008 3.10819 64.2332 3.50072 64.2888C3.64065 64.3085 3.7795 64.3182 3.91782 64.3182C4.94642 64.3182 5.91093 63.782 6.45139 62.8821L9.64399 57.5618L9.87417 59.5373C9.93558 60.0591 10.3783 60.4436 10.8915 60.4436C10.9311 60.4436 10.9717 60.4414 11.0117 60.4366C11.5741 60.3709 11.9768 59.8615 11.9111 59.2991L11.3722 54.6816L18.6968 42.4757H51.3699L58.6945 54.6816L57.4074 65.6832C57.2568 66.9751 56.1625 67.9492 54.8616 67.9492H15.2046C13.9036 67.9492 12.8093 66.9751 12.6587 65.6821L12.388 63.3702C12.3223 62.8078 11.8128 62.4052 11.2504 62.4714C10.6881 62.5371 10.2854 63.0466 10.3516 63.6089L10.6218 65.9198C10.8926 68.2462 12.8633 70 15.2051 70H54.8616C57.2034 70 59.1741 68.2462 59.4443 65.9203L60.4222 57.5607L63.6153 62.8815C64.4634 64.2941 66.2819 64.7299 67.6731 63.8957C69.0745 63.0546 69.5279 61.2399 68.6867 59.8385ZM10.9113 28.2458C14.2139 26.4887 16.285 26.8033 16.4372 27.0879C16.5883 27.3726 15.6911 29.2664 12.3885 31.0229C12.357 31.04 12.325 31.0571 12.2929 31.0736L10.8157 28.2965C10.8478 28.2794 10.8793 28.2623 10.9113 28.2458ZM6.12989 19.2565C7.51684 18.519 8.97802 18.025 10.1391 17.9021C11.1586 17.7943 11.6072 18.0084 11.6558 18.0992C11.7038 18.19 11.6312 18.6819 10.9717 19.4669C10.2202 20.3609 8.99457 21.2966 7.60709 22.0341C7.57558 22.0512 7.54354 22.0678 7.5115 22.0849L6.03483 19.3078C6.06634 19.2907 6.09785 19.2736 6.12989 19.2565ZM59.8203 45.0627L58.2678 42.4757H60.1226L59.8203 45.0627ZM39.0294 33.2857V29.7785L42.2626 25.7154H53.8041L55.9366 28.3958H51.2909C50.7242 28.3958 50.2655 28.8551 50.2655 29.4212C50.2655 29.9873 50.7242 30.4466 51.2909 30.4466H57.0368V33.2857H39.0294ZM53.2738 20.5949V23.6646H42.7935V20.5949C42.7935 20.4934 42.8763 20.4106 42.9777 20.4106H48.267C48.2761 20.4106 48.2847 20.4111 48.2937 20.4111C48.3028 20.4111 48.3119 20.4106 48.321 20.4106H53.089C53.191 20.4106 53.2738 20.4934 53.2738 20.5949ZM37.2494 2.05078H41.1448C41.9865 2.05078 42.6712 2.73544 42.6712 3.57712V8.56255H35.7231V3.57712C35.7231 2.73544 36.4077 2.05078 37.2494 2.05078ZM34.7799 16.293C35.8347 15.6126 36.4649 14.4537 36.4649 13.1934V10.6139H41.9294V13.1934C41.9294 14.4537 42.5596 15.6126 43.6133 16.2925C45.0312 17.2095 45.8771 17.8877 46.3802 18.3598H42.9777C41.7451 18.3598 40.7427 19.3623 40.7427 20.5949V24.3322L37.2019 28.782C37.0572 28.9635 36.9787 29.1884 36.9787 29.4202V33.2857H35.6168C35.5266 30.8402 34.4152 28.6517 32.6971 27.1349C33.0416 26.8572 33.4459 26.532 33.9345 26.1378L35.7477 24.6772C35.9639 24.5042 36.1626 24.3071 36.3373 24.0929C36.999 23.2828 37.305 22.2638 37.1992 21.2234C37.0935 20.1831 36.5893 19.2464 35.7781 18.5852C34.9679 17.9246 33.9489 17.6191 32.9097 17.7248C32.8493 17.7312 32.789 17.7387 32.7297 17.7473C33.2905 17.3003 33.9858 16.8063 34.7799 16.293ZM31.2172 21.6016C31.4992 21.2021 31.7561 19.9033 33.1169 19.7649C33.612 19.7147 34.0969 19.86 34.4825 20.1746C34.8686 20.4891 35.1089 20.9356 35.1591 21.4307C35.2237 22.0683 34.961 22.6804 34.4638 23.0782L32.648 24.541C31.911 25.1349 31.3673 25.5733 30.9289 25.9264C30.743 25.8308 30.5529 25.7416 30.3595 25.6593L31.2172 21.6016ZM26.9902 11.7343C28.8749 11.7343 30.4081 13.2681 30.4081 15.1523C30.4081 15.3969 30.3825 15.6399 30.3307 15.8797L29.9323 17.7638C29.9302 17.774 29.9275 17.7841 29.9259 17.7943L28.3846 25.0868C27.9307 25.0131 27.465 24.9747 26.9902 24.9747C26.5159 24.9747 26.0502 25.0131 25.5968 25.0868L25.584 25.027C25.2278 23.3394 24.8459 21.53 23.6502 15.8754C23.5984 15.6356 23.5722 15.3926 23.5722 15.1528C23.5722 13.2681 25.1055 11.7343 26.9902 11.7343ZM19.233 22.7962C18.583 22.0005 18.7021 20.824 19.4979 20.1746C20.402 19.4376 21.7858 19.6966 22.3385 20.777L22.7658 21.6069C23.1508 23.4296 23.3687 24.4609 23.577 25.45L23.6213 25.6588C23.428 25.741 23.2384 25.8302 23.052 25.9258C19.3179 22.9009 19.4439 23.0574 19.233 22.7962ZM26.9902 27.0255C30.5118 27.0255 33.3957 29.8052 33.5639 33.2857H20.4165C20.5847 29.8052 23.4686 27.0255 26.9902 27.0255ZM9.94359 42.4757H11.7989L10.2464 45.0627L9.94359 42.4757ZM4.69274 61.8262C4.50475 62.1397 4.1496 62.309 3.78805 62.2578H3.78751C3.66842 62.2407 3.55413 62.2001 3.44892 62.1371C3.24117 62.0126 3.09484 61.8145 3.03609 61.5795C2.97735 61.3445 3.01366 61.101 3.1381 60.8932L10.452 48.705C10.4531 48.7045 10.4536 48.7034 10.4542 48.7023L14.4703 42.01C14.4842 41.9881 14.498 41.9657 14.5103 41.9427L16.747 38.2156C16.8714 38.0078 17.0695 37.8615 17.3045 37.8027C17.3777 37.784 17.4519 37.775 17.5256 37.775C17.688 37.775 17.8476 37.8193 17.9908 37.9047C18.4191 38.1622 18.559 38.7197 18.3016 39.1486L17.2532 40.8955C17.2415 40.9136 17.2308 40.9318 17.2201 40.9505L4.69274 61.8262ZM19.9273 40.425L20.0602 40.2039C20.4667 39.5267 20.5847 38.7315 20.3935 37.9651C20.2018 37.1992 19.7233 36.553 19.0461 36.1466C18.3689 35.7402 17.5737 35.6216 16.8073 35.8134C16.0409 36.0051 15.3953 36.4836 14.9888 37.1608L13.0294 40.425H6.9705C6.49038 40.425 6.09945 40.0346 6.09945 39.5539V36.207C6.09945 35.7269 6.49038 35.3365 6.9705 35.3365H63.0962C63.5763 35.3365 63.9673 35.7269 63.9673 36.207V39.5539C63.9673 40.0346 63.5763 40.425 63.0962 40.425H57.0373L55.0784 37.1608C54.672 36.4831 54.0258 36.0046 53.2594 35.8134C52.493 35.6216 51.6984 35.7402 51.0206 36.1466C50.3434 36.553 49.8649 37.1992 49.6737 37.9651C49.482 38.7315 49.6006 39.5267 50.007 40.2039L50.1394 40.425H19.9273ZM66.2787 62.2578C66.2589 62.2546 65.6795 62.3357 65.374 61.8262C64.6065 60.5477 52.4877 40.3534 51.7651 39.1491C51.5077 38.7202 51.6471 38.1622 52.0759 37.9053C52.5053 37.6473 53.0618 37.7862 53.3198 38.2161C54.0765 39.4775 58.8761 47.4751 59.6099 48.698C59.6115 48.7007 59.6131 48.7034 59.6147 48.7061L66.9281 60.8938C67.2656 61.4551 66.9121 62.168 66.2787 62.2578Z" fill="#495865"/>
<path d="M24.4426 51.4292V48.0363C24.4426 46.5266 23.2142 45.2977 21.7045 45.2977C20.1942 45.2977 18.9658 46.5266 18.9658 48.0363V51.4292C18.9658 52.939 20.1942 54.1679 21.7045 54.1679C23.2142 54.1679 24.4426 52.939 24.4426 51.4292ZM21.0166 51.4292V48.0363C21.0166 47.6572 21.3253 47.3485 21.7045 47.3485C22.0836 47.3485 22.3923 47.6572 22.3923 48.0363V51.4292C22.3923 51.8084 22.0836 52.1171 21.7045 52.1171C21.3253 52.1171 21.0166 51.8084 21.0166 51.4292Z" fill="#E67217"/>
<path d="M31.1071 62.5136V59.1212C31.1071 57.6109 29.8788 56.3826 28.369 56.3826C26.8587 56.3826 25.6304 57.6109 25.6304 59.1212V62.5136C25.6304 64.0239 26.8587 65.2522 28.369 65.2522C29.8788 65.2522 31.1071 64.0239 31.1071 62.5136ZM27.6812 62.5136V59.1212C27.6812 58.7421 27.9893 58.4334 28.369 58.4334C28.7482 58.4334 29.0564 58.7421 29.0564 59.1212V62.5136C29.0564 62.8928 28.7482 63.2014 28.369 63.2014C27.9893 63.2014 27.6812 62.8928 27.6812 62.5136Z" fill="#E67217"/>
<path d="M37.7717 51.4292V48.0363C37.7717 46.5266 36.5434 45.2977 35.0336 45.2977C33.5233 45.2977 32.2949 46.5266 32.2949 48.0363V51.4292C32.2949 52.939 33.5233 54.1679 35.0336 54.1679C36.5434 54.1679 37.7717 52.939 37.7717 51.4292ZM34.3457 51.4292V48.0363C34.3457 47.6572 34.6539 47.3485 35.0336 47.3485C35.4128 47.3485 35.7209 47.6572 35.7209 48.0363V51.4292C35.7209 51.8084 35.4128 52.1171 35.0336 52.1171C34.6539 52.1171 34.3457 51.8084 34.3457 51.4292Z" fill="#E67217"/>
<path d="M44.4363 62.5136V59.1212C44.4363 57.6109 43.2079 56.3826 41.6976 56.3826C40.1879 56.3826 38.959 57.6109 38.959 59.1212V62.5136C38.959 64.0239 40.1879 65.2522 41.6976 65.2522C43.2079 65.2522 44.4363 64.0239 44.4363 62.5136ZM41.0103 62.5136V59.1212C41.0103 58.7421 41.3185 58.4334 41.6976 58.4334C42.0773 58.4334 42.3855 58.7421 42.3855 59.1212V62.5136C42.3855 62.8928 42.0773 63.2014 41.6976 63.2014C41.3185 63.2014 41.0103 62.8928 41.0103 62.5136Z" fill="#E67217"/>
<path d="M51.1008 51.4292V48.0363C51.1008 46.5266 49.8725 45.2977 48.3622 45.2977C46.8524 45.2977 45.6235 46.5266 45.6235 48.0363V51.4292C45.6235 52.939 46.8524 54.1679 48.3622 54.1679C49.8725 54.1679 51.1008 52.939 51.1008 51.4292ZM47.6743 51.4292V48.0363C47.6743 47.6572 47.983 47.3485 48.3622 47.3485C48.7414 47.3485 49.05 47.6572 49.05 48.0363V51.4292C49.05 51.8084 48.7414 52.1171 48.3622 52.1171C47.983 52.1171 47.6743 51.8084 47.6743 51.4292Z" fill="#E67217"/>
</svg>
