<svg width="52" height="70" viewBox="0 0 52 70" fill="none" xmlns="http://www.w3.org/2000/svg">
<g clip-path="url(#clip0)">
<path d="M5.46533 25.9727C5.46533 37.2741 14.6708 46.4795 25.9722 46.4795C37.2736 46.4795 46.479 37.2741 46.479 25.9727C46.479 14.6713 37.2873 5.46584 25.9722 5.46584C14.6571 5.46584 5.46533 14.6713 5.46533 25.9727ZM25.9722 8.20556C35.7667 8.20556 43.7393 16.1782 43.7393 25.9727C43.7393 35.7672 35.7667 43.7398 25.9722 43.7398C16.1777 43.7398 8.20506 35.7809 8.20506 25.9727C8.20506 16.1645 16.1777 8.20556 25.9722 8.20556Z" fill="#495865"/>
<path d="M27.3428 1.36986C27.3428 2.12329 26.7263 2.73973 25.9729 2.73973C25.2195 2.73973 24.603 2.12329 24.603 1.36986C24.603 0.616438 25.2195 0 25.9729 0C26.7263 0 27.3428 0.616438 27.3428 1.36986Z" fill="#495865"/>
<path d="M19.5342 0.808346C8.0274 3.73985 0 14.096 0 25.9727C0 33.3563 3.10959 40.3152 8.54795 45.233L0.315068 59.7536C0.0547945 60.2193 0.0821918 60.7946 0.39726 61.233C0.712329 61.6714 1.26027 61.8768 1.78082 61.7672L11.137 59.822L14.4247 69.0823C14.6027 69.5892 15.0548 69.9453 15.589 69.9864C16.1233 70.0275 16.6301 69.7673 16.9041 69.3015L25.9863 53.3426L35.0548 69.3152C35.3014 69.7399 35.7534 70.0001 36.2466 70.0001C36.2877 70.0001 36.3288 70.0001 36.3699 70.0001C36.9041 69.959 37.3562 69.6029 37.5342 69.096L40.8219 59.8357L50.1781 61.7809C50.6986 61.8905 51.2466 61.6851 51.5616 61.2467C51.8767 60.8083 51.9041 60.233 51.6438 59.7672L43.411 45.2467C48.863 40.3152 51.9589 33.37 51.9589 25.9864C51.9589 14.096 43.9315 3.75355 32.4247 0.822044C31.6986 0.630264 30.9452 1.08232 30.7671 1.80835C30.5753 2.53437 31.0274 3.2878 31.7534 3.46588C42.0411 6.09602 49.2329 15.3563 49.2329 25.9864C49.2329 38.9316 38.726 49.233 25.9863 49.233C13.2329 49.2193 2.73973 38.9042 2.73973 25.9727C2.73973 15.3426 9.91781 6.08232 20.2055 3.45218C20.9315 3.2604 21.3836 2.52067 21.1918 1.79465C21.0137 1.05492 20.2603 0.616565 19.5342 0.808346ZM16 65.3563L13.3151 57.7809C13.0822 57.1371 12.4247 56.7535 11.7534 56.9042L4.19178 58.4796L10.6986 46.9864C14.4932 49.7535 19 51.4385 23.6849 51.8494L16 65.3563ZM40.2055 56.9042C39.5342 56.7672 38.863 57.1371 38.6438 57.7809L35.9589 65.3563L28.274 51.8494C32.9589 51.4385 37.4521 49.7535 41.2603 46.9864L47.7808 58.4796L40.2055 56.9042Z" fill="#495865"/>
<path d="M12.8362 26.137C12.2471 25.8082 11.7951 25.3425 11.4663 24.7534C11.1375 24.1644 10.9731 23.4932 10.9731 22.726C10.9731 21.9863 11.1375 21.3151 11.4663 20.726C11.7951 20.137 12.2471 19.6712 12.8362 19.3425C13.4252 19.0137 14.0827 18.8356 14.8362 18.8356C15.5896 18.8356 16.2608 19 16.8499 19.3425C17.4389 19.6712 17.891 20.137 18.2197 20.726C18.5485 21.3151 18.7129 21.9863 18.7129 22.726C18.7129 23.5753 18.5074 24.3151 18.0827 24.9726L14.3567 31.1918C14.1649 31.4932 13.9047 31.6575 13.6033 31.6575C13.3567 31.6575 13.1375 31.5753 12.9731 31.411C12.8088 31.2466 12.7266 31.0548 12.7266 30.8219C12.7266 30.6575 12.7677 30.5069 12.8636 30.3836L15.1101 26.6575H14.8362C14.0964 26.6301 13.4252 26.4658 12.8362 26.137ZM13.1923 20.9863C12.7677 21.4384 12.5485 22.0137 12.5485 22.726C12.5485 23.4384 12.7677 24.0274 13.1923 24.4795C13.617 24.9315 14.1786 25.1644 14.8499 25.1644C15.5211 25.1644 16.069 24.9315 16.4937 24.4795C16.9184 24.0274 17.1375 23.4384 17.1375 22.726C17.1375 22.0137 16.9321 21.4384 16.5074 20.9863C16.0827 20.5342 15.5348 20.3151 14.8499 20.3151C14.1786 20.3014 13.617 20.5342 13.1923 20.9863Z" fill="#E67217"/>
<path d="M26.2331 25.8084C26.5482 26.3563 26.6989 26.9865 26.6989 27.6714C26.6989 28.4111 26.5345 29.0961 26.2058 29.6988C25.877 30.3015 25.4249 30.781 24.8496 31.1372C24.2742 31.4933 23.6304 31.6577 22.9181 31.6577C22.2058 31.6577 21.5619 31.4796 20.9729 31.1372C20.3975 30.7947 19.9318 30.3152 19.603 29.7262C19.2742 29.1235 19.1099 28.4522 19.1099 27.7125C19.1099 27.0276 19.2605 26.3974 19.5756 25.8358C19.8907 25.2741 20.3153 24.8221 20.8633 24.4796C20.4797 24.192 20.1784 23.8358 19.9729 23.4111C19.7537 22.9865 19.6578 22.5207 19.6578 22.0139C19.6578 21.3974 19.7948 20.8495 20.0825 20.3426C20.3701 19.8495 20.7537 19.4522 21.2605 19.1646C21.7537 18.8769 22.3153 18.7399 22.9455 18.7399C23.5482 18.7399 24.0962 18.8769 24.5756 19.1646C25.0688 19.4385 25.4523 19.8358 25.7263 20.3289C26.0003 20.8221 26.151 21.37 26.151 21.9865C26.151 22.507 26.0414 22.9728 25.8359 23.3974C25.6167 23.8221 25.329 24.1783 24.9455 24.4659C25.4934 24.8084 25.9318 25.2467 26.2331 25.8084ZM24.4523 26.0687C24.0414 25.6303 23.5345 25.4248 22.9181 25.4248C22.2879 25.4248 21.7811 25.644 21.3701 26.0961C20.9592 26.5344 20.7674 27.0961 20.7674 27.7673C20.7674 28.2057 20.8633 28.6029 21.0414 28.9728C21.2332 29.3426 21.4797 29.6303 21.8085 29.8495C22.1373 30.0687 22.5071 30.1646 22.9044 30.1646C23.3153 30.1646 23.6715 30.055 24.0003 29.8358C24.329 29.6166 24.5756 29.3152 24.7674 28.9454C24.9592 28.5618 25.0414 28.1509 25.0414 27.6988C25.0688 27.0413 24.8633 26.507 24.4523 26.0687ZM21.7674 23.2467C22.0825 23.5892 22.466 23.7536 22.9318 23.7536C23.3975 23.7536 23.7811 23.5755 24.0825 23.2194C24.3838 22.8632 24.5482 22.4385 24.5482 21.9317C24.5482 21.4522 24.3975 21.055 24.0825 20.7399C23.7811 20.4248 23.3975 20.2741 22.9318 20.2741C22.466 20.2741 22.0688 20.4385 21.7674 20.7536C21.466 21.0824 21.3016 21.4933 21.3016 22.0002C21.3016 22.4933 21.4523 22.9043 21.7674 23.2467Z" fill="#E67217"/>
<path d="M33.055 19.3017C33.5618 19.6031 33.9591 20.0003 34.2605 20.5072C34.5618 21.014 34.6988 21.5483 34.6988 22.1373C34.6988 22.7127 34.5481 23.2606 34.2605 23.7675C33.9591 24.2743 33.5618 24.6716 33.0687 24.9729C32.5755 25.2743 32.0276 25.4113 31.4386 25.4113C30.8495 25.4113 30.3016 25.2606 29.7947 24.9729C29.2879 24.6716 28.8906 24.2743 28.5892 23.7675C28.2879 23.2606 28.1509 22.7264 28.1509 22.1373C28.1509 21.562 28.3016 21.014 28.5892 20.5072C28.8906 20.0003 29.2879 19.6031 29.7947 19.3017C30.3016 19.0003 30.8495 18.8497 31.4386 18.8497C32.0002 18.8497 32.5481 19.0003 33.055 19.3017ZM39.1235 18.8497C39.3701 18.8497 39.5618 18.9318 39.7262 19.0962C39.8906 19.2606 39.9728 19.4524 39.9728 19.6853C39.9728 19.8771 39.918 20.0414 39.7947 20.1921L31.0687 31.425C30.9043 31.6031 30.6988 31.6853 30.4386 31.6853C30.192 31.6853 30.0002 31.6031 29.8358 31.4387C29.6714 31.2743 29.6029 31.0825 29.6029 30.8497C29.6029 30.6168 29.6714 30.4387 29.7947 30.288L38.4386 19.1784C38.644 18.9592 38.8632 18.8497 39.1235 18.8497ZM30.2879 21.0003C29.9728 21.3154 29.8221 21.699 29.8221 22.1373C29.8221 22.5757 29.9728 22.9455 30.2879 23.2606C30.6029 23.5757 30.9865 23.7264 31.4249 23.7264C31.8632 23.7264 32.2331 23.5757 32.5481 23.2606C32.8632 22.9455 33.0139 22.5757 33.0139 22.1373C33.0139 21.699 32.8495 21.3154 32.5344 21.0003C32.2194 20.6853 31.8495 20.5209 31.4112 20.5209C30.9728 20.5209 30.5892 20.6853 30.2879 21.0003ZM39.7262 25.5757C40.2331 25.8634 40.6303 26.2606 40.9317 26.7675C41.2331 27.2743 41.3838 27.8223 41.3838 28.4113C41.3838 29.0003 41.2331 29.5483 40.9454 30.0414C40.644 30.5346 40.2468 30.9318 39.7399 31.2332C39.2331 31.5346 38.6851 31.6716 38.0961 31.6716C37.507 31.6716 36.9591 31.5209 36.466 31.2332C35.9728 30.9318 35.5755 30.5346 35.2742 30.0414C34.9728 29.5483 34.8358 29.0003 34.8358 28.4113C34.8358 27.8223 34.9865 27.2743 35.2742 26.7812C35.5755 26.288 35.9728 25.8908 36.466 25.5894C36.9591 25.288 37.507 25.151 38.0961 25.151C38.6851 25.1373 39.2194 25.288 39.7262 25.5757ZM36.9728 27.288C36.6577 27.6031 36.507 27.9729 36.507 28.4113C36.507 28.8497 36.6577 29.2195 36.9728 29.5346C37.2879 29.8497 37.6577 30.0003 38.0961 30.0003C38.5344 30.0003 38.918 29.8497 39.2331 29.5346C39.5481 29.2195 39.7125 28.8497 39.7125 28.4113C39.7125 27.9729 39.5481 27.6031 39.2331 27.288C38.918 26.9729 38.5344 26.8223 38.0961 26.8223C37.6577 26.8223 37.2879 26.9729 36.9728 27.288Z" fill="#E67217"/>
</g>
<defs>
<clipPath id="clip0">
<rect width="51.9589" height="70" fill="white"/>
</clipPath>
</defs>
</svg>
