<svg width="70" height="70" viewBox="0 0 70 70" fill="none" xmlns="http://www.w3.org/2000/svg">
<path d="M69.8651 38.2334C69.2365 31.9117 66.4123 25.9519 61.9123 21.4518C58.0666 17.6062 53.3596 15.135 48.4067 14.0362V10.5624C50.4296 10.0591 51.9333 8.22798 51.9333 6.05153C51.9333 3.48828 49.848 1.40302 47.2848 1.40302H37.4409C34.8776 1.40302 32.7924 3.48828 32.7924 6.05153C32.7924 8.22785 34.296 10.059 36.3188 10.5624V14.0459C31.3811 15.1493 26.6897 17.6172 22.8549 21.4519C22.0158 22.2911 21.2419 23.1714 20.5336 24.0864C20.4992 24.0838 20.4649 24.0812 20.4299 24.0812H10.6871C9.93209 24.0812 9.31985 24.6933 9.31985 25.4484C9.31985 26.2035 9.93209 26.8156 10.6871 26.8156H18.6732C17.6708 28.4938 16.8625 30.2563 16.2472 32.0706H1.36721C0.612236 32.0706 0 32.6827 0 33.4378C0 34.1929 0.612236 34.805 1.36721 34.805H15.4746C15.0806 36.5347 14.8545 38.295 14.7961 40.0602H8.75014C7.99516 40.0602 7.38293 40.6723 7.38293 41.4274C7.38293 42.1825 7.99516 42.7946 8.75014 42.7946H14.8397C14.9551 44.5643 15.2396 46.3247 15.6934 48.0497H6.83604C6.08107 48.0497 5.46884 48.6618 5.46884 49.4169C5.46884 50.172 6.08107 50.7841 6.83604 50.7841H16.5659C17.9072 54.3322 20.0032 57.6576 22.8549 60.5094C27.3594 65.0138 33.3253 67.8387 39.6536 68.4639C40.5567 68.5531 41.4606 68.5972 42.3632 68.5972C47.6984 68.5972 52.9657 67.0532 57.4351 64.1427C58.0678 63.7306 58.2468 62.8837 57.8347 62.2509C57.4226 61.6182 56.5756 61.4392 55.9429 61.8513C46.1596 68.2221 33.0572 66.8446 24.7885 58.5759C15.0865 48.8739 15.0865 33.0877 24.7885 23.3855C34.4903 13.6837 50.2765 13.6837 59.9786 23.3855C68.2364 31.6435 69.6214 44.7346 63.2717 54.5132C62.8604 55.1465 63.0405 55.9933 63.6736 56.4045C64.3072 56.8157 65.1538 56.6357 65.5649 56.0024C68.9575 50.7776 70.4847 44.4672 69.8651 38.2334ZM35.5268 6.05166C35.5268 4.99618 36.3854 4.13757 37.4409 4.13757H47.2848C48.3403 4.13757 49.1989 4.99618 49.1989 6.05166C49.1989 7.10715 48.3403 7.96575 47.2848 7.96575H47.0395H37.686H37.4409C36.3854 7.96575 35.5268 7.10701 35.5268 6.05166ZM39.0532 13.5758V10.7002H45.6723V13.5709C43.4744 13.3095 41.2507 13.3111 39.0532 13.5758Z" fill="#495865"/>
<path d="M60.9458 58.1746C60.5849 58.1746 60.2335 58.3208 59.9793 58.5751C59.7237 58.8294 59.5786 59.1822 59.5786 59.5417C59.5786 59.9013 59.7237 60.2541 59.9793 60.5084C60.2335 60.764 60.585 60.9089 60.9458 60.9089C61.3054 60.9089 61.6567 60.764 61.9124 60.5084C62.1667 60.2541 62.313 59.9013 62.313 59.5417C62.313 59.1822 62.1668 58.8294 61.9124 58.5751C61.6567 58.3208 61.3052 58.1746 60.9458 58.1746Z" fill="#495865"/>
<path d="M42.3837 19.771C30.6889 19.771 21.1743 29.2854 21.1743 40.9804C21.1743 52.6753 30.6889 62.1897 42.3837 62.1897C54.0785 62.1897 63.5931 52.6753 63.5931 40.9804C63.5931 29.2854 54.0785 19.771 42.3837 19.771ZM42.3837 59.4553C32.1965 59.4553 23.9087 51.1674 23.9087 40.9804C23.9087 30.7933 32.1965 22.5054 42.3837 22.5054C52.5709 22.5054 60.8586 30.7933 60.8586 40.9804C60.8586 51.1674 52.5709 59.4553 42.3837 59.4553Z" fill="#495865"/>
<path d="M51.0324 30.3986L44.2606 37.1702C43.6943 36.8902 43.0573 36.7321 42.384 36.7321C41.7105 36.7321 41.0736 36.8902 40.5073 37.1702L37.4766 34.1395C36.9426 33.6057 36.0772 33.6057 35.543 34.1395C35.0091 34.6734 35.0091 35.5392 35.543 36.0731L38.5737 39.1038C38.2935 39.67 38.1355 40.307 38.1355 40.9804C38.1355 43.323 40.0413 45.2289 42.384 45.2289C44.7267 45.2289 46.6324 43.323 46.6324 40.9804C46.6324 40.307 46.4742 39.67 46.1942 39.1038L52.7672 32.5308L52.9659 32.3321C53.4998 31.7982 53.4998 30.9325 52.9659 30.3986C52.432 29.8647 51.5665 29.8647 51.0324 30.3986ZM42.384 42.4946C41.5491 42.4946 40.8699 41.8153 40.8699 40.9805C40.8699 40.1457 41.5491 39.4665 42.384 39.4665C43.2188 39.4665 43.898 40.1457 43.898 40.9805C43.898 41.8153 43.2188 42.4946 42.384 42.4946Z" fill="#E67217"/>
<path d="M57.0016 39.6301H55.7349C54.9799 39.6301 54.3677 40.2422 54.3677 40.9973C54.3677 41.7524 54.9799 42.3645 55.7349 42.3645H57.0016C57.7565 42.3645 58.3688 41.7524 58.3688 40.9973C58.3688 40.2422 57.7565 39.6301 57.0016 39.6301Z" fill="#E67217"/>
<path d="M29.0322 39.5964H27.7656C27.0107 39.5964 26.3984 40.2085 26.3984 40.9636C26.3984 41.7187 27.0107 42.3308 27.7656 42.3308H29.0322C29.7871 42.3308 30.3994 41.7187 30.3994 40.9636C30.3994 40.2085 29.7871 39.5964 29.0322 39.5964Z" fill="#E67217"/>
<path d="M42.3999 28.9962C43.1549 28.9962 43.7671 28.3841 43.7671 27.629V26.3624C43.7671 25.6073 43.1549 24.9952 42.3999 24.9952C41.6449 24.9952 41.0327 25.6073 41.0327 26.3624V27.629C41.0327 28.3841 41.6449 28.9962 42.3999 28.9962Z" fill="#E67217"/>
<path d="M42.3667 52.9648C41.6117 52.9648 40.9995 53.5769 40.9995 54.332V55.5985C40.9995 56.3536 41.6117 56.9657 42.3667 56.9657C43.1217 56.9657 43.7339 56.3536 43.7339 55.5985V54.332C43.7339 53.5769 43.1217 52.9648 42.3667 52.9648Z" fill="#E67217"/>
<path d="M1.36719 48.0493C1.00762 48.0493 0.654883 48.1956 0.400586 48.4499C0.146289 48.7042 0 49.0569 0 49.4165C0 49.7774 0.146152 50.1288 0.400586 50.3831C0.65502 50.6374 1.00762 50.7837 1.36719 50.7837C1.72676 50.7837 2.07949 50.6374 2.33365 50.3831C2.58795 50.1288 2.73438 49.7761 2.73438 49.4165C2.73438 49.0569 2.58809 48.7042 2.33365 48.4499C2.07949 48.1956 1.72676 48.0493 1.36719 48.0493Z" fill="#495865"/>
</svg>
