<svg width="30" height="27" viewBox="0 0 30 27" fill="none" xmlns="http://www.w3.org/2000/svg">
<g clip-path="url(#clip0)">
<path d="M0.25726 8.11404L0.257248 8.11403C0.1458 8.0516 0.055746 7.95704 -0.00117488 7.84268C-0.0580957 7.72832 -0.0792429 7.59946 -0.0618595 7.47291C-0.0444761 7.34635 0.0106319 7.22797 0.0962792 7.13319C0.181927 7.03841 0.294141 6.97164 0.418295 6.94157L0.41832 6.94156L29.2699 -0.0385672C29.328 -0.0542298 29.388 -0.0612864 29.448 -0.0595095C29.4874 -0.0584754 29.5267 -0.0538023 29.5653 -0.0455491L0.25726 8.11404ZM0.25726 8.11404L11.1102 14.1918M0.25726 8.11404L11.1102 14.1918M11.1102 14.1918L13.7939 26.3474C13.8215 26.4722 13.886 26.5858 13.9791 26.6733C14.0722 26.7609 14.1895 26.8184 14.3157 26.8383C14.442 26.8582 14.5713 26.8395 14.6868 26.7848C14.8023 26.7301 14.8986 26.6419 14.9632 26.5316L29.9734 0.909593C29.9736 0.909261 29.9738 0.908929 29.974 0.908596C30.0266 0.822939 30.0581 0.726049 30.066 0.625856C30.066 0.625839 30.066 0.625823 30.066 0.625807L29.9663 0.617951M11.1102 14.1918L29.933 0.18453M29.9663 0.617951C29.9762 0.493226 29.942 0.368986 29.8697 0.26688L29.8622 0.256523L29.8541 0.245987M29.9663 0.617951C29.9596 0.702742 29.9329 0.78473 29.8883 0.857148L29.9663 0.617951ZM29.8541 0.245987L29.933 0.18453M29.8541 0.245987L29.9324 0.183767L29.933 0.18453M29.8541 0.245987L29.933 0.18453M12.3795 14.0411L27.3056 2.94797L14.6856 24.4897L12.3795 14.0411ZM11.6209 13.0205L2.29197 7.7962L26.5471 1.92761L11.6209 13.0205Z" fill="#2B2A29" stroke="#2B2A29" stroke-width="0.2"/>
</g>
<defs>
<clipPath id="clip0">
<rect width="30" height="26.7857" fill="white"/>
</clipPath>
</defs>
</svg>
