<svg width="61" height="60" viewBox="0 0 61 60" fill="none" xmlns="http://www.w3.org/2000/svg">
<g filter="url(#filter0_d)">
<circle cx="30.959" cy="30" r="20" fill="#FEFEFE"/>
<path d="M50.959 30C50.959 41.0457 42.0047 50 30.959 50C19.9133 50 10.959 41.0457 10.959 30C10.959 18.9543 19.9133 10 30.959 10C42.0047 10 50.959 18.9543 50.959 30ZM16.959 30C16.959 37.732 23.227 44 30.959 44C38.691 44 44.959 37.732 44.959 30C44.959 22.268 38.691 16 30.959 16C23.227 16 16.959 22.268 16.959 30Z" fill="#FF923C"/>
<path d="M23.5015 27.696L25.9015 26.064V36H27.0215V24.8H25.9015L23.5015 26.448V27.696ZM33.1752 36.112C35.5272 36.112 36.8552 34.784 36.8552 32.88C36.8552 31.696 36.2312 30.704 35.0952 30.224C36.0712 29.744 36.6152 28.832 36.6152 27.744C36.6152 25.936 35.3672 24.688 33.1752 24.688C31.1112 24.688 29.8312 25.968 29.7352 27.92H30.8872C31.0312 26.576 31.8472 25.744 33.1752 25.744C34.6632 25.744 35.4632 26.544 35.4632 27.744C35.4632 28.912 34.6472 29.728 33.3192 29.728H31.8152V30.752H33.3192C34.8232 30.752 35.7032 31.632 35.7032 32.88C35.7032 34.176 34.8232 35.056 33.1752 35.056C31.6232 35.056 30.7432 34.16 30.6472 32.56H29.4952C29.5912 34.768 30.9352 36.112 33.1752 36.112Z" fill="black"/>
</g>
<defs>
<filter id="filter0_d" x="0.958984" y="0" width="60" height="60" filterUnits="userSpaceOnUse" color-interpolation-filters="sRGB">
<feFlood flood-opacity="0" result="BackgroundImageFix"/>
<feColorMatrix in="SourceAlpha" type="matrix" values="0 0 0 0 0 0 0 0 0 0 0 0 0 0 0 0 0 0 127 0"/>
<feOffset/>
<feGaussianBlur stdDeviation="5"/>
<feColorMatrix type="matrix" values="0 0 0 0 0.168627 0 0 0 0 0.164706 0 0 0 0 0.160784 0 0 0 0.3 0"/>
<feBlend mode="normal" in2="BackgroundImageFix" result="effect1_dropShadow"/>
<feBlend mode="normal" in="SourceGraphic" in2="effect1_dropShadow" result="shape"/>
</filter>
</defs>
</svg>
