<svg width="61" height="60" viewBox="0 0 61 60" fill="none" xmlns="http://www.w3.org/2000/svg">
<g filter="url(#filter0_d)">
<circle cx="30.959" cy="30" r="20" fill="#FEFEFE"/>
<g clip-path="url(#clip0)">
<path d="M34.6143 37.7643C34.4746 37.7643 34.3349 37.7237 34.2116 37.6424C34.0555 37.5368 33.9486 37.3743 33.9158 37.1874L33.094 32.6447C33.0776 32.5553 33.0036 32.4822 32.9132 32.4659L31.8613 32.3115C30.2999 32.084 29.0755 30.8894 28.8207 29.3454L28.6071 28.1102C28.5824 27.9801 28.6728 27.8501 28.8043 27.8257C28.9358 27.8014 29.0673 27.8908 29.0919 28.0208L29.3138 29.256C29.5357 30.5887 30.5876 31.6208 31.9435 31.8158L32.9954 31.9702C33.2994 32.019 33.5377 32.2465 33.5953 32.5472L34.4171 37.0898C34.4253 37.1467 34.4581 37.1955 34.5074 37.228C34.5568 37.2605 34.6143 37.2768 34.6718 37.2605L36.1099 36.9842C36.225 36.9598 36.3071 36.8461 36.2825 36.7323L36.2743 36.7079C36.2496 36.586 36.1346 36.5129 36.0113 36.5373L35.7319 36.5941C35.6662 36.6104 35.6004 36.5941 35.5429 36.5535C35.4854 36.5129 35.4525 36.456 35.4361 36.391L34.5896 31.5558C34.5814 31.4908 34.5403 31.4339 34.4746 31.4014L31.9024 30.0361C31.6805 29.9142 31.5326 29.6867 31.5244 29.4348L31.4751 27.5413C31.4751 27.4032 31.5819 27.2975 31.7134 27.2894C31.8531 27.2894 31.9599 27.395 31.9682 27.5251L32.0175 29.4185C32.0175 29.4998 32.0668 29.5648 32.1325 29.6054L34.6965 30.9707C34.8937 31.0763 35.0252 31.2551 35.058 31.4745L35.8634 36.0659L35.8963 36.0578C36.2825 35.9847 36.6605 36.2366 36.7345 36.6104L36.7427 36.6348C36.8166 37.0167 36.5701 37.3905 36.1839 37.4637L34.7458 37.74C34.7047 37.7562 34.6554 37.7643 34.6143 37.7643Z" fill="#2B2A29"/>
<path d="M28.7466 27.6956C28.6315 27.6956 28.5247 27.6144 28.5 27.4925L28.1302 25.2008C28.0727 24.8676 28.1631 24.5182 28.3768 24.25C28.5904 23.9818 28.9109 23.8112 29.2479 23.7868L29.7245 23.7543C30.0368 23.7299 30.349 23.8437 30.5709 24.055L31.4667 24.9408C31.5078 24.9814 31.5406 25.0139 31.5653 25.0464C31.6557 25.1439 31.6475 25.2983 31.5406 25.3877C31.442 25.4771 31.2859 25.469 31.1955 25.3633C31.1708 25.339 31.1462 25.3146 31.1215 25.2821L30.2258 24.3963C30.1025 24.2825 29.9299 24.2256 29.7574 24.2338L29.2807 24.2663C29.0753 24.2825 28.8863 24.38 28.7548 24.5426C28.6233 24.7051 28.574 24.9083 28.6069 25.1114L28.9849 27.3949C29.0095 27.525 28.9192 27.655 28.7794 27.6712C28.7712 27.6956 28.763 27.6956 28.7466 27.6956Z" fill="#2B2A29"/>
<path d="M34.7871 37.74C34.672 37.74 34.5652 37.6587 34.5488 37.5449C34.5241 37.4149 34.6063 37.2849 34.746 37.2605L36.1019 37.0005C36.1595 36.9923 36.2088 36.9598 36.2416 36.9111C36.2745 36.8623 36.2827 36.8054 36.2745 36.7485L36.2663 36.716C36.2581 36.6591 36.2252 36.6104 36.1759 36.5779C36.1266 36.5454 36.0691 36.5372 36.0115 36.5454L35.0172 36.7404C34.8857 36.7648 34.7542 36.6835 34.7296 36.5454C34.7049 36.4072 34.7871 36.2853 34.9268 36.2609L35.9211 36.0659C36.1102 36.0334 36.2992 36.0659 36.4553 36.1716C36.6114 36.2772 36.7183 36.4397 36.7594 36.6185L36.7676 36.651C36.8004 36.8379 36.7676 37.0248 36.6607 37.1792C36.5539 37.3336 36.3896 37.4393 36.2088 37.4799L34.8528 37.74C34.8117 37.74 34.7953 37.74 34.7871 37.74Z" fill="#2B2A29"/>
<path d="M26.1171 37.9999C26.076 37.9999 26.0349 37.9999 25.9939 37.9918C25.8048 37.9593 25.6405 37.8618 25.5337 37.7074L24.7365 36.5941C24.6544 36.4803 24.6872 36.334 24.7941 36.2528C24.9091 36.1715 25.057 36.204 25.1392 36.3096L25.9363 37.423C25.9692 37.4717 26.0185 37.5042 26.076 37.5124C26.1336 37.5205 26.1911 37.5124 26.2404 37.4717L26.265 37.4555C26.3143 37.423 26.3472 37.3742 26.3554 37.3173C26.3636 37.2604 26.3554 37.2035 26.3143 37.1548L25.7473 36.3665C25.6651 36.2528 25.698 36.1065 25.8048 36.0252C25.9199 35.944 26.0678 35.9765 26.15 36.0821L26.717 36.8704C26.8238 37.0248 26.8732 37.2117 26.8403 37.3986C26.8074 37.5855 26.7088 37.748 26.5527 37.8537L26.528 37.8699C26.4047 37.9593 26.265 37.9999 26.1171 37.9999Z" fill="#2B2A29"/>
<path d="M26.3145 36.968C26.2405 36.968 26.1666 36.9355 26.1173 36.8705C26.0351 36.7648 26.0598 36.6104 26.1666 36.5292L29.5852 33.9612L30.3001 32.1734C30.3494 32.0515 30.4891 31.9865 30.6206 32.0352C30.7439 32.084 30.8096 32.2303 30.7603 32.3522L30.0207 34.205C30.0043 34.2456 29.9796 34.2863 29.9385 34.3106L26.4624 36.9192C26.4213 36.9517 26.3638 36.968 26.3145 36.968Z" fill="#2B2A29"/>
<path d="M25.55 37.5449C25.476 37.5449 25.3938 37.5124 25.3527 37.4393L24.457 36.1959C24.383 36.0903 24.3995 35.944 24.5063 35.8627L28.1386 32.9291L28.8453 29.386C28.8699 29.256 29.0014 29.1666 29.1329 29.191C29.2644 29.2153 29.3548 29.3454 29.3301 29.4754L28.607 33.0998C28.5988 33.1567 28.5659 33.2054 28.5248 33.2379L24.9994 36.0822L25.7636 37.1386C25.8458 37.2524 25.8129 37.3986 25.7061 37.4799C25.6486 37.5287 25.5993 37.5449 25.55 37.5449Z" fill="#2B2A29"/>
<path d="M32.371 26.428C32.2313 26.428 32.1245 26.3223 32.1245 26.1842V24.2339C32.1245 23.8438 32.445 23.5269 32.8395 23.5269H37.2442C37.6386 23.5269 37.9591 23.8438 37.9591 24.2339V26.1192C37.9591 26.2573 37.8523 26.363 37.7126 26.363C37.5729 26.363 37.4661 26.2573 37.4661 26.1192V24.2339C37.4661 24.112 37.3674 24.0144 37.2442 24.0144H32.8312C32.708 24.0144 32.6094 24.112 32.6094 24.2339V26.1761C32.6176 26.3142 32.5107 26.428 32.371 26.428Z" fill="#E57214"/>
<path d="M37.2441 29.3048H32.8312C32.4367 29.3048 32.1162 28.9878 32.1162 28.5978V28.0695C32.1162 27.9314 32.223 27.8257 32.3627 27.8257C32.5024 27.8257 32.6093 27.9314 32.6093 28.0695V28.5978C32.6093 28.7196 32.7079 28.8172 32.8312 28.8172H37.2441C37.3509 28.8172 37.4495 28.7359 37.4578 28.6303C37.4742 28.5002 37.5975 28.4027 37.7372 28.419C37.8687 28.4352 37.9673 28.5571 37.9508 28.6953C37.9015 29.0447 37.5975 29.3048 37.2441 29.3048Z" fill="#E57214"/>
<path d="M35.2718 25.396H34.8116C34.4172 25.396 34.0967 25.0791 34.0967 24.689V23.7789C34.0967 23.6407 34.2035 23.5351 34.3432 23.5351H35.732C35.8717 23.5351 35.9786 23.6407 35.9786 23.7789V24.6972C35.9868 25.0791 35.6663 25.396 35.2718 25.396ZM34.5897 24.0227V24.6972C34.5897 24.8191 34.6884 24.9166 34.8116 24.9166H35.2718C35.3951 24.9166 35.4937 24.8191 35.4937 24.6972V24.0227H34.5897Z" fill="#E57214"/>
<path d="M32.1738 26.2248C32.1081 26.2248 32.0506 26.2004 32.0013 26.1516L30.6535 24.8108C30.5549 24.7133 30.5549 24.5589 30.6535 24.4695C30.7522 24.372 30.9083 24.372 30.9987 24.4695L32.3464 25.8103C32.445 25.9078 32.445 26.0622 32.3464 26.1516C32.2971 26.2004 32.2314 26.2248 32.1738 26.2248Z" fill="#2B2A29"/>
<path d="M31.1382 27.2487C31.0807 27.2487 31.0232 27.2244 30.9739 27.1837L30.1932 26.493C30.0946 26.4036 30.0863 26.2492 30.1767 26.1517C30.2671 26.0542 30.4233 26.046 30.5219 26.1354L31.3026 26.8262C31.4012 26.9156 31.4094 27.07 31.319 27.1675C31.2697 27.2244 31.204 27.2487 31.1382 27.2487Z" fill="#2B2A29"/>
<path d="M37.5397 28.3459H36.4385C36.3563 28.3459 36.2659 28.3296 36.192 28.2971L36.0852 28.2484C36.0687 28.2403 36.0523 28.2403 36.0358 28.2403L32.5351 28.3459C32.3707 28.354 32.2064 28.289 32.0831 28.1834L30.9655 27.1919C30.9162 27.1513 30.8833 27.0863 30.8833 27.0213C30.8833 26.9563 30.908 26.8913 30.9573 26.8425L31.9927 25.8186C32.0831 25.7292 32.2475 25.7292 32.3461 25.8186L32.9871 26.4524C33.0117 26.4768 33.0528 26.4931 33.0857 26.5012L36.0852 26.68C36.118 26.68 36.1427 26.6719 36.1673 26.6556L36.2577 26.5825C36.3728 26.4849 36.5125 26.4362 36.6604 26.4443L37.5561 26.4687C37.7862 26.4768 37.9588 26.6556 37.9588 26.8831V27.9558C37.9588 28.159 37.7698 28.3459 37.5397 28.3459ZM36.0441 27.7527C36.1262 27.7527 36.2084 27.7689 36.2906 27.8014L36.3974 27.8502C36.4139 27.8583 36.4303 27.8583 36.4467 27.8583H37.474V26.94L36.6522 26.9156C36.6275 26.9156 36.5947 26.9238 36.5782 26.94L36.4878 27.0132C36.3646 27.1107 36.2166 27.1594 36.0605 27.1513L33.0528 26.9725C32.8967 26.9644 32.7405 26.8994 32.6337 26.7856L32.1735 26.3224L31.4996 26.9888L32.42 27.8096C32.4529 27.8339 32.4858 27.8502 32.5269 27.8502L36.0276 27.7445C36.0358 27.7527 36.0358 27.7527 36.0441 27.7527Z" fill="#2B2A29"/>
<path d="M27.292 26.2248H24.0625C23.9227 26.2248 23.8159 26.1192 23.8159 25.9811C23.8159 25.8429 23.9227 25.7373 24.0625 25.7373H27.292C27.4317 25.7373 27.5386 25.8429 27.5386 25.9811C27.5386 26.1192 27.4235 26.2248 27.292 26.2248Z" fill="#2B2A29"/>
<path d="M29.5848 27.6956H27.1606C27.0209 27.6956 26.9141 27.59 26.9141 27.4518C26.9141 27.3137 27.0209 27.208 27.1606 27.208H29.5848C29.7245 27.208 29.8314 27.3137 29.8314 27.4518C29.8314 27.59 29.7245 27.6956 29.5848 27.6956Z" fill="#2B2A29"/>
<path d="M26.1583 29.2153H22.2055C22.0658 29.2153 21.959 29.1096 21.959 28.9715C21.959 28.8333 22.0658 28.7277 22.2055 28.7277H26.1583C26.298 28.7277 26.4048 28.8333 26.4048 28.9715C26.4048 29.1096 26.2897 29.2153 26.1583 29.2153Z" fill="#2B2A29"/>
<path d="M26.7085 30.7756H25.0732C24.9335 30.7756 24.8267 30.67 24.8267 30.5318C24.8267 30.3937 24.9335 30.288 25.0732 30.288H26.7085C26.8482 30.288 26.9551 30.3937 26.9551 30.5318C26.9551 30.6619 26.84 30.7756 26.7085 30.7756Z" fill="#2B2A29"/>
<path d="M29.6423 24.1525C29.2396 24.1525 28.8369 24.0144 28.5082 23.7299L28.4425 23.6731C28.0316 23.3155 27.7522 22.8198 27.6618 22.2753L27.5632 21.674C27.5056 21.3001 27.596 20.9263 27.8344 20.6257C28.0727 20.325 28.4096 20.1381 28.7876 20.0974L29.7162 20.008C30.086 19.9674 30.4476 20.0812 30.7352 20.3169C31.0228 20.5525 31.1954 20.8857 31.2283 21.2514L31.3269 22.3566C31.368 22.8279 31.2036 23.2911 30.8749 23.6324C30.538 23.9737 30.0942 24.1525 29.6423 24.1525ZM28.8123 20.3412L28.8369 20.585C28.5904 20.6094 28.3767 20.7313 28.2206 20.9263C28.0727 21.1214 28.0069 21.357 28.048 21.6008L28.1466 22.1941C28.2206 22.6248 28.4342 23.0148 28.763 23.2992L28.8287 23.3561C29.3218 23.7868 30.0614 23.7543 30.5133 23.283C30.7434 23.0473 30.8585 22.7141 30.8338 22.3891L30.7352 21.2839C30.7106 21.0482 30.6037 20.8369 30.4147 20.6825C30.2257 20.5281 29.9956 20.4631 29.7573 20.4875L28.8369 20.585L28.8123 20.3412Z" fill="#2B2A29"/>
<path d="M27.8922 22.3893C27.7771 22.3893 27.6703 22.308 27.6456 22.1861C27.621 22.0561 27.7114 21.9261 27.8511 21.9017L32.3955 21.1378C32.527 21.1134 32.6585 21.2028 32.6831 21.341C32.7078 21.4791 32.6174 21.601 32.4777 21.6254L27.9333 22.3893C27.9168 22.3893 27.9004 22.3893 27.8922 22.3893Z" fill="#2B2A29"/>
<path d="M29.8728 29.451C29.7496 29.451 29.6427 29.3616 29.6263 29.2315C29.6099 29.1015 29.7085 28.9796 29.84 28.9634L31.7301 28.7521C31.8615 28.7358 31.9848 28.8333 32.0012 28.9634C32.0177 29.0934 31.9191 29.2153 31.7876 29.2315L29.8975 29.4428C29.8893 29.451 29.8811 29.451 29.8728 29.451Z" fill="#2B2A29"/>
</g>
<path d="M50.959 30C50.959 41.0457 42.0047 50 30.959 50C19.9133 50 10.959 41.0457 10.959 30C10.959 18.9543 19.9133 10 30.959 10C42.0047 10 50.959 18.9543 50.959 30ZM16.959 30C16.959 37.732 23.227 44 30.959 44C38.691 44 44.959 37.732 44.959 30C44.959 22.268 38.691 16 30.959 16C23.227 16 16.959 22.268 16.959 30Z" fill="#FF923C"/>
</g>
<defs>
<filter id="filter0_d" x="0.958984" y="0" width="60" height="60" filterUnits="userSpaceOnUse" color-interpolation-filters="sRGB">
<feFlood flood-opacity="0" result="BackgroundImageFix"/>
<feColorMatrix in="SourceAlpha" type="matrix" values="0 0 0 0 0 0 0 0 0 0 0 0 0 0 0 0 0 0 127 0"/>
<feOffset/>
<feGaussianBlur stdDeviation="5"/>
<feColorMatrix type="matrix" values="0 0 0 0 0.168627 0 0 0 0 0.164706 0 0 0 0 0.160784 0 0 0 0.3 0"/>
<feBlend mode="normal" in2="BackgroundImageFix" result="effect1_dropShadow"/>
<feBlend mode="normal" in="SourceGraphic" in2="effect1_dropShadow" result="shape"/>
</filter>
<clipPath id="clip0">
<rect width="16" height="18" fill="white" transform="translate(21.959 20)"/>
</clipPath>
</defs>
</svg>
