<svg version="1" xmlns="http://www.w3.org/2000/svg" width="1109.333" height="1109.333" viewBox="0 0 832.000000 832.000000"><path d="M576.5 236c-2.2.4-6 1-8.5 1.3-2.5.4-5.5.8-6.6 1.1-1.2.2-3.7.7-5.5 1-6.4 1-21.4 5.7-30.9 9.8-10.5 4.4-16.7 6.4-60.5 19.7-16.5 5.1-35.2 10.8-41.5 12.7-6.3 2-13.1 4-15 4.6-4.3 1.3-16 6.4-37.5 16.3-11.7 5.4-19.3 8.9-37 17-9.3 4.2-21.7 9.9-27.4 12.6-5.7 2.7-10.5 4.9-10.7 4.9-.1 0-4.5 2-9.6 4.4-5.1 2.4-12 5.6-15.3 7.1-3.3 1.5-15.9 7.2-28 12.7-23.2 10.6-30.6 14-42 19.3-3.8 1.8-9.7 4.5-13 6-3.3 1.5-9.8 4.5-14.3 6.6-4.6 2.2-8.5 3.9-8.7 3.9-.2 0-5.5 2.5-12 5.5-6.4 3-11.8 5.5-12 5.5-.1 0-4.1 1.7-8.7 3.9-4.5 2.1-10.8 5-13.8 6.4-3 1.4-9.1 4.2-13.5 6.2-4.4 2.1-10.9 5.1-14.5 6.7-24.8 11.3-37.6 17.2-38 17.6-.5.4 9.7 0 30-1.3 4.1-.2 11.8-.7 17-.9l9.5-.6L87 456.6c-25.3 12.5-69.6 34.2-79.2 38.7-6.8 3.3-8.6 4.9-4.5 4.2 1.2-.2 6-.6 10.7-1 4.7-.3 11-.8 14-1.1 3-.2 8.7-.6 12.5-.8 3.9-.3 9.7-.7 13-1 6.3-.6 16.6-1.4 27.5-2.1 3.6-.3 9.2-.7 12.5-1 3.3-.2 9.6-.7 14-1 4.4-.3 10.5-.8 13.5-1 3-.3 8.9-.7 13-1 4.1-.3 10-.8 13-1.1 3-.2 8.9-.6 13-.9 4.1-.3 9.8-.7 12.5-1 2.8-.2 9.3-.7 14.5-1 5.2-.4 10.6-.8 11.9-1 1.4-.3 8.4 2.2 17 5.9 8 3.4 16.5 6.8 18.9 7.6 2.3.7 4 1.5 3.7 1.8-.3.3-17.6.5-38.5.5-31.2 0-38 .2-38.1 1.4-.1.7-.1 2.2-.1 3.3 0 5.3-1.5 5 23.7 5H209v14.7c.1 8.2.1 27.7 0 43.5 0 15.9.3 28.9.7 28.9 3.1.5 9 .5 9.8 0 .7-.4 1.1-14.9 1-43.6v-43l25-.5c13.8-.3 26.5-.1 28.4.3 4 1 3.4.9 18.6 4.1 13 2.7 15.9 3.3 22 4.1 2.2.3 4.9.8 6 1 1.1.2 2.5.4 3 .4.7.1 1 13.4 1 38.6 0 25.2.3 38.5 1 38.6.5.1 3 .2 5.5.3l4.5.1.2-36.5c.1-20.1.2-37.2.2-38.1.1-1.3.9-1.6 3.4-1.2 1.7.2 14.5.5 28.2.7l25 .2v37c0 28.7.2 37 1.2 37.4.7.3 23.2.5 50 .5h48.8v-10h-44.2c-38.7 0-44.3-.2-44.4-1.5-.1-1.6-.1-29.7 0-31.8.1-.9 9.3-1.2 42.6-1.2H489v-10h-42.5c-33.3 0-42.5-.3-42.6-1.3-.1-1.9-.1-17 0-19.3.1-1.1.7-2.1 1.4-2.1 2.4-.1 14.2-1.5 14.7-1.8.3-.2 2.6-.6 5-1 4-.6 10.8-1.9 16.5-3.1 1.1-.2 2.9-.6 4-.8 1.1-.2 5.1-1.1 8.8-2 4.7-1.1 11.7-1.6 22.8-1.6 12.2 0 15.9-.3 15.8-1.3-.1-.6-.1-2.8 0-4.7l.1-3.5 10.8-3.9c14.5-5.2 38.8-17.1 49.1-24 13.6-9.1 21.6-16.4 29.9-27.3 2-2.6 4.8-6.2 6.3-7.8 1.4-1.7 8-9.3 14.5-17 13.4-15.9 14.7-17.3 30.3-34.3 22.7-24.7 35.5-35.9 48.5-42.4 9.8-4.9 18.5-10.7 24.6-16.4l4.5-4.2h38c37.4 0 38.2 0 49.5-2.6 6.3-1.5 12.6-2.9 13.9-3.2 3.4-.7 2.1-1.4-4-2-3-.2-6.8-.7-8.5-.9-1.6-.2-5.9-.7-9.5-1-3.5-.3-8-.8-9.9-1.1-1.9-.3-5.7-.7-8.5-1-2.7-.2-6.8-.6-9-.9-2.2-.2-6.9-.7-10.5-1-3.6-.4-7.6-.8-8.9-1-1.4-.3-5.4-.7-9-1-10.3-.9-14.1-1.6-14.1-2.6 0-.6 1.9-.8 4.8-.4 7.8 1 10.4 1.3 17.7 2 3.9.4 7.9.9 9 1.1 1.1.2 4.7.6 8 .9 3.3.3 7.6.7 9.5 1 4.7.6 12.6 1.5 17.5 1.9 2.2.3 6.1.7 8.8 1 2.6.3 6.8.8 9.5 1.1 2.6.3 6.5.8 8.7 1 2.2.3 6.2.7 8.8 1 2.7.3 5.2.7 5.7 1 .5.3 1.2.1 1.5-.5.4-.6.3-1-.2-.8-.4.1-2.8-.5-5.3-1.2s-4.9-1.5-5.5-1.6c-.5-.1-10.2-3-21.5-6.4-26.6-8-33.2-10-35-10.5-.8-.2-9.1-2.7-18.5-5.5-9.3-2.8-19-5.5-21.5-5.8-3-.5-4.8-1.4-5.5-2.7-2.6-4.9-5.2-8.4-10.4-13.4-16.5-15.9-43.9-27.1-77.1-31.5-11-1.4-46.5-1.8-53.5-.6z"/><path d="M37.7 499.6c-.1.1-2.3.4-4.9.7-13 1.6-18.9 9-19.3 24.7-.4 13.9 1.8 19.6 9 23.2 6.3 3.2 11.3 3.7 45.5 4.3 15.7.3 30.8.8 33.5 1.1 6 .7 9.9 2.9 11.4 6.1 1.2 2.5 1.6 14.1.7 18.2-1.1 5-4.7 8.6-9.9 9.7-2.8.7-67.5.7-70.3 0-3.6-.8-6.3-2.9-7.6-6.1-1.2-2.8-1.4-4.5-1.7-11.8-.1-2.6-.3-2.7-5.6-2.7s-5.5.1-5.6 2.7c-.2 6.3.5 12.7 2 16.7 2.3 5.8 10 10.1 20.2 11.2 6.1.6 52.8.9 65.4.4 12.4-.6 21.1-6.2 23.6-15.2.6-2.4 1.2-8.6 1.2-13.8 0-15-3.7-21.1-14.4-24-5.9-1.6-10.8-1.9-41.6-2.1-16-.1-31.4-.6-34.2-1.1-8.3-1.7-11-6.2-10.5-17.8.4-7.1 2.2-10.5 7-13 3.9-2 69.2-2.2 73.9-.2 4.5 1.9 6.2 5 6.7 13l.2 3.3 5.6-.3 5.5-.3-.2-5.3c-.4-12.3-5.7-18.7-17.3-20.8-3.6-.6-67.6-1.4-68.3-.8zM139 548.9v48.7h5.5l5.5-.1v-97.2l-5.5-.1H139v48.7zM505.9 501.9c-.5 9.8 0 94.3.5 94.9.4.4 21.7.7 47.2.7 36.5 0 46.4-.3 46.5-1.2 0-.7.1-2.7.1-4.3 0-1.7-.1-3.3-.1-3.8-.1-.4-18.7-.7-41.3-.7h-41.3l-.5-43.6-.5-43.6h-5.2c-4.2-.1-5.3.3-5.4 1.6zM613.9 500.8c-.4 2.4-.3 96.2.1 96.3.3.1 21.5.2 47.3.3l46.7.1v-10h-41.1c-22.6 0-41.3-.4-41.6-.8-.3-.5-.5-20.1-.5-43.7v-42.8l-5.4-.1c-3 0-5.5.3-5.5.7zM720.2 548.9l.3 48.6H820v-10h-88.5l-.1-17.3-.2-17.2h42.4c27.5 0 42.4-.4 42.5-1 .1-.6.1-2.1.1-3.5s0-3.2-.1-4c-.1-1.3-5.5-1.5-42.6-1.5h-42.4v-16.5l.1-16.5h88.9l-.3-4.8-.3-4.7-49.8-.1-49.7-.1.2 48.6z"/></svg>