<svg width="223" height="75" viewBox="0 0 223 75" fill="none" xmlns="http://www.w3.org/2000/svg">
<path d="M90.5136 30.4288C91.6692 30.4458 92.773 30.4543 93.8204 30.4543C95.6081 30.4543 97.0104 30.4458 98.0233 30.4288C97.9151 31.5648 97.8068 33.1774 97.6943 35.258C97.5861 37.3428 97.5169 38.9128 97.4909 39.9765C96.517 40.1509 95.7119 40.2786 95.0757 40.3594C94.435 40.4403 93.669 40.5083 92.773 40.5721C91.8771 40.6359 91.0763 40.6657 90.3751 40.6657C89.2237 40.6657 88.0983 40.5765 86.9903 40.3935C85.8823 40.2105 84.891 39.9127 84.0124 39.5084C83.138 39.1001 82.4109 38.5468 81.8266 37.8491C81.2422 37.1514 80.7921 36.3217 80.476 35.3686C80.1601 34.4112 80 33.4242 80 32.3988C80 30.7139 80.4285 29.1481 81.2811 27.7014C82.1338 26.2548 83.3631 25.1102 84.9646 24.2636C86.5661 23.4212 88.635 23 91.1715 23C93.024 23 95.0714 23.2212 97.3221 23.6636C97.3221 24.872 97.374 26.2166 97.4779 27.6973C96.8677 27.4972 96.3785 27.3483 96.002 27.242C95.6254 27.1399 95.1838 27.042 94.6818 26.9569C94.1796 26.8675 93.6993 26.8037 93.2491 26.7654C92.7947 26.7229 92.392 26.7016 92.0372 26.7016C91.1066 26.7016 90.2279 26.8335 89.3969 27.0931C88.5701 27.3568 87.8559 27.7568 87.2629 28.3014C86.6656 28.8418 86.2198 29.4927 85.9255 30.2458C85.6269 31.0032 85.4797 31.7989 85.4797 32.637C85.4797 33.488 85.6485 34.2496 85.9861 34.9176C86.3281 35.5855 86.8648 36.092 87.6006 36.4408C88.3364 36.7896 89.1587 36.9642 90.0677 36.9642C90.8209 36.9642 91.6476 36.8534 92.5435 36.6323L92.6734 33.9773C92.128 33.9602 91.8034 33.9517 91.7038 33.9517L90.362 33.9645L90.4486 32.4286C90.4573 32.2625 90.4703 32.0201 90.4876 31.7095C90.5049 31.3988 90.5136 30.9691 90.5136 30.4288ZM101.642 31.2202C101.802 30.4032 101.901 29.8417 101.945 29.531C101.988 29.2247 102.057 28.7396 102.148 28.0802C104.581 27.5525 106.671 27.2887 108.416 27.2887C109.411 27.2887 110.325 27.3994 111.151 27.6207C111.978 27.8376 112.623 28.1951 113.086 28.6844C113.549 29.1737 113.783 29.8756 113.783 30.7904C113.783 31.2542 113.718 32.3009 113.592 33.9304C113.467 35.5558 113.372 37.6918 113.307 40.3339C112.476 40.3169 111.649 40.3084 110.831 40.3084C110.034 40.3084 109.186 40.3169 108.29 40.3339C108.407 39.4191 108.533 37.5301 108.675 34.6665C108.355 34.8197 108.104 34.9304 107.922 34.9942C107.741 35.0623 107.424 35.1643 106.97 35.3005C106.511 35.4366 106.156 35.5473 105.901 35.6409C105.646 35.7345 105.421 35.8536 105.23 35.9983C105.04 36.1387 104.905 36.2876 104.827 36.4408C104.745 36.5897 104.706 36.7599 104.706 36.947C104.706 37.2322 104.823 37.479 105.052 37.6832C105.282 37.8832 105.646 37.9853 106.148 37.9853C106.325 37.9853 106.515 37.9724 106.723 37.9427C106.927 37.913 107.208 37.8449 107.563 37.73C107.316 38.3597 107.022 39.2787 106.68 40.4871C105.953 40.6062 105.265 40.6657 104.615 40.6657C103.568 40.6657 102.694 40.5211 101.997 40.236C101.3 39.9467 100.763 39.4829 100.387 38.8447C100.01 38.2023 99.8239 37.5641 99.8239 36.9216C99.8239 36.5301 99.8931 36.1472 100.032 35.7728C100.17 35.3984 100.387 35.0325 100.685 34.6751C100.98 34.3176 101.326 34.0113 101.72 33.7603C102.118 33.505 102.659 33.2667 103.343 33.0413C104.031 32.8158 104.901 32.6072 105.957 32.4073C106.394 32.3221 106.797 32.2327 107.165 32.1391C107.528 32.0413 107.792 31.9605 107.948 31.8882C108.104 31.8158 108.23 31.735 108.325 31.6414C108.424 31.5435 108.494 31.4456 108.533 31.3436C108.576 31.2371 108.598 31.1308 108.598 31.0159C108.598 30.6969 108.463 30.45 108.195 30.2799C107.927 30.1054 107.528 30.0203 107.009 30.0203C105.559 30.0203 103.771 30.4202 101.642 31.2202ZM116.146 40.3339L116.549 34.7942L116.679 31.6116C116.687 31.0372 116.691 30.4543 116.691 29.8543C116.691 29.2459 116.683 28.4929 116.666 27.5951C117.687 27.612 118.501 27.6207 119.098 27.6207C119.804 27.6207 120.609 27.612 121.522 27.5951L121.466 29.0204C121.799 28.6546 122.072 28.3822 122.284 28.2036C122.496 28.0248 122.734 27.8631 123.007 27.7185C123.279 27.5738 123.565 27.4632 123.859 27.3951C124.158 27.3228 124.465 27.2887 124.79 27.2887C125.093 27.2887 125.435 27.3314 125.807 27.4164C125.816 28.3226 125.837 29.0673 125.872 29.6587L125.963 31.5776C125.495 31.4415 125.058 31.3734 124.651 31.3734C124.141 31.3734 123.703 31.4456 123.336 31.5903C122.968 31.735 122.639 31.9562 122.353 32.2541C122.072 32.5476 121.842 32.9136 121.674 33.356C121.505 33.7943 121.383 34.4922 121.319 35.4495C121.249 36.4024 121.215 37.496 121.215 38.7256C121.215 39.1596 121.232 39.6957 121.267 40.3339C120.444 40.3169 119.618 40.3084 118.791 40.3084C117.968 40.3084 117.085 40.3169 116.146 40.3339ZM128.525 31.2202C128.685 30.4032 128.785 29.8417 128.828 29.531C128.872 29.2247 128.941 28.7396 129.032 28.0802C131.464 27.5525 133.555 27.2887 135.299 27.2887C136.295 27.2887 137.208 27.3994 138.035 27.6207C138.862 27.8376 139.506 28.1951 139.97 28.6844C140.433 29.1737 140.666 29.8756 140.666 30.7904C140.666 31.2542 140.601 32.3009 140.476 33.9304C140.35 35.5558 140.255 37.6918 140.19 40.3339C139.359 40.3169 138.533 40.3084 137.714 40.3084C136.918 40.3084 136.07 40.3169 135.174 40.3339C135.291 39.4191 135.416 37.5301 135.559 34.6665C135.239 34.8197 134.988 34.9304 134.806 34.9942C134.624 35.0623 134.308 35.1643 133.853 35.3005C133.395 35.4366 133.04 35.5473 132.784 35.6409C132.529 35.7345 132.304 35.8536 132.114 35.9983C131.923 36.1387 131.789 36.2876 131.711 36.4408C131.629 36.5897 131.59 36.7599 131.59 36.947C131.59 37.2322 131.707 37.479 131.936 37.6832C132.165 37.8832 132.529 37.9853 133.031 37.9853C133.209 37.9853 133.399 37.9724 133.607 37.9427C133.81 37.913 134.092 37.8449 134.446 37.73C134.2 38.3597 133.906 39.2787 133.564 40.4871C132.836 40.6062 132.148 40.6657 131.499 40.6657C130.451 40.6657 129.577 40.5211 128.88 40.236C128.183 39.9467 127.647 39.4829 127.27 38.8447C126.894 38.2023 126.707 37.5641 126.707 36.9216C126.707 36.5301 126.777 36.1472 126.915 35.7728C127.054 35.3984 127.27 35.0325 127.569 34.6751C127.863 34.3176 128.209 34.0113 128.603 33.7603C129.001 33.505 129.542 33.2667 130.226 33.0413C130.915 32.8158 131.785 32.6072 132.841 32.4073C133.278 32.3221 133.68 32.2327 134.048 32.1391C134.412 32.0413 134.676 31.9605 134.832 31.8882C134.988 31.8158 135.113 31.735 135.208 31.6414C135.308 31.5435 135.377 31.4456 135.416 31.3436C135.459 31.2371 135.481 31.1308 135.481 31.0159C135.481 30.6969 135.347 30.45 135.079 30.2799C134.81 30.1054 134.412 30.0203 133.892 30.0203C132.442 30.0203 130.655 30.4202 128.525 31.2202ZM142.926 40.3339C143.173 38.4448 143.359 36.36 143.488 34.0751C143.618 31.7946 143.701 29.6331 143.722 27.5951C144.739 27.612 145.618 27.6207 146.354 27.6207C147.211 27.6207 148.033 27.612 148.821 27.5951L148.708 29.2928C148.986 28.9864 149.224 28.7439 149.427 28.5695C149.63 28.3908 149.881 28.2162 150.18 28.0504C150.483 27.8802 150.799 27.744 151.137 27.6334C151.474 27.527 151.842 27.4419 152.245 27.3823C152.647 27.3185 153.067 27.2887 153.504 27.2887C154.11 27.2887 154.703 27.3526 155.283 27.4802C155.859 27.6078 156.344 27.7908 156.733 28.0291C157.119 28.2632 157.443 28.5567 157.707 28.9098C157.967 29.263 158.14 29.6417 158.227 30.0458C158.309 30.45 158.352 30.8712 158.352 31.301C158.352 31.6159 158.317 32.3009 158.248 33.3476L158.036 37.8619C157.993 38.7554 157.971 39.5765 157.971 40.3339C157.114 40.3169 156.318 40.3084 155.573 40.3084C154.565 40.3084 153.647 40.3169 152.821 40.3339C152.898 39.5765 152.985 38.4532 153.071 36.9599C153.158 35.4664 153.206 34.4155 153.206 33.807C153.206 32.871 153.02 32.2201 152.652 31.8498C152.284 31.4797 151.816 31.2967 151.258 31.2967C150.765 31.2967 150.301 31.4542 149.864 31.7691C149.427 32.0881 149.094 32.5434 148.856 33.1476C148.618 33.7518 148.449 34.7431 148.354 36.1218C148.254 37.5003 148.189 38.9043 148.154 40.3339C147.31 40.3169 146.484 40.3084 145.679 40.3084C144.835 40.3084 143.917 40.3169 142.926 40.3339ZM170.16 36.6833C170.008 37.3811 169.874 38.0661 169.766 38.7341L169.485 40.2574C168.645 40.4318 167.991 40.5467 167.524 40.5934C167.052 40.6403 166.598 40.6657 166.156 40.6657C165.438 40.6657 164.797 40.6062 164.239 40.4829C163.68 40.3637 163.213 40.1425 162.841 39.8233C162.468 39.5043 162.213 39.1341 162.079 38.7214C161.945 38.3044 161.875 37.8619 161.875 37.398C161.875 37.313 161.88 37.1683 161.888 36.9557C161.897 36.7429 161.927 36.2706 161.975 35.5387L162.252 31.2202H160.265C160.309 30.6458 160.347 29.8926 160.378 28.9566L160.417 27.7993H162.525C162.577 27.4164 162.642 26.5824 162.715 25.2975L164.888 24.855C165.286 24.7784 166.135 24.5869 167.433 24.2763C167.372 25.3656 167.329 26.5399 167.308 27.7993H170.186C170.117 29.5225 170.086 30.6627 170.086 31.2202H167.178L167.026 34.3431C167.009 34.807 167 35.1048 167 35.2409C167 35.6409 167.043 35.9728 167.134 36.2408C167.221 36.5047 167.381 36.6961 167.606 36.8152C167.831 36.9301 168.078 36.9897 168.351 36.9897C168.554 36.9897 168.766 36.9768 168.987 36.947C169.208 36.9173 169.597 36.8322 170.16 36.6833ZM172.753 40.3339C172.93 38.5044 173.047 37.0662 173.107 36.0195C173.194 34.5857 173.276 32.6242 173.354 30.131C173.437 27.6334 173.475 25.8762 173.475 24.855C173.475 24.4891 173.471 23.97 173.462 23.3063C174.588 23.3318 175.479 23.3446 176.137 23.3446C177.059 23.3446 178.128 23.3233 179.353 23.2893C180.578 23.2509 181.63 23.2297 182.509 23.2297C183.565 23.2297 184.318 23.2595 184.764 23.319C185.357 23.3956 185.876 23.5276 186.318 23.719C186.764 23.9105 187.131 24.1444 187.426 24.4296C187.755 24.7614 188.014 25.1614 188.201 25.6251C188.413 26.157 188.517 26.7272 188.517 27.3356C188.517 27.8078 188.456 28.2588 188.335 28.6929C188.209 29.1268 188.036 29.5098 187.811 29.8458C187.59 30.1819 187.339 30.4628 187.058 30.6883C186.781 30.9138 186.508 31.0883 186.24 31.2117C185.976 31.335 185.621 31.4627 185.171 31.5861C185.617 31.6583 185.976 31.7477 186.244 31.8413C186.517 31.9349 186.802 32.0924 187.11 32.3052C187.417 32.5136 187.694 32.786 187.941 33.1221C188.183 33.4539 188.365 33.8241 188.491 34.2368C188.612 34.6495 188.672 35.0835 188.672 35.5431C188.672 36.1727 188.568 36.7684 188.356 37.3258C188.144 37.8832 187.85 38.364 187.469 38.7596C187.149 39.1043 186.729 39.3936 186.214 39.6361C185.699 39.8744 185.171 40.0446 184.634 40.134C184.192 40.202 183.392 40.2488 182.232 40.2828C181.072 40.3169 179.842 40.3339 178.54 40.3339L175.211 40.3212L172.753 40.3339ZM178.423 29.9437H180.21C180.799 29.9437 181.215 29.9311 181.466 29.9013C181.712 29.8715 181.955 29.8203 182.189 29.7438C182.422 29.6671 182.626 29.5438 182.799 29.3693C182.972 29.1949 183.093 28.9992 183.162 28.7822C183.236 28.5652 183.271 28.3524 183.271 28.1355C183.271 27.8248 183.197 27.5525 183.05 27.31C182.903 27.0674 182.665 26.8888 182.34 26.7739C182.011 26.6591 181.509 26.5995 180.838 26.5995H178.57L178.423 29.9437ZM178.12 36.913H180.539C181.18 36.913 181.647 36.8748 181.95 36.8025C182.323 36.7088 182.604 36.5897 182.794 36.4365C182.989 36.2876 183.141 36.0834 183.258 35.8238C183.37 35.5685 183.426 35.2792 183.426 34.9644C183.426 34.6878 183.379 34.4452 183.288 34.2368C183.197 34.0283 183.058 33.8539 182.872 33.7135C182.686 33.573 182.461 33.4709 182.193 33.4071C181.924 33.3433 181.505 33.3136 180.933 33.3136H178.276L178.12 36.913ZM198.515 27.2887C199.567 27.2887 200.575 27.4462 201.545 27.761C202.515 28.0802 203.333 28.5312 203.999 29.1268C204.67 29.7225 205.163 30.416 205.479 31.2117C205.795 32.003 205.956 32.8583 205.956 33.773C205.956 34.6623 205.813 35.5047 205.531 36.3088C205.246 37.1088 204.765 37.8619 204.09 38.564C203.411 39.2659 202.549 39.7935 201.506 40.1424C200.463 40.4914 199.355 40.6657 198.186 40.6657C197.113 40.6657 196.078 40.5126 195.087 40.2062C194.1 39.8957 193.269 39.4489 192.607 38.8575C191.94 38.2662 191.443 37.5599 191.109 36.7386C190.776 35.9174 190.607 35.0494 190.607 34.1475C190.607 33.2412 190.772 32.3733 191.096 31.552C191.421 30.7309 191.936 29.9905 192.646 29.3353C193.351 28.6757 194.226 28.1738 195.264 27.8206C196.308 27.4675 197.39 27.2887 198.515 27.2887ZM198.429 30.9649C197.887 30.9649 197.403 31.101 196.979 31.3734C196.559 31.6499 196.238 32.0498 196.022 32.5732C195.806 33.1008 195.697 33.6752 195.697 34.2964C195.697 35.2069 195.931 35.9047 196.394 36.3898C196.862 36.8748 197.446 37.1174 198.147 37.1174C198.68 37.1174 199.16 36.9768 199.584 36.7003C200.004 36.4238 200.324 36.011 200.541 35.4706C200.757 34.926 200.865 34.3474 200.865 33.722C200.865 33.2114 200.779 32.7476 200.61 32.3306C200.441 31.918 200.164 31.5861 199.779 31.3394C199.394 31.0883 198.944 30.9649 198.429 30.9649ZM206.449 40.3339L209.34 36.5556L211.487 33.6582L207.514 27.5951C208.747 27.612 209.808 27.6207 210.695 27.6207C211.812 27.6207 212.73 27.612 213.448 27.5951L214.786 30.4543C214.868 30.6287 214.993 30.8969 215.149 31.2627C215.803 30.165 216.573 28.9438 217.46 27.5951C218.214 27.612 219.114 27.6207 220.161 27.6207C221.135 27.6207 222.062 27.612 222.94 27.5951L220.91 30.2161C220.512 30.7309 219.664 31.8627 218.361 33.6071C219.14 34.9304 220.564 37.1726 222.629 40.3339C221.672 40.3169 220.733 40.3084 219.802 40.3084C218.668 40.3084 217.655 40.3169 216.759 40.3339C216.205 39.1682 215.785 38.3086 215.491 37.7512C215.197 37.1939 214.95 36.6833 214.746 36.2153L214.34 36.9046C214.214 37.1088 214.019 37.4194 213.755 37.8279L212.145 40.3339C211.232 40.3169 210.345 40.3084 209.479 40.3084C208.483 40.3084 207.471 40.3169 206.449 40.3339Z" fill="#FEFEFE"/>
<path d="M187.679 49.6937H188.325L188.212 49.1415C188.149 48.7965 188.065 48.2098 188.016 47.8164H187.988C187.938 48.2098 187.861 48.7965 187.791 49.1415L187.679 49.6937ZM188.683 51.4262L188.521 50.6255H187.482L187.321 51.4262H186.288L187.468 46.5947H188.535L189.715 51.4262H188.683ZM182.681 51.4262L181.789 49.5971L181.515 50.032V51.4262H180.532V46.5947H181.515V48.4445L181.768 47.9061L182.456 46.5947H183.593L182.344 48.7067L183.804 51.4262H182.681ZM175.857 50.5012C176.25 50.5012 176.454 50.3218 176.454 49.9767C176.454 49.6247 176.25 49.4452 175.878 49.4452H175.478V50.5012H175.857ZM175.836 47.5195H175.478V48.5273H175.871C176.152 48.5273 176.3 48.3478 176.3 48.0096C176.3 47.6853 176.159 47.5195 175.836 47.5195ZM176.896 48.9552C177.261 49.1623 177.479 49.5487 177.479 49.9836C177.479 50.8464 176.875 51.4262 176.033 51.4262H174.481V46.5947H176.012C176.77 46.5947 177.311 47.1469 177.311 47.9682C177.311 48.334 177.156 48.7205 176.896 48.9552ZM169.525 49.6937H170.171L170.059 49.1415C169.996 48.7965 169.911 48.2098 169.862 47.8164H169.834C169.785 48.2098 169.708 48.7965 169.638 49.1415L169.525 49.6937ZM170.529 51.4262L170.368 50.6255H169.329L169.167 51.4262H168.135L169.315 46.5947H170.382L171.561 51.4262H170.529ZM165.826 46.5947V47.5265H164.864V51.4262H163.839V47.5265H162.877V46.5947H165.826ZM158.582 51.5089C157.627 51.5089 157.065 50.9637 157.065 49.9492V48.0718C157.065 47.0502 157.627 46.498 158.589 46.498C159.572 46.498 160.119 47.0502 160.154 48.0718H159.157C159.129 47.63 158.961 47.4506 158.582 47.4506C158.28 47.4506 158.104 47.6438 158.104 48.0718V49.9492C158.104 50.3632 158.273 50.5565 158.582 50.5565C158.968 50.5565 159.143 50.377 159.171 49.9492H160.168C160.147 50.9637 159.579 51.5089 158.582 51.5089ZM152.418 50.5565C152.79 50.5565 152.98 50.3149 152.98 49.8594V48.1615C152.98 47.7059 152.79 47.4644 152.418 47.4644C152.046 47.4644 151.856 47.7059 151.856 48.1615V49.8594C151.856 50.3149 152.046 50.5565 152.418 50.5565ZM152.418 51.5089C151.421 51.5089 150.824 50.8946 150.824 49.8594V48.1615C150.824 47.1262 151.421 46.5118 152.418 46.5118C153.415 46.5118 154.012 47.1262 154.012 48.1615V49.8594C154.012 50.8946 153.415 51.5089 152.418 51.5089ZM146.557 50.5081V47.5195H145.804L145.748 48.893C145.727 49.4866 145.622 50.0458 145.369 50.5081H146.557ZM147.54 50.5081H147.996V52.2474H147.006V51.4262H144.879V52.2474H143.895V50.5081H144.211C144.647 50.0458 144.766 49.2658 144.792 48.6031L144.869 46.5947H147.54V50.5081ZM135.345 48.9276H135.759V47.5265H135.345C134.994 47.5265 134.804 47.7681 134.804 48.2305C134.804 48.686 134.994 48.9276 135.345 48.9276ZM133.533 51.4262L134.46 49.6454C134.025 49.3901 133.779 48.9 133.779 48.2305C133.779 47.1952 134.355 46.5947 135.331 46.5947H136.756V51.4262H135.759V49.8594H135.408L134.622 51.4262H133.533ZM128.978 49.6937H129.624L129.511 49.1415C129.448 48.7965 129.364 48.2098 129.315 47.8164H129.287C129.238 48.2098 129.16 48.7965 129.09 49.1415L128.978 49.6937ZM129.982 51.4262L129.82 50.6255H128.781L128.62 51.4262H127.588L128.767 46.5947H129.834L131.014 51.4262H129.982ZM123.98 51.4262L123.088 49.5971L122.814 50.032V51.4262H121.831V46.5947H122.814V48.4445L123.067 47.9061L123.755 46.5947H124.893L123.643 48.7067L125.103 51.4262H123.98ZM117.205 51.5089C116.251 51.5089 115.689 50.9637 115.689 49.9492V48.0718C115.689 47.0502 116.251 46.498 117.213 46.498C118.196 46.498 118.743 47.0502 118.778 48.0718H117.781C117.753 47.63 117.585 47.4506 117.205 47.4506C116.904 47.4506 116.728 47.6438 116.728 48.0718V49.9492C116.728 50.3632 116.896 50.5565 117.205 50.5565C117.592 50.5565 117.767 50.377 117.795 49.9492H118.792C118.771 50.9637 118.203 51.5089 117.205 51.5089ZM111.098 48.9414C111.498 48.9414 111.709 48.6999 111.709 48.2374C111.709 47.7681 111.498 47.5265 111.098 47.5265H110.684V48.9414H111.098ZM111.112 46.5947C112.13 46.5947 112.734 47.2021 112.734 48.2374C112.734 49.2658 112.13 49.8732 111.112 49.8732H110.684V51.4262H109.687V46.5947H111.112ZM104.935 50.4943H106.543V51.4262H103.938V46.5947H106.472V47.5265H104.935V48.5273H106.332V49.4246H104.935V50.4943ZM98.9748 50.5289H99.2697C99.684 50.5289 99.8736 50.3562 99.8736 49.9492C99.8736 49.5419 99.684 49.3624 99.2697 49.3624H98.9748V50.5289ZM97.9708 51.4262V46.5947H98.9748V48.4307H99.354C100.449 48.4307 100.913 49.0656 100.913 49.9492C100.913 50.9637 100.449 51.4262 99.354 51.4262H97.9708ZM93.3239 48.9414C93.7241 48.9414 93.9348 48.6999 93.9348 48.2374C93.9348 47.7681 93.7241 47.5265 93.3239 47.5265H92.9097V48.9414H93.3239ZM93.338 46.5947C94.356 46.5947 94.9599 47.2021 94.9599 48.2374C94.9599 49.2658 94.356 49.8732 93.338 49.8732H92.9097V51.4262H91.9127V46.5947H93.338ZM87.989 46.5947H89.0352L87.8907 50.2459C87.5536 51.3295 87.1675 51.5089 86.2758 51.5089H86.0931V50.6393H86.3108C86.6548 50.6393 86.8023 50.5633 86.9568 50.1079L85.7492 46.5947H86.7953L87.4132 48.5687L87.989 46.5947ZM82.1484 51.4262L81.2568 49.5971L80.9829 50.032V51.4262H80V46.5947H80.9829V48.4445L81.2357 47.9061L81.9239 46.5947H83.0612L81.8114 48.7067L83.2719 51.4262H82.1484Z" fill="#FEFEFE"/>
<g filter="url(#filter0_d)">
<path fill-rule="evenodd" clip-rule="evenodd" d="M10 21.6228L54.1658 10L66 53.3772L21.8342 65L10 21.6228Z" fill="#FEFEFE"/>
</g>
<path fill-rule="evenodd" clip-rule="evenodd" d="M52.0275 38.4457C51.7467 38.6109 51.5848 38.6186 51.5981 39.0478C52.1799 39.451 52.047 39.2997 52.7251 39.1856C53.0621 39.5112 53.3579 39.7121 53.6335 40.1679C53.7201 40.3113 53.7018 40.3144 53.8121 40.4458C53.8785 40.525 53.9326 40.6 54.004 40.7083C54.1329 40.9037 54.2387 41.0852 54.3827 41.2907C54.6423 41.6611 54.8848 41.9786 55.1433 42.3999C55.7821 43.4411 54.9818 43.8781 54.2487 44.7632C53.7654 45.3465 52.8552 46.1598 52.0896 46.3978C51.6195 46.5439 50.8346 46.5631 50.3119 46.5102C50.2675 46.3474 50.4388 45.7882 50.3705 45.3669C50.4185 45.2936 50.3895 45.3356 50.4406 45.2711C50.4889 45.2102 50.4557 45.2559 50.5114 45.1851C51.3247 44.152 51.8905 44.5678 52.8074 43.8275C53.041 43.6387 53.2776 43.4379 53.3116 43.0183C52.6421 43.5834 52.5953 43.5048 51.5859 43.8274C50.8919 44.0493 50.3917 44.3905 50.1729 44.9794C49.9888 44.9 49.8964 44.7984 49.653 44.78C49.7677 45.3686 50.0302 45.7572 49.4325 46.0596C48.8027 45.8046 48.7423 45.0967 47.3767 45.5757C46.2591 45.9677 46.2895 46.1093 45.0785 45.7193C43.7431 45.2892 43.1862 45.1115 41.9193 44.5555C41.6069 44.4185 41.226 44.1382 40.8998 44.2523C41.1493 44.4532 41.5628 44.7362 41.868 44.8979C42.4068 45.1833 43.5713 45.6841 44.2046 45.88C44.4088 45.9433 44.6733 46.0038 44.8396 46.0721C45.7406 46.4427 46.7155 46.5055 47.1212 46.7615C47.1984 46.8101 47.2813 46.8556 47.3892 46.9079C47.7867 47.1008 48.7666 47.603 49.1745 47.5995C49.3871 47.5977 49.5432 47.409 49.6682 47.3002L50.0924 46.8626C51.9868 46.753 52.1969 47.0076 53.9179 45.7796C54.089 45.6576 54.2115 45.5549 54.3691 45.4153C54.5704 45.2372 54.6393 45.2095 54.8067 45.0333C55.4236 44.3849 55.9209 43.8417 55.8153 42.8667C55.7593 42.3492 54.928 41.3225 54.701 40.8114C55.0464 40.5833 55.5221 40.5649 55.9531 40.4588C56.1982 40.3984 56.5941 40.1741 56.7415 40.0574L57.3936 39.5329C57.7951 39.1255 58.2664 38.8351 58.2373 37.9757L56.9484 38.9764C56.7199 39.1663 56.6982 39.1155 56.3747 39.1826C55.6045 39.3424 55.7716 39.5651 55.3889 39.7423C55.003 39.9211 54.7507 40.1617 54.2651 40.1633C54.0906 40.0026 53.9277 39.7197 53.7825 39.5407C53.6081 39.3258 53.4369 39.1335 53.321 38.9011C53.5001 38.7564 53.7396 38.7619 53.7518 38.4119C53.7633 38.0827 53.5955 37.9106 53.3093 37.8681C53.0667 38.0443 53.0979 38.23 53.0275 38.5446C52.8751 38.4055 52.7696 38.1542 52.4305 37.849C52.0704 37.525 51.4405 36.8317 51.2635 36.3809C51.0403 35.8125 51.2198 35.6304 51.1186 35.1758C50.9524 35.3971 50.9138 35.7918 50.9139 36.1095C50.9141 36.4811 51.2111 37.2731 51.3075 37.4176L51.5793 37.7539C51.8261 38.0396 51.8277 38.112 52.0275 38.4457ZM41.345 35.9914C40.775 35.9843 40.3984 36.2284 40.4217 36.7929C40.4385 37.2001 40.6972 37.851 41.1396 37.4936C41.2285 37.7601 41.161 37.7505 41.46 37.8296C41.8766 37.9398 42.4257 37.93 42.8225 37.8455C42.8116 37.5074 42.7349 37.1861 42.6703 36.8635C42.6038 36.5314 42.4665 36.242 42.4059 35.9621C42.5831 35.6225 42.8185 34.9954 42.8376 34.5524C42.4703 34.8563 42.4565 34.6733 41.9038 35.1179C41.3158 33.4638 41.4418 34.3446 41.1013 33.6048C40.7329 32.8043 40.9284 32.3601 40.6308 31.7857C40.0565 30.6773 40.3372 30.7623 39.3982 30.1326C39.2333 30.022 39.2261 29.9517 39.1189 29.8008C38.9209 29.5217 38.6562 29.4997 38.4052 29.2821C38.7172 29.0551 38.9183 28.9375 38.8803 28.4186C38.6564 28.234 38.5784 28.2353 38.2126 28.276C37.6323 28.9594 37.9586 29.0286 38.3475 29.6307C38.4602 29.805 38.5172 29.9655 38.6059 30.1264C39.0631 30.956 39.4847 30.4162 39.7172 31.2067C39.8482 31.6521 40.1661 31.5818 40.3339 32.8054C40.3758 33.1111 40.4976 33.7142 40.67 33.9063L40.9438 34.1427C41.0224 34.2043 40.981 34.1489 41.0154 34.2107C41.0556 34.2827 41.1701 34.6144 41.2003 34.7386C41.2568 34.9712 41.3727 35.7772 41.345 35.9914ZM39.1835 51H39.3559C39.6443 50.8273 39.6078 50.8995 39.6991 50.4951C39.8528 49.8139 39.5387 49.0867 38.6999 48.8496C37.8603 48.6123 37.0366 48.7779 36.3031 48.4626C36.0669 48.361 35.9272 48.2171 35.6887 48.1605C35.6909 48.5583 35.9813 48.5656 36.399 48.9608C37.3316 49.8434 36.0206 50.2683 35.0701 49.3562C35.0013 49.2901 34.9393 49.2142 34.8745 49.1443C33.8991 48.0915 33.6849 47.6021 32.4061 46.9641C31.5186 46.5213 31.5389 46.4098 31.1357 45.9202C30.9964 46.4042 31.2361 46.8597 31.5807 47.0399C32.2717 47.4012 32.4012 47.3944 33.1802 47.9141C33.3694 48.0403 33.4366 48.164 33.6044 48.3098C34.5264 49.1112 34.9493 50.2222 36.2683 50.5539C37.8534 50.9527 38.0808 50.3667 39.1835 51ZM67.9971 29.0407C67.5796 29.0841 67.7254 28.9509 67.3826 29.2541C67.1782 29.4348 66.9896 29.4829 66.6359 29.3897C66.8693 29.8467 67.1112 29.5603 67.4625 29.6184C67.5848 29.6386 67.6761 29.6629 67.814 29.6859C67.6141 30.4292 68.0666 31.0562 67.7665 31.9931C67.0627 32.1232 66.6283 31.8193 66.1022 32.1779C65.7848 31.8679 65.6009 32.3888 66.4791 32.8778C67.4283 33.4064 66.9824 33.516 67.6657 33.638C67.564 33.7893 67.4888 33.8474 67.2918 33.9197C67.1055 33.9881 66.9405 34.0082 66.7341 33.9621C66.2775 33.86 66.1944 33.677 65.9065 33.5027C65.6067 33.3213 65.357 33.2233 65.0726 33.0469C64.7738 32.8616 64.4152 32.7551 64.0914 32.916C64.1619 33.2516 64.2084 32.9191 65.0757 33.4863C65.5563 33.8006 66.4751 34.6101 67.2772 34.2995C67.4413 34.2359 67.5337 34.1056 67.7476 34C68.0052 33.8728 68.1238 33.8703 68.2158 33.6401C68.5408 33.6438 68.7848 33.5959 69.0142 33.45C69.2646 33.2907 69.3229 33.1627 69.4826 32.9059C69.7757 32.877 69.7406 32.9013 69.8656 32.7172C70.2178 32.199 69.8203 31.9267 69.3365 31.7468L69.4101 32.0427C69.071 32.179 69.1078 32.3851 69.0898 32.7781C68.8814 32.9416 68.5855 33.218 68.2806 33.2604C67.7256 33.3376 67.4174 33.3018 67.2747 32.8987C67.7415 32.9567 68.22 32.9885 68.503 32.7345C69.3334 31.9893 68.4543 30.6688 68.0429 29.7662C68.2117 29.7677 68.2905 29.8302 68.4149 29.9128L68.5322 29.9901C68.5445 29.9977 68.5632 30.0086 68.5791 30.0172C68.6753 29.5016 68.55 29.0006 68.3127 28.5394L68.1729 28.3537C68.152 28.6276 68.1287 28.8552 67.9971 29.0407ZM1 33.6582V34.0155C1.25968 34.4233 1.14286 34.309 1.55431 34.5698C1.7554 34.6973 2.0584 34.8831 2.32522 34.9406C2.49838 34.4427 2.66591 33.4947 2.99774 33.0545C3.22846 32.7485 3.38435 32.7474 3.62694 32.7959C3.62349 34.4188 3.04003 34.739 2.86045 35.4232C3.0433 35.5204 3.29704 35.5587 3.51158 35.6031C3.65518 35.6327 3.93327 35.6989 4.06832 35.6563C4.41591 35.5464 4.04305 35.2347 4.41015 34.2102C4.67456 33.4725 5.0531 33.2942 4.95968 33.0935C4.81094 32.7736 4.45002 33.1835 3.9263 32.3275C3.77041 32.0726 3.54612 31.6631 3.17866 31.6931C2.97944 31.7094 3.03882 31.7687 2.87318 31.8597C2.4201 32.1087 1.64562 32.0981 1.47803 32.3373C1.21357 32.7145 1.2927 33.2274 1 33.6582ZM62.2925 26.6101C61.1481 26.0216 61.2314 26.6985 61.0552 27.0406C60.9053 27.3318 60.806 27.2156 60.6818 27.3899C61.0092 27.4947 61.5311 27.0225 61.8628 27.6811C61.9937 27.9411 61.8565 28.3435 62.9745 28.2629C62.9806 28.2742 62.9879 28.2792 62.9897 28.298L63.0565 28.574C63.32 28.5198 63.2596 28.4908 63.4084 28.3284C63.9462 27.7415 64.8411 27.7967 64.041 26.7973C63.9018 26.6234 63.6879 26.3333 63.2977 26.4593C63.1014 26.5846 63.1699 27.3024 63.1581 27.5369L63.0928 28.1897C61.7283 27.9346 62.4242 27.1697 62.5068 27.0086C62.8196 26.398 62.567 25.9928 63.1778 25.4367C63.9519 25.3507 64.0291 25.823 64.3277 26.2855C64.4683 26.5034 64.6523 26.5235 64.7484 26.8764C64.8468 27.2376 64.6932 27.4254 64.7019 27.7095C65.017 27.7324 65.0075 27.5227 65.1977 27.3343C65.79 26.7478 65.7978 26.9517 65.1298 26.5307C65.0176 26.46 65.0049 26.4262 64.8996 26.3504C64.3054 25.9229 64.5712 25.5745 63.9435 25.2215C63.5784 25.0161 62.8949 25.0038 62.6553 25.3301C62.4272 25.6409 62.3636 26.1958 62.2925 26.6101ZM47.0788 37.3278C47.0037 37.6033 47.2046 37.8411 47.3382 37.9932C47.9062 38.6396 47.5441 38.7662 48.5493 39.3231C48.62 39.3623 48.6667 39.3783 48.7177 39.4103C48.7312 39.4188 48.7709 39.444 48.7835 39.4542C48.8611 39.5174 48.8137 39.4789 48.8753 39.552C48.5985 39.5319 48.3361 39.4734 48.0507 39.4687C47.6133 39.4615 47.6567 39.5796 47.3933 39.6618C46.9002 39.8157 46.2982 39.5283 45.9531 39.5245C46.2116 39.7271 46.1176 40.0123 46.9373 39.9913C47.3385 39.981 47.8988 40.0775 48.2757 40.1566C49.5155 40.4166 49.9461 41.0566 50.3885 41.1202C50.8827 40.2716 49.6563 39.4112 48.9684 39.0851C48.7419 38.9778 48.574 38.845 48.3942 38.7311C47.749 38.3222 48.072 37.8958 47.4079 37.4375C47.4066 37.4366 47.2522 37.3392 47.2455 37.3365C47.2317 37.3308 47.1899 37.3159 47.1767 37.3139C47.1247 37.3056 47.0967 37.3223 47.0788 37.3278ZM6.25316 36.2462C6.39687 35.7519 6.75579 33.9156 6.47824 33.5219C6.21523 33.5522 6.1035 33.7598 5.98469 33.9944L5.83353 34.2105C5.76076 33.907 5.83916 33.6551 5.78972 33.4141C5.72465 33.0972 5.45334 33.1941 5.32459 33.4343C5.11751 33.8205 4.99518 34.7346 4.75556 35.4105C4.63669 35.746 4.56053 35.8997 4.72327 36.0076C5.07134 36.238 5.75846 36.2424 6.25316 36.2462ZM32.5862 45.0186C32.4151 45.3513 32.6709 45.5902 32.9259 45.7015C33.3756 45.8977 33.4835 45.6486 33.7793 46.0411C34.1375 46.516 34.2525 47.0659 35.0838 47.0663C35.1905 46.584 34.8108 46.3968 34.6998 46.0258C34.6096 45.7244 35.0858 44.6333 34.3368 44.4485C33.9417 44.3511 34.0385 44.5029 33.4763 44.7076C33.089 44.8486 33.3833 44.8253 32.7515 44.9666L32.5862 45.0186ZM37.5899 37.6309C37.5786 37.6248 37.5625 37.6009 37.5579 37.6099C37.5489 37.6277 37.3681 37.3733 37.1819 37.6422C37.0641 37.8124 37.0346 38.0734 37.1149 38.2621C37.1923 38.4436 37.1697 38.3663 37.3167 38.4662C37.674 38.7091 37.6201 39.1743 37.9617 39.4305C38.2864 39.0167 37.9851 38.5423 38.6759 38.3331C39.2828 38.1493 39.4118 37.8643 39.3947 37.1717C39.6092 37.0779 39.8236 36.8453 39.7604 36.5033C39.5177 36.4183 39.318 36.444 39.1151 36.5843C38.3976 37.0803 38.409 37.2913 37.5899 37.6309ZM39.8688 39.6543C39.5209 39.6044 39.1764 39.6115 38.9698 39.8313C38.7002 40.1182 38.9907 40.3268 38.985 40.5797C38.6993 40.636 38.5327 40.502 38.3469 40.6815C38.2361 40.8058 38.3732 40.9768 38.4278 41.1699C38.4951 41.407 38.4321 41.5391 38.6507 41.6565C39.2239 41.9489 39.3647 41.2542 39.4447 41.1006C39.7189 40.5731 39.77 40.6815 40.4005 40.5594L40.4078 39.9639C41.227 39.5939 40.6372 38.4178 40.1938 38.6195C39.9326 38.8858 39.9085 39.2 39.8688 39.6543ZM9.41872 33.7698C8.78734 33.6074 8.38685 33.778 8.45029 34.4142C8.50433 34.9546 8.48967 35.4694 8.85968 35.7674C9.00442 35.6578 9.10827 35.3392 9.18449 35.1311C9.27779 34.8761 9.32929 34.6193 9.41417 34.3634C9.66991 34.8578 9.82047 34.7917 10.2715 35.0577C10.4961 34.7366 10.7498 34.1738 10.6106 33.7859C10.5336 33.5714 10.4958 33.5545 10.1379 33.5509C9.86609 33.5483 9.53244 33.5798 9.41872 33.7698ZM44.3024 44.4066C44.8015 43.6434 43.6695 42.5667 43.2499 42.4446C42.9456 42.3561 42.9871 42.5109 42.8361 42.5528C42.6657 42.6 42.6951 42.4657 42.4768 42.6729C42.0218 43.1049 42.1217 43.8711 42.7966 43.9465C43.2452 43.9965 43.1871 43.7137 43.5948 44.041C43.7888 44.1968 43.8646 44.4695 44.3024 44.4066ZM59.2683 34.703C58.7125 34.6463 58.4763 34.9847 58.5454 35.5012C58.6217 36.0713 58.7729 36.1364 59.4348 35.9632C59.4277 36.3205 59.3411 36.5663 59.7351 36.6369C60.228 36.0666 59.6267 35.2347 59.7839 34.443C59.8485 34.1176 60.0491 32.992 60.0175 32.677C59.9903 32.4076 59.8898 32.3668 59.6701 32.2934C59.6701 32.9754 59.8061 33.5429 59.5374 34.2113C59.443 34.4461 59.3306 34.5403 59.2683 34.703ZM6.94542 36.263C7.36996 36.3479 7.82018 36.4703 8.12367 36.1731L8.19213 36.0238C8.29876 35.6751 8.2034 35.0707 8.11658 34.7376C7.99007 34.252 7.80497 33.9081 7.30404 33.8158C7.32518 34.8318 7.05497 35.3963 6.94542 36.263ZM54.0564 33.17C54.0402 33.5009 53.8524 33.84 54.2607 34.0028C55.6182 34.5439 55.3018 33.2336 55.2312 33.1131C55.1013 32.8913 54.7304 32.81 54.4043 32.7477C54.2727 32.4974 54.275 32.3759 54.0345 32.2556C53.522 31.9991 52.7562 32.6556 53.6759 33.0764C53.8737 33.167 53.8891 33.1088 54.0564 33.17ZM32.0737 41.3925C32.6539 41.6285 32.8525 41.1329 32.9069 40.5645C32.9443 40.1734 33.4943 39.3092 32.9098 39.2534C32.6689 39.2303 32.7838 39.3223 32.583 39.378C32.4248 39.4218 32.3051 39.3702 32.1618 39.3608C31.463 39.315 31.8486 40.2465 31.9526 40.5751C32.0632 40.9245 32.0257 41.0561 32.0737 41.3925ZM29.8838 33.6638C30.2889 33.824 30.7796 33.988 31.2965 33.6837C32.2212 33.1391 31.3664 32.1287 31.0076 32.1441C30.7628 32.1546 30.6936 32.3881 30.5647 32.5689C30.3169 32.9168 29.8906 33.0668 29.8838 33.6638ZM33.7663 43.8417C34.1312 43.9148 34.1013 43.8088 34.4136 43.8049L34.7565 44.2257C35.024 44.0907 35.1041 43.8139 35.2022 43.4571C35.3223 43.021 35.2765 42.8144 34.9984 42.5841C34.6568 42.5584 34.6065 42.6561 34.2983 42.632C34.002 42.6088 33.8463 42.5537 33.7052 42.7626C33.4813 43.0942 33.4775 43.6271 33.7663 43.8417ZM35.5578 40.1445C35.7687 40.2974 36.0286 40.9173 36.3685 40.7628C36.6552 40.5058 36.6827 39.9373 36.6718 39.4973C35.9118 39.4704 35.9512 38.9976 35.524 39.0048L35.1623 39.1106C34.9185 39.2357 34.8651 39.6226 34.8833 39.8275C34.9233 40.2758 35.1312 40.2087 35.5578 40.1445ZM15.2289 32.5332C15.3122 32.885 15.1445 33.1957 15.3386 33.456C15.7183 33.5222 15.9461 33.3337 16.0697 33.1083C16.4288 32.4538 16.0279 32.2127 15.8239 32.0375C15.552 31.804 15.6656 31.2426 14.9724 31.2231C14.6517 31.5269 14.4707 32.0152 14.8284 32.3667C15.0219 32.5569 14.9915 32.4341 15.2289 32.5332ZM13.8663 33.2542C14.1436 33.5014 13.9266 34.0342 13.7654 34.3267C14.8216 34.3329 15.0568 33.5034 14.6728 33.0014C14.5433 32.8322 14.332 32.8033 14.0641 32.7289C13.9222 32.4844 13.9187 32.3789 13.5861 32.3336C12.5519 32.1927 12.8541 32.9806 13.0595 33.1152C13.3066 33.2771 13.5653 33.0715 13.8663 33.2542ZM34.4305 25.3315C34.2343 25.4104 34.1302 25.4515 34.0701 25.7748C34.0331 25.9738 33.94 26.2154 33.9435 26.4049C33.9482 26.6552 34.0562 26.7947 34.2685 26.8769C34.3928 26.925 34.822 27.0606 34.9253 27.0434C35.2752 26.9849 35.4056 26.3488 35.3561 25.9223C35.3127 25.5474 34.8863 25.1482 34.4305 25.3315ZM18.7206 29.3983C18.9542 29.6498 19.1663 29.4558 19.4217 29.7996C19.5911 30.0276 19.4342 30.2172 19.3395 30.5404C19.0449 31.5468 18.654 31.0398 18.7888 32.0091C18.9974 31.8848 19.067 31.6954 19.268 31.5517C20.4998 30.6718 20.1778 31.192 20.1125 29.644C19.6935 29.4595 19.2229 29.0893 18.8788 29.1033C18.7934 29.22 18.7651 29.2238 18.7206 29.3983ZM54.9178 28.923C54.927 29.1575 55.062 29.1619 55.1844 29.3839C55.2548 29.5116 55.3072 30.1511 56.1566 29.9191C56.2613 29.8906 56.3876 29.8173 56.4579 29.8006C56.7795 29.7239 56.8657 29.9553 57.2614 29.4679C57.396 29.302 57.3968 29.1747 57.3523 28.9404C56.9759 28.8042 56.6945 29.0026 56.1759 28.9884C55.9549 28.9824 54.997 28.8214 54.9178 28.923ZM11.6394 35.1588L11.9377 35.2083C11.9624 35.1635 12.3317 35.0308 12.4234 34.1998C12.4534 33.9278 12.3963 33.4094 12.2463 33.1852C12.1697 33.0708 12.129 33.0503 12.0461 32.9896C11.2549 33.0005 11.1948 33.1239 11.3565 33.8057L11.6394 35.1588ZM48.8038 42.523C49.0632 42.6801 49.5334 42.6669 49.9008 42.7276C50.3568 42.8029 50.5058 43.0738 50.9055 43.0046C51.0324 42.6829 50.7688 42.2813 50.5451 42.0867C50.3001 41.8733 50.082 41.489 49.8574 41.3652C49.3362 41.5357 49.3927 41.9228 48.9982 42.1742C48.8367 42.2773 48.7715 42.2698 48.8038 42.523ZM42.5344 42.2319C42.7427 41.8806 42.3727 41.3771 42.2124 41.0537C42.0622 40.7508 41.7506 40.2325 41.3604 40.1714C41.0017 40.6 40.9773 41.1232 41.3873 41.57C41.7602 41.9763 41.463 41.494 41.7894 42.1301C41.9404 42.4243 42.2412 42.418 42.5344 42.2319ZM30.9998 37.2716C31.0346 37.4827 31.0613 37.4249 31.181 37.5785C31.1287 37.74 31.0615 37.8321 31.0685 38.0279C31.532 38.5152 32.0316 38.015 32.5151 37.8959C32.9498 37.7887 33.0553 38.0384 33.3629 37.8421C33.5685 37.7109 33.7816 37.4907 33.702 37.1976C33.433 37.0685 33.3583 37.1722 33.0971 37.2551C32.0451 37.5887 31.5052 37.0576 30.9998 37.2716ZM30.9612 29.0387C30.3808 29.1321 29.7968 29.7638 30.2943 30.2996C30.6741 30.7084 31.0687 30.8138 31.4149 30.314C31.515 30.1695 31.5458 30.0382 31.5651 29.875C31.617 29.4364 31.5546 28.9433 30.9612 29.0387ZM17.5159 32.2849C17.9785 32.2407 18.1207 31.7032 18.0351 31.2248C17.5509 31.143 17.3916 31.4904 17.1028 31.1521C16.8981 30.9124 16.7321 30.779 16.4007 30.6083C15.2847 30.9441 16.4325 31.4227 16.4658 31.4452C16.9443 31.7693 17.1808 32.1424 17.5159 32.2849ZM48.9726 32.5119C49.3584 32.4911 50.1812 31.6221 49.7954 31.0695C49.7251 30.9687 49.3684 30.8387 49.1925 30.7978C48.6766 30.6778 48.2657 31.1336 48.3958 31.5312C48.4802 31.789 48.7209 31.7636 48.8908 31.8633C49.1274 32.0024 48.8966 32.2283 48.9726 32.5119ZM33.0759 33.5593C33.7215 33.6377 34.0205 33.3339 33.9624 32.7388C33.9088 32.1894 33.58 31.9613 32.9511 31.9439C32.8185 32.2302 32.6153 32.3046 32.6774 32.7675C32.7174 33.0659 32.8818 33.3909 33.0759 33.5593ZM33.3419 35.3118C33.0165 35.4209 32.4105 35.5679 32.2201 35.761C32.0989 35.8841 32.0808 36.08 32.1582 36.2665C32.3237 36.6651 32.9437 36.6131 33.3204 36.4842C33.5599 36.4024 33.9829 35.9167 33.8552 35.5358C33.8045 35.3846 33.5524 35.2412 33.3419 35.3118ZM44.0658 26.4905C43.324 26.7645 44.0856 28.3019 44.8993 27.7144C45.0637 27.5957 45.4435 27.0624 45.1941 26.7449C45.0542 26.5667 44.3791 26.3747 44.0658 26.4905ZM49.9269 33.0982C50.1215 33.075 50.1584 32.9776 50.3044 33.0068C50.4403 33.034 50.5199 33.1343 50.6958 33.1794C51.1533 33.2967 51.2352 33.0276 51.441 32.904C51.4806 32.5351 51.4054 32.585 51.2948 32.3298L50.6685 32.2758C50.674 32.0424 50.7149 31.8248 50.4044 31.8613C49.897 31.9209 49.3902 32.81 49.9269 33.0982ZM33.8698 39.7784C33.7701 40.0277 33.5283 40.5607 33.5124 40.8631C33.4873 41.3437 33.7635 41.6728 34.291 41.4434C34.6537 41.2856 34.7808 40.9063 34.6751 40.4639C34.5837 40.0816 34.3373 39.7727 33.8698 39.7784ZM59.355 30.069C59.0475 30.184 58.8809 30.2429 58.8993 30.6212C58.9279 31.205 58.9707 30.6459 58.9319 31.5579C59.1852 31.649 59.4453 31.6083 59.6256 31.4524C59.8076 31.2951 59.8416 31.1154 59.9264 30.8462C60.0354 30.5002 59.9905 29.6613 59.4516 29.635C59.3339 29.8447 59.2966 29.7993 59.355 30.069ZM32.4918 28.1575C32.1495 28.2469 31.7443 28.1919 31.9556 28.9233C32.0508 29.2531 31.7086 30.0254 32.502 29.7046C33.0951 29.4647 33.4306 27.9122 32.4918 28.1575ZM22.656 28.8628C22.4138 29.1327 22.1973 29.3952 22.4156 29.8728C22.8321 30.0022 23.0395 29.7876 23.2946 29.6394C23.7626 29.3677 23.9058 29.5808 24.067 29.1809C24.1884 28.8799 24.11 28.4734 23.6891 28.6132C23.2462 28.7603 23.5453 28.8497 22.656 28.8628ZM36.7553 36.816C36.9268 36.185 36.3642 35.3963 35.8374 35.2764C35.4818 35.6145 35.2905 36.0708 35.7082 36.5224C35.9854 36.8221 36.2179 37.0593 36.7553 36.816ZM60.4326 34.3641C60.0119 34.6806 60.0582 35.0024 60.4295 35.2122C60.436 35.5346 60.3564 35.777 60.5526 35.9873C60.9304 35.9743 61.4381 35.4119 61.3126 34.947C61.2701 34.7892 61.063 34.6482 60.9571 34.3933C60.8433 34.1193 60.7611 33.9764 60.4099 33.948L60.4326 34.3641ZM46.4382 29.117C46.0037 29.3147 46.0218 29.9182 46.104 30.129C46.2519 30.5084 47.1631 30.3929 47.164 30.3926C47.4935 30.2992 47.5706 29.8122 47.332 29.4757C47.1906 29.2762 47.1126 29.3533 46.8917 29.2488C46.738 29.176 46.6564 29.0177 46.4382 29.117ZM53.6201 29.9343C53.529 30.1726 53.5012 30.269 53.5727 30.4894C53.6885 30.8465 53.4596 30.6386 53.5208 31.0093C53.5726 31.3232 54.0832 31.6099 54.4917 31.3706C54.7309 31.2305 54.9002 30.7401 54.6857 30.3816C54.5017 30.074 54.4373 30.2293 54.163 30.1849C53.8868 30.1403 54.0385 29.942 53.6201 29.9343ZM35.4275 37.1304C34.893 37.0353 34.8521 37.3307 34.4279 37.5497C34.192 37.6713 33.9139 38.2281 34.1942 38.4577C34.672 38.8493 35.885 38.1168 35.4275 37.1304ZM40.0748 35.324C39.8669 35.1815 39.4444 34.8666 39.0549 35.0574C38.7886 35.1877 38.6688 35.6832 38.7786 36.0414C38.9947 36.7473 40.2559 36.2391 40.0748 35.324ZM36.7951 29.8392C36.7951 29.388 36.8104 29.0091 36.2663 29.024C36.1702 29.1166 36.1502 29.1762 36.0066 29.2607C35.8653 29.344 35.7911 29.3867 35.7116 29.4778C35.5608 29.651 35.4343 29.988 35.5358 30.2638C35.6535 30.5837 35.9859 30.4512 36.2738 30.3967C36.6864 30.3187 36.7951 30.2773 36.7951 29.8392ZM38.1264 32.7615C37.2017 32.9776 37.286 34.1246 38.1749 34.1021C38.9461 34.0825 39.0768 32.5393 38.1264 32.7615ZM32.5661 26.495L32.637 26.7969C33.0778 26.827 33.2983 26.6156 33.3752 26.2548C33.4474 25.9158 33.5672 25.4521 33.0261 25.4474C32.0919 25.4392 31.475 26.4166 32.5661 26.495ZM16.7544 30.3779C16.9318 30.5526 17.3245 30.5463 17.5698 30.57L18.3149 30.6619C18.5951 30.6639 18.9907 29.8857 17.925 29.6072C17.522 29.5019 17.2493 29.8479 16.9829 30.0819C16.8214 30.2236 16.7998 30.1627 16.7544 30.3779ZM47.3104 31.8901C46.8461 31.8449 46.702 32.0398 46.7478 32.4699C46.7874 32.8403 46.981 33.0014 47.3707 32.9303C47.7971 32.8526 47.9982 32.8863 48.0814 32.4691C48.2399 31.6741 47.442 31.3665 47.3104 31.8901ZM32.5695 31.6817C32.7883 31.2 32.7856 31.4218 32.9294 30.6828C33.0396 30.1167 33.0038 29.9541 32.356 30.1067C31.5066 30.3068 31.9363 30.9757 32.0666 31.4061C32.1528 31.6913 32.2308 31.6486 32.5695 31.6817ZM37.1248 36.3049C37.1935 36.3644 37.5576 36.5952 37.6953 36.6161C38.7577 36.7775 38.2713 35.1026 37.8024 35.0983C37.4432 35.2186 37.0478 35.8192 37.1248 36.3049ZM19.63 28.9574C19.8567 29.2069 20.3493 29.5124 20.8554 29.4277C21.0842 29.1477 21.1116 28.3599 20.8084 28.0875C20.5289 28.1142 20.2663 28.2739 20.0865 28.3888C19.8185 28.56 19.6334 28.5359 19.63 28.9574ZM54.9468 39.1413C55.823 39.2683 56.1802 38.3165 55.9564 37.9285C55.9097 37.8477 55.5927 37.6276 55.4866 37.5805C55.1601 37.7263 54.8688 38.3103 54.8049 38.66C54.7564 38.9253 54.8448 39.0113 54.9468 39.1413ZM40.3429 42.0489C39.8009 41.9752 39.6336 42.0332 39.4582 42.4369C39.3257 42.7418 39.2284 43.271 39.6623 43.3231C40.3437 43.405 41.0743 42.7073 40.3429 42.0489ZM26.4894 30.9165L27.8145 31.0924C28.6641 30.4379 27.0314 29.7517 26.6286 30.1124C26.4381 30.283 26.4031 30.6315 26.4894 30.9165ZM46.7804 43.7985C46.8319 44.0334 46.8464 44.1887 46.9722 44.4025C47.1583 44.7185 47.1638 44.578 47.526 44.7262C47.8101 44.8426 48.4507 45.3341 48.7743 45.0046C49.2768 44.4931 48.3805 44.4396 48.0364 44.3036C47.8679 44.237 47.334 43.8798 46.7804 43.7985ZM33.7876 30.3676C33.6552 30.3986 33.6356 30.3113 33.433 30.6581C33.3371 30.8221 33.2982 31.0014 33.337 31.2108C33.4698 31.9274 34.7245 31.5316 34.6478 30.6802C34.6102 30.2643 34.0523 30.3057 33.7876 30.3676ZM37.4114 29.8911C36.6327 30.1836 37.1485 31.5777 37.8974 31.1003C38.0628 30.9949 38.0951 30.9889 38.2053 30.8009C38.5572 30.1997 37.8464 29.7277 37.4114 29.8911ZM25.8505 27.9145C26.2425 27.9402 27.125 27.7165 27.1414 27.1938C27.1559 26.7316 26.6889 26.7274 26.2252 26.7732C25.8655 26.8088 25.7246 27.2475 25.6793 27.5249C25.6464 27.727 25.7292 27.7991 25.8505 27.9145ZM51.0995 37.7255C51.0818 37.2477 50.2526 36.4649 49.6452 37.5787C49.43 37.9734 49.6269 38.3479 50.1571 38.1969C50.1713 38.1929 50.9991 37.8507 51.0995 37.7255ZM62.1319 31.2018C61.8739 31.3233 61.6302 32.0567 61.97 32.3796C62.1603 32.5604 62.1735 32.9083 62.5693 32.7007C63.3311 32.3012 62.6044 30.9794 62.1319 31.2018ZM34.0202 28.7492C33.355 29.0499 33.3074 30.0236 34.2991 30.0348C34.7887 30.0402 34.7256 29.6235 34.6987 29.2533C34.6711 28.8727 34.4619 28.5497 34.0202 28.7492ZM34.9321 42.271C35.0926 42.2963 35.2818 42.2709 35.4142 42.3307C35.5812 42.4062 35.5288 42.4669 35.7843 42.4752C36.1897 42.1657 36.0829 41.3504 35.5632 41.2063C34.7561 40.9828 34.6027 41.9072 34.9321 42.271ZM51.3319 39.8689C51.5647 39.4893 51.349 39.204 51.1019 38.9777C50.8841 38.7784 50.3716 38.6153 50.0834 38.864C49.7761 39.1291 50.0191 39.5929 50.2571 39.7121C50.5171 39.8423 50.6084 39.712 50.7957 39.7561C50.8869 39.7776 50.8754 39.8149 50.9985 39.8569C51.1591 39.9115 51.1768 39.8935 51.3319 39.8689ZM52.0003 28.6635C51.7078 28.358 49.9277 27.9542 50.3285 28.9189C50.408 29.11 50.5085 29.079 50.7399 29.173C50.9369 29.253 50.9774 29.3693 51.2912 29.3162C51.5465 29.2731 51.9076 28.904 52.0003 28.6635ZM28.9428 34.1412C28.8573 34.1708 28.3179 34.1762 28.2849 34.7377C28.2574 35.2059 28.5854 35.2563 29.0429 35.2492C29.7454 35.2383 29.9408 33.7967 28.9428 34.1412ZM55.5808 31.2367C53.8253 31.687 55.9385 33.501 56.0924 31.9476C56.1282 31.5856 55.9938 31.1308 55.5808 31.2367ZM45.9435 27.3058C45.8917 27.4957 45.9483 27.9264 46.0423 28.0687C46.0546 28.0873 47.0198 28.7593 47.2634 28.093C47.427 27.6458 47.178 27.5638 47.1487 27.3983C46.8349 27.357 46.1921 27.2012 45.9435 27.3058ZM58.668 28.1114C58.4189 28.2737 58.0439 28.5276 58.0826 28.9777C58.5474 29.3129 58.3328 29.5351 58.7791 29.7499C58.7874 29.7397 58.8006 29.7119 58.8036 29.7192C58.8065 29.7264 58.8225 29.6958 58.8262 29.6884C58.8342 29.6722 58.8638 29.6002 58.8703 29.5805L59.0647 28.9289C59.1833 28.5167 59.2406 28.3219 59.0696 27.9658L58.5866 27.9243L58.668 28.1114ZM30.6911 35.5212C30.4004 36.2376 31.2033 36.3405 31.4537 35.9369C31.5303 35.8136 31.5406 35.739 31.5415 35.5801L31.5432 35.2341C31.5032 34.9935 31.3439 34.8115 31.1757 34.6398C30.8724 34.503 30.1871 35.0425 30.6911 35.5212ZM27.2372 29.6531C27.5062 29.7178 27.7219 29.4226 27.8693 29.299C27.9836 29.2033 28.0726 29.1326 28.1691 29.0291C28.5569 28.613 27.9994 28.5543 27.9989 28.5541C27.9026 28.5196 27.8463 28.4705 27.7713 28.4141C27.5985 28.2841 27.5205 28.2128 27.2117 28.2186C27.1091 28.3488 26.8857 28.6121 26.9657 28.903C27.0262 29.123 27.1239 28.9867 27.1673 29.2125C27.1806 29.2823 27.1627 29.3816 27.1681 29.4487L27.2372 29.6531ZM25.1186 29.251C25.2039 29.2663 25.6082 29.4133 25.7561 29.4314C26.0162 29.4634 26.1902 29.3091 26.2678 29.1168C26.353 28.9061 26.3198 28.5964 26.2037 28.4388C26.1345 28.3449 26.0687 28.3372 25.9648 28.2683C25.8283 28.1778 25.868 28.1549 25.6943 28.0729C25.3429 28.1665 25.0354 28.7795 25.1186 29.251ZM34.5152 32.9738C34.7044 33.1022 34.525 33.1145 34.8724 33.1879C35.0491 33.2251 35.2398 33.2973 35.4374 33.2372C36.0404 33.0537 35.6847 32.1058 35.4827 32.0268C35.3293 31.9667 35.0973 32.0642 34.9747 32.1301C34.6901 32.2828 34.4899 32.5661 34.5152 32.9738ZM40.1406 26.2497C40.3272 25.9655 39.8002 25.6573 39.6585 25.5297C39.2892 25.1973 39.1374 25.2065 38.8112 25.5273C38.2721 26.0573 39.11 26.3679 39.6084 26.4116C39.7089 26.4203 39.8214 26.423 39.9206 26.4042C40.1386 26.3629 40.0754 26.3617 40.1406 26.2497ZM56.4152 34.7507C55.7846 34.8868 56.288 35.5183 56.708 35.3713C56.9179 35.2448 56.9968 35.0535 57.1218 34.8254C57.2224 34.6417 57.4267 34.3487 57.2883 34.103C57.1781 33.9074 56.7376 33.78 56.5309 33.9833C56.3178 34.1927 56.3562 34.4752 56.4152 34.7507ZM45.289 28.2702C44.9019 29.0007 44.8169 28.4186 44.6016 28.9082C44.3968 29.3738 44.6461 29.5704 45.0967 29.6107C45.528 29.6493 45.6788 29.3212 45.7641 29.0126C45.8817 28.5872 45.7154 28.3082 45.289 28.2702ZM26.8617 32.5332C27.0063 32.8292 27.3725 33.0356 27.592 33.4315C27.5922 33.4319 27.7425 34.1545 28.3021 33.7642C28.4453 33.6643 28.5225 33.5422 28.5074 33.2984C27.7497 32.751 27.2608 31.9611 26.8617 32.5332ZM29.6361 27.6225C29.3674 27.7137 29.1245 27.9711 29.0496 28.2331C28.9013 28.7512 29.2392 28.8101 29.7335 28.7787C30.4558 28.7328 30.498 27.3297 29.6361 27.6225ZM51.9503 41.0405C52.6489 41.4196 53.4309 40.5768 53.1978 40.1336C52.9915 39.7413 51.7543 39.9277 51.9503 41.0405ZM29.9821 30.8439C28.8235 31.1376 29.3862 31.9677 30.0746 31.8668C30.8964 31.7464 31.0357 30.5768 29.9821 30.8439ZM50.353 35.2273C49.5101 35.1363 49.3204 36.4547 49.9141 36.5559C50.3072 36.623 50.6086 36.4093 50.6478 36.1044C50.6915 35.7656 50.5355 35.4468 50.353 35.2273ZM44.347 33.2532C44.1007 33.1986 43.502 33.2 43.2651 33.3068C42.7754 33.5275 43.1796 34.8176 44.0336 34.068C44.27 33.8604 44.4904 33.6664 44.347 33.2532ZM46.0379 33.317C45.9213 33.5015 45.7527 33.6353 45.8441 33.9344C46.4801 34.2226 47.0681 33.7233 46.9623 33.1609C46.9198 33.0512 46.4383 32.6221 46.0045 32.7499C45.9197 33.0093 45.9924 33.0839 46.0379 33.317ZM31.9607 42.9706C32.1661 42.9424 32.2091 42.8391 32.3324 42.7232C32.6968 42.6997 33.1203 43.0644 33.2699 42.8597C33.4571 42.6037 33.1807 42.1568 32.9501 42.0543C32.5343 41.8695 31.3426 42.1305 31.9607 42.9706ZM52.2787 30.6011C52.0854 30.6287 52.0141 30.6563 51.9696 30.8202C51.7883 31.4856 52.7188 31.6052 52.7251 31.6033C52.968 31.5294 53.306 30.3019 52.6817 30.2701C52.3539 30.2534 52.3005 30.3302 52.2787 30.6011ZM47.0851 41.2523C47.1188 41.3675 47.4464 41.9835 47.9053 41.9411C48.1162 41.6305 48.3177 40.8282 48.0638 40.4697C47.7175 40.4276 47.6123 40.5969 47.5119 40.8018C47.3528 41.126 47.2308 40.9153 47.0851 41.2523ZM43.0429 27.9839C42.832 28.1794 42.6149 28.3241 42.5232 28.6612C42.3802 29.1864 42.821 29.0742 43.204 29.0344C43.5382 28.9998 43.9447 28.9205 43.815 28.5069C43.7311 28.2393 43.341 28.0504 43.0429 27.9839ZM34.306 33.625C33.9524 34.0063 34.078 35.0967 34.9739 34.5761C35.1645 34.4654 35.3885 34.1689 35.2558 33.8537C35.1322 33.5598 34.6531 33.5696 34.306 33.625ZM66.1032 28.241C66.2647 28.2113 66.3425 28.1579 66.5034 28.1313C66.9155 28.0631 67.335 28.174 67.3826 27.6349C67.3025 27.5688 66.321 27.0581 66.005 26.9999C66.1057 27.5783 66.0091 27.5491 66.1032 28.241ZM47.4749 36.6968L47.7798 36.8183C48.1409 36.4849 48.6937 36.1607 48.7108 35.8647C48.7212 35.684 48.6331 35.4948 48.5192 35.4304C48.1189 35.2041 47.3592 36.1541 47.4749 36.6968ZM53.257 28.601C52.6355 28.8103 52.9028 29.1769 52.9982 29.2435C53.5958 29.6603 54.6464 29.3979 54.2189 28.7571C54.1265 28.6187 54.0642 28.5877 53.8418 28.5629C53.6047 28.5366 53.4572 28.5336 53.257 28.601ZM45.0821 43.4732C44.4747 44.0644 45.2687 44.8854 45.7638 44.6289C46.4361 44.2807 45.7091 43.4036 45.0821 43.4732ZM43.9014 35.3492C44.2447 35.5459 44.4272 35.5812 44.736 35.3526C45.3427 34.9035 44.8252 33.8908 44.2277 34.4428C43.931 34.717 43.856 34.8885 43.9014 35.3492ZM36.7446 33.4218C36.2853 33.3557 36.0263 33.3676 35.8798 33.6968C35.7437 34.0024 35.9018 34.3557 36.097 34.4987C36.7947 35.0098 37.051 33.8145 36.7446 33.4218ZM29.093 32.6278C29.4985 32.0534 28.76 31.0961 28.1946 31.4581C27.9515 31.6138 28.0128 32.0559 28.246 32.237C28.5003 32.4347 28.7209 32.5588 29.093 32.6278ZM29.3054 35.4275C29.0323 35.5118 28.657 35.6226 28.7571 35.9806C28.8247 36.2223 29.2162 36.4718 29.4346 36.5251C30.2035 36.7129 30.2658 35.7834 29.3054 35.4275ZM40.2444 34.6789C40.5535 34.2906 40.2824 34.0015 40.1663 33.7797C40.1153 33.6823 40.1151 33.6046 40.0634 33.4861C39.7919 33.4216 39.6686 33.4873 39.5246 33.6321C39.4169 33.7403 39.2542 33.955 39.2851 34.1462C39.3255 34.3962 39.6497 34.8007 40.2444 34.6789ZM20.7548 30.8121C21.4013 30.7481 22.0202 29.8332 21.8726 29.5753C21.7945 29.4389 21.1678 29.1953 20.9565 29.6827C20.7569 30.143 20.9483 30.4522 20.7548 30.8121ZM24.6852 28.2725C24.8769 28.1455 25.0411 27.8577 25.1564 27.6838C25.2811 27.4959 25.541 26.9945 25.3314 26.8318C24.6166 26.5877 23.9209 27.8907 24.6852 28.2725ZM32.2823 34.6395C32.4379 34.7472 33.316 35.0322 33.5118 34.6509C33.7721 34.1443 33.2376 33.8408 32.6562 33.9598C32.2965 34.0334 32.2097 34.2492 32.2823 34.6395ZM32.0699 44.0082C31.6243 43.9411 31.5869 44.2769 31.3876 44.5439C31.2324 44.7518 31.0694 45.2996 31.4006 45.397C31.9861 45.5692 32.4261 44.4318 32.0699 44.0082ZM23.9416 27.041C23.6034 27.017 23.2099 27.0765 23.0109 27.3134C22.3588 28.0895 23.2993 29.3427 23.9416 27.041ZM21.7617 28.9423C22.096 28.898 22.1892 28.6347 22.2585 28.3433C22.3769 27.8454 22.3777 27.6577 21.7679 27.735C21.3616 27.7865 21.0938 27.8139 21.3114 28.2479C21.4725 28.569 21.5256 28.7377 21.7617 28.9423ZM28.0226 26.4494C27.8959 26.7646 27.8112 27.3508 27.7628 27.7324C28.3442 27.7722 28.4772 27.455 28.6902 27.0679C28.7837 26.898 28.9499 26.6398 28.7061 26.5224C28.538 26.4416 28.1946 26.4186 28.0226 26.4494ZM29.1769 29.3242C28.6997 29.3528 27.9746 30.0163 28.5672 30.5213C29.0781 30.9569 29.6617 29.7457 29.1769 29.3242ZM54.1231 36.3019C53.4792 36.5622 53.7861 37.781 54.4399 37.4455C54.9868 37.1649 54.6879 36.0736 54.1231 36.3019ZM50.1308 30.9725C50.6425 31.4003 51.5466 30.902 51.3864 30.4379C51.316 30.2342 50.7815 30.2006 50.5132 30.2512C50.1815 30.3137 50.0898 30.648 50.1308 30.9725ZM40.6531 28.6159C40.6624 28.6256 40.6766 28.6277 40.6814 28.6448C40.6861 28.6615 40.7033 28.6671 40.7098 28.6723C40.9281 28.8482 41.218 28.9845 41.5291 28.962C41.7571 28.6013 41.9708 27.8965 41.5201 27.8907C41.5093 27.8905 40.8742 28.0411 40.8573 28.0518C40.729 28.1329 40.6064 28.4379 40.6531 28.6159ZM43.9524 37.29C43.7994 37.4235 43.6527 37.7502 43.5584 37.9917C43.2861 38.6898 44.2636 38.413 44.4381 38.2168C44.5293 38.1143 44.5809 38.0038 44.58 37.8257C44.5781 37.4387 44.3816 37.2434 43.9524 37.29ZM36.4855 26.1577C36.8372 25.813 36.9091 25.5081 36.8755 25.0333C35.4652 24.7791 35.6623 26.0604 36.4855 26.1577ZM47.9323 27.8876C47.801 28.0352 47.7866 27.9519 47.6737 28.163C47.5944 28.3112 47.5859 28.444 47.6294 28.5661C47.7423 28.8833 48.0255 28.8998 48.3685 28.7616C49.2152 28.4205 48.8203 27.8176 47.9323 27.8876ZM60.6723 32.1938C61.2311 32.2499 61.4438 31.8744 61.4332 31.3991C61.211 31.2144 61.2737 31.3146 61.0266 31.1979C60.8211 31.101 60.9864 31.0322 60.5847 31.0411C60.1637 31.418 60.4777 31.871 60.6723 32.1938ZM62.8736 33.2111C62.6399 33.1933 62.1343 33.3362 62.027 33.5211C61.9452 33.6622 61.8025 34.3374 61.9206 34.436C62.1857 34.6572 62.5568 34.2288 62.6274 34.1216C62.8244 33.8229 62.9008 33.6329 62.8736 33.2111ZM55.9606 30.3728C55.7229 30.7582 56.2663 31.4999 56.7711 31.349C57.2297 31.0387 56.9492 30.7411 56.7573 30.3803C56.4967 30.3664 56.1509 30.3107 55.9606 30.3728ZM44.7654 36.6558C45.1266 36.8529 45.5371 37.0886 45.7886 36.6165C45.9078 36.3926 45.8894 36.2659 45.7525 36.0769C45.5968 35.8618 45.5683 35.7394 45.3287 35.6721C45.1819 35.828 45.1604 35.8872 45.031 36.1157C44.9169 36.3173 44.774 36.3922 44.7654 36.6558ZM43.0589 37.0605C43.2767 37.0563 43.6175 37.1502 43.9404 36.8235C44.1947 36.5662 44.116 36.2857 43.9751 36.0017C43.6088 35.953 43.4255 35.9758 43.2689 36.2536C43.146 36.4714 43.0391 36.7742 43.0589 37.0605ZM38.8235 32.2871C39.0084 31.8997 38.7351 31.4267 38.5651 31.2496C38.2669 31.1138 37.5567 31.5376 37.8261 31.9233L38.5421 32.297C38.7916 32.3572 38.7969 32.2989 38.8235 32.2871ZM45.2369 31.6911C44.4258 31.6273 44.2341 32.7936 44.8183 32.7945C45.2082 32.7952 45.8497 32.4713 45.2369 31.6911ZM36.2243 26.4103C35.5662 26.7734 35.6444 27.4165 36.3692 27.4296C37.0572 27.442 36.8611 26.0589 36.2243 26.4103ZM33.3743 28.3183L33.6214 28.317C33.8179 28.1294 33.9584 28.0597 33.9613 27.6849C33.9636 27.3789 33.7857 27.1953 33.4917 27.1675C33.1449 27.1347 32.6647 27.704 33.3743 28.3183ZM60.3792 29.0592C60.4191 28.7452 60.3796 27.6969 60.2681 27.4494C60.0649 27.4937 60.2374 27.502 60.083 27.6201C60.018 27.6697 59.8678 27.6885 59.7923 27.7364C59.6709 27.8133 59.5148 28.0462 59.5763 28.2638C59.5763 28.2641 60.0572 28.9989 60.3792 29.0592ZM37.4838 26.5972C37.7213 26.5408 37.9718 26.2598 38.1254 26.1161C38.2092 26.0378 38.3436 25.9585 38.3223 25.7788C38.3043 25.6262 38.1675 25.5569 38.0093 25.5362C37.2767 25.4403 36.7762 26.3139 37.4838 26.5972ZM30.2985 26.9068C31.0834 27.0853 31.52 26.2271 31.1305 25.855C30.5793 25.7864 30.0354 26.3576 30.2985 26.9068ZM53.142 36.011C52.94 35.7073 52.9182 35.8533 52.6708 35.7173C52.5045 35.626 52.7649 35.6963 52.5127 35.6261C51.9656 35.9448 52.0529 37.2282 52.772 36.6888C52.9844 36.5295 53.1542 36.318 53.142 36.011ZM57.5239 31.5336C57.6257 31.6095 58.0806 31.5387 58.2174 31.5149C58.5438 31.458 58.4972 31.2844 58.4636 30.9458C58.2983 30.8356 57.8087 30.5071 57.5858 30.5985C57.3512 30.6946 57.4476 31.4616 57.5239 31.5336ZM50.7259 43.7505L50.7046 43.5445C50.3858 43.2938 50.1229 43.446 49.7741 43.486C49.7719 43.3197 49.7712 43.3366 49.6981 43.2552C49.3114 43.4684 49.1137 43.8758 49.623 44.1175C49.8843 44.2415 49.9455 44.1674 50.1718 44.042L50.593 43.8432C50.721 43.7785 50.6532 43.8174 50.7259 43.7505ZM35.3168 30.7209C34.5744 31.1433 35.2448 31.7888 35.8198 31.6357C36.5492 31.4416 35.7455 30.4768 35.3168 30.7209ZM44.7838 39.0743C45.5754 39.2226 46.2383 38.4653 45.778 38.205C45.4418 38.0149 45.2005 38.2188 45.0273 38.3653C44.7817 38.573 44.607 38.75 44.7838 39.0743ZM45.621 37.82C46.1934 38.1673 47.0159 37.2781 46.2993 36.6976C45.8879 36.6975 45.9671 36.8597 45.8358 37.1506C45.7058 37.4384 45.4959 37.3479 45.621 37.82ZM55.4354 37.1959C56.1519 37.8221 56.8196 36.767 56.239 36.4946L55.9114 36.3471C55.5762 36.4656 55.3603 36.7358 55.4354 37.1959ZM41.2542 31.2611C40.7732 31.6648 41.1765 32.5351 41.7573 32.1714C42.0777 31.9707 42.4323 31.204 41.2542 31.2611ZM57.6695 36.6981C57.5813 37.4433 58.4873 37.762 58.7295 37.4342C58.8941 37.2115 58.7738 36.8345 58.5828 36.7352C58.4821 36.6828 57.7551 36.6232 57.6695 36.6981ZM46.4658 31.0721C46.2171 31.0619 45.9594 30.981 45.746 31.5792C45.6301 31.9041 45.6436 32.223 46.086 32.1403C46.578 32.0482 46.8743 31.6152 46.4658 31.0721ZM48.3272 32.962C47.7403 33.1432 48.1177 34.3006 48.7739 33.9886C48.9743 33.8933 49.0526 33.5105 48.9298 33.29C48.8294 33.1097 48.5549 32.8917 48.3272 32.962ZM46.3806 35.9718C46.7418 36.0228 46.8926 35.9618 47.1443 35.7812C47.1622 35.4269 47.1053 35.1645 46.9957 34.8839C46.5989 34.8751 46.4817 34.9351 46.3436 35.2177C46.1976 35.5167 46.2268 35.7081 46.3806 35.9718ZM37.1778 31.6941C36.2997 31.6443 36.0288 32.5024 36.4118 32.6879C36.9167 32.9324 37.4765 32.2995 37.1778 31.6941ZM41.9407 27.4946C42.5799 27.7506 43.4853 27.3694 43.1507 26.9171C42.9952 26.707 42.6346 26.6863 42.3645 26.8479C42.1043 27.0034 41.9313 27.1145 41.9407 27.4946ZM36.5812 27.6977C36.0721 27.6354 35.4747 28.3647 36.2386 28.6865C36.7767 28.9133 37.2075 28.2798 36.5812 27.6977ZM34.8284 27.7698C34.1614 27.8467 33.936 28.4851 34.7342 28.705C35.0993 28.8056 35.3635 28.6233 35.3579 28.3203C35.3551 28.174 35.2954 28.0904 35.1613 28.0134C34.7356 27.7691 35.0484 27.9324 34.8284 27.7698ZM53.6447 35.3188C53.0489 35.4974 53.4941 36.5301 54.1069 36.1101C54.6229 35.7565 54.5659 35.0427 53.6447 35.3188ZM40.2452 29.8097C41.2087 29.4005 39.9473 28.7679 39.7315 28.8303C39.2443 28.9712 39.4265 29.7545 40.2452 29.8097ZM42.8634 31.9464C42.0863 32.1551 42.2173 32.89 42.9547 32.847C43.2483 32.8298 43.4701 32.5896 43.4347 32.2975C43.401 32.0199 43.085 31.887 42.8634 31.9464ZM49.1502 34.177C48.5194 34.4278 49.0635 35.4183 49.5407 35.1334C49.9444 34.8924 49.9358 33.8648 49.1502 34.177ZM46.2223 34.1716C46.0248 34.1117 45.943 34.1677 45.8266 34.2534C45.7569 34.3047 44.9372 34.6834 45.4786 35.2022C45.9983 35.7003 46.3529 34.5756 46.2223 34.1716ZM48.7525 29.1132C48.1675 29.0972 47.6987 30.0879 48.2131 30.1843C48.7567 30.2861 49.0217 29.8829 48.931 29.4277C48.8955 29.2501 48.8463 29.217 48.7525 29.1132ZM56.1533 32.9771C55.6946 33.1877 55.6162 34.3136 56.404 33.9701C56.9003 33.7536 56.7582 32.6992 56.1533 32.9771ZM41.891 29.1474C41.6926 29.2451 41.4629 29.4355 41.4891 29.7323C41.5152 30.0265 41.7231 30.1872 42.082 30.1113C42.8206 29.9553 42.3424 28.9253 41.891 29.1474ZM48.1812 37.6551C48.3567 37.6966 48.8937 37.5736 49.004 37.4787C49.1856 37.3222 49.2429 36.9145 49.0401 36.7641C48.7297 36.5342 47.8164 37.0974 48.1812 37.6551ZM45.32 30.3483C45.1496 30.2267 44.899 30.138 44.6315 30.1294C44.1894 30.7715 44.4527 31.5271 44.9112 31.1059C45.0555 30.9733 45.403 30.8484 45.32 30.3483ZM50.0308 33.6219C49.9496 34.1564 51.0721 34.531 51.2344 34.188C51.3541 33.9352 51.0704 33.6505 50.9118 33.5693C50.6701 33.4456 50.2521 33.5052 50.0308 33.6219ZM59.3545 32.9683C59.3606 32.7715 59.0704 32.0912 58.7709 32.042C58.5796 32.0105 58.4773 32.093 58.4059 32.1894C58.2548 32.3932 58.2823 32.7792 58.4759 32.9126C58.5594 32.9701 59.1969 32.9878 59.3545 32.9683ZM31.7873 27.5826C31.6078 27.4168 31.4849 27.2489 31.1684 27.4424C30.9706 27.5633 30.7891 27.7808 30.8417 28.0724C30.9246 28.5321 31.8842 28.4273 31.7873 27.5826ZM55.333 36.3935C55.5344 36.2048 55.6385 35.9998 55.5811 35.6192C55.3135 35.3733 54.8637 35.3978 54.7294 35.7522C54.6105 36.0657 54.658 36.4738 55.333 36.3935ZM53.2702 42.3209C53.4945 42.4903 53.6753 42.4856 53.8951 42.2823C54.0479 42.141 54.5134 41.3832 53.8404 41.4198C53.6104 41.4323 53.5671 41.4939 53.4792 41.6062C53.3277 41.7998 53.2001 41.9971 53.2702 42.3209ZM57.0605 36.3661C57.3465 36.3747 57.3121 36.3461 57.4562 36.209C57.874 35.811 57.9756 35.2356 57.6699 35.2334C57.5754 35.2328 57.0837 35.491 57.0124 35.606C56.828 35.9031 56.959 36.1536 57.0605 36.3661ZM40.4479 30.9167C41.0154 31.2772 41.596 30.5433 41.4147 30.231C41.1131 29.9952 40.9501 30.1053 40.7026 30.2615C40.511 30.3825 40.3486 30.6154 40.4479 30.9167ZM39.2855 27.4721C39.0856 27.5517 38.9886 27.9176 39.1165 28.1868C39.1866 28.3344 39.4801 28.5908 39.7348 28.4864C40.1445 28.3184 39.7469 27.2884 39.2855 27.4721ZM43.3569 31.9121L43.8355 31.9926C44.4979 30.8165 43.5145 30.7015 43.3389 31.1762C43.2242 31.4864 43.2655 31.661 43.3569 31.9121ZM63.4602 30.4673C63.4217 30.4895 63.2917 30.5286 63.2616 30.7342C63.2156 31.0488 63.7245 31.772 64.1887 31.0049C64.3605 30.7209 63.8569 30.237 63.4602 30.4673ZM60.5952 33.548C61.0933 33.6313 61.5872 33.2032 61.4898 32.818C60.7098 32.4625 60.2012 33.0639 60.5952 33.548ZM39.6774 26.8981C39.697 27.2171 39.8608 27.2278 40.1402 27.3393C40.4831 27.476 40.6294 27.5217 40.9354 27.3486L40.9339 26.9706C40.5995 26.8087 39.9779 26.5864 39.6774 26.8981ZM52.7782 33.0217C52.505 33.2575 52.3084 34.3549 52.9917 34.0127C53.5383 33.7388 53.3968 32.9683 52.7782 33.0217ZM49.8843 28.9356C49.1269 28.8899 49.118 29.7063 49.484 29.891C49.9556 30.1288 50.3212 29.2981 49.8843 28.9356ZM42.5819 31.16C43.2567 31.119 43.2605 30.241 42.7412 30.0639C42.2588 30.1979 42.1617 30.8844 42.5819 31.16ZM56.6717 31.9074C56.7375 32.3973 57.1476 32.6594 57.7525 32.5644C57.9 32.2515 57.8219 32.0564 57.503 31.951C57.0977 31.817 57.1403 31.6994 56.6717 31.9074ZM41.9871 34.0908C42.4787 33.9576 42.3834 33.1361 42.1515 32.8398C41.776 32.7994 41.4733 32.9613 41.5989 33.3425C41.654 33.5098 41.7934 33.513 41.8589 33.6392C41.9211 33.7592 41.9052 33.9434 41.9871 34.0908ZM57.0266 38.6402C57.5413 38.4272 57.4743 37.5885 57.0153 37.551C56.6428 37.5206 56.3716 38.4923 57.0266 38.6402ZM54.854 35.1324C55.466 35.4986 55.8427 34.7798 55.4352 34.4895C55.061 34.2227 54.4715 34.511 54.7213 35.0026C54.787 35.1318 54.7933 35.0928 54.854 35.1324ZM37.7535 28.0639C38.1505 27.7049 37.9512 27.2642 37.5899 27.0262C37.3589 27.1223 37.1586 27.329 37.1632 27.6339C37.168 27.954 37.3961 28.094 37.7535 28.0639ZM53.2675 34.1987C53.0201 34.3555 53.1688 34.621 53.3199 34.7758C53.4445 34.9037 53.7303 35.0746 53.9276 34.8671C54.0279 34.7617 54.1455 34.3643 54.0562 34.2468C53.9415 34.0959 53.4433 34.0872 53.2675 34.1987ZM47.2965 38.4271C47.1406 38.3184 46.6353 38.3565 46.6115 38.3684C46.3135 38.5169 46.2026 39.3802 46.7049 39.2725C46.9126 39.228 46.9388 39.0268 47.0351 38.847C47.1562 38.6206 47.0965 38.8136 47.2616 38.6604C47.3621 38.5672 47.3555 38.5042 47.2965 38.4271ZM57.5919 29.4744C57.538 29.668 57.3486 30.2378 57.662 30.3737C58.1744 30.4254 58.3232 30.0968 58.2412 29.6333C57.8985 29.3742 58.0148 29.4165 57.5919 29.4744ZM62.5836 30.0404C62.0131 29.6323 61.4685 30.0776 61.6533 30.4185C61.7914 30.6732 62.6869 30.9231 62.5836 30.0404ZM47.7279 35.0207C48.5816 35.0574 48.5458 34.3188 48.1372 34.2275C47.4825 34.0812 47.2921 34.6827 47.7279 35.0207ZM63.4322 32.4521L64.032 32.5916C64.0131 32.0137 64.5347 32.1318 63.9852 31.6989C63.8626 31.6024 63.7608 31.5562 63.6248 31.6626C63.4939 31.7649 63.2812 32.1451 63.4322 32.4521ZM60.4254 30.569C60.7903 30.6156 60.8782 30.5079 61.0588 30.3467C61.0753 29.9347 61.0647 29.6228 60.575 29.6509C60.3406 29.8906 60.1245 30.2575 60.4254 30.569ZM40.8529 25.8414C40.6826 26.2907 41.1848 26.9948 41.6412 26.5626C42.0709 26.1556 41.2145 25.909 41.2132 25.9084C41.0274 25.8175 41.1323 25.7786 40.8529 25.8414ZM52.0784 32.1206C51.3925 32.329 51.8108 33.09 52.2873 32.9213C52.6518 32.7923 52.7649 31.9119 52.0784 32.1206ZM43.7825 30.306C43.8658 30.2069 44.1805 29.9008 44.2183 29.8294C44.4104 29.4663 44.0898 29.4094 43.7995 29.5025C43.3708 29.64 42.8403 30.3147 43.7825 30.306ZM29.7834 26.0124C28.8232 25.9627 29.2827 26.9003 29.4209 26.9312C29.6037 26.9722 29.9019 26.7317 29.9592 26.6208C30.0747 26.3977 29.9005 26.1406 29.7834 26.0124ZM54.361 43.3023C54.8764 43.3149 55.2313 42.9038 54.8894 42.5432C54.8873 42.542 54.2696 42.467 54.1821 42.6445C54.0392 42.9346 54.1948 43.1578 54.361 43.3023ZM57.6108 32.8843C57.2854 33.1196 57.0912 34.0121 57.8102 33.847C58.0566 33.7903 58.1127 33.5427 58.0443 33.3097C57.9781 33.0843 57.8091 32.9646 57.6108 32.8843ZM52.0233 34.1302C51.2758 34.5178 51.8596 35.2821 52.4446 34.673C52.7369 34.3686 52.4291 33.9197 52.0233 34.1302ZM57.9739 35.0979C58.3739 34.9146 58.4318 34.7512 58.3137 34.1953C58.2445 33.8699 58.2028 33.9355 58.1419 33.899C57.9733 33.9767 57.8389 34.2145 57.7653 34.4373C57.6904 34.664 57.8797 34.9842 57.9739 35.0979ZM59.3851 34.0163C59.4933 33.748 59.4858 33.6982 59.2225 33.5448C59.1119 33.4804 58.7853 33.2749 58.586 33.3839C58.4592 33.4532 58.4328 34.1918 59.3851 34.0163ZM65.4174 30.2021C64.761 30.1785 64.704 30.744 65.0729 30.8997C65.3247 31.0059 65.5443 30.8405 65.5971 30.6802C65.6749 30.4444 65.5587 30.3159 65.4174 30.2021ZM38.3334 27.2791C38.6359 27.3029 38.7454 27.1914 38.8605 26.9981C38.8753 26.6687 38.5486 26.4087 38.2535 26.6329C37.918 26.8877 38.0781 27.1331 38.3334 27.2791ZM61.849 28.8105C61.5105 28.4592 61.1089 28.6155 61.1538 28.9542C61.1714 29.0871 61.2824 29.2266 61.37 29.2621C61.6786 29.3868 61.8779 29.0898 61.849 28.8105ZM52.1917 30.1689C52.2955 30.0278 52.4686 29.7575 52.3002 29.4479C51.8691 29.2738 51.3951 30.15 52.1917 30.1689Z" fill="#2B2A29"/>
<defs>
<filter id="filter0_d" x="0" y="0" width="76" height="75" filterUnits="userSpaceOnUse" color-interpolation-filters="sRGB">
<feFlood flood-opacity="0" result="BackgroundImageFix"/>
<feColorMatrix in="SourceAlpha" type="matrix" values="0 0 0 0 0 0 0 0 0 0 0 0 0 0 0 0 0 0 127 0"/>
<feOffset/>
<feGaussianBlur stdDeviation="5"/>
<feColorMatrix type="matrix" values="0 0 0 0 0 0 0 0 0 0 0 0 0 0 0 0 0 0 0.1 0"/>
<feBlend mode="normal" in2="BackgroundImageFix" result="effect1_dropShadow"/>
<feBlend mode="normal" in="SourceGraphic" in2="effect1_dropShadow" result="shape"/>
</filter>
</defs>
</svg>
