<svg width="154" height="55" viewBox="0 0 154 55" fill="none" xmlns="http://www.w3.org/2000/svg">
<path d="M21.5136 20.4288C22.6692 20.4458 23.773 20.4543 24.8204 20.4543C26.6081 20.4543 28.0104 20.4458 29.0233 20.4288C28.9151 21.5648 28.8068 23.1774 28.6943 25.258C28.5861 27.3428 28.5169 28.9128 28.4909 29.9765C27.517 30.1509 26.7119 30.2786 26.0757 30.3594C25.435 30.4403 24.669 30.5083 23.773 30.5721C22.8771 30.6359 22.0763 30.6657 21.3751 30.6657C20.2237 30.6657 19.0983 30.5765 17.9903 30.3935C16.8823 30.2105 15.891 29.9127 15.0124 29.5084C14.138 29.1001 13.4109 28.5468 12.8266 27.8491C12.2422 27.1514 11.7921 26.3217 11.476 25.3686C11.1601 24.4112 11 23.4242 11 22.3988C11 20.7139 11.4285 19.1481 12.2811 17.7014C13.1338 16.2548 14.3631 15.1102 15.9646 14.2636C17.5661 13.4212 19.635 13 22.1715 13C24.024 13 26.0714 13.2212 28.3221 13.6636C28.3221 14.872 28.374 16.2166 28.4779 17.6973C27.8677 17.4972 27.3785 17.3483 27.002 17.242C26.6254 17.1399 26.1838 17.042 25.6818 16.9569C25.1796 16.8675 24.6993 16.8037 24.2491 16.7654C23.7947 16.7229 23.392 16.7016 23.0372 16.7016C22.1066 16.7016 21.2279 16.8335 20.3969 17.0931C19.5701 17.3568 18.8559 17.7568 18.2629 18.3014C17.6656 18.8418 17.2198 19.4927 16.9255 20.2458C16.6269 21.0032 16.4797 21.7989 16.4797 22.637C16.4797 23.488 16.6485 24.2496 16.9861 24.9176C17.3281 25.5855 17.8648 26.092 18.6006 26.4408C19.3364 26.7896 20.1587 26.9642 21.0677 26.9642C21.8209 26.9642 22.6476 26.8534 23.5435 26.6323L23.6734 23.9773C23.128 23.9602 22.8034 23.9517 22.7038 23.9517L21.362 23.9645L21.4486 22.4286C21.4573 22.2625 21.4703 22.0201 21.4876 21.7095C21.5049 21.3988 21.5136 20.9691 21.5136 20.4288ZM32.6418 21.2202C32.802 20.4032 32.9015 19.8417 32.9448 19.531C32.9881 19.2247 33.0574 18.7396 33.1482 18.0802C35.5808 17.5525 37.6713 17.2887 39.4156 17.2887C40.4112 17.2887 41.3246 17.3994 42.1512 17.6207C42.978 17.8376 43.6229 18.1951 44.086 18.6844C44.5492 19.1737 44.7829 19.8756 44.7829 20.7904C44.7829 21.2542 44.7179 22.3009 44.5924 23.9304C44.4669 25.5558 44.3716 27.6918 44.3068 30.3339C43.4757 30.3169 42.6491 30.3084 41.8309 30.3084C41.0345 30.3084 40.1861 30.3169 39.2902 30.3339C39.407 29.4191 39.5325 27.5301 39.6754 24.6665C39.3552 24.8197 39.104 24.9304 38.9222 24.9942C38.7405 25.0623 38.4245 25.1643 37.97 25.3005C37.5112 25.4366 37.1563 25.5473 36.9009 25.6409C36.6455 25.7345 36.4205 25.8536 36.23 25.9983C36.0396 26.1387 35.9054 26.2876 35.8274 26.4408C35.7453 26.5897 35.7063 26.7599 35.7063 26.947C35.7063 27.2322 35.8231 27.479 36.0525 27.6832C36.2819 27.8832 36.6455 27.9853 37.1476 27.9853C37.3251 27.9853 37.5155 27.9724 37.7233 27.9427C37.9267 27.913 38.208 27.8449 38.563 27.73C38.3163 28.3597 38.022 29.2787 37.68 30.4871C36.9529 30.6062 36.2647 30.6657 35.6154 30.6657C34.568 30.6657 33.6936 30.5211 32.9968 30.236C32.2998 29.9467 31.7631 29.4829 31.3865 28.8447C31.01 28.2023 30.8239 27.5641 30.8239 26.9216C30.8239 26.5301 30.8931 26.1472 31.0316 25.7728C31.1702 25.3984 31.3865 25.0325 31.6852 24.6751C31.9796 24.3176 32.3259 24.0113 32.7197 23.7603C33.1178 23.505 33.659 23.2667 34.3429 23.0413C35.031 22.8158 35.9011 22.6072 36.9571 22.4073C37.3944 22.3221 37.7969 22.2327 38.1648 22.1391C38.5283 22.0413 38.7924 21.9605 38.9482 21.8882C39.104 21.8158 39.2296 21.735 39.3249 21.6414C39.4243 21.5435 39.4936 21.4456 39.5325 21.3436C39.5758 21.2371 39.5975 21.1308 39.5975 21.0159C39.5975 20.6969 39.4633 20.45 39.195 20.2799C38.9265 20.1054 38.5283 20.0203 38.009 20.0203C36.5589 20.0203 34.7714 20.4202 32.6418 21.2202ZM47.1461 30.3339L47.5487 24.7942L47.6786 21.6116C47.6872 21.0372 47.6915 20.4543 47.6915 19.8543C47.6915 19.2459 47.6829 18.4929 47.6655 17.5951C48.6871 17.612 49.5009 17.6207 50.0982 17.6207C50.8037 17.6207 51.6087 17.612 52.522 17.5951L52.4657 19.0204C52.7991 18.6546 53.0717 18.3822 53.2839 18.2036C53.4959 18.0248 53.7339 17.8631 54.0067 17.7185C54.2793 17.5738 54.565 17.4632 54.8593 17.3951C55.158 17.3228 55.4652 17.2887 55.7899 17.2887C56.093 17.2887 56.4349 17.3314 56.8072 17.4164C56.8158 18.3226 56.8373 19.0673 56.8721 19.6587L56.9629 21.5776C56.4954 21.4415 56.0583 21.3734 55.6514 21.3734C55.1406 21.3734 54.7035 21.4456 54.3356 21.5903C53.9678 21.735 53.6386 21.9562 53.3531 22.2541C53.0717 22.5476 52.8423 22.9136 52.6736 23.356C52.5047 23.7943 52.3835 24.4922 52.3186 25.4495C52.2493 26.4024 52.2148 27.496 52.2148 28.7256C52.2148 29.1596 52.232 29.6957 52.2666 30.3339C51.4443 30.3169 50.6175 30.3084 49.7907 30.3084C48.9684 30.3084 48.0854 30.3169 47.1461 30.3339ZM59.5254 21.2202C59.6855 20.4032 59.785 19.8417 59.8283 19.531C59.8715 19.2247 59.9409 18.7396 60.0317 18.0802C62.4643 17.5525 64.5549 17.2887 66.2992 17.2887C67.2948 17.2887 68.208 17.3994 69.0347 17.6207C69.8615 17.8376 70.5063 18.1951 70.9696 18.6844C71.4326 19.1737 71.6664 19.8756 71.6664 20.7904C71.6664 21.2542 71.6015 22.3009 71.4759 23.9304C71.3504 25.5558 71.2552 27.6918 71.1902 30.3339C70.3593 30.3169 69.5325 30.3084 68.7144 30.3084C67.918 30.3084 67.0697 30.3169 66.1737 30.3339C66.2906 29.4191 66.4161 27.5301 66.5588 24.6665C66.2386 24.8197 65.9876 24.9304 65.8058 24.9942C65.624 25.0623 65.308 25.1643 64.8535 25.3005C64.3947 25.4366 64.0398 25.5473 63.7844 25.6409C63.5291 25.7345 63.304 25.8536 63.1136 25.9983C62.9231 26.1387 62.7889 26.2876 62.7109 26.4408C62.6287 26.5897 62.5898 26.7599 62.5898 26.947C62.5898 27.2322 62.7066 27.479 62.936 27.6832C63.1654 27.8832 63.5291 27.9853 64.0312 27.9853C64.2085 27.9853 64.3991 27.9724 64.6069 27.9427C64.8103 27.913 65.0916 27.8449 65.4465 27.73C65.1999 28.3597 64.9055 29.2787 64.5635 30.4871C63.8364 30.6062 63.1482 30.6657 62.4989 30.6657C61.4514 30.6657 60.5771 30.5211 59.8802 30.236C59.1834 29.9467 58.6467 29.4829 58.27 28.8447C57.8935 28.2023 57.7074 27.5641 57.7074 26.9216C57.7074 26.5301 57.7766 26.1472 57.9151 25.7728C58.0537 25.3984 58.27 25.0325 58.5688 24.6751C58.8631 24.3176 59.2093 24.0113 59.6032 23.7603C60.0014 23.505 60.5424 23.2667 61.2263 23.0413C61.9146 22.8158 62.7846 22.6072 63.8407 22.4073C64.2779 22.3221 64.6804 22.2327 65.0483 22.1391C65.4119 22.0413 65.6759 21.9605 65.8317 21.8882C65.9876 21.8158 66.1131 21.735 66.2083 21.6414C66.3079 21.5435 66.3771 21.4456 66.4161 21.3436C66.4594 21.2371 66.481 21.1308 66.481 21.0159C66.481 20.6969 66.3468 20.45 66.0785 20.2799C65.8101 20.1054 65.4119 20.0203 64.8924 20.0203C63.4425 20.0203 61.6548 20.4202 59.5254 21.2202ZM73.9258 30.3339C74.1725 28.4448 74.3587 26.36 74.4884 24.0751C74.6183 21.7946 74.7006 19.6331 74.7222 17.5951C75.7394 17.612 76.6181 17.6207 77.3538 17.6207C78.2109 17.6207 79.0333 17.612 79.821 17.5951L79.7085 19.2928C79.9855 18.9864 80.2236 18.7439 80.4271 18.5695C80.6305 18.3908 80.8814 18.2162 81.1802 18.0504C81.4832 17.8802 81.7991 17.744 82.1368 17.6334C82.4743 17.527 82.8423 17.4419 83.2448 17.3823C83.6473 17.3185 84.0672 17.2887 84.5043 17.2887C85.1104 17.2887 85.7033 17.3526 86.2833 17.4802C86.859 17.6078 87.3438 17.7908 87.7332 18.0291C88.1185 18.2632 88.4432 18.5567 88.7072 18.9098C88.9669 19.263 89.1401 19.6417 89.2265 20.0458C89.3089 20.45 89.3521 20.8712 89.3521 21.301C89.3521 21.6159 89.3175 22.3009 89.2482 23.3476L89.0361 27.8619C88.9928 28.7554 88.9712 29.5765 88.9712 30.3339C88.1141 30.3169 87.3178 30.3084 86.5733 30.3084C85.5648 30.3084 84.6472 30.3169 83.8205 30.3339C83.8984 29.5765 83.985 28.4532 84.0715 26.9599C84.1581 25.4664 84.2056 24.4155 84.2056 23.807C84.2056 22.871 84.0196 22.2201 83.6516 21.8498C83.2837 21.4797 82.8163 21.2967 82.2579 21.2967C81.7646 21.2967 81.3013 21.4542 80.8642 21.7691C80.4271 22.0881 80.0937 22.5434 79.8556 23.1476C79.6176 23.7518 79.4488 24.7431 79.3536 26.1218C79.254 27.5003 79.1892 28.9043 79.1545 30.3339C78.3105 30.3169 77.4837 30.3084 76.6786 30.3084C75.8346 30.3084 74.917 30.3169 73.9258 30.3339ZM101.16 26.6833C101.008 27.3811 100.874 28.0661 100.766 28.7341L100.485 30.2574C99.645 30.4318 98.9915 30.5467 98.5239 30.5934C98.0521 30.6403 97.5977 30.6657 97.1561 30.6657C96.4377 30.6657 95.7971 30.6062 95.2387 30.4829C94.6803 30.3637 94.2129 30.1425 93.8407 29.8233C93.4683 29.5043 93.2129 29.1341 93.0788 28.7214C92.9446 28.3044 92.8754 27.8619 92.8754 27.398C92.8754 27.313 92.8798 27.1683 92.8884 26.9557C92.8971 26.7429 92.9274 26.2706 92.975 25.5387L93.252 21.2202H91.2653C91.3086 20.6458 91.3475 19.8926 91.3778 18.9566L91.4167 17.7993H93.5246C93.5766 17.4164 93.6416 16.5824 93.7151 15.2975L95.8879 14.855C96.2862 14.7784 97.1345 14.5869 98.433 14.2763C98.3725 15.3656 98.3292 16.5399 98.3076 17.7993H101.186C101.117 19.5225 101.086 20.6627 101.086 21.2202H98.1777L98.0262 24.3431C98.0089 24.807 98.0001 25.1048 98.0001 25.2409C98.0001 25.6409 98.0434 25.9728 98.1344 26.2408C98.221 26.5047 98.3811 26.6961 98.6062 26.8152C98.8313 26.9301 99.078 26.9897 99.3507 26.9897C99.5541 26.9897 99.7661 26.9768 99.987 26.947C100.208 26.9173 100.597 26.8322 101.16 26.6833ZM103.753 30.3339C103.93 28.5044 104.047 27.0662 104.107 26.0195C104.194 24.5857 104.276 22.6242 104.354 20.131C104.437 17.6334 104.475 15.8762 104.475 14.855C104.475 14.4891 104.471 13.97 104.462 13.3063C105.588 13.3318 106.479 13.3446 107.137 13.3446C108.059 13.3446 109.128 13.3233 110.353 13.2893C111.578 13.2509 112.63 13.2297 113.509 13.2297C114.565 13.2297 115.318 13.2595 115.764 13.319C116.357 13.3956 116.876 13.5276 117.318 13.719C117.764 13.9105 118.131 14.1444 118.426 14.4296C118.755 14.7614 119.014 15.1614 119.201 15.6251C119.413 16.157 119.517 16.7272 119.517 17.3356C119.517 17.8078 119.456 18.2588 119.335 18.6929C119.209 19.1268 119.036 19.5098 118.811 19.8458C118.59 20.1819 118.339 20.4628 118.058 20.6883C117.781 20.9138 117.508 21.0883 117.24 21.2117C116.976 21.335 116.621 21.4627 116.171 21.5861C116.617 21.6583 116.976 21.7477 117.244 21.8413C117.517 21.9349 117.802 22.0924 118.11 22.3052C118.417 22.5136 118.694 22.786 118.941 23.1221C119.183 23.4539 119.365 23.8241 119.491 24.2368C119.612 24.6495 119.672 25.0835 119.672 25.5431C119.672 26.1727 119.568 26.7684 119.356 27.3258C119.144 27.8832 118.85 28.364 118.469 28.7596C118.149 29.1043 117.729 29.3936 117.214 29.6361C116.699 29.8744 116.171 30.0446 115.634 30.134C115.192 30.202 114.392 30.2488 113.232 30.2828C112.072 30.3169 110.842 30.3339 109.54 30.3339L106.211 30.3212L103.753 30.3339ZM109.423 19.9437H111.21C111.799 19.9437 112.215 19.9311 112.466 19.9013C112.712 19.8715 112.955 19.8203 113.189 19.7438C113.422 19.6671 113.626 19.5438 113.799 19.3693C113.972 19.1949 114.093 18.9992 114.162 18.7822C114.236 18.5652 114.271 18.3524 114.271 18.1355C114.271 17.8248 114.197 17.5525 114.05 17.31C113.903 17.0674 113.665 16.8888 113.34 16.7739C113.011 16.6591 112.509 16.5995 111.838 16.5995H109.57L109.423 19.9437ZM109.12 26.913H111.539C112.18 26.913 112.647 26.8748 112.95 26.8025C113.323 26.7088 113.604 26.5897 113.794 26.4365C113.989 26.2876 114.141 26.0834 114.258 25.8238C114.37 25.5685 114.426 25.2792 114.426 24.9644C114.426 24.6878 114.379 24.4452 114.288 24.2368C114.197 24.0283 114.058 23.8539 113.872 23.7135C113.686 23.573 113.461 23.4709 113.193 23.4071C112.924 23.3433 112.505 23.3136 111.933 23.3136H109.276L109.12 26.913ZM129.515 17.2887C130.567 17.2887 131.575 17.4462 132.545 17.761C133.515 18.0802 134.333 18.5312 134.999 19.1268C135.67 19.7225 136.163 20.416 136.479 21.2117C136.795 22.003 136.956 22.8583 136.956 23.773C136.956 24.6623 136.813 25.5047 136.531 26.3088C136.246 27.1088 135.765 27.8619 135.09 28.564C134.411 29.2659 133.549 29.7935 132.506 30.1424C131.463 30.4914 130.355 30.6657 129.186 30.6657C128.113 30.6657 127.078 30.5126 126.087 30.2062C125.1 29.8957 124.269 29.4489 123.607 28.8575C122.94 28.2662 122.443 27.5599 122.109 26.7386C121.776 25.9174 121.607 25.0494 121.607 24.1475C121.607 23.2412 121.772 22.3733 122.096 21.552C122.421 20.7309 122.936 19.9905 123.646 19.3353C124.351 18.6757 125.226 18.1738 126.264 17.8206C127.308 17.4675 128.39 17.2887 129.515 17.2887ZM129.429 20.9649C128.887 20.9649 128.403 21.101 127.979 21.3734C127.559 21.6499 127.238 22.0498 127.022 22.5732C126.806 23.1008 126.697 23.6752 126.697 24.2964C126.697 25.2069 126.931 25.9047 127.394 26.3898C127.862 26.8748 128.446 27.1174 129.147 27.1174C129.68 27.1174 130.16 26.9768 130.584 26.7003C131.004 26.4238 131.324 26.011 131.541 25.4706C131.757 24.926 131.865 24.3474 131.865 23.722C131.865 23.2114 131.779 22.7476 131.61 22.3306C131.441 21.918 131.164 21.5861 130.779 21.3394C130.394 21.0883 129.944 20.9649 129.429 20.9649ZM137.449 30.3339L140.34 26.5556L142.487 23.6582L138.514 17.5951C139.747 17.612 140.808 17.6207 141.695 17.6207C142.812 17.6207 143.73 17.612 144.448 17.5951L145.786 20.4543C145.868 20.6287 145.993 20.8969 146.149 21.2627C146.803 20.165 147.573 18.9438 148.46 17.5951C149.214 17.612 150.114 17.6207 151.161 17.6207C152.135 17.6207 153.062 17.612 153.94 17.5951L151.91 20.2161C151.512 20.7309 150.664 21.8627 149.361 23.6071C150.14 24.9304 151.564 27.1726 153.629 30.3339C152.672 30.3169 151.733 30.3084 150.802 30.3084C149.668 30.3084 148.655 30.3169 147.759 30.3339C147.205 29.1682 146.785 28.3086 146.491 27.7512C146.197 27.1939 145.95 26.6833 145.746 26.2153L145.34 26.9046C145.214 27.1088 145.019 27.4194 144.755 27.8279L143.145 30.3339C142.232 30.3169 141.345 30.3084 140.479 30.3084C139.483 30.3084 138.471 30.3169 137.449 30.3339Z" fill="#2B2A29"/>
<path d="M118.679 39.6939H119.325L119.212 39.1416C119.149 38.7966 119.065 38.2099 119.016 37.8166H118.988C118.938 38.2099 118.861 38.7966 118.791 39.1416L118.679 39.6939ZM119.683 41.4263L119.521 40.6256H118.482L118.321 41.4263H117.288L118.468 36.5948H119.535L120.715 41.4263H119.683ZM113.681 41.4263L112.789 39.5972L112.515 40.0321V41.4263H111.532V36.5948H112.515V38.4446L112.768 37.9062L113.456 36.5948H114.593L113.344 38.7068L114.804 41.4263H113.681ZM106.857 40.5014C107.25 40.5014 107.454 40.3219 107.454 39.9769C107.454 39.6249 107.25 39.4453 106.878 39.4453H106.478V40.5014H106.857ZM106.836 37.5197H106.478V38.5275H106.871C107.152 38.5275 107.3 38.3479 107.3 38.0097C107.3 37.6854 107.159 37.5197 106.836 37.5197ZM107.896 38.9553C108.261 39.1624 108.479 39.5489 108.479 39.9837C108.479 40.8465 107.875 41.4263 107.033 41.4263H105.481V36.5948H107.012C107.77 36.5948 108.311 37.1471 108.311 37.9684C108.311 38.3342 108.156 38.7206 107.896 38.9553ZM100.525 39.6939H101.171L101.059 39.1416C100.996 38.7966 100.911 38.2099 100.862 37.8166H100.834C100.785 38.2099 100.708 38.7966 100.638 39.1416L100.525 39.6939ZM101.529 41.4263L101.368 40.6256H100.329L100.167 41.4263H99.135L100.315 36.5948H101.382L102.561 41.4263H101.529ZM96.8264 36.5948V37.5267H95.8644V41.4263H94.8393V37.5267H93.8773V36.5948H96.8264ZM89.5815 41.5091C88.6267 41.5091 88.065 40.9638 88.065 39.9493V38.0719C88.065 37.0503 88.6267 36.4982 89.5886 36.4982C90.5716 36.4982 91.1193 37.0503 91.1543 38.0719H90.1573C90.1293 37.6301 89.9606 37.4508 89.5815 37.4508C89.2796 37.4508 89.1041 37.6439 89.1041 38.0719V39.9493C89.1041 40.3634 89.2726 40.5567 89.5815 40.5567C89.9678 40.5567 90.1433 40.3771 90.1713 39.9493H91.1683C91.1473 40.9638 90.5785 41.5091 89.5815 41.5091ZM83.4181 40.5567C83.7902 40.5567 83.9798 40.315 83.9798 39.8596V38.1616C83.9798 37.706 83.7902 37.4645 83.4181 37.4645C83.046 37.4645 82.8564 37.706 82.8564 38.1616V39.8596C82.8564 40.315 83.046 40.5567 83.4181 40.5567ZM83.4181 41.5091C82.4211 41.5091 81.8242 40.8947 81.8242 39.8596V38.1616C81.8242 37.1263 82.4211 36.512 83.4181 36.512C84.4152 36.512 85.0119 37.1263 85.0119 38.1616V39.8596C85.0119 40.8947 84.4152 41.5091 83.4181 41.5091ZM77.5566 40.5083V37.5197H76.8042L76.7479 38.8932C76.727 39.4868 76.6216 40.0459 76.3689 40.5083H77.5566ZM78.5396 40.5083H78.9961V42.2476H78.006V41.4263H75.8785V42.2476H74.8954V40.5083H75.2115C75.6468 40.0459 75.7661 39.266 75.7919 38.6033L75.8691 36.5948H78.5396V40.5083ZM66.3447 38.9277H66.759V37.5267H66.3447C65.9937 37.5267 65.8042 37.7682 65.8042 38.2306C65.8042 38.6862 65.9937 38.9277 66.3447 38.9277ZM64.5333 41.4263L65.4601 39.6455C65.0248 39.3902 64.7791 38.9002 64.7791 38.2306C64.7791 37.1953 65.3548 36.5948 66.3307 36.5948H67.7561V41.4263H66.759V39.8596H66.408L65.6216 41.4263H64.5333ZM59.9777 39.6939H60.6237L60.5114 39.1416C60.4482 38.7966 60.3639 38.2099 60.3148 37.8166H60.2867C60.2376 38.2099 60.1603 38.7966 60.0901 39.1416L59.9777 39.6939ZM60.9817 41.4263L60.8203 40.6256H59.7811L59.6197 41.4263H58.5876L59.7671 36.5948H60.8343L62.0139 41.4263H60.9817ZM54.9798 41.4263L54.0881 39.5972L53.8143 40.0321V41.4263H52.8313V36.5948H53.8143V38.4446L54.0671 37.9062L54.7552 36.5948H55.8926L54.6428 38.7068L56.1033 41.4263H54.9798ZM48.2054 41.5091C47.2506 41.5091 46.6889 40.9638 46.6889 39.9493V38.0719C46.6889 37.0503 47.2506 36.4982 48.2125 36.4982C49.1955 36.4982 49.7432 37.0503 49.7783 38.0719H48.7812C48.7532 37.6301 48.5847 37.4508 48.2054 37.4508C47.9036 37.4508 47.7281 37.6439 47.7281 38.0719V39.9493C47.7281 40.3634 47.8965 40.5567 48.2054 40.5567C48.5917 40.5567 48.7672 40.3771 48.7953 39.9493H49.7924C49.7712 40.9638 49.2025 41.5091 48.2054 41.5091ZM42.0982 38.9415C42.4984 38.9415 42.709 38.7 42.709 38.2376C42.709 37.7682 42.4984 37.5267 42.0982 37.5267H41.684V38.9415H42.0982ZM42.1123 36.5948C43.1303 36.5948 43.7342 37.2022 43.7342 38.2376C43.7342 39.266 43.1303 39.8733 42.1123 39.8733H41.684V41.4263H40.6869V36.5948H42.1123ZM35.9347 40.4945H37.5426V41.4263H34.9377V36.5948H37.4724V37.5267H35.9347V38.5275H37.3319V39.4247H35.9347V40.4945ZM29.9748 40.529H30.2697C30.684 40.529 30.8736 40.3564 30.8736 39.9493C30.8736 39.5421 30.684 39.3625 30.2697 39.3625H29.9748V40.529ZM28.9708 41.4263V36.5948H29.9748V38.4308H30.354C31.4493 38.4308 31.9127 39.0657 31.9127 39.9493C31.9127 40.9638 31.4493 41.4263 30.354 41.4263H28.9708ZM24.3239 38.9415C24.7241 38.9415 24.9348 38.7 24.9348 38.2376C24.9348 37.7682 24.7241 37.5267 24.3239 37.5267H23.9097V38.9415H24.3239ZM24.338 36.5948C25.356 36.5948 25.9599 37.2022 25.9599 38.2376C25.9599 39.266 25.356 39.8733 24.338 39.8733H23.9097V41.4263H22.9127V36.5948H24.338ZM18.989 36.5948H20.0352L18.8907 40.246C18.5536 41.3296 18.1675 41.5091 17.2758 41.5091H17.0931V40.6395H17.3108C17.6548 40.6395 17.8023 40.5635 17.9568 40.108L16.7492 36.5948H17.7953L18.4132 38.5688L18.989 36.5948ZM13.1484 41.4263L12.2568 39.5972L11.9829 40.0321V41.4263H11V36.5948H11.9829V38.4446L12.2357 37.9062L12.9239 36.5948H14.0612L12.8114 38.7068L14.2719 41.4263H13.1484Z" fill="#2B2A29"/>
</svg>
